<svg width="1440" height="900" viewBox="0 0 1440 900" fill="none" xmlns="http://www.w3.org/2000/svg">
<rect width="1440" height="900" fill="white"/>
<rect x="35.5" y="20.5" width="124" height="124" fill="white" stroke="black"/>
<rect x="51.5" y="73.5" width="92" height="49" fill="white" stroke="black"/>
<rect x="296.5" y="220.5" width="847" height="679" fill="white" stroke="black"/>
<rect x="321.5" y="329.5" width="789" height="49" fill="white"/>
<rect x="321.5" y="329.5" width="789" height="49" stroke="black"/>
<rect x="321.5" y="329.5" width="789" height="49" stroke="black"/>
<rect x="321.5" y="329.5" width="789" height="49" stroke="black"/>
<rect x="321.5" y="329.5" width="789" height="49" stroke="black"/>
<rect x="321.5" y="804.5" width="165" height="43" fill="white"/>
<rect x="321.5" y="804.5" width="165" height="43" stroke="black"/>
<rect x="321.5" y="804.5" width="165" height="43" stroke="black"/>
<rect x="321.5" y="804.5" width="165" height="43" stroke="black"/>
<rect x="321.5" y="804.5" width="165" height="43" stroke="black"/>
<path d="M389.488 835H387.328V817.864H396.904V819.76H389.488V825.832H396.448V827.728H389.488V835ZM400.565 817.312C400.885 817.312 401.165 817.424 401.405 817.648C401.661 817.856 401.789 818.192 401.789 818.656C401.789 819.104 401.661 819.44 401.405 819.664C401.165 819.888 400.885 820 400.565 820C400.213 820 399.917 819.888 399.677 819.664C399.437 819.44 399.317 819.104 399.317 818.656C399.317 818.192 399.437 817.856 399.677 817.648C399.917 817.424 400.213 817.312 400.565 817.312ZM401.597 822.136V835H399.485V822.136H401.597ZM407.785 835H405.673V816.76H407.785V835ZM416.828 821.896C417.932 821.896 418.876 822.136 419.66 822.616C420.46 823.096 421.068 823.776 421.484 824.656C421.916 825.52 422.132 826.536 422.132 827.704V828.976H413.324C413.356 830.432 413.724 831.544 414.428 832.312C415.148 833.064 416.148 833.44 417.428 833.44C418.244 833.44 418.964 833.368 419.588 833.224C420.228 833.064 420.884 832.84 421.556 832.552V834.4C420.9 834.688 420.252 834.896 419.612 835.024C418.972 835.168 418.212 835.24 417.332 835.24C416.116 835.24 415.036 834.992 414.092 834.496C413.164 834 412.436 833.264 411.908 832.288C411.396 831.296 411.14 830.088 411.14 828.664C411.14 827.256 411.372 826.048 411.836 825.04C412.316 824.032 412.98 823.256 413.828 822.712C414.692 822.168 415.692 821.896 416.828 821.896ZM416.804 823.624C415.796 823.624 414.996 823.952 414.404 824.608C413.828 825.248 413.484 826.144 413.372 827.296H419.924C419.908 826.208 419.652 825.328 419.156 824.656C418.66 823.968 417.876 823.624 416.804 823.624Z" fill="black"/>
<rect x="321.5" y="426.5" width="789" height="330" fill="white"/>
<rect x="321.5" y="426.5" width="789" height="330" stroke="black"/>
<rect x="321.5" y="426.5" width="789" height="330" stroke="black"/>
<rect x="321.5" y="426.5" width="789" height="330" stroke="black"/>
<rect x="321.5" y="426.5" width="789" height="330" stroke="black"/>
<path d="M322.2 310.344L331.248 306.576L322.2 302.28V300.408L333.504 306.048V307.248L322.2 312.216V310.344ZM348.721 315H346.561V299.76H341.209V297.864H354.049V299.76H348.721V315ZM357.425 297.312C357.745 297.312 358.025 297.424 358.265 297.648C358.521 297.856 358.649 298.192 358.649 298.656C358.649 299.104 358.521 299.44 358.265 299.664C358.025 299.888 357.745 300 357.425 300C357.073 300 356.777 299.888 356.537 299.664C356.297 299.44 356.177 299.104 356.177 298.656C356.177 298.192 356.297 297.856 356.537 297.648C356.777 297.424 357.073 297.312 357.425 297.312ZM358.457 302.136V315H356.345V302.136H358.457ZM366.828 313.512C367.148 313.512 367.476 313.488 367.812 313.44C368.148 313.376 368.42 313.312 368.628 313.248V314.856C368.404 314.968 368.084 315.056 367.668 315.12C367.252 315.2 366.852 315.24 366.468 315.24C365.796 315.24 365.172 315.128 364.596 314.904C364.036 314.664 363.58 314.256 363.228 313.68C362.876 313.104 362.7 312.296 362.7 311.256V303.768H360.876V302.76L362.724 301.92L363.564 299.184H364.812V302.136H368.532V303.768H364.812V311.208C364.812 311.992 364.996 312.576 365.364 312.96C365.748 313.328 366.236 313.512 366.828 313.512ZM376.172 301.896C377.276 301.896 378.22 302.136 379.004 302.616C379.804 303.096 380.412 303.776 380.828 304.656C381.26 305.52 381.476 306.536 381.476 307.704V308.976H372.668C372.7 310.432 373.068 311.544 373.772 312.312C374.492 313.064 375.492 313.44 376.772 313.44C377.588 313.44 378.308 313.368 378.932 313.224C379.572 313.064 380.228 312.84 380.9 312.552V314.4C380.244 314.688 379.596 314.896 378.956 315.024C378.316 315.168 377.556 315.24 376.676 315.24C375.46 315.24 374.38 314.992 373.436 314.496C372.508 314 371.78 313.264 371.252 312.288C370.74 311.296 370.484 310.088 370.484 308.664C370.484 307.256 370.716 306.048 371.18 305.04C371.66 304.032 372.324 303.256 373.172 302.712C374.036 302.168 375.036 301.896 376.172 301.896ZM376.148 303.624C375.14 303.624 374.34 303.952 373.748 304.608C373.172 305.248 372.828 306.144 372.716 307.296H379.268C379.252 306.208 378.996 305.328 378.5 304.656C378.004 303.968 377.22 303.624 376.148 303.624ZM386.863 315H384.751V296.76H386.863V315ZM403.293 301.896C404.877 301.896 406.149 302.448 407.109 303.552C408.085 304.656 408.573 306.32 408.573 308.544C408.573 310.736 408.085 312.4 407.109 313.536C406.149 314.672 404.869 315.24 403.269 315.24C402.277 315.24 401.453 315.056 400.797 314.688C400.157 314.304 399.653 313.864 399.285 313.368H399.141C399.173 313.64 399.205 313.984 399.237 314.4C399.269 314.816 399.285 315.176 399.285 315.48V320.76H397.173V302.136H398.901L399.189 303.888H399.285C399.669 303.328 400.173 302.856 400.797 302.472C401.421 302.088 402.253 301.896 403.293 301.896ZM402.909 303.672C401.597 303.672 400.669 304.04 400.125 304.776C399.597 305.512 399.317 306.632 399.285 308.136V308.544C399.285 310.128 399.541 311.352 400.053 312.216C400.581 313.064 401.549 313.488 402.957 313.488C403.741 313.488 404.381 313.272 404.877 312.84C405.389 312.408 405.765 311.824 406.005 311.088C406.261 310.336 406.389 309.48 406.389 308.52C406.389 307.048 406.101 305.872 405.525 304.992C404.965 304.112 404.093 303.672 402.909 303.672ZM417.938 301.896C418.178 301.896 418.434 301.912 418.706 301.944C418.994 301.96 419.242 301.992 419.45 302.04L419.186 303.984C418.978 303.936 418.746 303.896 418.49 303.864C418.25 303.832 418.018 303.816 417.794 303.816C417.138 303.816 416.522 304 415.946 304.368C415.37 304.72 414.906 305.224 414.554 305.88C414.218 306.52 414.05 307.272 414.05 308.136V315H411.938V302.136H413.666L413.906 304.488H414.002C414.418 303.784 414.954 303.176 415.61 302.664C416.266 302.152 417.042 301.896 417.938 301.896ZM432.568 308.544C432.568 310.672 432.024 312.32 430.936 313.488C429.864 314.656 428.408 315.24 426.568 315.24C425.432 315.24 424.416 314.984 423.52 314.472C422.64 313.944 421.944 313.184 421.432 312.192C420.92 311.184 420.664 309.968 420.664 308.544C420.664 306.416 421.2 304.776 422.272 303.624C423.344 302.472 424.8 301.896 426.64 301.896C427.808 301.896 428.832 302.16 429.712 302.688C430.608 303.2 431.304 303.952 431.8 304.944C432.312 305.92 432.568 307.12 432.568 308.544ZM422.848 308.544C422.848 310.064 423.144 311.272 423.736 312.168C424.344 313.048 425.304 313.488 426.616 313.488C427.912 313.488 428.864 313.048 429.472 312.168C430.08 311.272 430.384 310.064 430.384 308.544C430.384 307.024 430.08 305.832 429.472 304.968C428.864 304.104 427.904 303.672 426.592 303.672C425.28 303.672 424.328 304.104 423.736 304.968C423.144 305.832 422.848 307.024 422.848 308.544ZM435.747 298.656C435.747 298.192 435.867 297.856 436.107 297.648C436.347 297.424 436.643 297.312 436.995 297.312C437.315 297.312 437.595 297.424 437.835 297.648C438.091 297.856 438.219 298.192 438.219 298.656C438.219 299.104 438.091 299.44 437.835 299.664C437.595 299.888 437.315 300 436.995 300C436.643 300 436.347 299.888 436.107 299.664C435.867 299.44 435.747 299.104 435.747 298.656ZM434.403 320.76C434.003 320.76 433.651 320.728 433.347 320.664C433.043 320.616 432.779 320.552 432.555 320.472V318.768C432.795 318.832 433.043 318.888 433.299 318.936C433.555 318.984 433.835 319.008 434.139 319.008C434.651 319.008 435.075 318.864 435.411 318.576C435.747 318.304 435.915 317.776 435.915 316.992V302.136H438.027V316.92C438.027 318.12 437.739 319.056 437.163 319.728C436.587 320.416 435.667 320.76 434.403 320.76ZM447.071 301.896C448.175 301.896 449.119 302.136 449.903 302.616C450.703 303.096 451.311 303.776 451.727 304.656C452.159 305.52 452.375 306.536 452.375 307.704V308.976H443.567C443.599 310.432 443.967 311.544 444.671 312.312C445.391 313.064 446.391 313.44 447.671 313.44C448.487 313.44 449.207 313.368 449.831 313.224C450.471 313.064 451.127 312.84 451.799 312.552V314.4C451.143 314.688 450.495 314.896 449.855 315.024C449.215 315.168 448.455 315.24 447.575 315.24C446.359 315.24 445.279 314.992 444.335 314.496C443.407 314 442.679 313.264 442.151 312.288C441.639 311.296 441.383 310.088 441.383 308.664C441.383 307.256 441.615 306.048 442.079 305.04C442.559 304.032 443.223 303.256 444.071 302.712C444.935 302.168 445.935 301.896 447.071 301.896ZM447.047 303.624C446.039 303.624 445.239 303.952 444.647 304.608C444.071 305.248 443.727 306.144 443.615 307.296H450.167C450.151 306.208 449.895 305.328 449.399 304.656C448.903 303.968 448.119 303.624 447.047 303.624ZM460.809 315.24C459.673 315.24 458.657 315.008 457.761 314.544C456.881 314.08 456.185 313.36 455.673 312.384C455.177 311.408 454.929 310.16 454.929 308.64C454.929 307.056 455.193 305.768 455.721 304.776C456.249 303.784 456.961 303.056 457.857 302.592C458.769 302.128 459.801 301.896 460.953 301.896C461.609 301.896 462.241 301.968 462.849 302.112C463.457 302.24 463.953 302.4 464.337 302.592L463.689 304.344C463.305 304.2 462.857 304.064 462.345 303.936C461.833 303.808 461.353 303.744 460.905 303.744C458.377 303.744 457.113 305.368 457.113 308.616C457.113 310.168 457.417 311.36 458.025 312.192C458.649 313.008 459.569 313.416 460.785 313.416C461.489 313.416 462.105 313.344 462.633 313.2C463.177 313.056 463.673 312.88 464.121 312.672V314.544C463.689 314.768 463.209 314.936 462.681 315.048C462.169 315.176 461.545 315.24 460.809 315.24ZM471.477 313.512C471.797 313.512 472.125 313.488 472.461 313.44C472.797 313.376 473.069 313.312 473.277 313.248V314.856C473.053 314.968 472.733 315.056 472.317 315.12C471.901 315.2 471.501 315.24 471.117 315.24C470.445 315.24 469.821 315.128 469.245 314.904C468.685 314.664 468.229 314.256 467.877 313.68C467.525 313.104 467.349 312.296 467.349 311.256V303.768H465.525V302.76L467.373 301.92L468.213 299.184H469.461V302.136H473.181V303.768H469.461V311.208C469.461 311.992 469.645 312.576 470.013 312.96C470.397 313.328 470.885 313.512 471.477 313.512Z" fill="black"/>
<path d="M322.2 407.344L331.248 403.576L322.2 399.28V397.408L333.504 403.048V404.248L322.2 409.216V407.344ZM358.249 403.408C358.249 405.184 357.945 406.736 357.337 408.064C356.745 409.376 355.865 410.4 354.697 411.136C353.529 411.872 352.081 412.24 350.353 412.24C348.577 412.24 347.097 411.872 345.913 411.136C344.745 410.4 343.873 409.368 343.297 408.04C342.721 406.712 342.433 405.16 342.433 403.384C342.433 401.624 342.721 400.088 343.297 398.776C343.873 397.464 344.745 396.44 345.913 395.704C347.097 394.968 348.585 394.6 350.377 394.6C352.089 394.6 353.529 394.968 354.697 395.704C355.865 396.424 356.745 397.448 357.337 398.776C357.945 400.088 358.249 401.632 358.249 403.408ZM344.713 403.408C344.713 405.568 345.169 407.272 346.081 408.52C346.993 409.752 348.417 410.368 350.353 410.368C352.305 410.368 353.729 409.752 354.625 408.52C355.521 407.272 355.969 405.568 355.969 403.408C355.969 401.248 355.521 399.56 354.625 398.344C353.729 397.112 352.313 396.496 350.377 396.496C348.441 396.496 347.009 397.112 346.081 398.344C345.169 399.56 344.713 401.248 344.713 403.408ZM375.871 398.896C377.327 398.896 378.415 399.272 379.135 400.024C379.855 400.76 380.215 401.96 380.215 403.624V412H378.127V403.72C378.127 401.688 377.255 400.672 375.511 400.672C374.263 400.672 373.367 401.032 372.823 401.752C372.295 402.472 372.031 403.52 372.031 404.896V412H369.943V403.72C369.943 401.688 369.063 400.672 367.303 400.672C366.007 400.672 365.111 401.072 364.615 401.872C364.119 402.672 363.871 403.824 363.871 405.328V412H361.759V399.136H363.463L363.775 400.888H363.895C364.295 400.216 364.831 399.72 365.503 399.4C366.191 399.064 366.919 398.896 367.687 398.896C369.703 398.896 371.015 399.616 371.623 401.056H371.743C372.175 400.32 372.759 399.776 373.495 399.424C374.247 399.072 375.039 398.896 375.871 398.896ZM392.564 408.448C392.564 409.696 392.1 410.64 391.172 411.28C390.244 411.92 388.996 412.24 387.428 412.24C386.532 412.24 385.756 412.168 385.1 412.024C384.46 411.88 383.892 411.68 383.396 411.424V409.504C383.908 409.76 384.524 410 385.244 410.224C385.98 410.432 386.724 410.536 387.476 410.536C388.548 410.536 389.324 410.368 389.804 410.032C390.284 409.68 390.524 409.216 390.524 408.64C390.524 408.32 390.436 408.032 390.26 407.776C390.084 407.52 389.764 407.264 389.3 407.008C388.852 406.752 388.204 406.464 387.356 406.144C386.524 405.824 385.812 405.504 385.22 405.184C384.628 404.864 384.172 404.48 383.852 404.032C383.532 403.584 383.372 403.008 383.372 402.304C383.372 401.216 383.812 400.376 384.692 399.784C385.588 399.192 386.756 398.896 388.196 398.896C388.98 398.896 389.708 398.976 390.38 399.136C391.068 399.28 391.708 399.488 392.3 399.76L391.58 401.44C391.036 401.216 390.468 401.024 389.876 400.864C389.284 400.704 388.676 400.624 388.052 400.624C387.188 400.624 386.524 400.768 386.06 401.056C385.612 401.328 385.388 401.704 385.388 402.184C385.388 402.536 385.492 402.84 385.7 403.096C385.908 403.336 386.252 403.576 386.732 403.816C387.228 404.04 387.884 404.312 388.7 404.632C389.516 404.936 390.212 405.248 390.788 405.568C391.364 405.888 391.804 406.28 392.108 406.744C392.412 407.192 392.564 407.76 392.564 408.448ZM400.833 412.24C399.697 412.24 398.681 412.008 397.785 411.544C396.905 411.08 396.209 410.36 395.697 409.384C395.201 408.408 394.953 407.16 394.953 405.64C394.953 404.056 395.217 402.768 395.745 401.776C396.273 400.784 396.985 400.056 397.881 399.592C398.793 399.128 399.825 398.896 400.977 398.896C401.633 398.896 402.265 398.968 402.873 399.112C403.481 399.24 403.977 399.4 404.361 399.592L403.713 401.344C403.329 401.2 402.881 401.064 402.369 400.936C401.857 400.808 401.377 400.744 400.929 400.744C398.401 400.744 397.137 402.368 397.137 405.616C397.137 407.168 397.441 408.36 398.049 409.192C398.673 410.008 399.593 410.416 400.809 410.416C401.513 410.416 402.129 410.344 402.657 410.2C403.201 410.056 403.697 409.88 404.145 409.672V411.544C403.713 411.768 403.233 411.936 402.705 412.048C402.193 412.176 401.569 412.24 400.833 412.24ZM409.316 399.112C409.316 399.752 409.276 400.352 409.196 400.912H409.34C409.756 400.256 410.316 399.76 411.02 399.424C411.74 399.088 412.516 398.92 413.348 398.92C414.916 398.92 416.092 399.296 416.876 400.048C417.66 400.784 418.052 401.976 418.052 403.624V412H415.964V403.768C415.964 401.704 415.004 400.672 413.084 400.672C411.644 400.672 410.652 401.08 410.108 401.896C409.58 402.696 409.316 403.848 409.316 405.352V412H407.204V393.76H409.316V399.112ZM428.04 398.896C428.28 398.896 428.536 398.912 428.808 398.944C429.096 398.96 429.344 398.992 429.552 399.04L429.288 400.984C429.08 400.936 428.848 400.896 428.592 400.864C428.352 400.832 428.12 400.816 427.896 400.816C427.24 400.816 426.624 401 426.048 401.368C425.472 401.72 425.008 402.224 424.656 402.88C424.32 403.52 424.152 404.272 424.152 405.136V412H422.04V399.136H423.768L424.008 401.488H424.104C424.52 400.784 425.056 400.176 425.712 399.664C426.368 399.152 427.144 398.896 428.04 398.896ZM433.034 394.312C433.354 394.312 433.634 394.424 433.874 394.648C434.13 394.856 434.258 395.192 434.258 395.656C434.258 396.104 434.13 396.44 433.874 396.664C433.634 396.888 433.354 397 433.034 397C432.682 397 432.386 396.888 432.146 396.664C431.906 396.44 431.786 396.104 431.786 395.656C431.786 395.192 431.906 394.856 432.146 394.648C432.386 394.424 432.682 394.312 433.034 394.312ZM434.066 399.136V412H431.954V399.136H434.066ZM437.974 395.656C437.974 395.192 438.094 394.856 438.334 394.648C438.574 394.424 438.87 394.312 439.222 394.312C439.542 394.312 439.822 394.424 440.062 394.648C440.318 394.856 440.446 395.192 440.446 395.656C440.446 396.104 440.318 396.44 440.062 396.664C439.822 396.888 439.542 397 439.222 397C438.87 397 438.574 396.888 438.334 396.664C438.094 396.44 437.974 396.104 437.974 395.656ZM436.63 417.76C436.23 417.76 435.878 417.728 435.574 417.664C435.27 417.616 435.006 417.552 434.782 417.472V415.768C435.022 415.832 435.27 415.888 435.526 415.936C435.782 415.984 436.062 416.008 436.366 416.008C436.878 416.008 437.302 415.864 437.638 415.576C437.974 415.304 438.142 414.776 438.142 413.992V399.136H440.254V413.92C440.254 415.12 439.966 416.056 439.39 416.728C438.814 417.416 437.894 417.76 436.63 417.76ZM447.161 412L442.289 399.136H444.545L447.281 406.72C447.409 407.072 447.545 407.464 447.689 407.896C447.833 408.328 447.961 408.744 448.073 409.144C448.185 409.528 448.265 409.856 448.313 410.128H448.409C448.473 409.856 448.561 409.52 448.673 409.12C448.801 408.72 448.937 408.304 449.081 407.872C449.241 407.44 449.377 407.056 449.489 406.72L452.225 399.136H454.481L449.585 412H447.161ZM457.597 394.312C457.917 394.312 458.197 394.424 458.437 394.648C458.693 394.856 458.821 395.192 458.821 395.656C458.821 396.104 458.693 396.44 458.437 396.664C458.197 396.888 457.917 397 457.597 397C457.245 397 456.949 396.888 456.709 396.664C456.469 396.44 456.349 396.104 456.349 395.656C456.349 395.192 456.469 394.856 456.709 394.648C456.949 394.424 457.245 394.312 457.597 394.312ZM458.629 399.136V412H456.517V399.136H458.629ZM468.896 398.896C470.432 398.896 471.592 399.272 472.376 400.024C473.16 400.76 473.552 401.96 473.552 403.624V412H471.464V403.768C471.464 401.704 470.504 400.672 468.584 400.672C467.16 400.672 466.176 401.072 465.632 401.872C465.088 402.672 464.816 403.824 464.816 405.328V412H462.704V399.136H464.408L464.72 400.888H464.84C465.256 400.216 465.832 399.72 466.568 399.4C467.304 399.064 468.08 398.896 468.896 398.896ZM482.1 398.896C482.948 398.896 483.708 399.056 484.38 399.376C485.068 399.696 485.652 400.184 486.132 400.84H486.252L486.54 399.136H488.22V412.216C488.22 414.056 487.748 415.44 486.804 416.368C485.876 417.296 484.428 417.76 482.46 417.76C480.572 417.76 479.028 417.488 477.828 416.944V415C479.092 415.672 480.676 416.008 482.58 416.008C483.684 416.008 484.548 415.68 485.172 415.024C485.812 414.384 486.132 413.504 486.132 412.384V411.88C486.132 411.688 486.14 411.416 486.156 411.064C486.172 410.696 486.188 410.44 486.204 410.296H486.108C485.244 411.592 483.916 412.24 482.124 412.24C480.46 412.24 479.156 411.656 478.212 410.488C477.284 409.32 476.82 407.688 476.82 405.592C476.82 403.544 477.284 401.92 478.212 400.72C479.156 399.504 480.452 398.896 482.1 398.896ZM482.388 400.672C481.316 400.672 480.484 401.104 479.892 401.968C479.3 402.816 479.004 404.032 479.004 405.616C479.004 407.2 479.292 408.416 479.868 409.264C480.46 410.096 481.316 410.512 482.436 410.512C483.732 410.512 484.676 410.168 485.268 409.48C485.86 408.776 486.156 407.648 486.156 406.096V405.592C486.156 403.832 485.852 402.576 485.244 401.824C484.636 401.056 483.684 400.672 482.388 400.672ZM504.66 398.896C506.244 398.896 507.516 399.448 508.476 400.552C509.452 401.656 509.94 403.32 509.94 405.544C509.94 407.736 509.452 409.4 508.476 410.536C507.516 411.672 506.236 412.24 504.636 412.24C503.644 412.24 502.82 412.056 502.164 411.688C501.524 411.304 501.02 410.864 500.652 410.368H500.508C500.54 410.64 500.572 410.984 500.604 411.4C500.636 411.816 500.652 412.176 500.652 412.48V417.76H498.54V399.136H500.268L500.556 400.888H500.652C501.036 400.328 501.54 399.856 502.164 399.472C502.788 399.088 503.62 398.896 504.66 398.896ZM504.276 400.672C502.964 400.672 502.036 401.04 501.492 401.776C500.964 402.512 500.684 403.632 500.652 405.136V405.544C500.652 407.128 500.908 408.352 501.42 409.216C501.948 410.064 502.916 410.488 504.324 410.488C505.108 410.488 505.748 410.272 506.244 409.84C506.756 409.408 507.132 408.824 507.372 408.088C507.628 407.336 507.756 406.48 507.756 405.52C507.756 404.048 507.468 402.872 506.892 401.992C506.332 401.112 505.46 400.672 504.276 400.672ZM519.306 398.896C519.546 398.896 519.802 398.912 520.074 398.944C520.362 398.96 520.61 398.992 520.818 399.04L520.554 400.984C520.346 400.936 520.114 400.896 519.858 400.864C519.618 400.832 519.386 400.816 519.162 400.816C518.506 400.816 517.89 401 517.314 401.368C516.738 401.72 516.274 402.224 515.922 402.88C515.586 403.52 515.418 404.272 515.418 405.136V412H513.306V399.136H515.034L515.274 401.488H515.37C515.786 400.784 516.322 400.176 516.978 399.664C517.634 399.152 518.41 398.896 519.306 398.896ZM533.935 405.544C533.935 407.672 533.391 409.32 532.303 410.488C531.231 411.656 529.775 412.24 527.935 412.24C526.799 412.24 525.783 411.984 524.887 411.472C524.007 410.944 523.311 410.184 522.799 409.192C522.287 408.184 522.031 406.968 522.031 405.544C522.031 403.416 522.567 401.776 523.639 400.624C524.711 399.472 526.167 398.896 528.007 398.896C529.175 398.896 530.199 399.16 531.079 399.688C531.975 400.2 532.671 400.952 533.167 401.944C533.679 402.92 533.935 404.12 533.935 405.544ZM524.215 405.544C524.215 407.064 524.511 408.272 525.103 409.168C525.711 410.048 526.671 410.488 527.983 410.488C529.279 410.488 530.231 410.048 530.839 409.168C531.447 408.272 531.751 407.064 531.751 405.544C531.751 404.024 531.447 402.832 530.839 401.968C530.231 401.104 529.271 400.672 527.959 400.672C526.647 400.672 525.695 401.104 525.103 401.968C524.511 402.832 524.215 404.024 524.215 405.544ZM537.114 395.656C537.114 395.192 537.234 394.856 537.474 394.648C537.714 394.424 538.01 394.312 538.362 394.312C538.682 394.312 538.962 394.424 539.202 394.648C539.458 394.856 539.586 395.192 539.586 395.656C539.586 396.104 539.458 396.44 539.202 396.664C538.962 396.888 538.682 397 538.362 397C538.01 397 537.714 396.888 537.474 396.664C537.234 396.44 537.114 396.104 537.114 395.656ZM535.77 417.76C535.37 417.76 535.018 417.728 534.714 417.664C534.41 417.616 534.146 417.552 533.922 417.472V415.768C534.162 415.832 534.41 415.888 534.666 415.936C534.922 415.984 535.202 416.008 535.506 416.008C536.018 416.008 536.442 415.864 536.778 415.576C537.114 415.304 537.282 414.776 537.282 413.992V399.136H539.394V413.92C539.394 415.12 539.106 416.056 538.53 416.728C537.954 417.416 537.034 417.76 535.77 417.76ZM548.438 398.896C549.542 398.896 550.486 399.136 551.27 399.616C552.07 400.096 552.678 400.776 553.094 401.656C553.526 402.52 553.742 403.536 553.742 404.704V405.976H544.934C544.966 407.432 545.334 408.544 546.038 409.312C546.758 410.064 547.758 410.44 549.038 410.44C549.854 410.44 550.574 410.368 551.198 410.224C551.838 410.064 552.494 409.84 553.166 409.552V411.4C552.51 411.688 551.862 411.896 551.222 412.024C550.582 412.168 549.822 412.24 548.942 412.24C547.726 412.24 546.646 411.992 545.702 411.496C544.774 411 544.046 410.264 543.518 409.288C543.006 408.296 542.75 407.088 542.75 405.664C542.75 404.256 542.982 403.048 543.446 402.04C543.926 401.032 544.59 400.256 545.438 399.712C546.302 399.168 547.302 398.896 548.438 398.896ZM548.414 400.624C547.406 400.624 546.606 400.952 546.014 401.608C545.438 402.248 545.094 403.144 544.982 404.296H551.534C551.518 403.208 551.262 402.328 550.766 401.656C550.27 400.968 549.486 400.624 548.414 400.624ZM562.177 412.24C561.041 412.24 560.025 412.008 559.129 411.544C558.249 411.08 557.553 410.36 557.041 409.384C556.545 408.408 556.297 407.16 556.297 405.64C556.297 404.056 556.561 402.768 557.089 401.776C557.617 400.784 558.329 400.056 559.225 399.592C560.137 399.128 561.169 398.896 562.321 398.896C562.977 398.896 563.609 398.968 564.217 399.112C564.825 399.24 565.321 399.4 565.705 399.592L565.057 401.344C564.673 401.2 564.225 401.064 563.713 400.936C563.201 400.808 562.721 400.744 562.273 400.744C559.745 400.744 558.481 402.368 558.481 405.616C558.481 407.168 558.785 408.36 559.393 409.192C560.017 410.008 560.937 410.416 562.153 410.416C562.857 410.416 563.473 410.344 564.001 410.2C564.545 410.056 565.041 409.88 565.489 409.672V411.544C565.057 411.768 564.577 411.936 564.049 412.048C563.537 412.176 562.913 412.24 562.177 412.24ZM572.844 410.512C573.164 410.512 573.492 410.488 573.828 410.44C574.164 410.376 574.436 410.312 574.644 410.248V411.856C574.42 411.968 574.1 412.056 573.684 412.12C573.268 412.2 572.868 412.24 572.484 412.24C571.812 412.24 571.188 412.128 570.612 411.904C570.052 411.664 569.596 411.256 569.244 410.68C568.892 410.104 568.716 409.296 568.716 408.256V400.768H566.892V399.76L568.74 398.92L569.58 396.184H570.828V399.136H574.548V400.768H570.828V408.208C570.828 408.992 571.012 409.576 571.38 409.96C571.764 410.328 572.252 410.512 572.844 410.512Z" fill="black"/>
<path d="M322.2 785.344L331.248 781.576L322.2 777.28V775.408L333.504 781.048V782.248L322.2 787.216V785.344ZM348.193 772.864C350.337 772.864 351.953 773.184 353.041 773.824C354.145 774.448 354.697 775.544 354.697 777.112C354.697 778.12 354.417 778.96 353.857 779.632C353.297 780.288 352.489 780.712 351.433 780.904V781.024C352.153 781.136 352.801 781.344 353.377 781.648C353.969 781.952 354.433 782.384 354.769 782.944C355.105 783.504 355.273 784.232 355.273 785.128C355.273 786.68 354.737 787.88 353.665 788.728C352.609 789.576 351.161 790 349.321 790H343.297V772.864H348.193ZM348.625 780.16C350.097 780.16 351.105 779.928 351.649 779.464C352.193 778.984 352.465 778.28 352.465 777.352C352.465 776.408 352.129 775.736 351.457 775.336C350.801 774.92 349.745 774.712 348.289 774.712H345.457V780.16H348.625ZM345.457 781.96V788.176H348.913C350.433 788.176 351.489 787.88 352.081 787.288C352.673 786.696 352.969 785.92 352.969 784.96C352.969 784.064 352.657 783.344 352.033 782.8C351.425 782.24 350.329 781.96 348.745 781.96H345.457ZM359.698 772.312C360.018 772.312 360.298 772.424 360.538 772.648C360.794 772.856 360.922 773.192 360.922 773.656C360.922 774.104 360.794 774.44 360.538 774.664C360.298 774.888 360.018 775 359.698 775C359.346 775 359.05 774.888 358.81 774.664C358.57 774.44 358.45 774.104 358.45 773.656C358.45 773.192 358.57 772.856 358.81 772.648C359.05 772.424 359.346 772.312 359.698 772.312ZM360.73 777.136V790H358.618V777.136H360.73ZM364.638 773.656C364.638 773.192 364.758 772.856 364.998 772.648C365.238 772.424 365.534 772.312 365.886 772.312C366.206 772.312 366.486 772.424 366.726 772.648C366.982 772.856 367.11 773.192 367.11 773.656C367.11 774.104 366.982 774.44 366.726 774.664C366.486 774.888 366.206 775 365.886 775C365.534 775 365.238 774.888 364.998 774.664C364.758 774.44 364.638 774.104 364.638 773.656ZM363.294 795.76C362.894 795.76 362.542 795.728 362.238 795.664C361.934 795.616 361.67 795.552 361.446 795.472V793.768C361.686 793.832 361.934 793.888 362.19 793.936C362.446 793.984 362.726 794.008 363.03 794.008C363.542 794.008 363.966 793.864 364.302 793.576C364.638 793.304 364.806 792.776 364.806 791.992V777.136H366.918V791.92C366.918 793.12 366.63 794.056 366.054 794.728C365.478 795.416 364.558 795.76 363.294 795.76ZM373.105 790H370.993V771.76H373.105V790ZM382.053 776.92C383.621 776.92 384.781 777.264 385.533 777.952C386.285 778.64 386.661 779.736 386.661 781.24V790H385.125L384.717 788.176H384.621C384.061 788.88 383.469 789.4 382.845 789.736C382.237 790.072 381.389 790.24 380.301 790.24C379.133 790.24 378.165 789.936 377.397 789.328C376.629 788.704 376.245 787.736 376.245 786.424C376.245 785.144 376.749 784.16 377.757 783.472C378.765 782.768 380.317 782.384 382.413 782.32L384.597 782.248V781.48C384.597 780.408 384.365 779.664 383.901 779.248C383.437 778.832 382.781 778.624 381.933 778.624C381.261 778.624 380.621 778.728 380.013 778.936C379.405 779.128 378.837 779.352 378.309 779.608L377.661 778.024C378.221 777.72 378.885 777.464 379.653 777.256C380.421 777.032 381.221 776.92 382.053 776.92ZM382.677 783.784C381.077 783.848 379.965 784.104 379.341 784.552C378.733 785 378.429 785.632 378.429 786.448C378.429 787.168 378.645 787.696 379.077 788.032C379.525 788.368 380.093 788.536 380.781 788.536C381.869 788.536 382.773 788.24 383.493 787.648C384.213 787.04 384.573 786.112 384.573 784.864V783.712L382.677 783.784ZM395.194 776.896C396.042 776.896 396.802 777.056 397.474 777.376C398.162 777.696 398.746 778.184 399.226 778.84H399.346L399.634 777.136H401.314V790.216C401.314 792.056 400.842 793.44 399.898 794.368C398.97 795.296 397.522 795.76 395.554 795.76C393.666 795.76 392.122 795.488 390.922 794.944V793C392.186 793.672 393.77 794.008 395.674 794.008C396.778 794.008 397.642 793.68 398.266 793.024C398.906 792.384 399.226 791.504 399.226 790.384V789.88C399.226 789.688 399.234 789.416 399.25 789.064C399.266 788.696 399.282 788.44 399.298 788.296H399.202C398.338 789.592 397.01 790.24 395.218 790.24C393.554 790.24 392.25 789.656 391.306 788.488C390.378 787.32 389.914 785.688 389.914 783.592C389.914 781.544 390.378 779.92 391.306 778.72C392.25 777.504 393.546 776.896 395.194 776.896ZM395.482 778.672C394.41 778.672 393.578 779.104 392.986 779.968C392.394 780.816 392.098 782.032 392.098 783.616C392.098 785.2 392.386 786.416 392.962 787.264C393.554 788.096 394.41 788.512 395.53 788.512C396.826 788.512 397.77 788.168 398.362 787.48C398.954 786.776 399.25 785.648 399.25 784.096V783.592C399.25 781.832 398.946 780.576 398.338 779.824C397.73 779.056 396.778 778.672 395.482 778.672ZM410.367 776.896C411.471 776.896 412.415 777.136 413.199 777.616C413.999 778.096 414.607 778.776 415.023 779.656C415.455 780.52 415.671 781.536 415.671 782.704V783.976H406.863C406.895 785.432 407.263 786.544 407.967 787.312C408.687 788.064 409.687 788.44 410.967 788.44C411.783 788.44 412.503 788.368 413.127 788.224C413.767 788.064 414.423 787.84 415.095 787.552V789.4C414.439 789.688 413.791 789.896 413.151 790.024C412.511 790.168 411.751 790.24 410.871 790.24C409.655 790.24 408.575 789.992 407.631 789.496C406.703 789 405.975 788.264 405.447 787.288C404.935 786.296 404.679 785.088 404.679 783.664C404.679 782.256 404.911 781.048 405.375 780.04C405.855 779.032 406.519 778.256 407.367 777.712C408.231 777.168 409.231 776.896 410.367 776.896ZM410.343 778.624C409.335 778.624 408.535 778.952 407.943 779.608C407.367 780.248 407.023 781.144 406.911 782.296H413.463C413.447 781.208 413.191 780.328 412.695 779.656C412.199 778.968 411.415 778.624 410.343 778.624Z" fill="black"/>
<path d="M322.8 271.016L336.372 265.364L322.8 258.92V256.112L339.756 264.572V266.372L322.8 273.824V271.016ZM361.249 252.296C364.609 252.296 367.057 252.956 368.593 254.276C370.129 255.596 370.897 257.456 370.897 259.856C370.897 261.272 370.573 262.604 369.925 263.852C369.301 265.076 368.233 266.072 366.721 266.84C365.233 267.608 363.205 267.992 360.637 267.992H357.685V278H354.445V252.296H361.249ZM360.961 255.068H357.685V265.22H360.277C362.725 265.22 364.549 264.824 365.749 264.032C366.949 263.24 367.549 261.896 367.549 260C367.549 258.344 367.021 257.108 365.965 256.292C364.909 255.476 363.241 255.068 360.961 255.068ZM384.81 258.344C385.17 258.344 385.554 258.368 385.962 258.416C386.394 258.44 386.766 258.488 387.078 258.56L386.682 261.476C386.37 261.404 386.022 261.344 385.638 261.296C385.278 261.248 384.93 261.224 384.594 261.224C383.61 261.224 382.686 261.5 381.822 262.052C380.958 262.58 380.262 263.336 379.734 264.32C379.23 265.28 378.978 266.408 378.978 267.704V278H375.81V258.704H378.402L378.762 262.232H378.906C379.53 261.176 380.334 260.264 381.318 259.496C382.302 258.728 383.466 258.344 384.81 258.344ZM406.754 268.316C406.754 271.508 405.938 273.98 404.306 275.732C402.698 277.484 400.514 278.36 397.754 278.36C396.05 278.36 394.526 277.976 393.182 277.208C391.862 276.416 390.818 275.276 390.05 273.788C389.282 272.276 388.898 270.452 388.898 268.316C388.898 265.124 389.702 262.664 391.31 260.936C392.918 259.208 395.102 258.344 397.862 258.344C399.614 258.344 401.15 258.74 402.47 259.532C403.814 260.3 404.858 261.428 405.602 262.916C406.37 264.38 406.754 266.18 406.754 268.316ZM392.174 268.316C392.174 270.596 392.618 272.408 393.506 273.752C394.418 275.072 395.858 275.732 397.826 275.732C399.77 275.732 401.198 275.072 402.11 273.752C403.022 272.408 403.478 270.596 403.478 268.316C403.478 266.036 403.022 264.248 402.11 262.952C401.198 261.656 399.758 261.008 397.79 261.008C395.822 261.008 394.394 261.656 393.506 262.952C392.618 264.248 392.174 266.036 392.174 268.316ZM411.523 253.484C411.523 252.788 411.703 252.284 412.063 251.972C412.423 251.636 412.867 251.468 413.395 251.468C413.875 251.468 414.295 251.636 414.655 251.972C415.039 252.284 415.231 252.788 415.231 253.484C415.231 254.156 415.039 254.66 414.655 254.996C414.295 255.332 413.875 255.5 413.395 255.5C412.867 255.5 412.423 255.332 412.063 254.996C411.703 254.66 411.523 254.156 411.523 253.484ZM409.507 286.64C408.907 286.64 408.379 286.592 407.923 286.496C407.467 286.424 407.071 286.328 406.735 286.208V283.652C407.095 283.748 407.467 283.832 407.851 283.904C408.235 283.976 408.655 284.012 409.111 284.012C409.879 284.012 410.515 283.796 411.019 283.364C411.523 282.956 411.775 282.164 411.775 280.988V258.704H414.943V280.88C414.943 282.68 414.511 284.084 413.647 285.092C412.783 286.124 411.403 286.64 409.507 286.64ZM428.508 258.344C430.164 258.344 431.58 258.704 432.756 259.424C433.956 260.144 434.868 261.164 435.492 262.484C436.14 263.78 436.464 265.304 436.464 267.056V268.964H423.252C423.3 271.148 423.852 272.816 424.908 273.968C425.988 275.096 427.488 275.66 429.408 275.66C430.632 275.66 431.712 275.552 432.648 275.336C433.608 275.096 434.592 274.76 435.6 274.328V277.1C434.616 277.532 433.644 277.844 432.684 278.036C431.724 278.252 430.584 278.36 429.264 278.36C427.44 278.36 425.82 277.988 424.404 277.244C423.012 276.5 421.92 275.396 421.128 273.932C420.36 272.444 419.976 270.632 419.976 268.496C419.976 266.384 420.324 264.572 421.02 263.06C421.74 261.548 422.736 260.384 424.008 259.568C425.304 258.752 426.804 258.344 428.508 258.344ZM428.472 260.936C426.96 260.936 425.76 261.428 424.872 262.412C424.008 263.372 423.492 264.716 423.324 266.444H433.152C433.128 264.812 432.744 263.492 432 262.484C431.256 261.452 430.08 260.936 428.472 260.936ZM449.116 278.36C447.412 278.36 445.888 278.012 444.544 277.316C443.224 276.62 442.18 275.54 441.412 274.076C440.668 272.612 440.296 270.74 440.296 268.46C440.296 266.084 440.692 264.152 441.484 262.664C442.276 261.176 443.344 260.084 444.688 259.388C446.056 258.692 447.604 258.344 449.332 258.344C450.316 258.344 451.264 258.452 452.176 258.668C453.088 258.86 453.832 259.1 454.408 259.388L453.436 262.016C452.86 261.8 452.188 261.596 451.42 261.404C450.652 261.212 449.932 261.116 449.26 261.116C445.468 261.116 443.572 263.552 443.572 268.424C443.572 270.752 444.028 272.54 444.94 273.788C445.876 275.012 447.256 275.624 449.08 275.624C450.136 275.624 451.06 275.516 451.852 275.3C452.668 275.084 453.412 274.82 454.084 274.508V277.316C453.436 277.652 452.716 277.904 451.924 278.072C451.156 278.264 450.22 278.36 449.116 278.36ZM465.117 275.768C465.597 275.768 466.089 275.732 466.593 275.66C467.097 275.564 467.505 275.468 467.817 275.372V277.784C467.481 277.952 467.001 278.084 466.377 278.18C465.753 278.3 465.153 278.36 464.577 278.36C463.569 278.36 462.633 278.192 461.769 277.856C460.929 277.496 460.245 276.884 459.717 276.02C459.189 275.156 458.925 273.944 458.925 272.384V261.152H456.189V259.64L458.961 258.38L460.221 254.276H462.093V258.704H467.673V261.152H462.093V272.312C462.093 273.488 462.369 274.364 462.921 274.94C463.497 275.492 464.229 275.768 465.117 275.768ZM487.477 275.768C487.957 275.768 488.449 275.732 488.953 275.66C489.457 275.564 489.865 275.468 490.177 275.372V277.784C489.841 277.952 489.361 278.084 488.737 278.18C488.113 278.3 487.513 278.36 486.937 278.36C485.929 278.36 484.993 278.192 484.129 277.856C483.289 277.496 482.605 276.884 482.077 276.02C481.549 275.156 481.285 273.944 481.285 272.384V261.152H478.549V259.64L481.321 258.38L482.581 254.276H484.453V258.704H490.033V261.152H484.453V272.312C484.453 273.488 484.729 274.364 485.281 274.94C485.857 275.492 486.589 275.768 487.477 275.768ZM510.816 268.316C510.816 271.508 510 273.98 508.368 275.732C506.76 277.484 504.576 278.36 501.816 278.36C500.112 278.36 498.588 277.976 497.244 277.208C495.924 276.416 494.88 275.276 494.112 273.788C493.344 272.276 492.96 270.452 492.96 268.316C492.96 265.124 493.764 262.664 495.372 260.936C496.98 259.208 499.164 258.344 501.924 258.344C503.676 258.344 505.212 258.74 506.532 259.532C507.876 260.3 508.92 261.428 509.664 262.916C510.432 264.38 510.816 266.18 510.816 268.316ZM496.236 268.316C496.236 270.596 496.68 272.408 497.568 273.752C498.48 275.072 499.92 275.732 501.888 275.732C503.832 275.732 505.26 275.072 506.172 273.752C507.084 272.408 507.54 270.596 507.54 268.316C507.54 266.036 507.084 264.248 506.172 262.952C505.26 261.656 503.82 261.008 501.852 261.008C499.884 261.008 498.456 261.656 497.568 262.952C496.68 264.248 496.236 266.036 496.236 268.316ZM523.289 258.344C524.945 258.344 526.361 258.704 527.537 259.424C528.737 260.144 529.649 261.164 530.273 262.484C530.921 263.78 531.245 265.304 531.245 267.056V268.964H518.033C518.081 271.148 518.633 272.816 519.689 273.968C520.769 275.096 522.269 275.66 524.189 275.66C525.413 275.66 526.493 275.552 527.429 275.336C528.389 275.096 529.373 274.76 530.381 274.328V277.1C529.397 277.532 528.425 277.844 527.465 278.036C526.505 278.252 525.365 278.36 524.045 278.36C522.221 278.36 520.601 277.988 519.185 277.244C517.793 276.5 516.701 275.396 515.909 273.932C515.141 272.444 514.757 270.632 514.757 268.496C514.757 266.384 515.105 264.572 515.801 263.06C516.521 261.548 517.517 260.384 518.789 259.568C520.085 258.752 521.585 258.344 523.289 258.344ZM523.253 260.936C521.741 260.936 520.541 261.428 519.653 262.412C518.789 263.372 518.273 264.716 518.105 266.444H527.933C527.909 264.812 527.525 263.492 526.781 262.484C526.037 261.452 524.861 260.936 523.253 260.936ZM539.703 278L532.395 258.704H535.779L539.883 270.08C540.075 270.608 540.279 271.196 540.495 271.844C540.711 272.492 540.903 273.116 541.071 273.716C541.239 274.292 541.359 274.784 541.431 275.192H541.575C541.671 274.784 541.803 274.28 541.971 273.68C542.163 273.08 542.367 272.456 542.583 271.808C542.823 271.16 543.027 270.584 543.195 270.08L547.299 258.704H550.683L543.339 278H539.703ZM570.512 268.316C570.512 271.508 569.696 273.98 568.064 275.732C566.456 277.484 564.272 278.36 561.512 278.36C559.808 278.36 558.284 277.976 556.94 277.208C555.62 276.416 554.576 275.276 553.808 273.788C553.04 272.276 552.656 270.452 552.656 268.316C552.656 265.124 553.46 262.664 555.068 260.936C556.676 259.208 558.86 258.344 561.62 258.344C563.372 258.344 564.908 258.74 566.228 259.532C567.572 260.3 568.616 261.428 569.36 262.916C570.128 264.38 570.512 266.18 570.512 268.316ZM555.932 268.316C555.932 270.596 556.376 272.408 557.264 273.752C558.176 275.072 559.616 275.732 561.584 275.732C563.528 275.732 564.956 275.072 565.868 273.752C566.78 272.408 567.236 270.596 567.236 268.316C567.236 266.036 566.78 264.248 565.868 262.952C564.956 261.656 563.516 261.008 561.548 261.008C559.58 261.008 558.152 261.656 557.264 262.952C556.376 264.248 555.932 266.036 555.932 268.316ZM582.985 258.344C584.641 258.344 586.057 258.704 587.233 259.424C588.433 260.144 589.345 261.164 589.969 262.484C590.617 263.78 590.941 265.304 590.941 267.056V268.964H577.729C577.777 271.148 578.329 272.816 579.385 273.968C580.465 275.096 581.965 275.66 583.885 275.66C585.109 275.66 586.189 275.552 587.125 275.336C588.085 275.096 589.069 274.76 590.077 274.328V277.1C589.093 277.532 588.121 277.844 587.161 278.036C586.201 278.252 585.061 278.36 583.741 278.36C581.917 278.36 580.297 277.988 578.881 277.244C577.489 276.5 576.397 275.396 575.605 273.932C574.837 272.444 574.453 270.632 574.453 268.496C574.453 266.384 574.801 264.572 575.497 263.06C576.217 261.548 577.213 260.384 578.485 259.568C579.781 258.752 581.281 258.344 582.985 258.344ZM582.949 260.936C581.437 260.936 580.237 261.428 579.349 262.412C578.485 263.372 577.969 264.716 577.801 266.444H587.629C587.605 264.812 587.221 263.492 586.477 262.484C585.733 261.452 584.557 260.936 582.949 260.936ZM602.693 258.344C603.965 258.344 605.105 258.584 606.113 259.064C607.145 259.544 608.021 260.276 608.741 261.26H608.921L609.353 258.704H611.873V278.324C611.873 281.084 611.165 283.16 609.749 284.552C608.357 285.944 606.185 286.64 603.233 286.64C600.401 286.64 598.085 286.232 596.285 285.416V282.5C598.181 283.508 600.557 284.012 603.413 284.012C605.069 284.012 606.365 283.52 607.301 282.536C608.261 281.576 608.741 280.256 608.741 278.576V277.82C608.741 277.532 608.753 277.124 608.777 276.596C608.801 276.044 608.825 275.66 608.849 275.444H608.705C607.409 277.388 605.417 278.36 602.729 278.36C600.233 278.36 598.277 277.484 596.861 275.732C595.469 273.98 594.773 271.532 594.773 268.388C594.773 265.316 595.469 262.88 596.861 261.08C598.277 259.256 600.221 258.344 602.693 258.344ZM603.125 261.008C601.517 261.008 600.269 261.656 599.381 262.952C598.493 264.224 598.049 266.048 598.049 268.424C598.049 270.8 598.481 272.624 599.345 273.896C600.233 275.144 601.517 275.768 603.197 275.768C605.141 275.768 606.557 275.252 607.445 274.22C608.333 273.164 608.777 271.472 608.777 269.144V268.388C608.777 265.748 608.321 263.864 607.409 262.736C606.497 261.584 605.069 261.008 603.125 261.008ZM625.453 258.344C627.109 258.344 628.525 258.704 629.701 259.424C630.901 260.144 631.813 261.164 632.437 262.484C633.085 263.78 633.409 265.304 633.409 267.056V268.964H620.197C620.245 271.148 620.797 272.816 621.853 273.968C622.933 275.096 624.433 275.66 626.353 275.66C627.577 275.66 628.657 275.552 629.593 275.336C630.553 275.096 631.537 274.76 632.545 274.328V277.1C631.561 277.532 630.589 277.844 629.629 278.036C628.669 278.252 627.529 278.36 626.209 278.36C624.385 278.36 622.765 277.988 621.349 277.244C619.957 276.5 618.865 275.396 618.073 273.932C617.305 272.444 616.921 270.632 616.921 268.496C616.921 266.384 617.269 264.572 617.965 263.06C618.685 261.548 619.681 260.384 620.953 259.568C622.249 258.752 623.749 258.344 625.453 258.344ZM625.417 260.936C623.905 260.936 622.705 261.428 621.817 262.412C620.953 263.372 620.437 264.716 620.269 266.444H630.097C630.073 264.812 629.689 263.492 628.945 262.484C628.201 261.452 627.025 260.936 625.417 260.936ZM647.61 258.344C649.914 258.344 651.654 258.908 652.83 260.036C654.006 261.14 654.594 262.94 654.594 265.436V278H651.462V265.652C651.462 262.556 650.022 261.008 647.142 261.008C645.006 261.008 643.53 261.608 642.714 262.808C641.898 264.008 641.49 265.736 641.49 267.992V278H638.322V258.704H640.878L641.346 261.332H641.526C642.15 260.324 643.014 259.58 644.118 259.1C645.222 258.596 646.386 258.344 647.61 258.344Z" fill="black"/>
<rect x="296.5" y="30.5" width="847" height="166" fill="white" stroke="black"/>
<path d="M348.456 82.456C357.416 82.456 363.944 84.216 368.04 87.736C372.136 91.256 374.184 96.216 374.184 102.616C374.184 106.392 373.32 109.944 371.592 113.272C369.928 116.536 367.08 119.192 363.048 121.24C359.08 123.288 353.672 124.312 346.824 124.312H338.952V151H330.312V82.456H348.456ZM347.688 89.848H338.952V116.92H345.864C352.392 116.92 357.256 115.864 360.456 113.752C363.656 111.64 365.256 108.056 365.256 103C365.256 98.584 363.848 95.288 361.032 93.112C358.216 90.936 353.768 89.848 347.688 89.848ZM432.021 125.176C432.021 133.688 429.845 140.28 425.493 144.952C421.205 149.624 415.381 151.96 408.021 151.96C403.477 151.96 399.413 150.936 395.829 148.888C392.309 146.776 389.525 143.736 387.477 139.768C385.429 135.736 384.405 130.872 384.405 125.176C384.405 116.664 386.549 110.104 390.837 105.496C395.125 100.888 400.949 98.584 408.309 98.584C412.981 98.584 417.077 99.64 420.597 101.752C424.181 103.8 426.965 106.808 428.949 110.776C430.997 114.68 432.021 119.48 432.021 125.176ZM393.141 125.176C393.141 131.256 394.325 136.088 396.693 139.672C399.125 143.192 402.965 144.952 408.213 144.952C413.397 144.952 417.205 143.192 419.637 139.672C422.069 136.088 423.285 131.256 423.285 125.176C423.285 119.096 422.069 114.328 419.637 110.872C417.205 107.416 413.365 105.688 408.117 105.688C402.869 105.688 399.061 107.416 396.693 110.872C394.325 114.328 393.141 119.096 393.141 125.176ZM469.41 98.584C470.37 98.584 471.394 98.648 472.482 98.776C473.634 98.84 474.626 98.968 475.458 99.16L474.402 106.936C473.57 106.744 472.642 106.584 471.618 106.456C470.658 106.328 469.73 106.264 468.834 106.264C466.21 106.264 463.746 107 461.442 108.472C459.138 109.88 457.282 111.896 455.874 114.52C454.53 117.08 453.858 120.088 453.858 123.544V151H445.41V99.544H452.322L453.282 108.952H453.666C455.33 106.136 457.474 103.704 460.098 101.656C462.722 99.608 465.826 98.584 469.41 98.584ZM502.25 145.048C503.53 145.048 504.842 144.952 506.186 144.76C507.53 144.504 508.618 144.248 509.45 143.992V150.424C508.554 150.872 507.274 151.224 505.61 151.48C503.946 151.8 502.346 151.96 500.81 151.96C498.122 151.96 495.626 151.512 493.322 150.616C491.082 149.656 489.258 148.024 487.85 145.72C486.442 143.416 485.738 140.184 485.738 136.024V106.072H478.442V102.04L485.834 98.68L489.194 87.736H494.186V99.544H509.066V106.072H494.186V135.832C494.186 138.968 494.922 141.304 496.394 142.84C497.93 144.312 499.882 145.048 502.25 145.048ZM543.466 106.072H530.506V151H522.058V106.072H513.034V102.136L522.058 99.256V96.28C522.058 89.624 523.53 84.856 526.474 81.976C529.418 79.032 533.514 77.56 538.762 77.56C540.81 77.56 542.666 77.752 544.33 78.136C546.058 78.456 547.53 78.84 548.746 79.288L546.538 85.912C545.514 85.592 544.33 85.272 542.986 84.952C541.642 84.632 540.266 84.472 538.858 84.472C536.042 84.472 533.93 85.432 532.522 87.352C531.178 89.208 530.506 92.152 530.506 96.184V99.544H543.466V106.072ZM597.49 125.176C597.49 133.688 595.314 140.28 590.962 144.952C586.674 149.624 580.85 151.96 573.49 151.96C568.946 151.96 564.882 150.936 561.298 148.888C557.778 146.776 554.994 143.736 552.946 139.768C550.898 135.736 549.874 130.872 549.874 125.176C549.874 116.664 552.018 110.104 556.306 105.496C560.594 100.888 566.418 98.584 573.778 98.584C578.45 98.584 582.546 99.64 586.066 101.752C589.65 103.8 592.434 106.808 594.418 110.776C596.466 114.68 597.49 119.48 597.49 125.176ZM558.61 125.176C558.61 131.256 559.794 136.088 562.162 139.672C564.594 143.192 568.434 144.952 573.682 144.952C578.866 144.952 582.674 143.192 585.106 139.672C587.538 136.088 588.754 131.256 588.754 125.176C588.754 119.096 587.538 114.328 585.106 110.872C582.674 107.416 578.834 105.688 573.586 105.688C568.338 105.688 564.53 107.416 562.162 110.872C559.794 114.328 558.61 119.096 558.61 125.176ZM619.327 151H610.879V78.04H619.327V151ZM639.949 80.248C641.229 80.248 642.349 80.696 643.309 81.592C644.333 82.424 644.845 83.768 644.845 85.624C644.845 87.416 644.333 88.76 643.309 89.656C642.349 90.552 641.229 91 639.949 91C638.541 91 637.357 90.552 636.397 89.656C635.437 88.76 634.957 87.416 634.957 85.624C634.957 83.768 635.437 82.424 636.397 81.592C637.357 80.696 638.541 80.248 639.949 80.248ZM644.077 99.544V151H635.629V99.544H644.077ZM705.115 125.176C705.115 133.688 702.939 140.28 698.587 144.952C694.299 149.624 688.475 151.96 681.115 151.96C676.571 151.96 672.507 150.936 668.923 148.888C665.403 146.776 662.619 143.736 660.571 139.768C658.523 135.736 657.499 130.872 657.499 125.176C657.499 116.664 659.643 110.104 663.931 105.496C668.219 100.888 674.043 98.584 681.403 98.584C686.075 98.584 690.171 99.64 693.691 101.752C697.275 103.8 700.059 106.808 702.043 110.776C704.091 114.68 705.115 119.48 705.115 125.176ZM666.235 125.176C666.235 131.256 667.419 136.088 669.787 139.672C672.219 143.192 676.059 144.952 681.307 144.952C686.491 144.952 690.299 143.192 692.731 139.672C695.163 136.088 696.379 131.256 696.379 125.176C696.379 119.096 695.163 114.328 692.731 110.872C690.299 107.416 686.459 105.688 681.211 105.688C675.963 105.688 672.155 107.416 669.787 110.872C667.419 114.328 666.235 119.096 666.235 125.176ZM752.008 136.792C752.008 141.784 750.152 145.56 746.44 148.12C742.728 150.68 737.736 151.96 731.464 151.96C727.88 151.96 724.776 151.672 722.152 151.096C719.592 150.52 717.32 149.72 715.336 148.696V141.016C717.384 142.04 719.848 143 722.728 143.896C725.672 144.728 728.648 145.144 731.656 145.144C735.944 145.144 739.048 144.472 740.968 143.128C742.888 141.72 743.848 139.864 743.848 137.56C743.848 136.28 743.496 135.128 742.792 134.104C742.088 133.08 740.808 132.056 738.952 131.032C737.16 130.008 734.568 128.856 731.176 127.576C727.848 126.296 725 125.016 722.632 123.736C720.264 122.456 718.44 120.92 717.16 119.128C715.88 117.336 715.24 115.032 715.24 112.216C715.24 107.864 717 104.504 720.52 102.136C724.104 99.768 728.776 98.584 734.536 98.584C737.672 98.584 740.584 98.904 743.272 99.544C746.024 100.12 748.584 100.952 750.952 102.04L748.072 108.76C745.896 107.864 743.624 107.096 741.256 106.456C738.888 105.816 736.456 105.496 733.96 105.496C730.504 105.496 727.848 106.072 725.992 107.224C724.2 108.312 723.304 109.816 723.304 111.736C723.304 113.144 723.72 114.36 724.552 115.384C725.384 116.344 726.76 117.304 728.68 118.264C730.664 119.16 733.288 120.248 736.552 121.528C739.816 122.744 742.6 123.992 744.904 125.272C747.208 126.552 748.968 128.12 750.184 129.976C751.4 131.768 752.008 134.04 752.008 136.792ZM768.761 80.248C770.041 80.248 771.161 80.696 772.121 81.592C773.145 82.424 773.657 83.768 773.657 85.624C773.657 87.416 773.145 88.76 772.121 89.656C771.161 90.552 770.041 91 768.761 91C767.353 91 766.169 90.552 765.209 89.656C764.249 88.76 763.769 87.416 763.769 85.624C763.769 83.768 764.249 82.424 765.209 81.592C766.169 80.696 767.353 80.248 768.761 80.248ZM772.889 99.544V151H764.441V99.544H772.889ZM806.375 145.048C807.655 145.048 808.967 144.952 810.311 144.76C811.655 144.504 812.743 144.248 813.575 143.992V150.424C812.679 150.872 811.399 151.224 809.735 151.48C808.071 151.8 806.471 151.96 804.935 151.96C802.247 151.96 799.751 151.512 797.447 150.616C795.207 149.656 793.383 148.024 791.975 145.72C790.567 143.416 789.863 140.184 789.863 136.024V106.072H782.567V102.04L789.959 98.68L793.319 87.736H798.311V99.544H813.191V106.072H798.311V135.832C798.311 138.968 799.047 141.304 800.519 142.84C802.055 144.312 804.007 145.048 806.375 145.048ZM843.751 98.584C848.167 98.584 851.943 99.544 855.079 101.464C858.279 103.384 860.711 106.104 862.375 109.624C864.103 113.08 864.967 117.144 864.967 121.816V126.904H829.735C829.863 132.728 831.335 137.176 834.151 140.248C837.031 143.256 841.031 144.76 846.151 144.76C849.415 144.76 852.295 144.472 854.791 143.896C857.351 143.256 859.975 142.36 862.663 141.208V148.6C860.039 149.752 857.447 150.584 854.887 151.096C852.327 151.672 849.287 151.96 845.767 151.96C840.903 151.96 836.583 150.968 832.807 148.984C829.095 147 826.183 144.056 824.071 140.152C822.023 136.184 820.999 131.352 820.999 125.656C820.999 120.024 821.927 115.192 823.783 111.16C825.703 107.128 828.359 104.024 831.751 101.848C835.207 99.672 839.207 98.584 843.751 98.584ZM843.655 105.496C839.623 105.496 836.423 106.808 834.055 109.432C831.751 111.992 830.375 115.576 829.927 120.184H856.135C856.071 115.832 855.047 112.312 853.063 109.624C851.079 106.872 847.943 105.496 843.655 105.496Z" fill="black"/>
<rect x="620.5" y="842.5" width="199" height="49" fill="white"/>
<rect x="620.5" y="842.5" width="199" height="49" stroke="black"/>
<rect x="620.5" y="842.5" width="199" height="49" stroke="black"/>
<rect x="620.5" y="842.5" width="199" height="49" stroke="black"/>
<rect x="620.5" y="842.5" width="199" height="49" stroke="black"/>
<path d="M688.048 871.416C688.048 872.936 687.496 874.12 686.392 874.968C685.288 875.816 683.8 876.24 681.928 876.24C680.968 876.24 680.08 876.168 679.264 876.024C678.448 875.88 677.768 875.68 677.224 875.424V873.36C677.8 873.616 678.512 873.848 679.36 874.056C680.224 874.264 681.112 874.368 682.024 874.368C683.304 874.368 684.264 874.12 684.904 873.624C685.56 873.128 685.888 872.456 685.888 871.608C685.888 871.048 685.768 870.576 685.528 870.192C685.288 869.808 684.872 869.456 684.28 869.136C683.704 868.8 682.896 868.448 681.856 868.08C680.4 867.552 679.296 866.904 678.544 866.136C677.808 865.368 677.44 864.32 677.44 862.992C677.44 862.08 677.672 861.304 678.136 860.664C678.6 860.008 679.24 859.504 680.056 859.152C680.888 858.8 681.84 858.624 682.912 858.624C683.856 858.624 684.72 858.712 685.504 858.888C686.288 859.064 687 859.296 687.64 859.584L686.968 861.432C686.376 861.176 685.728 860.96 685.024 860.784C684.336 860.608 683.616 860.52 682.864 860.52C681.792 860.52 680.984 860.752 680.44 861.216C679.896 861.664 679.624 862.264 679.624 863.016C679.624 863.592 679.744 864.072 679.984 864.456C680.224 864.84 680.616 865.184 681.16 865.488C681.704 865.792 682.44 866.12 683.368 866.472C684.376 866.84 685.224 867.24 685.912 867.672C686.616 868.088 687.144 868.592 687.496 869.184C687.864 869.776 688.048 870.52 688.048 871.416ZM701.964 863.136V876H700.236L699.924 874.296H699.828C699.412 874.968 698.836 875.464 698.1 875.784C697.364 876.088 696.58 876.24 695.748 876.24C694.196 876.24 693.028 875.872 692.244 875.136C691.46 874.384 691.068 873.192 691.068 871.56V863.136H693.204V871.416C693.204 873.464 694.156 874.488 696.06 874.488C697.484 874.488 698.468 874.088 699.012 873.288C699.572 872.488 699.852 871.336 699.852 869.832V863.136H701.964ZM708.16 862.2C708.16 862.744 708.144 863.256 708.112 863.736C708.096 864.2 708.072 864.568 708.04 864.84H708.16C708.528 864.296 709.032 863.84 709.672 863.472C710.312 863.104 711.136 862.92 712.144 862.92C713.744 862.92 715.024 863.48 715.984 864.6C716.96 865.704 717.448 867.36 717.448 869.568C717.448 871.776 716.96 873.44 715.984 874.56C715.008 875.68 713.728 876.24 712.144 876.24C711.136 876.24 710.312 876.056 709.672 875.688C709.032 875.32 708.528 874.88 708.16 874.368H707.992L707.56 876H706.048V857.76H708.16V862.2ZM711.784 864.672C710.424 864.672 709.48 865.064 708.952 865.848C708.424 866.632 708.16 867.848 708.16 869.496V869.592C708.16 871.176 708.416 872.392 708.928 873.24C709.456 874.072 710.424 874.488 711.832 874.488C712.984 874.488 713.84 874.064 714.4 873.216C714.976 872.368 715.264 871.144 715.264 869.544C715.264 866.296 714.104 864.672 711.784 864.672ZM734.925 862.896C736.381 862.896 737.469 863.272 738.189 864.024C738.909 864.76 739.269 865.96 739.269 867.624V876H737.181V867.72C737.181 865.688 736.309 864.672 734.565 864.672C733.317 864.672 732.421 865.032 731.877 865.752C731.349 866.472 731.085 867.52 731.085 868.896V876H728.997V867.72C728.997 865.688 728.117 864.672 726.357 864.672C725.061 864.672 724.165 865.072 723.669 865.872C723.173 866.672 722.925 867.824 722.925 869.328V876H720.813V863.136H722.517L722.829 864.888H722.949C723.349 864.216 723.885 863.72 724.557 863.4C725.245 863.064 725.973 862.896 726.741 862.896C728.757 862.896 730.069 863.616 730.677 865.056H730.797C731.229 864.32 731.813 863.776 732.549 863.424C733.301 863.072 734.093 862.896 734.925 862.896ZM744.323 858.312C744.643 858.312 744.923 858.424 745.163 858.648C745.419 858.856 745.547 859.192 745.547 859.656C745.547 860.104 745.419 860.44 745.163 860.664C744.923 860.888 744.643 861 744.323 861C743.971 861 743.675 860.888 743.435 860.664C743.195 860.44 743.075 860.104 743.075 859.656C743.075 859.192 743.195 858.856 743.435 858.648C743.675 858.424 743.971 858.312 744.323 858.312ZM745.355 863.136V876H743.243V863.136H745.355ZM753.727 874.512C754.047 874.512 754.375 874.488 754.711 874.44C755.047 874.376 755.319 874.312 755.527 874.248V875.856C755.303 875.968 754.983 876.056 754.567 876.12C754.151 876.2 753.751 876.24 753.367 876.24C752.695 876.24 752.071 876.128 751.495 875.904C750.935 875.664 750.479 875.256 750.127 874.68C749.775 874.104 749.599 873.296 749.599 872.256V864.768H747.775V863.76L749.623 862.92L750.463 860.184H751.711V863.136H755.431V864.768H751.711V872.208C751.711 872.992 751.895 873.576 752.263 873.96C752.647 874.328 753.135 874.512 753.727 874.512Z" fill="black"/>
</svg>

