<svg width="1440" height="900" viewBox="0 0 1440 900" fill="none" xmlns="http://www.w3.org/2000/svg">
<rect width="1440" height="900" fill="white"/>
<rect x="35.5" y="20.5" width="124" height="124" fill="white" stroke="black"/>
<rect x="51.5" y="73.5" width="92" height="49" fill="white" stroke="black"/>
<rect x="296.5" y="220.5" width="847" height="639" fill="white" stroke="black"/>
<rect x="296.5" y="30.5" width="847" height="166" fill="white" stroke="black"/>
<rect x="570.5" y="450.5" width="299" height="49" fill="white"/>
<rect x="570.5" y="450.5" width="299" height="49" stroke="black"/>
<rect x="570.5" y="450.5" width="299" height="49" stroke="black"/>
<rect x="570.5" y="450.5" width="299" height="49" stroke="black"/>
<rect x="570.5" y="450.5" width="299" height="49" stroke="black"/>
<rect x="620.5" y="692.5" width="199" height="49" fill="white"/>
<rect x="620.5" y="692.5" width="199" height="49" stroke="black"/>
<rect x="620.5" y="692.5" width="199" height="49" stroke="black"/>
<rect x="620.5" y="692.5" width="199" height="49" stroke="black"/>
<rect x="620.5" y="692.5" width="199" height="49" stroke="black"/>
<rect x="570.5" y="571.5" width="299" height="49" fill="white"/>
<rect x="570.5" y="571.5" width="299" height="49" stroke="black"/>
<rect x="570.5" y="571.5" width="299" height="49" stroke="black"/>
<rect x="570.5" y="571.5" width="299" height="49" stroke="black"/>
<rect x="570.5" y="571.5" width="299" height="49" stroke="black"/>
<path d="M571.8 391.016L585.372 385.364L571.8 378.92V376.112L588.756 384.572V386.372L571.8 393.824V391.016ZM610.681 398H601.393V396.128L604.417 395.444V374.888L601.393 374.168V372.296H610.681V374.168L607.657 374.888V395.444L610.681 396.128V398ZM624.5 378.344C626.804 378.344 628.544 378.908 629.72 380.036C630.896 381.14 631.484 382.94 631.484 385.436V398H628.352V385.652C628.352 382.556 626.912 381.008 624.032 381.008C621.896 381.008 620.42 381.608 619.604 382.808C618.788 384.008 618.38 385.736 618.38 387.992V398H615.212V378.704H617.768L618.236 381.332H618.416C619.04 380.324 619.904 379.58 621.008 379.1C622.112 378.596 623.276 378.344 624.5 378.344ZM640.634 398H637.466V370.64H640.634V398ZM663.523 388.316C663.523 391.508 662.708 393.98 661.076 395.732C659.468 397.484 657.284 398.36 654.524 398.36C652.82 398.36 651.296 397.976 649.952 397.208C648.632 396.416 647.588 395.276 646.82 393.788C646.052 392.276 645.668 390.452 645.668 388.316C645.668 385.124 646.472 382.664 648.08 380.936C649.688 379.208 651.872 378.344 654.632 378.344C656.384 378.344 657.92 378.74 659.24 379.532C660.584 380.3 661.628 381.428 662.372 382.916C663.14 384.38 663.523 386.18 663.523 388.316ZM648.944 388.316C648.944 390.596 649.388 392.408 650.276 393.752C651.188 395.072 652.628 395.732 654.596 395.732C656.54 395.732 657.968 395.072 658.88 393.752C659.792 392.408 660.248 390.596 660.248 388.316C660.248 386.036 659.792 384.248 658.88 382.952C657.968 381.656 656.528 381.008 654.56 381.008C652.592 381.008 651.164 381.656 650.276 382.952C649.388 384.248 648.944 386.036 648.944 388.316ZM675.384 378.344C676.656 378.344 677.796 378.584 678.804 379.064C679.836 379.544 680.712 380.276 681.432 381.26H681.612L682.044 378.704H684.564V398.324C684.564 401.084 683.856 403.16 682.44 404.552C681.048 405.944 678.876 406.64 675.924 406.64C673.092 406.64 670.776 406.232 668.976 405.416V402.5C670.872 403.508 673.248 404.012 676.104 404.012C677.76 404.012 679.056 403.52 679.992 402.536C680.952 401.576 681.432 400.256 681.432 398.576V397.82C681.432 397.532 681.444 397.124 681.468 396.596C681.492 396.044 681.516 395.66 681.54 395.444H681.396C680.1 397.388 678.108 398.36 675.42 398.36C672.924 398.36 670.968 397.484 669.552 395.732C668.16 393.98 667.464 391.532 667.464 388.388C667.464 385.316 668.16 382.88 669.552 381.08C670.968 379.256 672.912 378.344 675.384 378.344ZM675.816 381.008C674.208 381.008 672.96 381.656 672.072 382.952C671.184 384.224 670.74 386.048 670.74 388.424C670.74 390.8 671.172 392.624 672.036 393.896C672.924 395.144 674.208 395.768 675.888 395.768C677.832 395.768 679.248 395.252 680.136 394.22C681.024 393.164 681.468 391.472 681.468 389.144V388.388C681.468 385.748 681.012 383.864 680.1 382.736C679.188 381.584 677.76 381.008 675.816 381.008ZM697.533 378.344C698.805 378.344 699.945 378.584 700.953 379.064C701.985 379.544 702.861 380.276 703.581 381.26H703.761L704.193 378.704H706.713V398.324C706.713 401.084 706.005 403.16 704.589 404.552C703.197 405.944 701.025 406.64 698.073 406.64C695.241 406.64 692.925 406.232 691.125 405.416V402.5C693.021 403.508 695.397 404.012 698.253 404.012C699.909 404.012 701.205 403.52 702.141 402.536C703.101 401.576 703.581 400.256 703.581 398.576V397.82C703.581 397.532 703.593 397.124 703.617 396.596C703.641 396.044 703.665 395.66 703.689 395.444H703.545C702.249 397.388 700.257 398.36 697.569 398.36C695.073 398.36 693.117 397.484 691.701 395.732C690.309 393.98 689.613 391.532 689.613 388.388C689.613 385.316 690.309 382.88 691.701 381.08C693.117 379.256 695.061 378.344 697.533 378.344ZM697.965 381.008C696.357 381.008 695.109 381.656 694.221 382.952C693.333 384.224 692.889 386.048 692.889 388.424C692.889 390.8 693.321 392.624 694.185 393.896C695.073 395.144 696.357 395.768 698.037 395.768C699.981 395.768 701.397 395.252 702.285 394.22C703.173 393.164 703.617 391.472 703.617 389.144V388.388C703.617 385.748 703.161 383.864 702.249 382.736C701.337 381.584 699.909 381.008 697.965 381.008ZM720.293 378.344C721.949 378.344 723.365 378.704 724.541 379.424C725.741 380.144 726.653 381.164 727.277 382.484C727.925 383.78 728.249 385.304 728.249 387.056V388.964H715.037C715.085 391.148 715.637 392.816 716.693 393.968C717.773 395.096 719.273 395.66 721.193 395.66C722.417 395.66 723.497 395.552 724.433 395.336C725.393 395.096 726.377 394.76 727.385 394.328V397.1C726.401 397.532 725.429 397.844 724.469 398.036C723.509 398.252 722.369 398.36 721.049 398.36C719.225 398.36 717.605 397.988 716.189 397.244C714.797 396.5 713.705 395.396 712.913 393.932C712.145 392.444 711.761 390.632 711.761 388.496C711.761 386.384 712.109 384.572 712.805 383.06C713.525 381.548 714.521 380.384 715.793 379.568C717.089 378.752 718.589 378.344 720.293 378.344ZM720.257 380.936C718.745 380.936 717.545 381.428 716.657 382.412C715.793 383.372 715.277 384.716 715.109 386.444H724.937C724.913 384.812 724.529 383.492 723.785 382.484C723.041 381.452 721.865 380.936 720.257 380.936ZM742.45 378.344C744.754 378.344 746.494 378.908 747.67 380.036C748.846 381.14 749.434 382.94 749.434 385.436V398H746.302V385.652C746.302 382.556 744.862 381.008 741.982 381.008C739.846 381.008 738.37 381.608 737.554 382.808C736.738 384.008 736.33 385.736 736.33 387.992V398H733.162V378.704H735.718L736.186 381.332H736.366C736.99 380.324 737.854 379.58 738.958 379.1C740.062 378.596 741.226 378.344 742.45 378.344Z" fill="black"/>
<path d="M571.2 430.344L580.248 426.576L571.2 422.28V420.408L582.504 426.048V427.248L571.2 432.216V430.344ZM599.737 425.952H605.665V434.352C604.737 434.656 603.801 434.88 602.857 435.024C601.913 435.168 600.841 435.24 599.641 435.24C597.865 435.24 596.369 434.888 595.153 434.184C593.937 433.464 593.009 432.448 592.369 431.136C591.745 429.808 591.433 428.24 591.433 426.432C591.433 424.64 591.785 423.088 592.489 421.776C593.193 420.464 594.201 419.448 595.513 418.728C596.841 417.992 598.441 417.624 600.313 417.624C601.273 417.624 602.177 417.712 603.025 417.888C603.889 418.064 604.689 418.312 605.425 418.632L604.609 420.504C604.001 420.232 603.313 420 602.545 419.808C601.793 419.616 601.009 419.52 600.193 419.52C598.145 419.52 596.545 420.136 595.393 421.368C594.257 422.6 593.689 424.288 593.689 426.432C593.689 427.792 593.905 429 594.337 430.056C594.785 431.096 595.481 431.912 596.425 432.504C597.369 433.08 598.609 433.368 600.145 433.368C600.897 433.368 601.537 433.328 602.065 433.248C602.593 433.168 603.073 433.072 603.505 432.96V427.872H599.737V425.952ZM614.438 421.896C615.542 421.896 616.486 422.136 617.27 422.616C618.07 423.096 618.678 423.776 619.094 424.656C619.526 425.52 619.742 426.536 619.742 427.704V428.976H610.934C610.966 430.432 611.334 431.544 612.038 432.312C612.758 433.064 613.758 433.44 615.038 433.44C615.854 433.44 616.574 433.368 617.198 433.224C617.838 433.064 618.494 432.84 619.166 432.552V434.4C618.51 434.688 617.862 434.896 617.222 435.024C616.582 435.168 615.822 435.24 614.942 435.24C613.726 435.24 612.646 434.992 611.702 434.496C610.774 434 610.046 433.264 609.518 432.288C609.006 431.296 608.75 430.088 608.75 428.664C608.75 427.256 608.982 426.048 609.446 425.04C609.926 424.032 610.59 423.256 611.438 422.712C612.302 422.168 613.302 421.896 614.438 421.896ZM614.414 423.624C613.406 423.624 612.606 423.952 612.014 424.608C611.438 425.248 611.094 426.144 610.982 427.296H617.534C617.518 426.208 617.262 425.328 616.766 424.656C616.27 423.968 615.486 423.624 614.414 423.624ZM625.129 421.2C625.129 421.744 625.113 422.256 625.081 422.736C625.065 423.2 625.041 423.568 625.009 423.84H625.129C625.497 423.296 626.001 422.84 626.641 422.472C627.281 422.104 628.105 421.92 629.113 421.92C630.713 421.92 631.993 422.48 632.953 423.6C633.929 424.704 634.417 426.36 634.417 428.568C634.417 430.776 633.929 432.44 632.953 433.56C631.977 434.68 630.697 435.24 629.113 435.24C628.105 435.24 627.281 435.056 626.641 434.688C626.001 434.32 625.497 433.88 625.129 433.368H624.961L624.529 435H623.017V416.76H625.129V421.2ZM628.753 423.672C627.393 423.672 626.449 424.064 625.921 424.848C625.393 425.632 625.129 426.848 625.129 428.496V428.592C625.129 430.176 625.385 431.392 625.897 432.24C626.425 433.072 627.393 433.488 628.801 433.488C629.953 433.488 630.809 433.064 631.369 432.216C631.945 431.368 632.233 430.144 632.233 428.544C632.233 425.296 631.073 423.672 628.753 423.672ZM643.782 421.896C644.022 421.896 644.278 421.912 644.55 421.944C644.838 421.96 645.086 421.992 645.294 422.04L645.03 423.984C644.822 423.936 644.59 423.896 644.334 423.864C644.094 423.832 643.862 423.816 643.638 423.816C642.982 423.816 642.366 424 641.79 424.368C641.214 424.72 640.75 425.224 640.398 425.88C640.062 426.52 639.894 427.272 639.894 428.136V435H637.782V422.136H639.51L639.75 424.488H639.846C640.262 423.784 640.798 423.176 641.454 422.664C642.11 422.152 642.886 421.896 643.782 421.896ZM658.448 422.136V435H656.72L656.408 433.296H656.312C655.896 433.968 655.32 434.464 654.584 434.784C653.848 435.088 653.064 435.24 652.232 435.24C650.68 435.24 649.512 434.872 648.728 434.136C647.944 433.384 647.552 432.192 647.552 430.56V422.136H649.688V430.416C649.688 432.464 650.64 433.488 652.544 433.488C653.968 433.488 654.952 433.088 655.496 432.288C656.056 431.488 656.336 430.336 656.336 428.832V422.136H658.448ZM663.612 417.312C663.932 417.312 664.212 417.424 664.452 417.648C664.708 417.856 664.836 418.192 664.836 418.656C664.836 419.104 664.708 419.44 664.452 419.664C664.212 419.888 663.932 420 663.612 420C663.26 420 662.964 419.888 662.724 419.664C662.484 419.44 662.364 419.104 662.364 418.656C662.364 418.192 662.484 417.856 662.724 417.648C662.964 417.424 663.26 417.312 663.612 417.312ZM664.644 422.136V435H662.532V422.136H664.644ZM670.808 426.288C670.808 426.544 670.792 426.88 670.76 427.296C670.744 427.712 670.728 428.072 670.712 428.376H670.808C670.904 428.248 671.048 428.064 671.24 427.824C671.432 427.584 671.624 427.344 671.816 427.104C672.024 426.848 672.2 426.64 672.344 426.48L676.448 422.136H678.92L673.712 427.632L679.28 435H676.736L672.272 429L670.808 430.272V435H668.72V416.76H670.808V426.288ZM686.508 421.896C687.612 421.896 688.556 422.136 689.34 422.616C690.14 423.096 690.748 423.776 691.164 424.656C691.596 425.52 691.812 426.536 691.812 427.704V428.976H683.004C683.036 430.432 683.404 431.544 684.108 432.312C684.828 433.064 685.828 433.44 687.108 433.44C687.924 433.44 688.644 433.368 689.268 433.224C689.908 433.064 690.564 432.84 691.236 432.552V434.4C690.58 434.688 689.932 434.896 689.292 435.024C688.652 435.168 687.892 435.24 687.012 435.24C685.796 435.24 684.716 434.992 683.772 434.496C682.844 434 682.116 433.264 681.588 432.288C681.076 431.296 680.82 430.088 680.82 428.664C680.82 427.256 681.052 426.048 681.516 425.04C681.996 424.032 682.66 423.256 683.508 422.712C684.372 422.168 685.372 421.896 686.508 421.896ZM686.484 423.624C685.476 423.624 684.676 423.952 684.084 424.608C683.508 425.248 683.164 426.144 683.052 427.296H689.604C689.588 426.208 689.332 425.328 688.836 424.656C688.34 423.968 687.556 423.624 686.484 423.624ZM701.087 421.896C701.327 421.896 701.583 421.912 701.855 421.944C702.143 421.96 702.391 421.992 702.599 422.04L702.335 423.984C702.127 423.936 701.895 423.896 701.639 423.864C701.399 423.832 701.167 423.816 700.943 423.816C700.287 423.816 699.671 424 699.095 424.368C698.519 424.72 698.055 425.224 697.703 425.88C697.367 426.52 697.199 427.272 697.199 428.136V435H695.087V422.136H696.815L697.055 424.488H697.151C697.567 423.784 698.103 423.176 698.759 422.664C699.415 422.152 700.191 421.896 701.087 421.896ZM713.377 431.448C713.377 432.696 712.913 433.64 711.985 434.28C711.057 434.92 709.809 435.24 708.241 435.24C707.345 435.24 706.569 435.168 705.913 435.024C705.273 434.88 704.705 434.68 704.209 434.424V432.504C704.721 432.76 705.337 433 706.057 433.224C706.793 433.432 707.537 433.536 708.289 433.536C709.361 433.536 710.137 433.368 710.617 433.032C711.097 432.68 711.337 432.216 711.337 431.64C711.337 431.32 711.249 431.032 711.073 430.776C710.897 430.52 710.577 430.264 710.113 430.008C709.665 429.752 709.017 429.464 708.169 429.144C707.337 428.824 706.625 428.504 706.033 428.184C705.441 427.864 704.985 427.48 704.665 427.032C704.345 426.584 704.185 426.008 704.185 425.304C704.185 424.216 704.625 423.376 705.505 422.784C706.401 422.192 707.569 421.896 709.009 421.896C709.793 421.896 710.521 421.976 711.193 422.136C711.881 422.28 712.521 422.488 713.113 422.76L712.393 424.44C711.849 424.216 711.281 424.024 710.689 423.864C710.097 423.704 709.489 423.624 708.865 423.624C708.001 423.624 707.337 423.768 706.873 424.056C706.425 424.328 706.201 424.704 706.201 425.184C706.201 425.536 706.305 425.84 706.513 426.096C706.721 426.336 707.065 426.576 707.545 426.816C708.041 427.04 708.697 427.312 709.513 427.632C710.329 427.936 711.025 428.248 711.601 428.568C712.177 428.888 712.617 429.28 712.921 429.744C713.225 430.192 713.377 430.76 713.377 431.448ZM722.677 421.896C724.213 421.896 725.373 422.272 726.157 423.024C726.941 423.76 727.333 424.96 727.333 426.624V435H725.245V426.768C725.245 424.704 724.285 423.672 722.365 423.672C720.941 423.672 719.957 424.072 719.413 424.872C718.869 425.672 718.597 426.824 718.597 428.328V435H716.485V422.136H718.189L718.501 423.888H718.621C719.037 423.216 719.613 422.72 720.349 422.4C721.085 422.064 721.861 421.896 722.677 421.896ZM736.193 421.92C737.761 421.92 738.921 422.264 739.673 422.952C740.425 423.64 740.801 424.736 740.801 426.24V435H739.265L738.857 433.176H738.761C738.201 433.88 737.609 434.4 736.985 434.736C736.377 435.072 735.529 435.24 734.441 435.24C733.273 435.24 732.305 434.936 731.537 434.328C730.769 433.704 730.385 432.736 730.385 431.424C730.385 430.144 730.889 429.16 731.897 428.472C732.905 427.768 734.457 427.384 736.553 427.32L738.737 427.248V426.48C738.737 425.408 738.505 424.664 738.041 424.248C737.577 423.832 736.921 423.624 736.073 423.624C735.401 423.624 734.761 423.728 734.153 423.936C733.545 424.128 732.977 424.352 732.449 424.608L731.801 423.024C732.361 422.72 733.025 422.464 733.793 422.256C734.561 422.032 735.361 421.92 736.193 421.92ZM736.817 428.784C735.217 428.848 734.105 429.104 733.481 429.552C732.873 430 732.569 430.632 732.569 431.448C732.569 432.168 732.785 432.696 733.217 433.032C733.665 433.368 734.233 433.536 734.921 433.536C736.009 433.536 736.913 433.24 737.633 432.648C738.353 432.04 738.713 431.112 738.713 429.864V428.712L736.817 428.784ZM749.646 421.92C751.214 421.92 752.374 422.264 753.126 422.952C753.878 423.64 754.254 424.736 754.254 426.24V435H752.718L752.31 433.176H752.214C751.654 433.88 751.062 434.4 750.438 434.736C749.83 435.072 748.982 435.24 747.894 435.24C746.726 435.24 745.758 434.936 744.99 434.328C744.222 433.704 743.838 432.736 743.838 431.424C743.838 430.144 744.342 429.16 745.35 428.472C746.358 427.768 747.91 427.384 750.006 427.32L752.19 427.248V426.48C752.19 425.408 751.958 424.664 751.494 424.248C751.03 423.832 750.374 423.624 749.526 423.624C748.854 423.624 748.214 423.728 747.606 423.936C746.998 424.128 746.43 424.352 745.902 424.608L745.254 423.024C745.814 422.72 746.478 422.464 747.246 422.256C748.014 422.032 748.814 421.92 749.646 421.92ZM750.27 428.784C748.67 428.848 747.558 429.104 746.934 429.552C746.326 430 746.022 430.632 746.022 431.448C746.022 432.168 746.238 432.696 746.67 433.032C747.118 433.368 747.686 433.536 748.374 433.536C749.462 433.536 750.366 433.24 751.086 432.648C751.806 432.04 752.166 431.112 752.166 429.864V428.712L750.27 428.784ZM772.34 421.896C773.796 421.896 774.884 422.272 775.604 423.024C776.324 423.76 776.684 424.96 776.684 426.624V435H774.596V426.72C774.596 424.688 773.724 423.672 771.98 423.672C770.732 423.672 769.836 424.032 769.292 424.752C768.764 425.472 768.5 426.52 768.5 427.896V435H766.412V426.72C766.412 424.688 765.532 423.672 763.772 423.672C762.476 423.672 761.58 424.072 761.084 424.872C760.588 425.672 760.34 426.824 760.34 428.328V435H758.228V422.136H759.932L760.244 423.888H760.364C760.764 423.216 761.3 422.72 761.972 422.4C762.66 422.064 763.388 421.896 764.156 421.896C766.172 421.896 767.484 422.616 768.092 424.056H768.212C768.644 423.32 769.227 422.776 769.964 422.424C770.716 422.072 771.508 421.896 772.34 421.896Z" fill="black"/>
<path d="M676.152 726H669.96V724.752L671.976 724.296V710.592L669.96 710.112V708.864H676.152V710.112L674.136 710.592V724.296L676.152 724.752V726ZM685.365 712.896C686.901 712.896 688.061 713.272 688.845 714.024C689.629 714.76 690.021 715.96 690.021 717.624V726H687.933V717.768C687.933 715.704 686.973 714.672 685.053 714.672C683.629 714.672 682.645 715.072 682.101 715.872C681.557 716.672 681.285 717.824 681.285 719.328V726H679.173V713.136H680.877L681.189 714.888H681.309C681.725 714.216 682.301 713.72 683.037 713.4C683.773 713.064 684.549 712.896 685.365 712.896ZM696.121 726H694.009V707.76H696.121V726ZM711.38 719.544C711.38 721.672 710.836 723.32 709.748 724.488C708.676 725.656 707.22 726.24 705.38 726.24C704.244 726.24 703.228 725.984 702.332 725.472C701.452 724.944 700.756 724.184 700.244 723.192C699.732 722.184 699.476 720.968 699.476 719.544C699.476 717.416 700.012 715.776 701.084 714.624C702.156 713.472 703.612 712.896 705.452 712.896C706.62 712.896 707.644 713.16 708.524 713.688C709.42 714.2 710.116 714.952 710.612 715.944C711.124 716.92 711.38 718.12 711.38 719.544ZM701.66 719.544C701.66 721.064 701.956 722.272 702.548 723.168C703.156 724.048 704.116 724.488 705.428 724.488C706.724 724.488 707.676 724.048 708.284 723.168C708.892 722.272 709.196 721.064 709.196 719.544C709.196 718.024 708.892 716.832 708.284 715.968C707.676 715.104 706.716 714.672 705.404 714.672C704.092 714.672 703.14 715.104 702.548 715.968C701.956 716.832 701.66 718.024 701.66 719.544ZM719.288 712.896C720.136 712.896 720.896 713.056 721.568 713.376C722.256 713.696 722.84 714.184 723.32 714.84H723.44L723.728 713.136H725.408V726.216C725.408 728.056 724.936 729.44 723.992 730.368C723.064 731.296 721.616 731.76 719.648 731.76C717.76 731.76 716.216 731.488 715.016 730.944V729C716.28 729.672 717.864 730.008 719.768 730.008C720.872 730.008 721.736 729.68 722.36 729.024C723 728.384 723.32 727.504 723.32 726.384V725.88C723.32 725.688 723.328 725.416 723.344 725.064C723.36 724.696 723.376 724.44 723.392 724.296H723.296C722.432 725.592 721.104 726.24 719.312 726.24C717.648 726.24 716.344 725.656 715.4 724.488C714.472 723.32 714.008 721.688 714.008 719.592C714.008 717.544 714.472 715.92 715.4 714.72C716.344 713.504 717.64 712.896 719.288 712.896ZM719.576 714.672C718.504 714.672 717.672 715.104 717.08 715.968C716.488 716.816 716.192 718.032 716.192 719.616C716.192 721.2 716.48 722.416 717.056 723.264C717.648 724.096 718.504 724.512 719.624 724.512C720.92 724.512 721.864 724.168 722.456 723.48C723.048 722.776 723.344 721.648 723.344 720.096V719.592C723.344 717.832 723.04 716.576 722.432 715.824C721.824 715.056 720.872 714.672 719.576 714.672ZM734.053 712.896C734.901 712.896 735.661 713.056 736.333 713.376C737.021 713.696 737.605 714.184 738.085 714.84H738.205L738.493 713.136H740.173V726.216C740.173 728.056 739.701 729.44 738.757 730.368C737.829 731.296 736.381 731.76 734.413 731.76C732.525 731.76 730.981 731.488 729.781 730.944V729C731.045 729.672 732.629 730.008 734.533 730.008C735.637 730.008 736.501 729.68 737.125 729.024C737.765 728.384 738.085 727.504 738.085 726.384V725.88C738.085 725.688 738.093 725.416 738.109 725.064C738.125 724.696 738.141 724.44 738.157 724.296H738.061C737.197 725.592 735.869 726.24 734.077 726.24C732.413 726.24 731.109 725.656 730.165 724.488C729.237 723.32 728.773 721.688 728.773 719.592C728.773 717.544 729.237 715.92 730.165 714.72C731.109 713.504 732.405 712.896 734.053 712.896ZM734.341 714.672C733.269 714.672 732.437 715.104 731.845 715.968C731.253 716.816 730.957 718.032 730.957 719.616C730.957 721.2 731.245 722.416 731.821 723.264C732.413 724.096 733.269 724.512 734.389 724.512C735.685 724.512 736.629 724.168 737.221 723.48C737.813 722.776 738.109 721.648 738.109 720.096V719.592C738.109 717.832 737.805 716.576 737.197 715.824C736.589 715.056 735.637 714.672 734.341 714.672ZM749.227 712.896C750.331 712.896 751.275 713.136 752.059 713.616C752.859 714.096 753.467 714.776 753.883 715.656C754.315 716.52 754.531 717.536 754.531 718.704V719.976H745.723C745.755 721.432 746.123 722.544 746.827 723.312C747.547 724.064 748.547 724.44 749.827 724.44C750.643 724.44 751.363 724.368 751.987 724.224C752.627 724.064 753.283 723.84 753.955 723.552V725.4C753.299 725.688 752.651 725.896 752.011 726.024C751.371 726.168 750.611 726.24 749.731 726.24C748.515 726.24 747.435 725.992 746.491 725.496C745.563 725 744.835 724.264 744.307 723.288C743.795 722.296 743.539 721.088 743.539 719.664C743.539 718.256 743.771 717.048 744.235 716.04C744.715 715.032 745.379 714.256 746.227 713.712C747.091 713.168 748.091 712.896 749.227 712.896ZM749.203 714.624C748.195 714.624 747.395 714.952 746.803 715.608C746.227 716.248 745.883 717.144 745.771 718.296H752.323C752.307 717.208 752.051 716.328 751.555 715.656C751.059 714.968 750.275 714.624 749.203 714.624ZM763.998 712.896C765.534 712.896 766.694 713.272 767.478 714.024C768.262 714.76 768.654 715.96 768.654 717.624V726H766.566V717.768C766.566 715.704 765.606 714.672 763.686 714.672C762.262 714.672 761.278 715.072 760.734 715.872C760.19 716.672 759.918 717.824 759.918 719.328V726H757.806V713.136H759.51L759.822 714.888H759.942C760.358 714.216 760.934 713.72 761.67 713.4C762.406 713.064 763.182 712.896 763.998 712.896Z" fill="black"/>
<path d="M571.2 555.344L580.248 551.576L571.2 547.28V545.408L582.504 551.048V552.248L571.2 557.216V555.344ZM611.977 542.864L607.417 560H605.233L601.897 548.768C601.769 548.304 601.641 547.84 601.513 547.376C601.385 546.912 601.281 546.504 601.201 546.152C601.121 545.784 601.065 545.528 601.033 545.384C601.017 545.592 600.929 546.04 600.769 546.728C600.625 547.4 600.441 548.104 600.217 548.84L596.977 560H594.793L590.257 542.864H592.513L595.177 553.328C595.369 554.064 595.529 554.776 595.657 555.464C595.801 556.152 595.913 556.8 595.993 557.408C596.073 556.784 596.193 556.104 596.353 555.368C596.513 554.632 596.697 553.912 596.905 553.208L599.929 542.864H602.161L605.305 553.28C605.529 554.016 605.721 554.752 605.881 555.488C606.041 556.208 606.161 556.848 606.241 557.408C606.321 556.816 606.433 556.176 606.577 555.488C606.721 554.784 606.889 554.056 607.081 553.304L609.721 542.864H611.977ZM618.725 546.92C620.293 546.92 621.453 547.264 622.205 547.952C622.957 548.64 623.333 549.736 623.333 551.24V560H621.797L621.389 558.176H621.293C620.733 558.88 620.141 559.4 619.517 559.736C618.909 560.072 618.061 560.24 616.973 560.24C615.805 560.24 614.837 559.936 614.069 559.328C613.301 558.704 612.917 557.736 612.917 556.424C612.917 555.144 613.421 554.16 614.429 553.472C615.437 552.768 616.989 552.384 619.085 552.32L621.269 552.248V551.48C621.269 550.408 621.037 549.664 620.573 549.248C620.109 548.832 619.453 548.624 618.605 548.624C617.933 548.624 617.293 548.728 616.685 548.936C616.077 549.128 615.509 549.352 614.98 549.608L614.333 548.024C614.893 547.72 615.557 547.464 616.325 547.256C617.093 547.032 617.893 546.92 618.725 546.92ZM619.349 553.784C617.749 553.848 616.637 554.104 616.013 554.552C615.405 555 615.101 555.632 615.101 556.448C615.101 557.168 615.317 557.696 615.749 558.032C616.197 558.368 616.765 558.536 617.453 558.536C618.541 558.536 619.445 558.24 620.165 557.648C620.885 557.04 621.245 556.112 621.245 554.864V553.712L619.349 553.784ZM632.466 560.24C631.33 560.24 630.314 560.008 629.418 559.544C628.538 559.08 627.842 558.36 627.33 557.384C626.834 556.408 626.586 555.16 626.586 553.64C626.586 552.056 626.85 550.768 627.378 549.776C627.906 548.784 628.618 548.056 629.514 547.592C630.426 547.128 631.458 546.896 632.61 546.896C633.266 546.896 633.898 546.968 634.506 547.112C635.114 547.24 635.61 547.4 635.994 547.592L635.346 549.344C634.962 549.2 634.514 549.064 634.002 548.936C633.49 548.808 633.01 548.744 632.562 548.744C630.034 548.744 628.77 550.368 628.77 553.616C628.77 555.168 629.074 556.36 629.682 557.192C630.306 558.008 631.226 558.416 632.442 558.416C633.146 558.416 633.762 558.344 634.29 558.2C634.834 558.056 635.33 557.88 635.778 557.672V559.544C635.346 559.768 634.866 559.936 634.338 560.048C633.826 560.176 633.202 560.24 632.466 560.24ZM640.949 547.112C640.949 547.752 640.909 548.352 640.829 548.912H640.973C641.389 548.256 641.949 547.76 642.653 547.424C643.373 547.088 644.149 546.92 644.981 546.92C646.549 546.92 647.725 547.296 648.509 548.048C649.293 548.784 649.685 549.976 649.685 551.624V560H647.597V551.768C647.597 549.704 646.637 548.672 644.717 548.672C643.277 548.672 642.285 549.08 641.741 549.896C641.213 550.696 640.949 551.848 640.949 553.352V560H638.837V541.76H640.949V547.112ZM657.969 558.512C658.289 558.512 658.617 558.488 658.953 558.44C659.289 558.376 659.561 558.312 659.769 558.248V559.856C659.545 559.968 659.225 560.056 658.809 560.12C658.393 560.2 657.993 560.24 657.609 560.24C656.937 560.24 656.313 560.128 655.737 559.904C655.177 559.664 654.721 559.256 654.369 558.68C654.017 558.104 653.841 557.296 653.841 556.256V548.768H652.017V547.76L653.865 546.92L654.705 544.184H655.953V547.136H659.673V548.768H655.953V556.208C655.953 556.992 656.137 557.576 656.505 557.96C656.889 558.328 657.377 558.512 657.969 558.512ZM670.649 552.728C670.441 552.072 670.257 551.432 670.097 550.808C669.953 550.168 669.841 549.672 669.761 549.32H669.665C669.601 549.672 669.497 550.168 669.353 550.808C669.209 551.432 669.025 552.08 668.801 552.752L666.497 559.976H664.097L660.569 547.112H662.753L664.529 553.976C664.705 554.664 664.873 555.36 665.033 556.064C665.193 556.768 665.305 557.352 665.369 557.816H665.465C665.529 557.544 665.601 557.208 665.681 556.808C665.777 556.408 665.881 555.992 665.993 555.56C666.105 555.112 666.217 554.712 666.329 554.36L668.609 547.112H670.913L673.121 554.36C673.297 554.904 673.465 555.496 673.625 556.136C673.801 556.776 673.921 557.328 673.985 557.792H674.081C674.129 557.392 674.233 556.84 674.393 556.136C674.569 555.432 674.753 554.712 674.945 553.976L676.745 547.112H678.905L675.329 559.976H672.857L670.649 552.728ZM692.396 553.544C692.396 555.672 691.852 557.32 690.764 558.488C689.692 559.656 688.236 560.24 686.396 560.24C685.26 560.24 684.244 559.984 683.348 559.472C682.468 558.944 681.772 558.184 681.26 557.192C680.748 556.184 680.492 554.968 680.492 553.544C680.492 551.416 681.028 549.776 682.1 548.624C683.172 547.472 684.628 546.896 686.468 546.896C687.636 546.896 688.66 547.16 689.54 547.688C690.436 548.2 691.132 548.952 691.628 549.944C692.14 550.92 692.396 552.12 692.396 553.544ZM682.676 553.544C682.676 555.064 682.972 556.272 683.564 557.168C684.172 558.048 685.132 558.488 686.444 558.488C687.74 558.488 688.692 558.048 689.3 557.168C689.908 556.272 690.212 555.064 690.212 553.544C690.212 552.024 689.908 550.832 689.3 549.968C688.692 549.104 687.732 548.672 686.42 548.672C685.108 548.672 684.156 549.104 683.564 549.968C682.972 550.832 682.676 552.024 682.676 553.544ZM706.927 553.544C706.927 555.672 706.383 557.32 705.295 558.488C704.223 559.656 702.767 560.24 700.927 560.24C699.791 560.24 698.775 559.984 697.879 559.472C696.999 558.944 696.303 558.184 695.791 557.192C695.279 556.184 695.023 554.968 695.023 553.544C695.023 551.416 695.559 549.776 696.631 548.624C697.703 547.472 699.159 546.896 700.999 546.896C702.167 546.896 703.191 547.16 704.071 547.688C704.967 548.2 705.663 548.952 706.159 549.944C706.671 550.92 706.927 552.12 706.927 553.544ZM697.207 553.544C697.207 555.064 697.503 556.272 698.095 557.168C698.703 558.048 699.663 558.488 700.975 558.488C702.271 558.488 703.223 558.048 703.831 557.168C704.439 556.272 704.743 555.064 704.743 553.544C704.743 552.024 704.439 550.832 703.831 549.968C703.223 549.104 702.263 548.672 700.951 548.672C699.639 548.672 698.687 549.104 698.095 549.968C697.503 550.832 697.207 552.024 697.207 553.544ZM716.274 546.896C716.514 546.896 716.77 546.912 717.042 546.944C717.33 546.96 717.578 546.992 717.786 547.04L717.522 548.984C717.314 548.936 717.082 548.896 716.826 548.864C716.586 548.832 716.354 548.816 716.13 548.816C715.474 548.816 714.858 549 714.282 549.368C713.706 549.72 713.242 550.224 712.89 550.88C712.554 551.52 712.386 552.272 712.386 553.136V560H710.274V547.136H712.002L712.242 549.488H712.338C712.754 548.784 713.29 548.176 713.946 547.664C714.602 547.152 715.378 546.896 716.274 546.896ZM724.28 560.24C722.68 560.24 721.4 559.688 720.44 558.584C719.48 557.464 719 555.8 719 553.592C719 551.384 719.48 549.72 720.44 548.6C721.416 547.464 722.704 546.896 724.304 546.896C725.296 546.896 726.104 547.08 726.728 547.448C727.368 547.816 727.888 548.264 728.288 548.792H728.432C728.416 548.584 728.384 548.28 728.336 547.88C728.304 547.464 728.288 547.136 728.288 546.896V541.76H730.4V560H728.696L728.384 558.272H728.288C727.904 558.816 727.392 559.28 726.752 559.664C726.112 560.048 725.288 560.24 724.28 560.24ZM724.616 558.488C725.976 558.488 726.928 558.12 727.472 557.384C728.032 556.632 728.312 555.504 728.312 554V553.616C728.312 552.016 728.048 550.792 727.52 549.944C726.992 549.08 726.016 548.648 724.592 548.648C723.456 548.648 722.6 549.104 722.024 550.016C721.464 550.912 721.184 552.12 721.184 553.64C721.184 555.176 721.464 556.368 722.024 557.216C722.6 558.064 723.464 558.488 724.616 558.488Z" fill="black"/>
<path d="M348.456 82.456C357.416 82.456 363.944 84.216 368.04 87.736C372.136 91.256 374.184 96.216 374.184 102.616C374.184 106.392 373.32 109.944 371.592 113.272C369.928 116.536 367.08 119.192 363.048 121.24C359.08 123.288 353.672 124.312 346.824 124.312H338.952V151H330.312V82.456H348.456ZM347.688 89.848H338.952V116.92H345.864C352.392 116.92 357.256 115.864 360.456 113.752C363.656 111.64 365.256 108.056 365.256 103C365.256 98.584 363.848 95.288 361.032 93.112C358.216 90.936 353.768 89.848 347.688 89.848ZM432.021 125.176C432.021 133.688 429.845 140.28 425.493 144.952C421.205 149.624 415.381 151.96 408.021 151.96C403.477 151.96 399.413 150.936 395.829 148.888C392.309 146.776 389.525 143.736 387.477 139.768C385.429 135.736 384.405 130.872 384.405 125.176C384.405 116.664 386.549 110.104 390.837 105.496C395.125 100.888 400.949 98.584 408.309 98.584C412.981 98.584 417.077 99.64 420.597 101.752C424.181 103.8 426.965 106.808 428.949 110.776C430.997 114.68 432.021 119.48 432.021 125.176ZM393.141 125.176C393.141 131.256 394.325 136.088 396.693 139.672C399.125 143.192 402.965 144.952 408.213 144.952C413.397 144.952 417.205 143.192 419.637 139.672C422.069 136.088 423.285 131.256 423.285 125.176C423.285 119.096 422.069 114.328 419.637 110.872C417.205 107.416 413.365 105.688 408.117 105.688C402.869 105.688 399.061 107.416 396.693 110.872C394.325 114.328 393.141 119.096 393.141 125.176ZM469.41 98.584C470.37 98.584 471.394 98.648 472.482 98.776C473.634 98.84 474.626 98.968 475.458 99.16L474.402 106.936C473.57 106.744 472.642 106.584 471.618 106.456C470.658 106.328 469.73 106.264 468.834 106.264C466.21 106.264 463.746 107 461.442 108.472C459.138 109.88 457.282 111.896 455.874 114.52C454.53 117.08 453.858 120.088 453.858 123.544V151H445.41V99.544H452.322L453.282 108.952H453.666C455.33 106.136 457.474 103.704 460.098 101.656C462.722 99.608 465.826 98.584 469.41 98.584ZM502.25 145.048C503.53 145.048 504.842 144.952 506.186 144.76C507.53 144.504 508.618 144.248 509.45 143.992V150.424C508.554 150.872 507.274 151.224 505.61 151.48C503.946 151.8 502.346 151.96 500.81 151.96C498.122 151.96 495.626 151.512 493.322 150.616C491.082 149.656 489.258 148.024 487.85 145.72C486.442 143.416 485.738 140.184 485.738 136.024V106.072H478.442V102.04L485.834 98.68L489.194 87.736H494.186V99.544H509.066V106.072H494.186V135.832C494.186 138.968 494.922 141.304 496.394 142.84C497.93 144.312 499.882 145.048 502.25 145.048ZM543.466 106.072H530.506V151H522.058V106.072H513.034V102.136L522.058 99.256V96.28C522.058 89.624 523.53 84.856 526.474 81.976C529.418 79.032 533.514 77.56 538.762 77.56C540.81 77.56 542.666 77.752 544.33 78.136C546.058 78.456 547.53 78.84 548.746 79.288L546.538 85.912C545.514 85.592 544.33 85.272 542.986 84.952C541.642 84.632 540.266 84.472 538.858 84.472C536.042 84.472 533.93 85.432 532.522 87.352C531.178 89.208 530.506 92.152 530.506 96.184V99.544H543.466V106.072ZM597.49 125.176C597.49 133.688 595.314 140.28 590.962 144.952C586.674 149.624 580.85 151.96 573.49 151.96C568.946 151.96 564.882 150.936 561.298 148.888C557.778 146.776 554.994 143.736 552.946 139.768C550.898 135.736 549.874 130.872 549.874 125.176C549.874 116.664 552.018 110.104 556.306 105.496C560.594 100.888 566.418 98.584 573.778 98.584C578.45 98.584 582.546 99.64 586.066 101.752C589.65 103.8 592.434 106.808 594.418 110.776C596.466 114.68 597.49 119.48 597.49 125.176ZM558.61 125.176C558.61 131.256 559.794 136.088 562.162 139.672C564.594 143.192 568.434 144.952 573.682 144.952C578.866 144.952 582.674 143.192 585.106 139.672C587.538 136.088 588.754 131.256 588.754 125.176C588.754 119.096 587.538 114.328 585.106 110.872C582.674 107.416 578.834 105.688 573.586 105.688C568.338 105.688 564.53 107.416 562.162 110.872C559.794 114.328 558.61 119.096 558.61 125.176ZM619.327 151H610.879V78.04H619.327V151ZM639.949 80.248C641.229 80.248 642.349 80.696 643.309 81.592C644.333 82.424 644.845 83.768 644.845 85.624C644.845 87.416 644.333 88.76 643.309 89.656C642.349 90.552 641.229 91 639.949 91C638.541 91 637.357 90.552 636.397 89.656C635.437 88.76 634.957 87.416 634.957 85.624C634.957 83.768 635.437 82.424 636.397 81.592C637.357 80.696 638.541 80.248 639.949 80.248ZM644.077 99.544V151H635.629V99.544H644.077ZM705.115 125.176C705.115 133.688 702.939 140.28 698.587 144.952C694.299 149.624 688.475 151.96 681.115 151.96C676.571 151.96 672.507 150.936 668.923 148.888C665.403 146.776 662.619 143.736 660.571 139.768C658.523 135.736 657.499 130.872 657.499 125.176C657.499 116.664 659.643 110.104 663.931 105.496C668.219 100.888 674.043 98.584 681.403 98.584C686.075 98.584 690.171 99.64 693.691 101.752C697.275 103.8 700.059 106.808 702.043 110.776C704.091 114.68 705.115 119.48 705.115 125.176ZM666.235 125.176C666.235 131.256 667.419 136.088 669.787 139.672C672.219 143.192 676.059 144.952 681.307 144.952C686.491 144.952 690.299 143.192 692.731 139.672C695.163 136.088 696.379 131.256 696.379 125.176C696.379 119.096 695.163 114.328 692.731 110.872C690.299 107.416 686.459 105.688 681.211 105.688C675.963 105.688 672.155 107.416 669.787 110.872C667.419 114.328 666.235 119.096 666.235 125.176ZM752.008 136.792C752.008 141.784 750.152 145.56 746.44 148.12C742.728 150.68 737.736 151.96 731.464 151.96C727.88 151.96 724.776 151.672 722.152 151.096C719.592 150.52 717.32 149.72 715.336 148.696V141.016C717.384 142.04 719.848 143 722.728 143.896C725.672 144.728 728.648 145.144 731.656 145.144C735.944 145.144 739.048 144.472 740.968 143.128C742.888 141.72 743.848 139.864 743.848 137.56C743.848 136.28 743.496 135.128 742.792 134.104C742.088 133.08 740.808 132.056 738.952 131.032C737.16 130.008 734.568 128.856 731.176 127.576C727.848 126.296 725 125.016 722.632 123.736C720.264 122.456 718.44 120.92 717.16 119.128C715.88 117.336 715.24 115.032 715.24 112.216C715.24 107.864 717 104.504 720.52 102.136C724.104 99.768 728.776 98.584 734.536 98.584C737.672 98.584 740.584 98.904 743.272 99.544C746.024 100.12 748.584 100.952 750.952 102.04L748.072 108.76C745.896 107.864 743.624 107.096 741.256 106.456C738.888 105.816 736.456 105.496 733.96 105.496C730.504 105.496 727.848 106.072 725.992 107.224C724.2 108.312 723.304 109.816 723.304 111.736C723.304 113.144 723.72 114.36 724.552 115.384C725.384 116.344 726.76 117.304 728.68 118.264C730.664 119.16 733.288 120.248 736.552 121.528C739.816 122.744 742.6 123.992 744.904 125.272C747.208 126.552 748.968 128.12 750.184 129.976C751.4 131.768 752.008 134.04 752.008 136.792ZM768.761 80.248C770.041 80.248 771.161 80.696 772.121 81.592C773.145 82.424 773.657 83.768 773.657 85.624C773.657 87.416 773.145 88.76 772.121 89.656C771.161 90.552 770.041 91 768.761 91C767.353 91 766.169 90.552 765.209 89.656C764.249 88.76 763.769 87.416 763.769 85.624C763.769 83.768 764.249 82.424 765.209 81.592C766.169 80.696 767.353 80.248 768.761 80.248ZM772.889 99.544V151H764.441V99.544H772.889ZM806.375 145.048C807.655 145.048 808.967 144.952 810.311 144.76C811.655 144.504 812.743 144.248 813.575 143.992V150.424C812.679 150.872 811.399 151.224 809.735 151.48C808.071 151.8 806.471 151.96 804.935 151.96C802.247 151.96 799.751 151.512 797.447 150.616C795.207 149.656 793.383 148.024 791.975 145.72C790.567 143.416 789.863 140.184 789.863 136.024V106.072H782.567V102.04L789.959 98.68L793.319 87.736H798.311V99.544H813.191V106.072H798.311V135.832C798.311 138.968 799.047 141.304 800.519 142.84C802.055 144.312 804.007 145.048 806.375 145.048ZM843.751 98.584C848.167 98.584 851.943 99.544 855.079 101.464C858.279 103.384 860.711 106.104 862.375 109.624C864.103 113.08 864.967 117.144 864.967 121.816V126.904H829.735C829.863 132.728 831.335 137.176 834.151 140.248C837.031 143.256 841.031 144.76 846.151 144.76C849.415 144.76 852.295 144.472 854.791 143.896C857.351 143.256 859.975 142.36 862.663 141.208V148.6C860.039 149.752 857.447 150.584 854.887 151.096C852.327 151.672 849.287 151.96 845.767 151.96C840.903 151.96 836.583 150.968 832.807 148.984C829.095 147 826.183 144.056 824.071 140.152C822.023 136.184 820.999 131.352 820.999 125.656C820.999 120.024 821.927 115.192 823.783 111.16C825.703 107.128 828.359 104.024 831.751 101.848C835.207 99.672 839.207 98.584 843.751 98.584ZM843.655 105.496C839.623 105.496 836.423 106.808 834.055 109.432C831.751 111.992 830.375 115.576 829.927 120.184H856.135C856.071 115.832 855.047 112.312 853.063 109.624C851.079 106.872 847.943 105.496 843.655 105.496Z" fill="black"/>
</svg>

