<svg width="1440" height="900" viewBox="0 0 1440 900" fill="none" xmlns="http://www.w3.org/2000/svg">
<rect width="1440" height="900" fill="white"/>
<rect x="35.5" y="20.5" width="124" height="124" fill="white" stroke="black"/>
<rect x="51.5" y="73.5" width="92" height="49" fill="white" stroke="black"/>
<rect x="296.5" y="220.5" width="847" height="639" fill="white" stroke="black"/>
<path d="M322.2 304.344L331.248 300.576L322.2 296.28V294.408L333.504 300.048V301.248L322.2 306.216V304.344ZM352.873 309H343.297V291.864H352.873V293.76H345.457V299.112H352.441V300.984H345.457V307.104H352.873V309ZM355.265 303.504V301.632H361.073V303.504H355.265ZM378.191 295.896C379.647 295.896 380.735 296.272 381.455 297.024C382.175 297.76 382.535 298.96 382.535 300.624V309H380.447V300.72C380.447 298.688 379.575 297.672 377.831 297.672C376.583 297.672 375.687 298.032 375.143 298.752C374.615 299.472 374.351 300.52 374.351 301.896V309H372.263V300.72C372.263 298.688 371.383 297.672 369.623 297.672C368.327 297.672 367.431 298.072 366.935 298.872C366.439 299.672 366.191 300.824 366.191 302.328V309H364.079V296.136H365.783L366.095 297.888H366.215C366.615 297.216 367.151 296.72 367.823 296.4C368.511 296.064 369.239 295.896 370.007 295.896C372.023 295.896 373.335 296.616 373.943 298.056H374.063C374.495 297.32 375.079 296.776 375.815 296.424C376.567 296.072 377.359 295.896 378.191 295.896ZM391.381 295.92C392.949 295.92 394.109 296.264 394.861 296.952C395.613 297.64 395.989 298.736 395.989 300.24V309H394.453L394.045 307.176H393.949C393.389 307.88 392.797 308.4 392.173 308.736C391.565 309.072 390.717 309.24 389.629 309.24C388.461 309.24 387.493 308.936 386.725 308.328C385.957 307.704 385.573 306.736 385.573 305.424C385.573 304.144 386.077 303.16 387.085 302.472C388.093 301.768 389.645 301.384 391.741 301.32L393.925 301.248V300.48C393.925 299.408 393.693 298.664 393.229 298.248C392.765 297.832 392.109 297.624 391.261 297.624C390.589 297.624 389.949 297.728 389.341 297.936C388.733 298.128 388.165 298.352 387.637 298.608L386.989 297.024C387.549 296.72 388.213 296.464 388.981 296.256C389.749 296.032 390.549 295.92 391.381 295.92ZM392.005 302.784C390.405 302.848 389.293 303.104 388.669 303.552C388.061 304 387.757 304.632 387.757 305.448C387.757 306.168 387.973 306.696 388.405 307.032C388.853 307.368 389.421 307.536 390.109 307.536C391.197 307.536 392.101 307.24 392.821 306.648C393.541 306.04 393.901 305.112 393.901 303.864V302.712L392.005 302.784ZM401.042 291.312C401.362 291.312 401.642 291.424 401.882 291.648C402.138 291.856 402.266 292.192 402.266 292.656C402.266 293.104 402.138 293.44 401.882 293.664C401.642 293.888 401.362 294 401.042 294C400.69 294 400.394 293.888 400.154 293.664C399.914 293.44 399.794 293.104 399.794 292.656C399.794 292.192 399.914 291.856 400.154 291.648C400.394 291.424 400.69 291.312 401.042 291.312ZM402.074 296.136V309H399.962V296.136H402.074ZM408.261 309H406.149V290.76H408.261V309Z" fill="black"/>
<rect x="296.5" y="30.5" width="847" height="166" fill="white" stroke="black"/>
<rect x="320.5" y="317.5" width="299" height="49" fill="white"/>
<rect x="320.5" y="317.5" width="299" height="49" stroke="black"/>
<rect x="320.5" y="317.5" width="299" height="49" stroke="black"/>
<rect x="320.5" y="317.5" width="299" height="49" stroke="black"/>
<rect x="320.5" y="317.5" width="299" height="49" stroke="black"/>
<rect x="620.5" y="771.5" width="199" height="49" fill="white"/>
<rect x="620.5" y="771.5" width="199" height="49" stroke="black"/>
<rect x="620.5" y="771.5" width="199" height="49" stroke="black"/>
<rect x="620.5" y="771.5" width="199" height="49" stroke="black"/>
<rect x="620.5" y="771.5" width="199" height="49" stroke="black"/>
<rect x="321.5" y="588.5" width="749" height="154" fill="white" stroke="black"/>
<path d="M358.28 617.408C358.28 619.184 357.976 620.736 357.368 622.064C356.776 623.376 355.896 624.4 354.728 625.136C353.56 625.872 352.112 626.24 350.384 626.24C348.608 626.24 347.128 625.872 345.944 625.136C344.776 624.4 343.904 623.368 343.328 622.04C342.752 620.712 342.464 619.16 342.464 617.384C342.464 615.624 342.752 614.088 343.328 612.776C343.904 611.464 344.776 610.44 345.944 609.704C347.128 608.968 348.616 608.6 350.408 608.6C352.12 608.6 353.56 608.968 354.728 609.704C355.896 610.424 356.776 611.448 357.368 612.776C357.976 614.088 358.28 615.632 358.28 617.408ZM344.744 617.408C344.744 619.568 345.2 621.272 346.112 622.52C347.024 623.752 348.448 624.368 350.384 624.368C352.336 624.368 353.76 623.752 354.656 622.52C355.552 621.272 356 619.568 356 617.408C356 615.248 355.552 613.56 354.656 612.344C353.76 611.112 352.344 610.496 350.408 610.496C348.472 610.496 347.04 611.112 346.112 612.344C345.2 613.56 344.744 615.248 344.744 617.408ZM364.622 626L359.75 613.136H362.006L364.742 620.72C364.87 621.072 365.006 621.464 365.15 621.896C365.294 622.328 365.422 622.744 365.534 623.144C365.646 623.528 365.726 623.856 365.774 624.128H365.87C365.934 623.856 366.022 623.52 366.134 623.12C366.262 622.72 366.398 622.304 366.542 621.872C366.702 621.44 366.838 621.056 366.95 620.72L369.686 613.136H371.942L367.046 626H364.622ZM378.946 612.896C380.05 612.896 380.994 613.136 381.778 613.616C382.578 614.096 383.186 614.776 383.602 615.656C384.034 616.52 384.25 617.536 384.25 618.704V619.976H375.442C375.474 621.432 375.842 622.544 376.546 623.312C377.266 624.064 378.266 624.44 379.546 624.44C380.362 624.44 381.082 624.368 381.706 624.224C382.346 624.064 383.002 623.84 383.674 623.552V625.4C383.018 625.688 382.37 625.896 381.73 626.024C381.09 626.168 380.33 626.24 379.45 626.24C378.234 626.24 377.154 625.992 376.21 625.496C375.282 625 374.554 624.264 374.026 623.288C373.514 622.296 373.258 621.088 373.258 619.664C373.258 618.256 373.49 617.048 373.954 616.04C374.434 615.032 375.098 614.256 375.946 613.712C376.81 613.168 377.81 612.896 378.946 612.896ZM378.922 614.624C377.914 614.624 377.114 614.952 376.522 615.608C375.946 616.248 375.602 617.144 375.49 618.296H382.042C382.026 617.208 381.77 616.328 381.274 615.656C380.778 614.968 379.994 614.624 378.922 614.624ZM393.524 612.896C393.764 612.896 394.02 612.912 394.292 612.944C394.58 612.96 394.828 612.992 395.036 613.04L394.772 614.984C394.564 614.936 394.332 614.896 394.076 614.864C393.836 614.832 393.604 614.816 393.38 614.816C392.724 614.816 392.108 615 391.532 615.368C390.956 615.72 390.492 616.224 390.14 616.88C389.804 617.52 389.636 618.272 389.636 619.136V626H387.524V613.136H389.252L389.492 615.488H389.588C390.004 614.784 390.54 614.176 391.196 613.664C391.852 613.152 392.628 612.896 393.524 612.896ZM405.785 612.2C405.785 612.744 405.769 613.256 405.737 613.736C405.721 614.2 405.697 614.568 405.665 614.84H405.785C406.153 614.296 406.657 613.84 407.297 613.472C407.937 613.104 408.761 612.92 409.769 612.92C411.369 612.92 412.649 613.48 413.609 614.6C414.585 615.704 415.073 617.36 415.073 619.568C415.073 621.776 414.585 623.44 413.609 624.56C412.633 625.68 411.353 626.24 409.769 626.24C408.761 626.24 407.937 626.056 407.297 625.688C406.657 625.32 406.153 624.88 405.785 624.368H405.617L405.185 626H403.673V607.76H405.785V612.2ZM409.409 614.672C408.049 614.672 407.105 615.064 406.577 615.848C406.049 616.632 405.785 617.848 405.785 619.496V619.592C405.785 621.176 406.041 622.392 406.553 623.24C407.081 624.072 408.049 624.488 409.457 624.488C410.609 624.488 411.465 624.064 412.025 623.216C412.601 622.368 412.889 621.144 412.889 619.544C412.889 616.296 411.729 614.672 409.409 614.672ZM423.406 612.896C424.51 612.896 425.454 613.136 426.238 613.616C427.038 614.096 427.646 614.776 428.062 615.656C428.494 616.52 428.71 617.536 428.71 618.704V619.976H419.902C419.934 621.432 420.302 622.544 421.006 623.312C421.726 624.064 422.726 624.44 424.006 624.44C424.822 624.44 425.542 624.368 426.166 624.224C426.806 624.064 427.462 623.84 428.134 623.552V625.4C427.478 625.688 426.83 625.896 426.19 626.024C425.55 626.168 424.79 626.24 423.91 626.24C422.694 626.24 421.614 625.992 420.67 625.496C419.742 625 419.014 624.264 418.486 623.288C417.974 622.296 417.718 621.088 417.718 619.664C417.718 618.256 417.95 617.048 418.414 616.04C418.894 615.032 419.558 614.256 420.406 613.712C421.27 613.168 422.27 612.896 423.406 612.896ZM423.382 614.624C422.374 614.624 421.574 614.952 420.982 615.608C420.406 616.248 420.062 617.144 419.95 618.296H426.502C426.486 617.208 426.23 616.328 425.734 615.656C425.238 614.968 424.454 614.624 423.382 614.624ZM436.545 626.24C434.945 626.24 433.665 625.688 432.705 624.584C431.745 623.464 431.265 621.8 431.265 619.592C431.265 617.384 431.745 615.72 432.705 614.6C433.681 613.464 434.969 612.896 436.569 612.896C437.561 612.896 438.369 613.08 438.993 613.448C439.633 613.816 440.153 614.264 440.553 614.792H440.697C440.681 614.584 440.649 614.28 440.601 613.88C440.569 613.464 440.553 613.136 440.553 612.896V607.76H442.665V626H440.961L440.649 624.272H440.553C440.169 624.816 439.657 625.28 439.017 625.664C438.377 626.048 437.553 626.24 436.545 626.24ZM436.881 624.488C438.241 624.488 439.193 624.12 439.737 623.384C440.297 622.632 440.577 621.504 440.577 620V619.616C440.577 618.016 440.313 616.792 439.785 615.944C439.257 615.08 438.281 614.648 436.857 614.648C435.721 614.648 434.865 615.104 434.289 616.016C433.729 616.912 433.449 618.12 433.449 619.64C433.449 621.176 433.729 622.368 434.289 623.216C434.865 624.064 435.729 624.488 436.881 624.488ZM452.751 612.896C452.991 612.896 453.247 612.912 453.519 612.944C453.807 612.96 454.055 612.992 454.263 613.04L453.999 614.984C453.791 614.936 453.559 614.896 453.303 614.864C453.063 614.832 452.831 614.816 452.607 614.816C451.951 614.816 451.335 615 450.759 615.368C450.183 615.72 449.719 616.224 449.367 616.88C449.031 617.52 448.863 618.272 448.863 619.136V626H446.751V613.136H448.479L448.719 615.488H448.815C449.231 614.784 449.767 614.176 450.423 613.664C451.079 613.152 451.855 612.896 452.751 612.896ZM457.745 608.312C458.065 608.312 458.345 608.424 458.585 608.648C458.841 608.856 458.969 609.192 458.969 609.656C458.969 610.104 458.841 610.44 458.585 610.664C458.345 610.888 458.065 611 457.745 611C457.393 611 457.097 610.888 456.857 610.664C456.617 610.44 456.497 610.104 456.497 609.656C456.497 609.192 456.617 608.856 456.857 608.648C457.097 608.424 457.393 608.312 457.745 608.312ZM458.777 613.136V626H456.665V613.136H458.777ZM462.685 609.656C462.685 609.192 462.805 608.856 463.045 608.648C463.285 608.424 463.581 608.312 463.933 608.312C464.253 608.312 464.533 608.424 464.773 608.648C465.029 608.856 465.157 609.192 465.157 609.656C465.157 610.104 465.029 610.44 464.773 610.664C464.533 610.888 464.253 611 463.933 611C463.581 611 463.285 610.888 463.045 610.664C462.805 610.44 462.685 610.104 462.685 609.656ZM461.341 631.76C460.941 631.76 460.588 631.728 460.284 631.664C459.98 631.616 459.716 631.552 459.492 631.472V629.768C459.732 629.832 459.98 629.888 460.236 629.936C460.492 629.984 460.773 630.008 461.077 630.008C461.589 630.008 462.013 629.864 462.349 629.576C462.685 629.304 462.853 628.776 462.853 627.992V613.136H464.965V627.92C464.965 629.12 464.677 630.056 464.101 630.728C463.525 631.416 462.605 631.76 461.341 631.76ZM474.968 614.768H471.728V626H469.616V614.768H467.36V613.784L469.616 613.064V612.32C469.616 610.656 469.984 609.464 470.72 608.744C471.456 608.008 472.48 607.64 473.792 607.64C474.304 607.64 474.768 607.688 475.184 607.784C475.616 607.864 475.984 607.96 476.288 608.072L475.736 609.728C475.48 609.648 475.184 609.568 474.848 609.488C474.512 609.408 474.168 609.368 473.816 609.368C473.112 609.368 472.584 609.608 472.232 610.088C471.896 610.552 471.728 611.288 471.728 612.296V613.136H474.968V614.768Z" fill="black"/>
<rect x="320.5" y="414.5" width="299" height="49" fill="white"/>
<rect x="320.5" y="414.5" width="299" height="49" stroke="black"/>
<rect x="320.5" y="414.5" width="299" height="49" stroke="black"/>
<rect x="320.5" y="414.5" width="299" height="49" stroke="black"/>
<rect x="320.5" y="414.5" width="299" height="49" stroke="black"/>
<rect x="320.5" y="511.5" width="299" height="49" fill="white"/>
<rect x="320.5" y="511.5" width="299" height="49" stroke="black"/>
<rect x="320.5" y="511.5" width="299" height="49" stroke="black"/>
<rect x="320.5" y="511.5" width="299" height="49" stroke="black"/>
<rect x="320.5" y="511.5" width="299" height="49" stroke="black"/>
<path d="M322.8 265.016L336.372 259.364L322.8 252.92V250.112L339.756 258.572V260.372L322.8 267.824V265.016ZM361.789 246.296C365.005 246.296 367.429 246.776 369.061 247.736C370.717 248.672 371.545 250.316 371.545 252.668C371.545 254.18 371.125 255.44 370.285 256.448C369.445 257.432 368.233 258.068 366.649 258.356V258.536C367.729 258.704 368.701 259.016 369.565 259.472C370.453 259.928 371.149 260.576 371.653 261.416C372.157 262.256 372.409 263.348 372.409 264.692C372.409 267.02 371.605 268.82 369.997 270.092C368.413 271.364 366.241 272 363.481 272H354.445V246.296H361.789ZM362.437 257.24C364.645 257.24 366.157 256.892 366.973 256.196C367.789 255.476 368.197 254.42 368.197 253.028C368.197 251.612 367.693 250.604 366.685 250.004C365.701 249.38 364.117 249.068 361.933 249.068H357.685V257.24H362.437ZM357.685 259.94V269.264H362.869C365.149 269.264 366.733 268.82 367.621 267.932C368.509 267.044 368.953 265.88 368.953 264.44C368.953 263.096 368.485 262.016 367.549 261.2C366.637 260.36 364.993 259.94 362.617 259.94H357.685ZM384.879 252.344C386.535 252.344 387.951 252.704 389.127 253.424C390.327 254.144 391.239 255.164 391.863 256.484C392.511 257.78 392.835 259.304 392.835 261.056V262.964H379.623C379.671 265.148 380.223 266.816 381.279 267.968C382.359 269.096 383.859 269.66 385.779 269.66C387.003 269.66 388.083 269.552 389.019 269.336C389.979 269.096 390.963 268.76 391.971 268.328V271.1C390.987 271.532 390.015 271.844 389.055 272.036C388.095 272.252 386.955 272.36 385.635 272.36C383.811 272.36 382.191 271.988 380.775 271.244C379.383 270.5 378.291 269.396 377.499 267.932C376.731 266.444 376.347 264.632 376.347 262.496C376.347 260.384 376.695 258.572 377.391 257.06C378.111 255.548 379.107 254.384 380.379 253.568C381.675 252.752 383.175 252.344 384.879 252.344ZM384.843 254.936C383.331 254.936 382.131 255.428 381.243 256.412C380.379 257.372 379.863 258.716 379.695 260.444H389.523C389.499 258.812 389.115 257.492 388.371 256.484C387.627 255.452 386.451 254.936 384.843 254.936ZM404.588 272.36C402.188 272.36 400.268 271.532 398.828 269.876C397.388 268.196 396.668 265.7 396.668 262.388C396.668 259.076 397.388 256.58 398.828 254.9C400.292 253.196 402.224 252.344 404.624 252.344C406.112 252.344 407.324 252.62 408.26 253.172C409.22 253.724 410 254.396 410.6 255.188H410.816C410.792 254.876 410.744 254.42 410.672 253.82C410.624 253.196 410.6 252.704 410.6 252.344V244.64H413.768V272H411.212L410.744 269.408H410.6C410.024 270.224 409.256 270.92 408.296 271.496C407.336 272.072 406.1 272.36 404.588 272.36ZM405.092 269.732C407.132 269.732 408.56 269.18 409.376 268.076C410.216 266.948 410.636 265.256 410.636 263V262.424C410.636 260.024 410.24 258.188 409.448 256.916C408.656 255.62 407.192 254.972 405.056 254.972C403.352 254.972 402.068 255.656 401.204 257.024C400.364 258.368 399.944 260.18 399.944 262.46C399.944 264.764 400.364 266.552 401.204 267.824C402.068 269.096 403.364 269.732 405.092 269.732ZM428.896 252.344C429.256 252.344 429.64 252.368 430.048 252.416C430.48 252.44 430.852 252.488 431.164 252.56L430.768 255.476C430.456 255.404 430.108 255.344 429.724 255.296C429.364 255.248 429.016 255.224 428.68 255.224C427.696 255.224 426.772 255.5 425.908 256.052C425.044 256.58 424.348 257.336 423.82 258.32C423.316 259.28 423.064 260.408 423.064 261.704V272H419.896V252.704H422.488L422.848 256.232H422.992C423.616 255.176 424.42 254.264 425.404 253.496C426.388 252.728 427.552 252.344 428.896 252.344ZM436.387 245.468C436.867 245.468 437.287 245.636 437.647 245.972C438.031 246.284 438.223 246.788 438.223 247.484C438.223 248.156 438.031 248.66 437.647 248.996C437.287 249.332 436.867 249.5 436.387 249.5C435.859 249.5 435.415 249.332 435.055 248.996C434.695 248.66 434.515 248.156 434.515 247.484C434.515 246.788 434.695 246.284 435.055 245.972C435.415 245.636 435.859 245.468 436.387 245.468ZM437.935 252.704V272H434.767V252.704H437.935ZM443.796 247.484C443.796 246.788 443.976 246.284 444.336 245.972C444.696 245.636 445.14 245.468 445.668 245.468C446.148 245.468 446.568 245.636 446.928 245.972C447.312 246.284 447.504 246.788 447.504 247.484C447.504 248.156 447.312 248.66 446.928 248.996C446.568 249.332 446.148 249.5 445.668 249.5C445.14 249.5 444.696 249.332 444.336 248.996C443.976 248.66 443.796 248.156 443.796 247.484ZM441.78 280.64C441.18 280.64 440.652 280.592 440.196 280.496C439.74 280.424 439.344 280.328 439.008 280.208V277.652C439.368 277.748 439.74 277.832 440.124 277.904C440.508 277.976 440.928 278.012 441.384 278.012C442.152 278.012 442.788 277.796 443.292 277.364C443.796 276.956 444.048 276.164 444.048 274.988V252.704H447.216V274.88C447.216 276.68 446.784 278.084 445.92 279.092C445.056 280.124 443.676 280.64 441.78 280.64ZM457.578 272L450.27 252.704H453.654L457.758 264.08C457.95 264.608 458.154 265.196 458.37 265.844C458.586 266.492 458.778 267.116 458.946 267.716C459.114 268.292 459.234 268.784 459.306 269.192H459.45C459.546 268.784 459.678 268.28 459.846 267.68C460.038 267.08 460.242 266.456 460.458 265.808C460.698 265.16 460.902 264.584 461.07 264.08L465.174 252.704H468.558L461.214 272H457.578ZM479.063 252.344C480.719 252.344 482.135 252.704 483.311 253.424C484.511 254.144 485.423 255.164 486.047 256.484C486.695 257.78 487.019 259.304 487.019 261.056V262.964H473.807C473.855 265.148 474.407 266.816 475.463 267.968C476.543 269.096 478.043 269.66 479.963 269.66C481.187 269.66 482.267 269.552 483.203 269.336C484.163 269.096 485.147 268.76 486.155 268.328V271.1C485.171 271.532 484.199 271.844 483.239 272.036C482.279 272.252 481.139 272.36 479.819 272.36C477.995 272.36 476.375 271.988 474.959 271.244C473.567 270.5 472.475 269.396 471.683 267.932C470.915 266.444 470.531 264.632 470.531 262.496C470.531 260.384 470.879 258.572 471.575 257.06C472.295 255.548 473.291 254.384 474.563 253.568C475.859 252.752 477.359 252.344 479.063 252.344ZM479.027 254.936C477.515 254.936 476.315 255.428 475.427 256.412C474.563 257.372 474.047 258.716 473.879 260.444H483.707C483.683 258.812 483.299 257.492 482.555 256.484C481.811 255.452 480.635 254.936 479.027 254.936ZM501.219 252.344C503.523 252.344 505.263 252.908 506.439 254.036C507.615 255.14 508.203 256.94 508.203 259.436V272H505.071V259.652C505.071 256.556 503.631 255.008 500.751 255.008C498.615 255.008 497.139 255.608 496.323 256.808C495.507 258.008 495.099 259.736 495.099 261.992V272H491.931V252.704H494.487L494.955 255.332H495.135C495.759 254.324 496.623 253.58 497.727 253.1C498.831 252.596 499.995 252.344 501.219 252.344ZM530.845 252.38C533.197 252.38 534.937 252.896 536.065 253.928C537.193 254.96 537.757 256.604 537.757 258.86V272H535.453L534.841 269.264H534.697C533.857 270.32 532.969 271.1 532.033 271.604C531.121 272.108 529.849 272.36 528.217 272.36C526.465 272.36 525.013 271.904 523.861 270.992C522.709 270.056 522.133 268.604 522.133 266.636C522.133 264.716 522.889 263.24 524.401 262.208C525.913 261.152 528.241 260.576 531.385 260.48L534.661 260.372V259.22C534.661 257.612 534.313 256.496 533.617 255.872C532.921 255.248 531.937 254.936 530.665 254.936C529.657 254.936 528.697 255.092 527.785 255.404C526.873 255.692 526.021 256.028 525.229 256.412L524.257 254.036C525.097 253.58 526.093 253.196 527.245 252.884C528.397 252.548 529.597 252.38 530.845 252.38ZM531.781 262.676C529.381 262.772 527.713 263.156 526.777 263.828C525.865 264.5 525.409 265.448 525.409 266.672C525.409 267.752 525.733 268.544 526.381 269.048C527.053 269.552 527.905 269.804 528.937 269.804C530.569 269.804 531.925 269.36 533.005 268.472C534.085 267.56 534.625 266.168 534.625 264.296V262.568L531.781 262.676ZM551.456 272.36C549.752 272.36 548.228 272.012 546.884 271.316C545.564 270.62 544.52 269.54 543.752 268.076C543.008 266.612 542.636 264.74 542.636 262.46C542.636 260.084 543.032 258.152 543.824 256.664C544.616 255.176 545.684 254.084 547.028 253.388C548.396 252.692 549.944 252.344 551.672 252.344C552.656 252.344 553.604 252.452 554.516 252.668C555.428 252.86 556.172 253.1 556.748 253.388L555.776 256.016C555.2 255.8 554.528 255.596 553.76 255.404C552.992 255.212 552.272 255.116 551.6 255.116C547.808 255.116 545.912 257.552 545.912 262.424C545.912 264.752 546.368 266.54 547.28 267.788C548.216 269.012 549.596 269.624 551.42 269.624C552.476 269.624 553.4 269.516 554.192 269.3C555.008 269.084 555.752 268.82 556.424 268.508V271.316C555.776 271.652 555.056 271.904 554.264 272.072C553.496 272.264 552.56 272.36 551.456 272.36ZM568.753 272.36C567.049 272.36 565.525 272.012 564.181 271.316C562.861 270.62 561.817 269.54 561.049 268.076C560.305 266.612 559.933 264.74 559.933 262.46C559.933 260.084 560.329 258.152 561.121 256.664C561.913 255.176 562.981 254.084 564.325 253.388C565.693 252.692 567.241 252.344 568.969 252.344C569.953 252.344 570.901 252.452 571.813 252.668C572.725 252.86 573.469 253.1 574.045 253.388L573.073 256.016C572.497 255.8 571.825 255.596 571.057 255.404C570.289 255.212 569.569 255.116 568.897 255.116C565.105 255.116 563.209 257.552 563.209 262.424C563.209 264.752 563.665 266.54 564.577 267.788C565.513 269.012 566.893 269.624 568.717 269.624C569.773 269.624 570.697 269.516 571.489 269.3C572.305 269.084 573.049 268.82 573.721 268.508V271.316C573.073 271.652 572.353 271.904 571.561 272.072C570.793 272.264 569.857 272.36 568.753 272.36ZM595.086 262.316C595.086 265.508 594.27 267.98 592.638 269.732C591.03 271.484 588.846 272.36 586.086 272.36C584.382 272.36 582.858 271.976 581.514 271.208C580.194 270.416 579.15 269.276 578.382 267.788C577.614 266.276 577.23 264.452 577.23 262.316C577.23 259.124 578.034 256.664 579.642 254.936C581.25 253.208 583.434 252.344 586.194 252.344C587.946 252.344 589.482 252.74 590.802 253.532C592.146 254.3 593.19 255.428 593.934 256.916C594.702 258.38 595.086 260.18 595.086 262.316ZM580.506 262.316C580.506 264.596 580.95 266.408 581.838 267.752C582.75 269.072 584.19 269.732 586.158 269.732C588.102 269.732 589.53 269.072 590.442 267.752C591.354 266.408 591.81 264.596 591.81 262.316C591.81 260.036 591.354 258.248 590.442 256.952C589.53 255.656 588.09 255.008 586.122 255.008C584.154 255.008 582.726 255.656 581.838 256.952C580.95 258.248 580.506 260.036 580.506 262.316ZM616.235 252.704V272H613.643L613.175 269.444H613.031C612.407 270.452 611.543 271.196 610.439 271.676C609.335 272.132 608.159 272.36 606.911 272.36C604.583 272.36 602.831 271.808 601.655 270.704C600.479 269.576 599.891 267.788 599.891 265.34V252.704H603.095V265.124C603.095 268.196 604.523 269.732 607.379 269.732C609.515 269.732 610.991 269.132 611.807 267.932C612.647 266.732 613.067 265.004 613.067 262.748V252.704H616.235ZM631.649 252.344C633.953 252.344 635.693 252.908 636.869 254.036C638.045 255.14 638.633 256.94 638.633 259.436V272H635.501V259.652C635.501 256.556 634.061 255.008 631.181 255.008C629.045 255.008 627.569 255.608 626.753 256.808C625.937 258.008 625.529 259.736 625.529 261.992V272H622.361V252.704H624.917L625.385 255.332H625.565C626.189 254.324 627.053 253.58 628.157 253.1C629.261 252.596 630.425 252.344 631.649 252.344ZM651.059 269.768C651.539 269.768 652.031 269.732 652.535 269.66C653.039 269.564 653.447 269.468 653.759 269.372V271.784C653.423 271.952 652.943 272.084 652.319 272.18C651.695 272.3 651.095 272.36 650.519 272.36C649.511 272.36 648.575 272.192 647.711 271.856C646.871 271.496 646.187 270.884 645.659 270.02C645.131 269.156 644.867 267.944 644.867 266.384V255.152H642.131V253.64L644.903 252.38L646.163 248.276H648.035V252.704H653.615V255.152H648.035V266.312C648.035 267.488 648.311 268.364 648.863 268.94C649.439 269.492 650.171 269.768 651.059 269.768ZM688.142 252.344C690.326 252.344 691.958 252.908 693.038 254.036C694.118 255.14 694.658 256.94 694.658 259.436V272H691.526V259.58C691.526 256.532 690.218 255.008 687.602 255.008C685.73 255.008 684.386 255.548 683.57 256.628C682.778 257.708 682.382 259.28 682.382 261.344V272H679.25V259.58C679.25 256.532 677.93 255.008 675.29 255.008C673.346 255.008 672.002 255.608 671.258 256.808C670.514 258.008 670.142 259.736 670.142 261.992V272H666.974V252.704H669.53L669.998 255.332H670.178C670.778 254.324 671.582 253.58 672.59 253.1C673.622 252.596 674.714 252.344 675.866 252.344C678.89 252.344 680.858 253.424 681.77 255.584H681.95C682.598 254.48 683.474 253.664 684.578 253.136C685.706 252.608 686.894 252.344 688.142 252.344ZM707.927 252.38C710.279 252.38 712.019 252.896 713.147 253.928C714.275 254.96 714.839 256.604 714.839 258.86V272H712.535L711.923 269.264H711.779C710.939 270.32 710.051 271.1 709.115 271.604C708.203 272.108 706.931 272.36 705.299 272.36C703.547 272.36 702.095 271.904 700.943 270.992C699.791 270.056 699.215 268.604 699.215 266.636C699.215 264.716 699.971 263.24 701.483 262.208C702.995 261.152 705.323 260.576 708.467 260.48L711.743 260.372V259.22C711.743 257.612 711.395 256.496 710.699 255.872C710.003 255.248 709.019 254.936 707.747 254.936C706.739 254.936 705.779 255.092 704.867 255.404C703.955 255.692 703.103 256.028 702.311 256.412L701.339 254.036C702.179 253.58 703.175 253.196 704.327 252.884C705.479 252.548 706.679 252.38 707.927 252.38ZM708.863 262.676C706.463 262.772 704.795 263.156 703.859 263.828C702.947 264.5 702.491 265.448 702.491 266.672C702.491 267.752 702.815 268.544 703.463 269.048C704.135 269.552 704.987 269.804 706.019 269.804C707.651 269.804 709.007 269.36 710.087 268.472C711.167 267.56 711.707 266.168 711.707 264.296V262.568L708.863 262.676ZM723.93 258.932C723.93 259.316 723.906 259.82 723.858 260.444C723.834 261.068 723.81 261.608 723.786 262.064H723.93C724.074 261.872 724.29 261.596 724.578 261.236C724.866 260.876 725.154 260.516 725.442 260.156C725.754 259.772 726.018 259.46 726.234 259.22L732.39 252.704H736.098L728.286 260.948L736.638 272H732.822L726.126 263L723.93 264.908V272H720.798V244.64H723.93V258.932ZM747.481 252.344C749.137 252.344 750.553 252.704 751.729 253.424C752.929 254.144 753.841 255.164 754.465 256.484C755.113 257.78 755.437 259.304 755.437 261.056V262.964H742.225C742.273 265.148 742.825 266.816 743.881 267.968C744.961 269.096 746.461 269.66 748.381 269.66C749.605 269.66 750.685 269.552 751.621 269.336C752.581 269.096 753.565 268.76 754.573 268.328V271.1C753.589 271.532 752.617 271.844 751.657 272.036C750.697 272.252 749.557 272.36 748.237 272.36C746.413 272.36 744.793 271.988 743.377 271.244C741.985 270.5 740.893 269.396 740.101 267.932C739.333 266.444 738.949 264.632 738.949 262.496C738.949 260.384 739.297 258.572 739.993 257.06C740.713 255.548 741.709 254.384 742.981 253.568C744.277 252.752 745.777 252.344 747.481 252.344ZM747.445 254.936C745.933 254.936 744.733 255.428 743.845 256.412C742.981 257.372 742.465 258.716 742.297 260.444H752.125C752.101 258.812 751.717 257.492 750.973 256.484C750.229 255.452 749.053 254.936 747.445 254.936ZM769.637 252.344C771.941 252.344 773.681 252.908 774.857 254.036C776.033 255.14 776.621 256.94 776.621 259.436V272H773.489V259.652C773.489 256.556 772.049 255.008 769.169 255.008C767.033 255.008 765.557 255.608 764.741 256.808C763.925 258.008 763.517 259.736 763.517 261.992V272H760.349V252.704H762.905L763.373 255.332H763.553C764.177 254.324 765.041 253.58 766.145 253.1C767.249 252.596 768.413 252.344 769.637 252.344Z" fill="black"/>
<path d="M321.2 395.344L330.248 391.576L321.2 387.28V385.408L332.504 391.048V392.248L321.2 397.216V395.344ZM349.737 390.952H355.665V399.352C354.737 399.656 353.801 399.88 352.857 400.024C351.913 400.168 350.841 400.24 349.641 400.24C347.865 400.24 346.369 399.888 345.153 399.184C343.937 398.464 343.009 397.448 342.369 396.136C341.745 394.808 341.433 393.24 341.433 391.432C341.433 389.64 341.785 388.088 342.489 386.776C343.193 385.464 344.201 384.448 345.513 383.728C346.841 382.992 348.441 382.624 350.313 382.624C351.273 382.624 352.177 382.712 353.025 382.888C353.889 383.064 354.689 383.312 355.425 383.632L354.609 385.504C354.001 385.232 353.313 385 352.545 384.808C351.793 384.616 351.009 384.52 350.193 384.52C348.145 384.52 346.545 385.136 345.393 386.368C344.257 387.6 343.689 389.288 343.689 391.432C343.689 392.792 343.905 394 344.337 395.056C344.785 396.096 345.481 396.912 346.425 397.504C347.369 398.08 348.609 398.368 350.145 398.368C350.897 398.368 351.537 398.328 352.065 398.248C352.593 398.168 353.073 398.072 353.505 397.96V392.872H349.737V390.952ZM364.438 386.896C365.542 386.896 366.486 387.136 367.27 387.616C368.07 388.096 368.678 388.776 369.094 389.656C369.526 390.52 369.742 391.536 369.742 392.704V393.976H360.934C360.966 395.432 361.334 396.544 362.038 397.312C362.758 398.064 363.758 398.44 365.038 398.44C365.854 398.44 366.574 398.368 367.198 398.224C367.838 398.064 368.494 397.84 369.166 397.552V399.4C368.51 399.688 367.862 399.896 367.222 400.024C366.582 400.168 365.822 400.24 364.942 400.24C363.726 400.24 362.646 399.992 361.702 399.496C360.774 399 360.046 398.264 359.518 397.288C359.006 396.296 358.75 395.088 358.75 393.664C358.75 392.256 358.982 391.048 359.446 390.04C359.926 389.032 360.59 388.256 361.438 387.712C362.302 387.168 363.302 386.896 364.438 386.896ZM364.414 388.624C363.406 388.624 362.606 388.952 362.014 389.608C361.438 390.248 361.094 391.144 360.982 392.296H367.534C367.518 391.208 367.262 390.328 366.766 389.656C366.27 388.968 365.486 388.624 364.414 388.624ZM375.129 386.2C375.129 386.744 375.113 387.256 375.081 387.736C375.065 388.2 375.041 388.568 375.009 388.84H375.129C375.497 388.296 376.001 387.84 376.641 387.472C377.281 387.104 378.105 386.92 379.113 386.92C380.713 386.92 381.993 387.48 382.953 388.6C383.929 389.704 384.417 391.36 384.417 393.568C384.417 395.776 383.929 397.44 382.953 398.56C381.977 399.68 380.697 400.24 379.113 400.24C378.105 400.24 377.281 400.056 376.641 399.688C376.001 399.32 375.497 398.88 375.129 398.368H374.961L374.529 400H373.017V381.76H375.129V386.2ZM378.753 388.672C377.393 388.672 376.449 389.064 375.921 389.848C375.393 390.632 375.129 391.848 375.129 393.496V393.592C375.129 395.176 375.385 396.392 375.897 397.24C376.425 398.072 377.393 398.488 378.801 398.488C379.953 398.488 380.809 398.064 381.369 397.216C381.945 396.368 382.233 395.144 382.233 393.544C382.233 390.296 381.073 388.672 378.753 388.672ZM393.782 386.896C394.022 386.896 394.278 386.912 394.55 386.944C394.838 386.96 395.086 386.992 395.294 387.04L395.03 388.984C394.822 388.936 394.59 388.896 394.334 388.864C394.094 388.832 393.862 388.816 393.638 388.816C392.982 388.816 392.366 389 391.79 389.368C391.214 389.72 390.75 390.224 390.398 390.88C390.062 391.52 389.894 392.272 389.894 393.136V400H387.782V387.136H389.51L389.75 389.488H389.846C390.262 388.784 390.798 388.176 391.454 387.664C392.11 387.152 392.886 386.896 393.782 386.896ZM408.448 387.136V400H406.72L406.408 398.296H406.312C405.896 398.968 405.32 399.464 404.584 399.784C403.848 400.088 403.064 400.24 402.232 400.24C400.68 400.24 399.512 399.872 398.728 399.136C397.944 398.384 397.552 397.192 397.552 395.56V387.136H399.688V395.416C399.688 397.464 400.64 398.488 402.544 398.488C403.968 398.488 404.952 398.088 405.496 397.288C406.056 396.488 406.336 395.336 406.336 393.832V387.136H408.448ZM413.612 382.312C413.932 382.312 414.212 382.424 414.452 382.648C414.708 382.856 414.836 383.192 414.836 383.656C414.836 384.104 414.708 384.44 414.452 384.664C414.212 384.888 413.932 385 413.612 385C413.26 385 412.964 384.888 412.724 384.664C412.484 384.44 412.364 384.104 412.364 383.656C412.364 383.192 412.484 382.856 412.724 382.648C412.964 382.424 413.26 382.312 413.612 382.312ZM414.644 387.136V400H412.532V387.136H414.644ZM420.808 391.288C420.808 391.544 420.792 391.88 420.76 392.296C420.744 392.712 420.728 393.072 420.712 393.376H420.808C420.904 393.248 421.048 393.064 421.24 392.824C421.432 392.584 421.624 392.344 421.816 392.104C422.024 391.848 422.2 391.64 422.344 391.48L426.448 387.136H428.92L423.712 392.632L429.28 400H426.736L422.272 394L420.808 395.272V400H418.72V381.76H420.808V391.288ZM436.508 386.896C437.612 386.896 438.556 387.136 439.34 387.616C440.14 388.096 440.748 388.776 441.164 389.656C441.596 390.52 441.812 391.536 441.812 392.704V393.976H433.004C433.036 395.432 433.404 396.544 434.108 397.312C434.828 398.064 435.828 398.44 437.108 398.44C437.924 398.44 438.644 398.368 439.268 398.224C439.908 398.064 440.564 397.84 441.236 397.552V399.4C440.58 399.688 439.932 399.896 439.292 400.024C438.652 400.168 437.892 400.24 437.012 400.24C435.796 400.24 434.716 399.992 433.772 399.496C432.844 399 432.116 398.264 431.588 397.288C431.076 396.296 430.82 395.088 430.82 393.664C430.82 392.256 431.052 391.048 431.516 390.04C431.996 389.032 432.66 388.256 433.508 387.712C434.372 387.168 435.372 386.896 436.508 386.896ZM436.484 388.624C435.476 388.624 434.676 388.952 434.084 389.608C433.508 390.248 433.164 391.144 433.052 392.296H439.604C439.588 391.208 439.332 390.328 438.836 389.656C438.34 388.968 437.556 388.624 436.484 388.624ZM451.087 386.896C451.327 386.896 451.583 386.912 451.855 386.944C452.143 386.96 452.391 386.992 452.599 387.04L452.335 388.984C452.127 388.936 451.895 388.896 451.639 388.864C451.399 388.832 451.167 388.816 450.943 388.816C450.287 388.816 449.671 389 449.095 389.368C448.519 389.72 448.055 390.224 447.703 390.88C447.367 391.52 447.199 392.272 447.199 393.136V400H445.087V387.136H446.815L447.055 389.488H447.151C447.567 388.784 448.103 388.176 448.759 387.664C449.415 387.152 450.191 386.896 451.087 386.896ZM463.377 396.448C463.377 397.696 462.913 398.64 461.985 399.28C461.057 399.92 459.809 400.24 458.241 400.24C457.345 400.24 456.569 400.168 455.913 400.024C455.273 399.88 454.705 399.68 454.209 399.424V397.504C454.721 397.76 455.337 398 456.057 398.224C456.793 398.432 457.537 398.536 458.289 398.536C459.361 398.536 460.137 398.368 460.617 398.032C461.097 397.68 461.337 397.216 461.337 396.64C461.337 396.32 461.249 396.032 461.073 395.776C460.897 395.52 460.577 395.264 460.113 395.008C459.665 394.752 459.017 394.464 458.169 394.144C457.337 393.824 456.625 393.504 456.033 393.184C455.441 392.864 454.985 392.48 454.665 392.032C454.345 391.584 454.185 391.008 454.185 390.304C454.185 389.216 454.625 388.376 455.505 387.784C456.401 387.192 457.569 386.896 459.009 386.896C459.793 386.896 460.521 386.976 461.193 387.136C461.881 387.28 462.521 387.488 463.113 387.76L462.393 389.44C461.849 389.216 461.281 389.024 460.689 388.864C460.097 388.704 459.489 388.624 458.865 388.624C458.001 388.624 457.337 388.768 456.873 389.056C456.425 389.328 456.201 389.704 456.201 390.184C456.201 390.536 456.305 390.84 456.513 391.096C456.721 391.336 457.065 391.576 457.545 391.816C458.041 392.04 458.697 392.312 459.513 392.632C460.329 392.936 461.025 393.248 461.601 393.568C462.177 393.888 462.617 394.28 462.921 394.744C463.225 395.192 463.377 395.76 463.377 396.448ZM472.677 386.896C474.213 386.896 475.373 387.272 476.157 388.024C476.941 388.76 477.333 389.96 477.333 391.624V400H475.245V391.768C475.245 389.704 474.285 388.672 472.365 388.672C470.941 388.672 469.957 389.072 469.413 389.872C468.869 390.672 468.597 391.824 468.597 393.328V400H466.485V387.136H468.189L468.501 388.888H468.621C469.037 388.216 469.613 387.72 470.349 387.4C471.085 387.064 471.861 386.896 472.677 386.896ZM486.193 386.92C487.761 386.92 488.921 387.264 489.673 387.952C490.425 388.64 490.801 389.736 490.801 391.24V400H489.265L488.857 398.176H488.761C488.201 398.88 487.609 399.4 486.985 399.736C486.377 400.072 485.529 400.24 484.441 400.24C483.273 400.24 482.305 399.936 481.537 399.328C480.769 398.704 480.385 397.736 480.385 396.424C480.385 395.144 480.889 394.16 481.897 393.472C482.905 392.768 484.457 392.384 486.553 392.32L488.737 392.248V391.48C488.737 390.408 488.505 389.664 488.041 389.248C487.577 388.832 486.921 388.624 486.073 388.624C485.401 388.624 484.761 388.728 484.153 388.936C483.545 389.128 482.977 389.352 482.449 389.608L481.801 388.024C482.361 387.72 483.025 387.464 483.793 387.256C484.561 387.032 485.361 386.92 486.193 386.92ZM486.817 393.784C485.217 393.848 484.105 394.104 483.481 394.552C482.873 395 482.569 395.632 482.569 396.448C482.569 397.168 482.785 397.696 483.217 398.032C483.665 398.368 484.233 398.536 484.921 398.536C486.009 398.536 486.913 398.24 487.633 397.648C488.353 397.04 488.713 396.112 488.713 394.864V393.712L486.817 393.784ZM499.646 386.92C501.214 386.92 502.374 387.264 503.126 387.952C503.878 388.64 504.254 389.736 504.254 391.24V400H502.718L502.31 398.176H502.214C501.654 398.88 501.062 399.4 500.438 399.736C499.83 400.072 498.982 400.24 497.894 400.24C496.726 400.24 495.758 399.936 494.99 399.328C494.222 398.704 493.838 397.736 493.838 396.424C493.838 395.144 494.342 394.16 495.35 393.472C496.358 392.768 497.91 392.384 500.006 392.32L502.19 392.248V391.48C502.19 390.408 501.958 389.664 501.494 389.248C501.03 388.832 500.374 388.624 499.526 388.624C498.854 388.624 498.214 388.728 497.606 388.936C496.998 389.128 496.43 389.352 495.902 389.608L495.254 388.024C495.814 387.72 496.478 387.464 497.246 387.256C498.014 387.032 498.814 386.92 499.646 386.92ZM500.27 393.784C498.67 393.848 497.558 394.104 496.934 394.552C496.326 395 496.022 395.632 496.022 396.448C496.022 397.168 496.238 397.696 496.67 398.032C497.118 398.368 497.686 398.536 498.374 398.536C499.462 398.536 500.366 398.24 501.086 397.648C501.806 397.04 502.166 396.112 502.166 394.864V393.712L500.27 393.784ZM522.34 386.896C523.796 386.896 524.884 387.272 525.604 388.024C526.324 388.76 526.684 389.96 526.684 391.624V400H524.596V391.72C524.596 389.688 523.724 388.672 521.98 388.672C520.732 388.672 519.836 389.032 519.292 389.752C518.764 390.472 518.5 391.52 518.5 392.896V400H516.412V391.72C516.412 389.688 515.532 388.672 513.772 388.672C512.476 388.672 511.58 389.072 511.084 389.872C510.588 390.672 510.34 391.824 510.34 393.328V400H508.228V387.136H509.932L510.244 388.888H510.364C510.764 388.216 511.3 387.72 511.972 387.4C512.66 387.064 513.388 386.896 514.156 386.896C516.172 386.896 517.484 387.616 518.092 389.056H518.212C518.644 388.32 519.227 387.776 519.964 387.424C520.716 387.072 521.508 386.896 522.34 386.896Z" fill="black"/>
<path d="M646.08 805L644.016 799.696H637.224L635.184 805H633L639.696 787.792H641.64L648.312 805H646.08ZM641.448 792.592C641.4 792.464 641.32 792.232 641.208 791.896C641.096 791.56 640.984 791.216 640.872 790.864C640.776 790.496 640.696 790.216 640.632 790.024C640.52 790.52 640.392 791.008 640.248 791.488C640.104 791.952 639.984 792.32 639.888 792.592L637.944 797.776H643.368L641.448 792.592ZM655.528 805.24C654.392 805.24 653.376 805.008 652.48 804.544C651.6 804.08 650.904 803.36 650.392 802.384C649.896 801.408 649.648 800.16 649.648 798.64C649.648 797.056 649.912 795.768 650.44 794.776C650.968 793.784 651.68 793.056 652.576 792.592C653.488 792.128 654.52 791.896 655.672 791.896C656.328 791.896 656.96 791.968 657.568 792.112C658.176 792.24 658.672 792.4 659.056 792.592L658.408 794.344C658.024 794.2 657.576 794.064 657.064 793.936C656.552 793.808 656.072 793.744 655.624 793.744C653.096 793.744 651.832 795.368 651.832 798.616C651.832 800.168 652.136 801.36 652.744 802.192C653.368 803.008 654.288 803.416 655.504 803.416C656.208 803.416 656.824 803.344 657.352 803.2C657.896 803.056 658.392 802.88 658.84 802.672V804.544C658.408 804.768 657.928 804.936 657.4 805.048C656.888 805.176 656.264 805.24 655.528 805.24ZM667.059 805.24C665.923 805.24 664.907 805.008 664.011 804.544C663.131 804.08 662.435 803.36 661.923 802.384C661.427 801.408 661.179 800.16 661.179 798.64C661.179 797.056 661.443 795.768 661.971 794.776C662.499 793.784 663.211 793.056 664.107 792.592C665.019 792.128 666.051 791.896 667.203 791.896C667.859 791.896 668.491 791.968 669.099 792.112C669.707 792.24 670.203 792.4 670.587 792.592L669.939 794.344C669.555 794.2 669.107 794.064 668.595 793.936C668.083 793.808 667.603 793.744 667.155 793.744C664.627 793.744 663.363 795.368 663.363 798.616C663.363 800.168 663.667 801.36 664.275 802.192C664.899 803.008 665.819 803.416 667.035 803.416C667.739 803.416 668.355 803.344 668.883 803.2C669.427 803.056 669.923 802.88 670.371 802.672V804.544C669.939 804.768 669.459 804.936 668.931 805.048C668.419 805.176 667.795 805.24 667.059 805.24ZM684.615 798.544C684.615 800.672 684.071 802.32 682.983 803.488C681.911 804.656 680.455 805.24 678.615 805.24C677.479 805.24 676.463 804.984 675.567 804.472C674.687 803.944 673.991 803.184 673.479 802.192C672.967 801.184 672.711 799.968 672.711 798.544C672.711 796.416 673.247 794.776 674.319 793.624C675.391 792.472 676.847 791.896 678.687 791.896C679.855 791.896 680.879 792.16 681.759 792.688C682.655 793.2 683.351 793.952 683.847 794.944C684.359 795.92 684.615 797.12 684.615 798.544ZM674.895 798.544C674.895 800.064 675.191 801.272 675.783 802.168C676.391 803.048 677.351 803.488 678.663 803.488C679.959 803.488 680.911 803.048 681.519 802.168C682.127 801.272 682.431 800.064 682.431 798.544C682.431 797.024 682.127 795.832 681.519 794.968C680.911 794.104 679.951 793.672 678.639 793.672C677.327 793.672 676.375 794.104 675.783 794.968C675.191 795.832 674.895 797.024 674.895 798.544ZM698.714 792.136V805H696.986L696.674 803.296H696.578C696.162 803.968 695.586 804.464 694.85 804.784C694.114 805.088 693.33 805.24 692.498 805.24C690.946 805.24 689.778 804.872 688.994 804.136C688.21 803.384 687.818 802.192 687.818 800.56V792.136H689.954V800.416C689.954 802.464 690.906 803.488 692.81 803.488C694.234 803.488 695.218 803.088 695.762 802.288C696.322 801.488 696.602 800.336 696.602 798.832V792.136H698.714ZM708.99 791.896C710.526 791.896 711.686 792.272 712.47 793.024C713.254 793.76 713.646 794.96 713.646 796.624V805H711.558V796.768C711.558 794.704 710.598 793.672 708.678 793.672C707.254 793.672 706.27 794.072 705.726 794.872C705.182 795.672 704.91 796.824 704.91 798.328V805H702.798V792.136H704.502L704.814 793.888H704.934C705.35 793.216 705.926 792.72 706.662 792.4C707.398 792.064 708.174 791.896 708.99 791.896ZM721.93 803.512C722.25 803.512 722.578 803.488 722.914 803.44C723.25 803.376 723.522 803.312 723.73 803.248V804.856C723.506 804.968 723.186 805.056 722.77 805.12C722.354 805.2 721.954 805.24 721.57 805.24C720.898 805.24 720.274 805.128 719.698 804.904C719.138 804.664 718.682 804.256 718.33 803.68C717.978 803.104 717.802 802.296 717.802 801.256V793.768H715.978V792.76L717.826 791.92L718.666 789.184H719.914V792.136H723.634V793.768H719.914V801.208C719.914 801.992 720.098 802.576 720.466 802.96C720.85 803.328 721.338 803.512 721.93 803.512ZM746.652 791.896C748.108 791.896 749.196 792.272 749.916 793.024C750.636 793.76 750.996 794.96 750.996 796.624V805H748.908V796.72C748.908 794.688 748.036 793.672 746.292 793.672C745.044 793.672 744.148 794.032 743.604 794.752C743.076 795.472 742.812 796.52 742.812 797.896V805H740.724V796.72C740.724 794.688 739.844 793.672 738.084 793.672C736.788 793.672 735.892 794.072 735.396 794.872C734.9 795.672 734.652 796.824 734.652 798.328V805H732.54V792.136H734.244L734.556 793.888H734.676C735.076 793.216 735.612 792.72 736.284 792.4C736.972 792.064 737.7 791.896 738.468 791.896C740.484 791.896 741.796 792.616 742.404 794.056H742.524C742.956 793.32 743.54 792.776 744.276 792.424C745.028 792.072 745.82 791.896 746.652 791.896ZM759.842 791.92C761.41 791.92 762.57 792.264 763.322 792.952C764.074 793.64 764.45 794.736 764.45 796.24V805H762.914L762.506 803.176H762.41C761.85 803.88 761.258 804.4 760.634 804.736C760.026 805.072 759.178 805.24 758.09 805.24C756.922 805.24 755.954 804.936 755.186 804.328C754.418 803.704 754.034 802.736 754.034 801.424C754.034 800.144 754.538 799.16 755.546 798.472C756.554 797.768 758.106 797.384 760.202 797.32L762.386 797.248V796.48C762.386 795.408 762.154 794.664 761.69 794.248C761.226 793.832 760.57 793.624 759.722 793.624C759.05 793.624 758.41 793.728 757.802 793.936C757.194 794.128 756.626 794.352 756.098 794.608L755.45 793.024C756.01 792.72 756.674 792.464 757.442 792.256C758.21 792.032 759.01 791.92 759.842 791.92ZM760.466 798.784C758.866 798.848 757.754 799.104 757.13 799.552C756.522 800 756.218 800.632 756.218 801.448C756.218 802.168 756.434 802.696 756.866 803.032C757.314 803.368 757.882 803.536 758.57 803.536C759.658 803.536 760.562 803.24 761.282 802.648C762.002 802.04 762.362 801.112 762.362 799.864V798.712L760.466 798.784ZM770.511 796.288C770.511 796.544 770.495 796.88 770.463 797.296C770.447 797.712 770.431 798.072 770.415 798.376H770.511C770.607 798.248 770.751 798.064 770.943 797.824C771.135 797.584 771.327 797.344 771.519 797.104C771.727 796.848 771.903 796.64 772.047 796.48L776.151 792.136H778.623L773.415 797.632L778.983 805H776.439L771.975 799L770.511 800.272V805H768.423V786.76H770.511V796.288ZM786.211 791.896C787.315 791.896 788.259 792.136 789.043 792.616C789.843 793.096 790.451 793.776 790.867 794.656C791.299 795.52 791.515 796.536 791.515 797.704V798.976H782.707C782.739 800.432 783.107 801.544 783.811 802.312C784.531 803.064 785.531 803.44 786.811 803.44C787.627 803.44 788.347 803.368 788.971 803.224C789.611 803.064 790.267 802.84 790.939 802.552V804.4C790.283 804.688 789.635 804.896 788.995 805.024C788.355 805.168 787.595 805.24 786.715 805.24C785.499 805.24 784.419 804.992 783.475 804.496C782.547 804 781.819 803.264 781.291 802.288C780.779 801.296 780.523 800.088 780.523 798.664C780.523 797.256 780.755 796.048 781.219 795.04C781.699 794.032 782.363 793.256 783.211 792.712C784.075 792.168 785.075 791.896 786.211 791.896ZM786.187 793.624C785.179 793.624 784.379 793.952 783.787 794.608C783.211 795.248 782.867 796.144 782.755 797.296H789.307C789.291 796.208 789.035 795.328 788.539 794.656C788.043 793.968 787.259 793.624 786.187 793.624ZM800.982 791.896C802.518 791.896 803.678 792.272 804.462 793.024C805.246 793.76 805.638 794.96 805.638 796.624V805H803.55V796.768C803.55 794.704 802.59 793.672 800.67 793.672C799.246 793.672 798.262 794.072 797.718 794.872C797.174 795.672 796.902 796.824 796.902 798.328V805H794.79V792.136H796.494L796.806 793.888H796.926C797.342 793.216 797.918 792.72 798.654 792.4C799.39 792.064 800.166 791.896 800.982 791.896Z" fill="black"/>
<path d="M321.2 492.344L330.248 488.576L321.2 484.28V482.408L332.504 488.048V489.248L321.2 494.216V492.344ZM361.977 479.864L357.417 497H355.233L351.897 485.768C351.769 485.304 351.641 484.84 351.513 484.376C351.385 483.912 351.281 483.504 351.201 483.152C351.121 482.784 351.065 482.528 351.033 482.384C351.017 482.592 350.929 483.04 350.769 483.728C350.625 484.4 350.441 485.104 350.217 485.84L346.977 497H344.793L340.257 479.864H342.513L345.177 490.328C345.369 491.064 345.529 491.776 345.657 492.464C345.801 493.152 345.913 493.8 345.993 494.408C346.073 493.784 346.193 493.104 346.353 492.368C346.513 491.632 346.697 490.912 346.905 490.208L349.929 479.864H352.161L355.305 490.28C355.529 491.016 355.721 491.752 355.881 492.488C356.041 493.208 356.161 493.848 356.241 494.408C356.321 493.816 356.433 493.176 356.577 492.488C356.721 491.784 356.889 491.056 357.081 490.304L359.721 479.864H361.977ZM368.725 483.92C370.293 483.92 371.453 484.264 372.205 484.952C372.957 485.64 373.333 486.736 373.333 488.24V497H371.797L371.389 495.176H371.293C370.733 495.88 370.141 496.4 369.517 496.736C368.909 497.072 368.061 497.24 366.973 497.24C365.805 497.24 364.837 496.936 364.069 496.328C363.301 495.704 362.917 494.736 362.917 493.424C362.917 492.144 363.421 491.16 364.429 490.472C365.437 489.768 366.989 489.384 369.085 489.32L371.269 489.248V488.48C371.269 487.408 371.037 486.664 370.573 486.248C370.109 485.832 369.453 485.624 368.605 485.624C367.933 485.624 367.293 485.728 366.685 485.936C366.077 486.128 365.509 486.352 364.98 486.608L364.333 485.024C364.893 484.72 365.557 484.464 366.325 484.256C367.093 484.032 367.893 483.92 368.725 483.92ZM369.349 490.784C367.749 490.848 366.637 491.104 366.013 491.552C365.405 492 365.101 492.632 365.101 493.448C365.101 494.168 365.317 494.696 365.749 495.032C366.197 495.368 366.765 495.536 367.453 495.536C368.541 495.536 369.445 495.24 370.165 494.648C370.885 494.04 371.245 493.112 371.245 491.864V490.712L369.349 490.784ZM382.466 497.24C381.33 497.24 380.314 497.008 379.418 496.544C378.538 496.08 377.842 495.36 377.33 494.384C376.834 493.408 376.586 492.16 376.586 490.64C376.586 489.056 376.85 487.768 377.378 486.776C377.906 485.784 378.618 485.056 379.514 484.592C380.426 484.128 381.458 483.896 382.61 483.896C383.266 483.896 383.898 483.968 384.506 484.112C385.114 484.24 385.61 484.4 385.994 484.592L385.346 486.344C384.962 486.2 384.514 486.064 384.002 485.936C383.49 485.808 383.01 485.744 382.562 485.744C380.034 485.744 378.77 487.368 378.77 490.616C378.77 492.168 379.074 493.36 379.682 494.192C380.306 495.008 381.226 495.416 382.442 495.416C383.146 495.416 383.762 495.344 384.29 495.2C384.834 495.056 385.33 494.88 385.778 494.672V496.544C385.346 496.768 384.866 496.936 384.338 497.048C383.826 497.176 383.202 497.24 382.466 497.24ZM390.949 484.112C390.949 484.752 390.909 485.352 390.829 485.912H390.973C391.389 485.256 391.949 484.76 392.653 484.424C393.373 484.088 394.149 483.92 394.981 483.92C396.549 483.92 397.725 484.296 398.509 485.048C399.293 485.784 399.685 486.976 399.685 488.624V497H397.597V488.768C397.597 486.704 396.637 485.672 394.717 485.672C393.277 485.672 392.285 486.08 391.741 486.896C391.213 487.696 390.949 488.848 390.949 490.352V497H388.837V478.76H390.949V484.112ZM407.969 495.512C408.289 495.512 408.617 495.488 408.953 495.44C409.289 495.376 409.561 495.312 409.769 495.248V496.856C409.545 496.968 409.225 497.056 408.809 497.12C408.393 497.2 407.993 497.24 407.609 497.24C406.937 497.24 406.313 497.128 405.737 496.904C405.177 496.664 404.721 496.256 404.369 495.68C404.017 495.104 403.841 494.296 403.841 493.256V485.768H402.017V484.76L403.865 483.92L404.705 481.184H405.953V484.136H409.673V485.768H405.953V493.208C405.953 493.992 406.137 494.576 406.505 494.96C406.889 495.328 407.377 495.512 407.969 495.512ZM420.649 489.728C420.441 489.072 420.257 488.432 420.097 487.808C419.953 487.168 419.841 486.672 419.761 486.32H419.665C419.601 486.672 419.497 487.168 419.353 487.808C419.209 488.432 419.025 489.08 418.801 489.752L416.497 496.976H414.097L410.569 484.112H412.753L414.529 490.976C414.705 491.664 414.873 492.36 415.033 493.064C415.193 493.768 415.305 494.352 415.369 494.816H415.465C415.529 494.544 415.601 494.208 415.681 493.808C415.777 493.408 415.881 492.992 415.993 492.56C416.105 492.112 416.217 491.712 416.329 491.36L418.609 484.112H420.913L423.121 491.36C423.297 491.904 423.465 492.496 423.625 493.136C423.801 493.776 423.921 494.328 423.985 494.792H424.081C424.129 494.392 424.233 493.84 424.393 493.136C424.569 492.432 424.753 491.712 424.945 490.976L426.745 484.112H428.905L425.329 496.976H422.857L420.649 489.728ZM442.396 490.544C442.396 492.672 441.852 494.32 440.764 495.488C439.692 496.656 438.236 497.24 436.396 497.24C435.26 497.24 434.244 496.984 433.348 496.472C432.468 495.944 431.772 495.184 431.26 494.192C430.748 493.184 430.492 491.968 430.492 490.544C430.492 488.416 431.028 486.776 432.1 485.624C433.172 484.472 434.628 483.896 436.468 483.896C437.636 483.896 438.66 484.16 439.54 484.688C440.436 485.2 441.132 485.952 441.628 486.944C442.14 487.92 442.396 489.12 442.396 490.544ZM432.676 490.544C432.676 492.064 432.972 493.272 433.564 494.168C434.172 495.048 435.132 495.488 436.444 495.488C437.74 495.488 438.692 495.048 439.3 494.168C439.908 493.272 440.212 492.064 440.212 490.544C440.212 489.024 439.908 487.832 439.3 486.968C438.692 486.104 437.732 485.672 436.42 485.672C435.108 485.672 434.156 486.104 433.564 486.968C432.972 487.832 432.676 489.024 432.676 490.544ZM456.927 490.544C456.927 492.672 456.383 494.32 455.295 495.488C454.223 496.656 452.767 497.24 450.927 497.24C449.791 497.24 448.775 496.984 447.879 496.472C446.999 495.944 446.303 495.184 445.791 494.192C445.279 493.184 445.023 491.968 445.023 490.544C445.023 488.416 445.559 486.776 446.631 485.624C447.703 484.472 449.159 483.896 450.999 483.896C452.167 483.896 453.191 484.16 454.071 484.688C454.967 485.2 455.663 485.952 456.159 486.944C456.671 487.92 456.927 489.12 456.927 490.544ZM447.207 490.544C447.207 492.064 447.503 493.272 448.095 494.168C448.703 495.048 449.663 495.488 450.975 495.488C452.271 495.488 453.223 495.048 453.831 494.168C454.439 493.272 454.743 492.064 454.743 490.544C454.743 489.024 454.439 487.832 453.831 486.968C453.223 486.104 452.263 485.672 450.951 485.672C449.639 485.672 448.687 486.104 448.095 486.968C447.503 487.832 447.207 489.024 447.207 490.544ZM466.274 483.896C466.514 483.896 466.77 483.912 467.042 483.944C467.33 483.96 467.578 483.992 467.786 484.04L467.522 485.984C467.314 485.936 467.082 485.896 466.826 485.864C466.586 485.832 466.354 485.816 466.13 485.816C465.474 485.816 464.858 486 464.282 486.368C463.706 486.72 463.242 487.224 462.89 487.88C462.554 488.52 462.386 489.272 462.386 490.136V497H460.274V484.136H462.002L462.242 486.488H462.338C462.754 485.784 463.29 485.176 463.946 484.664C464.602 484.152 465.378 483.896 466.274 483.896ZM474.28 497.24C472.68 497.24 471.4 496.688 470.44 495.584C469.48 494.464 469 492.8 469 490.592C469 488.384 469.48 486.72 470.44 485.6C471.416 484.464 472.704 483.896 474.304 483.896C475.296 483.896 476.104 484.08 476.728 484.448C477.368 484.816 477.888 485.264 478.288 485.792H478.432C478.416 485.584 478.384 485.28 478.336 484.88C478.304 484.464 478.288 484.136 478.288 483.896V478.76H480.4V497H478.696L478.384 495.272H478.288C477.904 495.816 477.392 496.28 476.752 496.664C476.112 497.048 475.288 497.24 474.28 497.24ZM474.616 495.488C475.976 495.488 476.928 495.12 477.472 494.384C478.032 493.632 478.312 492.504 478.312 491V490.616C478.312 489.016 478.048 487.792 477.52 486.944C476.992 486.08 476.016 485.648 474.592 485.648C473.456 485.648 472.6 486.104 472.024 487.016C471.464 487.912 471.184 489.12 471.184 490.64C471.184 492.176 471.464 493.368 472.024 494.216C472.6 495.064 473.464 495.488 474.616 495.488Z" fill="black"/>
<path d="M348.456 82.456C357.416 82.456 363.944 84.216 368.04 87.736C372.136 91.256 374.184 96.216 374.184 102.616C374.184 106.392 373.32 109.944 371.592 113.272C369.928 116.536 367.08 119.192 363.048 121.24C359.08 123.288 353.672 124.312 346.824 124.312H338.952V151H330.312V82.456H348.456ZM347.688 89.848H338.952V116.92H345.864C352.392 116.92 357.256 115.864 360.456 113.752C363.656 111.64 365.256 108.056 365.256 103C365.256 98.584 363.848 95.288 361.032 93.112C358.216 90.936 353.768 89.848 347.688 89.848ZM432.021 125.176C432.021 133.688 429.845 140.28 425.493 144.952C421.205 149.624 415.381 151.96 408.021 151.96C403.477 151.96 399.413 150.936 395.829 148.888C392.309 146.776 389.525 143.736 387.477 139.768C385.429 135.736 384.405 130.872 384.405 125.176C384.405 116.664 386.549 110.104 390.837 105.496C395.125 100.888 400.949 98.584 408.309 98.584C412.981 98.584 417.077 99.64 420.597 101.752C424.181 103.8 426.965 106.808 428.949 110.776C430.997 114.68 432.021 119.48 432.021 125.176ZM393.141 125.176C393.141 131.256 394.325 136.088 396.693 139.672C399.125 143.192 402.965 144.952 408.213 144.952C413.397 144.952 417.205 143.192 419.637 139.672C422.069 136.088 423.285 131.256 423.285 125.176C423.285 119.096 422.069 114.328 419.637 110.872C417.205 107.416 413.365 105.688 408.117 105.688C402.869 105.688 399.061 107.416 396.693 110.872C394.325 114.328 393.141 119.096 393.141 125.176ZM469.41 98.584C470.37 98.584 471.394 98.648 472.482 98.776C473.634 98.84 474.626 98.968 475.458 99.16L474.402 106.936C473.57 106.744 472.642 106.584 471.618 106.456C470.658 106.328 469.73 106.264 468.834 106.264C466.21 106.264 463.746 107 461.442 108.472C459.138 109.88 457.282 111.896 455.874 114.52C454.53 117.08 453.858 120.088 453.858 123.544V151H445.41V99.544H452.322L453.282 108.952H453.666C455.33 106.136 457.474 103.704 460.098 101.656C462.722 99.608 465.826 98.584 469.41 98.584ZM502.25 145.048C503.53 145.048 504.842 144.952 506.186 144.76C507.53 144.504 508.618 144.248 509.45 143.992V150.424C508.554 150.872 507.274 151.224 505.61 151.48C503.946 151.8 502.346 151.96 500.81 151.96C498.122 151.96 495.626 151.512 493.322 150.616C491.082 149.656 489.258 148.024 487.85 145.72C486.442 143.416 485.738 140.184 485.738 136.024V106.072H478.442V102.04L485.834 98.68L489.194 87.736H494.186V99.544H509.066V106.072H494.186V135.832C494.186 138.968 494.922 141.304 496.394 142.84C497.93 144.312 499.882 145.048 502.25 145.048ZM543.466 106.072H530.506V151H522.058V106.072H513.034V102.136L522.058 99.256V96.28C522.058 89.624 523.53 84.856 526.474 81.976C529.418 79.032 533.514 77.56 538.762 77.56C540.81 77.56 542.666 77.752 544.33 78.136C546.058 78.456 547.53 78.84 548.746 79.288L546.538 85.912C545.514 85.592 544.33 85.272 542.986 84.952C541.642 84.632 540.266 84.472 538.858 84.472C536.042 84.472 533.93 85.432 532.522 87.352C531.178 89.208 530.506 92.152 530.506 96.184V99.544H543.466V106.072ZM597.49 125.176C597.49 133.688 595.314 140.28 590.962 144.952C586.674 149.624 580.85 151.96 573.49 151.96C568.946 151.96 564.882 150.936 561.298 148.888C557.778 146.776 554.994 143.736 552.946 139.768C550.898 135.736 549.874 130.872 549.874 125.176C549.874 116.664 552.018 110.104 556.306 105.496C560.594 100.888 566.418 98.584 573.778 98.584C578.45 98.584 582.546 99.64 586.066 101.752C589.65 103.8 592.434 106.808 594.418 110.776C596.466 114.68 597.49 119.48 597.49 125.176ZM558.61 125.176C558.61 131.256 559.794 136.088 562.162 139.672C564.594 143.192 568.434 144.952 573.682 144.952C578.866 144.952 582.674 143.192 585.106 139.672C587.538 136.088 588.754 131.256 588.754 125.176C588.754 119.096 587.538 114.328 585.106 110.872C582.674 107.416 578.834 105.688 573.586 105.688C568.338 105.688 564.53 107.416 562.162 110.872C559.794 114.328 558.61 119.096 558.61 125.176ZM619.327 151H610.879V78.04H619.327V151ZM639.949 80.248C641.229 80.248 642.349 80.696 643.309 81.592C644.333 82.424 644.845 83.768 644.845 85.624C644.845 87.416 644.333 88.76 643.309 89.656C642.349 90.552 641.229 91 639.949 91C638.541 91 637.357 90.552 636.397 89.656C635.437 88.76 634.957 87.416 634.957 85.624C634.957 83.768 635.437 82.424 636.397 81.592C637.357 80.696 638.541 80.248 639.949 80.248ZM644.077 99.544V151H635.629V99.544H644.077ZM705.115 125.176C705.115 133.688 702.939 140.28 698.587 144.952C694.299 149.624 688.475 151.96 681.115 151.96C676.571 151.96 672.507 150.936 668.923 148.888C665.403 146.776 662.619 143.736 660.571 139.768C658.523 135.736 657.499 130.872 657.499 125.176C657.499 116.664 659.643 110.104 663.931 105.496C668.219 100.888 674.043 98.584 681.403 98.584C686.075 98.584 690.171 99.64 693.691 101.752C697.275 103.8 700.059 106.808 702.043 110.776C704.091 114.68 705.115 119.48 705.115 125.176ZM666.235 125.176C666.235 131.256 667.419 136.088 669.787 139.672C672.219 143.192 676.059 144.952 681.307 144.952C686.491 144.952 690.299 143.192 692.731 139.672C695.163 136.088 696.379 131.256 696.379 125.176C696.379 119.096 695.163 114.328 692.731 110.872C690.299 107.416 686.459 105.688 681.211 105.688C675.963 105.688 672.155 107.416 669.787 110.872C667.419 114.328 666.235 119.096 666.235 125.176ZM752.008 136.792C752.008 141.784 750.152 145.56 746.44 148.12C742.728 150.68 737.736 151.96 731.464 151.96C727.88 151.96 724.776 151.672 722.152 151.096C719.592 150.52 717.32 149.72 715.336 148.696V141.016C717.384 142.04 719.848 143 722.728 143.896C725.672 144.728 728.648 145.144 731.656 145.144C735.944 145.144 739.048 144.472 740.968 143.128C742.888 141.72 743.848 139.864 743.848 137.56C743.848 136.28 743.496 135.128 742.792 134.104C742.088 133.08 740.808 132.056 738.952 131.032C737.16 130.008 734.568 128.856 731.176 127.576C727.848 126.296 725 125.016 722.632 123.736C720.264 122.456 718.44 120.92 717.16 119.128C715.88 117.336 715.24 115.032 715.24 112.216C715.24 107.864 717 104.504 720.52 102.136C724.104 99.768 728.776 98.584 734.536 98.584C737.672 98.584 740.584 98.904 743.272 99.544C746.024 100.12 748.584 100.952 750.952 102.04L748.072 108.76C745.896 107.864 743.624 107.096 741.256 106.456C738.888 105.816 736.456 105.496 733.96 105.496C730.504 105.496 727.848 106.072 725.992 107.224C724.2 108.312 723.304 109.816 723.304 111.736C723.304 113.144 723.72 114.36 724.552 115.384C725.384 116.344 726.76 117.304 728.68 118.264C730.664 119.16 733.288 120.248 736.552 121.528C739.816 122.744 742.6 123.992 744.904 125.272C747.208 126.552 748.968 128.12 750.184 129.976C751.4 131.768 752.008 134.04 752.008 136.792ZM768.761 80.248C770.041 80.248 771.161 80.696 772.121 81.592C773.145 82.424 773.657 83.768 773.657 85.624C773.657 87.416 773.145 88.76 772.121 89.656C771.161 90.552 770.041 91 768.761 91C767.353 91 766.169 90.552 765.209 89.656C764.249 88.76 763.769 87.416 763.769 85.624C763.769 83.768 764.249 82.424 765.209 81.592C766.169 80.696 767.353 80.248 768.761 80.248ZM772.889 99.544V151H764.441V99.544H772.889ZM806.375 145.048C807.655 145.048 808.967 144.952 810.311 144.76C811.655 144.504 812.743 144.248 813.575 143.992V150.424C812.679 150.872 811.399 151.224 809.735 151.48C808.071 151.8 806.471 151.96 804.935 151.96C802.247 151.96 799.751 151.512 797.447 150.616C795.207 149.656 793.383 148.024 791.975 145.72C790.567 143.416 789.863 140.184 789.863 136.024V106.072H782.567V102.04L789.959 98.68L793.319 87.736H798.311V99.544H813.191V106.072H798.311V135.832C798.311 138.968 799.047 141.304 800.519 142.84C802.055 144.312 804.007 145.048 806.375 145.048ZM843.751 98.584C848.167 98.584 851.943 99.544 855.079 101.464C858.279 103.384 860.711 106.104 862.375 109.624C864.103 113.08 864.967 117.144 864.967 121.816V126.904H829.735C829.863 132.728 831.335 137.176 834.151 140.248C837.031 143.256 841.031 144.76 846.151 144.76C849.415 144.76 852.295 144.472 854.791 143.896C857.351 143.256 859.975 142.36 862.663 141.208V148.6C860.039 149.752 857.447 150.584 854.887 151.096C852.327 151.672 849.287 151.96 845.767 151.96C840.903 151.96 836.583 150.968 832.807 148.984C829.095 147 826.183 144.056 824.071 140.152C822.023 136.184 820.999 131.352 820.999 125.656C820.999 120.024 821.927 115.192 823.783 111.16C825.703 107.128 828.359 104.024 831.751 101.848C835.207 99.672 839.207 98.584 843.751 98.584ZM843.655 105.496C839.623 105.496 836.423 106.808 834.055 109.432C831.751 111.992 830.375 115.576 829.927 120.184H856.135C856.071 115.832 855.047 112.312 853.063 109.624C851.079 106.872 847.943 105.496 843.655 105.496Z" fill="black"/>
</svg>

