<svg width="1440" height="900" viewBox="0 0 1440 900" fill="none" xmlns="http://www.w3.org/2000/svg">
<rect width="1440" height="900" fill="white"/>
<rect x="35.5" y="20.5" width="124" height="124" fill="white" stroke="black"/>
<rect x="51.5" y="73.5" width="92" height="49" fill="white" stroke="black"/>
<rect x="296.5" y="220.5" width="847" height="679" fill="white" stroke="black"/>
<path d="M322.2 268.344L331.248 264.576L322.2 260.28V258.408L333.504 264.048V265.248L322.2 270.216V268.344ZM348.721 273H346.561V257.76H341.209V255.864H354.049V257.76H348.721V273ZM359.625 259.896C360.729 259.896 361.673 260.136 362.457 260.616C363.257 261.096 363.865 261.776 364.281 262.656C364.713 263.52 364.929 264.536 364.929 265.704V266.976H356.121C356.153 268.432 356.521 269.544 357.225 270.312C357.945 271.064 358.945 271.44 360.225 271.44C361.041 271.44 361.761 271.368 362.385 271.224C363.025 271.064 363.681 270.84 364.353 270.552V272.4C363.697 272.688 363.049 272.896 362.409 273.024C361.769 273.168 361.009 273.24 360.129 273.24C358.913 273.24 357.833 272.992 356.889 272.496C355.961 272 355.233 271.264 354.705 270.288C354.193 269.296 353.937 268.088 353.937 266.664C353.937 265.256 354.169 264.048 354.633 263.04C355.113 262.032 355.777 261.256 356.625 260.712C357.489 260.168 358.489 259.896 359.625 259.896ZM359.601 261.624C358.593 261.624 357.793 261.952 357.201 262.608C356.625 263.248 356.281 264.144 356.169 265.296H362.721C362.705 264.208 362.449 263.328 361.953 262.656C361.457 261.968 360.673 261.624 359.601 261.624ZM374.204 259.896C374.444 259.896 374.7 259.912 374.972 259.944C375.26 259.96 375.508 259.992 375.716 260.04L375.452 261.984C375.244 261.936 375.012 261.896 374.756 261.864C374.516 261.832 374.284 261.816 374.06 261.816C373.404 261.816 372.788 262 372.212 262.368C371.636 262.72 371.172 263.224 370.82 263.88C370.484 264.52 370.316 265.272 370.316 266.136V273H368.204V260.136H369.932L370.172 262.488H370.268C370.684 261.784 371.22 261.176 371.876 260.664C372.532 260.152 373.308 259.896 374.204 259.896ZM388.87 260.136V273H387.142L386.83 271.296H386.734C386.318 271.968 385.742 272.464 385.006 272.784C384.27 273.088 383.486 273.24 382.654 273.24C381.102 273.24 379.934 272.872 379.15 272.136C378.366 271.384 377.974 270.192 377.974 268.56V260.136H380.11V268.416C380.11 270.464 381.062 271.488 382.966 271.488C384.39 271.488 385.374 271.088 385.918 270.288C386.478 269.488 386.758 268.336 386.758 266.832V260.136H388.87ZM397.514 259.896C398.362 259.896 399.122 260.056 399.794 260.376C400.482 260.696 401.066 261.184 401.546 261.84H401.666L401.954 260.136H403.634V273.216C403.634 275.056 403.162 276.44 402.218 277.368C401.29 278.296 399.842 278.76 397.874 278.76C395.986 278.76 394.442 278.488 393.242 277.944V276C394.506 276.672 396.09 277.008 397.994 277.008C399.098 277.008 399.962 276.68 400.586 276.024C401.226 275.384 401.546 274.504 401.546 273.384V272.88C401.546 272.688 401.554 272.416 401.57 272.064C401.586 271.696 401.602 271.44 401.618 271.296H401.522C400.658 272.592 399.33 273.24 397.538 273.24C395.874 273.24 394.57 272.656 393.626 271.488C392.698 270.32 392.234 268.688 392.234 266.592C392.234 264.544 392.698 262.92 393.626 261.72C394.57 260.504 395.866 259.896 397.514 259.896ZM397.802 261.672C396.73 261.672 395.898 262.104 395.306 262.968C394.714 263.816 394.418 265.032 394.418 266.616C394.418 268.2 394.706 269.416 395.282 270.264C395.874 271.096 396.73 271.512 397.85 271.512C399.146 271.512 400.09 271.168 400.682 270.48C401.274 269.776 401.57 268.648 401.57 267.096V266.592C401.57 264.832 401.266 263.576 400.658 262.824C400.05 262.056 399.098 261.672 397.802 261.672Z" fill="black"/>
<rect x="321.5" y="799.5" width="165" height="43" fill="white"/>
<rect x="321.5" y="799.5" width="165" height="43" stroke="black"/>
<rect x="321.5" y="799.5" width="165" height="43" stroke="black"/>
<rect x="321.5" y="799.5" width="165" height="43" stroke="black"/>
<rect x="321.5" y="799.5" width="165" height="43" stroke="black"/>
<path d="M389.488 830H387.328V812.864H396.904V814.76H389.488V820.832H396.448V822.728H389.488V830ZM400.565 812.312C400.885 812.312 401.165 812.424 401.405 812.648C401.661 812.856 401.789 813.192 401.789 813.656C401.789 814.104 401.661 814.44 401.405 814.664C401.165 814.888 400.885 815 400.565 815C400.213 815 399.917 814.888 399.677 814.664C399.437 814.44 399.317 814.104 399.317 813.656C399.317 813.192 399.437 812.856 399.677 812.648C399.917 812.424 400.213 812.312 400.565 812.312ZM401.597 817.136V830H399.485V817.136H401.597ZM407.785 830H405.673V811.76H407.785V830ZM416.828 816.896C417.932 816.896 418.876 817.136 419.66 817.616C420.46 818.096 421.068 818.776 421.484 819.656C421.916 820.52 422.132 821.536 422.132 822.704V823.976H413.324C413.356 825.432 413.724 826.544 414.428 827.312C415.148 828.064 416.148 828.44 417.428 828.44C418.244 828.44 418.964 828.368 419.588 828.224C420.228 828.064 420.884 827.84 421.556 827.552V829.4C420.9 829.688 420.252 829.896 419.612 830.024C418.972 830.168 418.212 830.24 417.332 830.24C416.116 830.24 415.036 829.992 414.092 829.496C413.164 829 412.436 828.264 411.908 827.288C411.396 826.296 411.14 825.088 411.14 823.664C411.14 822.256 411.372 821.048 411.836 820.04C412.316 819.032 412.98 818.256 413.828 817.712C414.692 817.168 415.692 816.896 416.828 816.896ZM416.804 818.624C415.796 818.624 414.996 818.952 414.404 819.608C413.828 820.248 413.484 821.144 413.372 822.296H419.924C419.908 821.208 419.652 820.328 419.156 819.656C418.66 818.968 417.876 818.624 416.804 818.624Z" fill="black"/>
<rect x="321.5" y="353.5" width="789" height="374" fill="white"/>
<rect x="321.5" y="353.5" width="789" height="374" stroke="black"/>
<rect x="321.5" y="353.5" width="789" height="374" stroke="black"/>
<rect x="321.5" y="353.5" width="789" height="374" stroke="black"/>
<rect x="321.5" y="353.5" width="789" height="374" stroke="black"/>
<path d="M352.28 389.408C352.28 391.184 351.976 392.736 351.368 394.064C350.776 395.376 349.896 396.4 348.728 397.136C347.56 397.872 346.112 398.24 344.384 398.24C342.608 398.24 341.128 397.872 339.944 397.136C338.776 396.4 337.904 395.368 337.328 394.04C336.752 392.712 336.464 391.16 336.464 389.384C336.464 387.624 336.752 386.088 337.328 384.776C337.904 383.464 338.776 382.44 339.944 381.704C341.128 380.968 342.616 380.6 344.408 380.6C346.12 380.6 347.56 380.968 348.728 381.704C349.896 382.424 350.776 383.448 351.368 384.776C351.976 386.088 352.28 387.632 352.28 389.408ZM338.744 389.408C338.744 391.568 339.2 393.272 340.112 394.52C341.024 395.752 342.448 396.368 344.384 396.368C346.336 396.368 347.76 395.752 348.656 394.52C349.552 393.272 350 391.568 350 389.408C350 387.248 349.552 385.56 348.656 384.344C347.76 383.112 346.344 382.496 344.408 382.496C342.472 382.496 341.04 383.112 340.112 384.344C339.2 385.56 338.744 387.248 338.744 389.408ZM369.902 384.896C371.358 384.896 372.446 385.272 373.166 386.024C373.886 386.76 374.246 387.96 374.246 389.624V398H372.158V389.72C372.158 387.688 371.286 386.672 369.542 386.672C368.294 386.672 367.398 387.032 366.854 387.752C366.326 388.472 366.062 389.52 366.062 390.896V398H363.974V389.72C363.974 387.688 363.094 386.672 361.334 386.672C360.038 386.672 359.142 387.072 358.646 387.872C358.15 388.672 357.902 389.824 357.902 391.328V398H355.79V385.136H357.494L357.806 386.888H357.926C358.326 386.216 358.862 385.72 359.534 385.4C360.222 385.064 360.95 384.896 361.718 384.896C363.734 384.896 365.046 385.616 365.654 387.056H365.774C366.206 386.32 366.79 385.776 367.526 385.424C368.278 385.072 369.07 384.896 369.902 384.896ZM386.596 394.448C386.596 395.696 386.132 396.64 385.204 397.28C384.276 397.92 383.028 398.24 381.46 398.24C380.564 398.24 379.788 398.168 379.132 398.024C378.492 397.88 377.924 397.68 377.428 397.424V395.504C377.94 395.76 378.556 396 379.276 396.224C380.012 396.432 380.756 396.536 381.508 396.536C382.58 396.536 383.356 396.368 383.836 396.032C384.316 395.68 384.556 395.216 384.556 394.64C384.556 394.32 384.468 394.032 384.292 393.776C384.116 393.52 383.796 393.264 383.332 393.008C382.884 392.752 382.236 392.464 381.388 392.144C380.556 391.824 379.844 391.504 379.252 391.184C378.66 390.864 378.204 390.48 377.884 390.032C377.564 389.584 377.404 389.008 377.404 388.304C377.404 387.216 377.844 386.376 378.724 385.784C379.62 385.192 380.788 384.896 382.228 384.896C383.012 384.896 383.74 384.976 384.412 385.136C385.1 385.28 385.74 385.488 386.332 385.76L385.612 387.44C385.068 387.216 384.5 387.024 383.908 386.864C383.316 386.704 382.708 386.624 382.084 386.624C381.22 386.624 380.556 386.768 380.092 387.056C379.644 387.328 379.42 387.704 379.42 388.184C379.42 388.536 379.524 388.84 379.732 389.096C379.94 389.336 380.284 389.576 380.764 389.816C381.26 390.04 381.916 390.312 382.732 390.632C383.548 390.936 384.244 391.248 384.82 391.568C385.396 391.888 385.836 392.28 386.14 392.744C386.444 393.192 386.596 393.76 386.596 394.448ZM394.864 398.24C393.728 398.24 392.712 398.008 391.816 397.544C390.936 397.08 390.24 396.36 389.728 395.384C389.232 394.408 388.984 393.16 388.984 391.64C388.984 390.056 389.248 388.768 389.776 387.776C390.304 386.784 391.016 386.056 391.912 385.592C392.824 385.128 393.856 384.896 395.008 384.896C395.664 384.896 396.296 384.968 396.904 385.112C397.512 385.24 398.008 385.4 398.392 385.592L397.744 387.344C397.36 387.2 396.912 387.064 396.4 386.936C395.888 386.808 395.408 386.744 394.96 386.744C392.432 386.744 391.168 388.368 391.168 391.616C391.168 393.168 391.472 394.36 392.08 395.192C392.704 396.008 393.624 396.416 394.84 396.416C395.544 396.416 396.16 396.344 396.688 396.2C397.232 396.056 397.728 395.88 398.176 395.672V397.544C397.744 397.768 397.264 397.936 396.736 398.048C396.224 398.176 395.6 398.24 394.864 398.24ZM403.347 385.112C403.347 385.752 403.307 386.352 403.227 386.912H403.371C403.787 386.256 404.347 385.76 405.051 385.424C405.771 385.088 406.547 384.92 407.379 384.92C408.947 384.92 410.123 385.296 410.907 386.048C411.691 386.784 412.083 387.976 412.083 389.624V398H409.995V389.768C409.995 387.704 409.035 386.672 407.115 386.672C405.675 386.672 404.683 387.08 404.139 387.896C403.611 388.696 403.347 389.848 403.347 391.352V398H401.235V379.76H403.347V385.112ZM422.071 384.896C422.311 384.896 422.567 384.912 422.839 384.944C423.127 384.96 423.375 384.992 423.583 385.04L423.319 386.984C423.111 386.936 422.879 386.896 422.623 386.864C422.383 386.832 422.151 386.816 421.927 386.816C421.271 386.816 420.655 387 420.079 387.368C419.503 387.72 419.039 388.224 418.687 388.88C418.351 389.52 418.183 390.272 418.183 391.136V398H416.071V385.136H417.799L418.039 387.488H418.135C418.551 386.784 419.087 386.176 419.743 385.664C420.399 385.152 421.175 384.896 422.071 384.896ZM427.065 380.312C427.385 380.312 427.665 380.424 427.905 380.648C428.161 380.856 428.289 381.192 428.289 381.656C428.289 382.104 428.161 382.44 427.905 382.664C427.665 382.888 427.385 383 427.065 383C426.713 383 426.417 382.888 426.177 382.664C425.937 382.44 425.817 382.104 425.817 381.656C425.817 381.192 425.937 380.856 426.177 380.648C426.417 380.424 426.713 380.312 427.065 380.312ZM428.097 385.136V398H425.985V385.136H428.097ZM432.005 381.656C432.005 381.192 432.125 380.856 432.365 380.648C432.605 380.424 432.901 380.312 433.253 380.312C433.573 380.312 433.853 380.424 434.093 380.648C434.349 380.856 434.477 381.192 434.477 381.656C434.477 382.104 434.349 382.44 434.093 382.664C433.853 382.888 433.573 383 433.253 383C432.901 383 432.605 382.888 432.365 382.664C432.125 382.44 432.005 382.104 432.005 381.656ZM430.661 403.76C430.261 403.76 429.909 403.728 429.605 403.664C429.301 403.616 429.037 403.552 428.813 403.472V401.768C429.053 401.832 429.301 401.888 429.557 401.936C429.813 401.984 430.093 402.008 430.397 402.008C430.909 402.008 431.333 401.864 431.669 401.576C432.005 401.304 432.173 400.776 432.173 399.992V385.136H434.285V399.92C434.285 401.12 433.997 402.056 433.421 402.728C432.845 403.416 431.925 403.76 430.661 403.76ZM441.192 398L436.32 385.136H438.576L441.312 392.72C441.44 393.072 441.576 393.464 441.72 393.896C441.864 394.328 441.992 394.744 442.104 395.144C442.216 395.528 442.296 395.856 442.344 396.128H442.44C442.504 395.856 442.592 395.52 442.704 395.12C442.832 394.72 442.968 394.304 443.112 393.872C443.272 393.44 443.408 393.056 443.52 392.72L446.256 385.136H448.512L443.616 398H441.192ZM451.628 380.312C451.948 380.312 452.228 380.424 452.468 380.648C452.724 380.856 452.852 381.192 452.852 381.656C452.852 382.104 452.724 382.44 452.468 382.664C452.228 382.888 451.948 383 451.628 383C451.276 383 450.98 382.888 450.74 382.664C450.5 382.44 450.38 382.104 450.38 381.656C450.38 381.192 450.5 380.856 450.74 380.648C450.98 380.424 451.276 380.312 451.628 380.312ZM452.66 385.136V398H450.548V385.136H452.66ZM462.927 384.896C464.463 384.896 465.623 385.272 466.407 386.024C467.191 386.76 467.583 387.96 467.583 389.624V398H465.495V389.768C465.495 387.704 464.535 386.672 462.615 386.672C461.191 386.672 460.207 387.072 459.663 387.872C459.119 388.672 458.847 389.824 458.847 391.328V398H456.735V385.136H458.439L458.751 386.888H458.871C459.287 386.216 459.863 385.72 460.599 385.4C461.335 385.064 462.111 384.896 462.927 384.896ZM476.131 384.896C476.979 384.896 477.739 385.056 478.411 385.376C479.099 385.696 479.683 386.184 480.163 386.84H480.283L480.571 385.136H482.251V398.216C482.251 400.056 481.779 401.44 480.835 402.368C479.907 403.296 478.459 403.76 476.491 403.76C474.603 403.76 473.059 403.488 471.859 402.944V401C473.123 401.672 474.707 402.008 476.611 402.008C477.715 402.008 478.579 401.68 479.203 401.024C479.843 400.384 480.163 399.504 480.163 398.384V397.88C480.163 397.688 480.171 397.416 480.187 397.064C480.203 396.696 480.219 396.44 480.235 396.296H480.139C479.275 397.592 477.947 398.24 476.155 398.24C474.491 398.24 473.187 397.656 472.243 396.488C471.315 395.32 470.851 393.688 470.851 391.592C470.851 389.544 471.315 387.92 472.243 386.72C473.187 385.504 474.483 384.896 476.131 384.896ZM476.419 386.672C475.347 386.672 474.515 387.104 473.923 387.968C473.331 388.816 473.035 390.032 473.035 391.616C473.035 393.2 473.323 394.416 473.899 395.264C474.491 396.096 475.347 396.512 476.467 396.512C477.763 396.512 478.707 396.168 479.299 395.48C479.891 394.776 480.187 393.648 480.187 392.096V391.592C480.187 389.832 479.883 388.576 479.275 387.824C478.667 387.056 477.715 386.672 476.419 386.672ZM498.691 384.896C500.275 384.896 501.547 385.448 502.507 386.552C503.483 387.656 503.971 389.32 503.971 391.544C503.971 393.736 503.483 395.4 502.507 396.536C501.547 397.672 500.267 398.24 498.667 398.24C497.675 398.24 496.851 398.056 496.195 397.688C495.555 397.304 495.051 396.864 494.683 396.368H494.539C494.571 396.64 494.603 396.984 494.635 397.4C494.667 397.816 494.683 398.176 494.683 398.48V403.76H492.571V385.136H494.299L494.587 386.888H494.683C495.067 386.328 495.571 385.856 496.195 385.472C496.819 385.088 497.651 384.896 498.691 384.896ZM498.307 386.672C496.995 386.672 496.067 387.04 495.523 387.776C494.995 388.512 494.715 389.632 494.683 391.136V391.544C494.683 393.128 494.939 394.352 495.451 395.216C495.979 396.064 496.947 396.488 498.355 396.488C499.139 396.488 499.779 396.272 500.275 395.84C500.787 395.408 501.163 394.824 501.403 394.088C501.659 393.336 501.787 392.48 501.787 391.52C501.787 390.048 501.499 388.872 500.923 387.992C500.363 387.112 499.491 386.672 498.307 386.672ZM513.337 384.896C513.577 384.896 513.833 384.912 514.105 384.944C514.393 384.96 514.641 384.992 514.849 385.04L514.585 386.984C514.377 386.936 514.145 386.896 513.889 386.864C513.649 386.832 513.417 386.816 513.193 386.816C512.537 386.816 511.921 387 511.345 387.368C510.769 387.72 510.305 388.224 509.953 388.88C509.617 389.52 509.449 390.272 509.449 391.136V398H507.337V385.136H509.065L509.305 387.488H509.401C509.817 386.784 510.353 386.176 511.009 385.664C511.665 385.152 512.441 384.896 513.337 384.896ZM527.966 391.544C527.966 393.672 527.422 395.32 526.334 396.488C525.262 397.656 523.806 398.24 521.966 398.24C520.83 398.24 519.814 397.984 518.918 397.472C518.038 396.944 517.342 396.184 516.83 395.192C516.318 394.184 516.062 392.968 516.062 391.544C516.062 389.416 516.598 387.776 517.67 386.624C518.742 385.472 520.198 384.896 522.038 384.896C523.206 384.896 524.23 385.16 525.11 385.688C526.006 386.2 526.702 386.952 527.198 387.944C527.71 388.92 527.966 390.12 527.966 391.544ZM518.246 391.544C518.246 393.064 518.542 394.272 519.134 395.168C519.742 396.048 520.702 396.488 522.014 396.488C523.31 396.488 524.262 396.048 524.87 395.168C525.478 394.272 525.782 393.064 525.782 391.544C525.782 390.024 525.478 388.832 524.87 387.968C524.262 387.104 523.302 386.672 521.99 386.672C520.678 386.672 519.726 387.104 519.134 387.968C518.542 388.832 518.246 390.024 518.246 391.544ZM531.145 381.656C531.145 381.192 531.265 380.856 531.505 380.648C531.745 380.424 532.041 380.312 532.393 380.312C532.713 380.312 532.993 380.424 533.233 380.648C533.489 380.856 533.617 381.192 533.617 381.656C533.617 382.104 533.489 382.44 533.233 382.664C532.993 382.888 532.713 383 532.393 383C532.041 383 531.745 382.888 531.505 382.664C531.265 382.44 531.145 382.104 531.145 381.656ZM529.801 403.76C529.401 403.76 529.049 403.728 528.745 403.664C528.441 403.616 528.177 403.552 527.953 403.472V401.768C528.193 401.832 528.441 401.888 528.697 401.936C528.953 401.984 529.233 402.008 529.537 402.008C530.049 402.008 530.473 401.864 530.809 401.576C531.145 401.304 531.313 400.776 531.313 399.992V385.136H533.425V399.92C533.425 401.12 533.137 402.056 532.561 402.728C531.985 403.416 531.065 403.76 529.801 403.76ZM542.469 384.896C543.573 384.896 544.517 385.136 545.301 385.616C546.101 386.096 546.709 386.776 547.125 387.656C547.557 388.52 547.773 389.536 547.773 390.704V391.976H538.965C538.997 393.432 539.365 394.544 540.069 395.312C540.789 396.064 541.789 396.44 543.069 396.44C543.885 396.44 544.605 396.368 545.229 396.224C545.869 396.064 546.525 395.84 547.197 395.552V397.4C546.541 397.688 545.893 397.896 545.253 398.024C544.613 398.168 543.853 398.24 542.973 398.24C541.757 398.24 540.677 397.992 539.733 397.496C538.805 397 538.077 396.264 537.549 395.288C537.037 394.296 536.781 393.088 536.781 391.664C536.781 390.256 537.013 389.048 537.477 388.04C537.957 387.032 538.621 386.256 539.469 385.712C540.333 385.168 541.333 384.896 542.469 384.896ZM542.445 386.624C541.437 386.624 540.637 386.952 540.045 387.608C539.469 388.248 539.125 389.144 539.013 390.296H545.565C545.549 389.208 545.293 388.328 544.797 387.656C544.301 386.968 543.517 386.624 542.445 386.624ZM556.208 398.24C555.072 398.24 554.056 398.008 553.16 397.544C552.28 397.08 551.584 396.36 551.072 395.384C550.576 394.408 550.328 393.16 550.328 391.64C550.328 390.056 550.592 388.768 551.12 387.776C551.648 386.784 552.36 386.056 553.256 385.592C554.168 385.128 555.2 384.896 556.352 384.896C557.008 384.896 557.64 384.968 558.248 385.112C558.856 385.24 559.352 385.4 559.736 385.592L559.088 387.344C558.704 387.2 558.256 387.064 557.744 386.936C557.232 386.808 556.752 386.744 556.304 386.744C553.776 386.744 552.512 388.368 552.512 391.616C552.512 393.168 552.816 394.36 553.424 395.192C554.048 396.008 554.968 396.416 556.184 396.416C556.888 396.416 557.504 396.344 558.032 396.2C558.576 396.056 559.072 395.88 559.52 395.672V397.544C559.088 397.768 558.608 397.936 558.08 398.048C557.568 398.176 556.944 398.24 556.208 398.24ZM566.875 396.512C567.195 396.512 567.523 396.488 567.859 396.44C568.195 396.376 568.467 396.312 568.675 396.248V397.856C568.451 397.968 568.131 398.056 567.715 398.12C567.299 398.2 566.899 398.24 566.515 398.24C565.843 398.24 565.219 398.128 564.643 397.904C564.083 397.664 563.627 397.256 563.275 396.68C562.923 396.104 562.747 395.296 562.747 394.256V386.768H560.923V385.76L562.771 384.92L563.611 382.184H564.859V385.136H568.579V386.768H564.859V394.208C564.859 394.992 565.043 395.576 565.411 395.96C565.795 396.328 566.283 396.512 566.875 396.512Z" fill="black"/>
<path d="M322.2 768.344L331.248 764.576L322.2 760.28V758.408L333.504 764.048V765.248L322.2 770.216V768.344ZM348.193 755.864C350.337 755.864 351.953 756.184 353.041 756.824C354.145 757.448 354.697 758.544 354.697 760.112C354.697 761.12 354.417 761.96 353.857 762.632C353.297 763.288 352.489 763.712 351.433 763.904V764.024C352.153 764.136 352.801 764.344 353.377 764.648C353.969 764.952 354.433 765.384 354.769 765.944C355.105 766.504 355.273 767.232 355.273 768.128C355.273 769.68 354.737 770.88 353.665 771.728C352.609 772.576 351.161 773 349.321 773H343.297V755.864H348.193ZM348.625 763.16C350.097 763.16 351.105 762.928 351.649 762.464C352.193 761.984 352.465 761.28 352.465 760.352C352.465 759.408 352.129 758.736 351.457 758.336C350.801 757.92 349.745 757.712 348.289 757.712H345.457V763.16H348.625ZM345.457 764.96V771.176H348.913C350.433 771.176 351.489 770.88 352.081 770.288C352.673 769.696 352.969 768.92 352.969 767.96C352.969 767.064 352.657 766.344 352.033 765.8C351.425 765.24 350.329 764.96 348.745 764.96H345.457ZM359.698 755.312C360.018 755.312 360.298 755.424 360.538 755.648C360.794 755.856 360.922 756.192 360.922 756.656C360.922 757.104 360.794 757.44 360.538 757.664C360.298 757.888 360.018 758 359.698 758C359.346 758 359.05 757.888 358.81 757.664C358.57 757.44 358.45 757.104 358.45 756.656C358.45 756.192 358.57 755.856 358.81 755.648C359.05 755.424 359.346 755.312 359.698 755.312ZM360.73 760.136V773H358.618V760.136H360.73ZM364.638 756.656C364.638 756.192 364.758 755.856 364.998 755.648C365.238 755.424 365.534 755.312 365.886 755.312C366.206 755.312 366.486 755.424 366.726 755.648C366.982 755.856 367.11 756.192 367.11 756.656C367.11 757.104 366.982 757.44 366.726 757.664C366.486 757.888 366.206 758 365.886 758C365.534 758 365.238 757.888 364.998 757.664C364.758 757.44 364.638 757.104 364.638 756.656ZM363.294 778.76C362.894 778.76 362.542 778.728 362.238 778.664C361.934 778.616 361.67 778.552 361.446 778.472V776.768C361.686 776.832 361.934 776.888 362.19 776.936C362.446 776.984 362.726 777.008 363.03 777.008C363.542 777.008 363.966 776.864 364.302 776.576C364.638 776.304 364.806 775.776 364.806 774.992V760.136H366.918V774.92C366.918 776.12 366.63 777.056 366.054 777.728C365.478 778.416 364.558 778.76 363.294 778.76ZM373.105 773H370.993V754.76H373.105V773ZM382.053 759.92C383.621 759.92 384.781 760.264 385.533 760.952C386.285 761.64 386.661 762.736 386.661 764.24V773H385.125L384.717 771.176H384.621C384.061 771.88 383.469 772.4 382.845 772.736C382.237 773.072 381.389 773.24 380.301 773.24C379.133 773.24 378.165 772.936 377.397 772.328C376.629 771.704 376.245 770.736 376.245 769.424C376.245 768.144 376.749 767.16 377.757 766.472C378.765 765.768 380.317 765.384 382.413 765.32L384.597 765.248V764.48C384.597 763.408 384.365 762.664 383.901 762.248C383.437 761.832 382.781 761.624 381.933 761.624C381.261 761.624 380.621 761.728 380.013 761.936C379.405 762.128 378.837 762.352 378.309 762.608L377.661 761.024C378.221 760.72 378.885 760.464 379.653 760.256C380.421 760.032 381.221 759.92 382.053 759.92ZM382.677 766.784C381.077 766.848 379.965 767.104 379.341 767.552C378.733 768 378.429 768.632 378.429 769.448C378.429 770.168 378.645 770.696 379.077 771.032C379.525 771.368 380.093 771.536 380.781 771.536C381.869 771.536 382.773 771.24 383.493 770.648C384.213 770.04 384.573 769.112 384.573 767.864V766.712L382.677 766.784ZM395.194 759.896C396.042 759.896 396.802 760.056 397.474 760.376C398.162 760.696 398.746 761.184 399.226 761.84H399.346L399.634 760.136H401.314V773.216C401.314 775.056 400.842 776.44 399.898 777.368C398.97 778.296 397.522 778.76 395.554 778.76C393.666 778.76 392.122 778.488 390.922 777.944V776C392.186 776.672 393.77 777.008 395.674 777.008C396.778 777.008 397.642 776.68 398.266 776.024C398.906 775.384 399.226 774.504 399.226 773.384V772.88C399.226 772.688 399.234 772.416 399.25 772.064C399.266 771.696 399.282 771.44 399.298 771.296H399.202C398.338 772.592 397.01 773.24 395.218 773.24C393.554 773.24 392.25 772.656 391.306 771.488C390.378 770.32 389.914 768.688 389.914 766.592C389.914 764.544 390.378 762.92 391.306 761.72C392.25 760.504 393.546 759.896 395.194 759.896ZM395.482 761.672C394.41 761.672 393.578 762.104 392.986 762.968C392.394 763.816 392.098 765.032 392.098 766.616C392.098 768.2 392.386 769.416 392.962 770.264C393.554 771.096 394.41 771.512 395.53 771.512C396.826 771.512 397.77 771.168 398.362 770.48C398.954 769.776 399.25 768.648 399.25 767.096V766.592C399.25 764.832 398.946 763.576 398.338 762.824C397.73 762.056 396.778 761.672 395.482 761.672ZM410.367 759.896C411.471 759.896 412.415 760.136 413.199 760.616C413.999 761.096 414.607 761.776 415.023 762.656C415.455 763.52 415.671 764.536 415.671 765.704V766.976H406.863C406.895 768.432 407.263 769.544 407.967 770.312C408.687 771.064 409.687 771.44 410.967 771.44C411.783 771.44 412.503 771.368 413.127 771.224C413.767 771.064 414.423 770.84 415.095 770.552V772.4C414.439 772.688 413.791 772.896 413.151 773.024C412.511 773.168 411.751 773.24 410.871 773.24C409.655 773.24 408.575 772.992 407.631 772.496C406.703 772 405.975 771.264 405.447 770.288C404.935 769.296 404.679 768.088 404.679 766.664C404.679 765.256 404.911 764.048 405.375 763.04C405.855 762.032 406.519 761.256 407.367 760.712C408.231 760.168 409.231 759.896 410.367 759.896ZM410.343 761.624C409.335 761.624 408.535 761.952 407.943 762.608C407.367 763.248 407.023 764.144 406.911 765.296H413.463C413.447 764.208 413.191 763.328 412.695 762.656C412.199 761.968 411.415 761.624 410.343 761.624Z" fill="black"/>
<path d="M322.8 311.016L336.372 305.364L322.8 298.92V296.112L339.756 304.572V306.372L322.8 313.824V311.016ZM361.249 292.296C364.609 292.296 367.057 292.956 368.593 294.276C370.129 295.596 370.897 297.456 370.897 299.856C370.897 301.272 370.573 302.604 369.925 303.852C369.301 305.076 368.233 306.072 366.721 306.84C365.233 307.608 363.205 307.992 360.637 307.992H357.685V318H354.445V292.296H361.249ZM360.961 295.068H357.685V305.22H360.277C362.725 305.22 364.549 304.824 365.749 304.032C366.949 303.24 367.549 301.896 367.549 300C367.549 298.344 367.021 297.108 365.965 296.292C364.909 295.476 363.241 295.068 360.961 295.068ZM384.81 298.344C385.17 298.344 385.554 298.368 385.962 298.416C386.394 298.44 386.766 298.488 387.078 298.56L386.682 301.476C386.37 301.404 386.022 301.344 385.638 301.296C385.278 301.248 384.93 301.224 384.594 301.224C383.61 301.224 382.686 301.5 381.822 302.052C380.958 302.58 380.262 303.336 379.734 304.32C379.23 305.28 378.978 306.408 378.978 307.704V318H375.81V298.704H378.402L378.762 302.232H378.906C379.53 301.176 380.334 300.264 381.318 299.496C382.302 298.728 383.466 298.344 384.81 298.344ZM406.754 308.316C406.754 311.508 405.938 313.98 404.306 315.732C402.698 317.484 400.514 318.36 397.754 318.36C396.05 318.36 394.526 317.976 393.182 317.208C391.862 316.416 390.818 315.276 390.05 313.788C389.282 312.276 388.898 310.452 388.898 308.316C388.898 305.124 389.702 302.664 391.31 300.936C392.918 299.208 395.102 298.344 397.862 298.344C399.614 298.344 401.15 298.74 402.47 299.532C403.814 300.3 404.858 301.428 405.602 302.916C406.37 304.38 406.754 306.18 406.754 308.316ZM392.174 308.316C392.174 310.596 392.618 312.408 393.506 313.752C394.418 315.072 395.858 315.732 397.826 315.732C399.77 315.732 401.198 315.072 402.11 313.752C403.022 312.408 403.478 310.596 403.478 308.316C403.478 306.036 403.022 304.248 402.11 302.952C401.198 301.656 399.758 301.008 397.79 301.008C395.822 301.008 394.394 301.656 393.506 302.952C392.618 304.248 392.174 306.036 392.174 308.316ZM411.523 293.484C411.523 292.788 411.703 292.284 412.063 291.972C412.423 291.636 412.867 291.468 413.395 291.468C413.875 291.468 414.295 291.636 414.655 291.972C415.039 292.284 415.231 292.788 415.231 293.484C415.231 294.156 415.039 294.66 414.655 294.996C414.295 295.332 413.875 295.5 413.395 295.5C412.867 295.5 412.423 295.332 412.063 294.996C411.703 294.66 411.523 294.156 411.523 293.484ZM409.507 326.64C408.907 326.64 408.379 326.592 407.923 326.496C407.467 326.424 407.071 326.328 406.735 326.208V323.652C407.095 323.748 407.467 323.832 407.851 323.904C408.235 323.976 408.655 324.012 409.111 324.012C409.879 324.012 410.515 323.796 411.019 323.364C411.523 322.956 411.775 322.164 411.775 320.988V298.704H414.943V320.88C414.943 322.68 414.511 324.084 413.647 325.092C412.783 326.124 411.403 326.64 409.507 326.64ZM428.508 298.344C430.164 298.344 431.58 298.704 432.756 299.424C433.956 300.144 434.868 301.164 435.492 302.484C436.14 303.78 436.464 305.304 436.464 307.056V308.964H423.252C423.3 311.148 423.852 312.816 424.908 313.968C425.988 315.096 427.488 315.66 429.408 315.66C430.632 315.66 431.712 315.552 432.648 315.336C433.608 315.096 434.592 314.76 435.6 314.328V317.1C434.616 317.532 433.644 317.844 432.684 318.036C431.724 318.252 430.584 318.36 429.264 318.36C427.44 318.36 425.82 317.988 424.404 317.244C423.012 316.5 421.92 315.396 421.128 313.932C420.36 312.444 419.976 310.632 419.976 308.496C419.976 306.384 420.324 304.572 421.02 303.06C421.74 301.548 422.736 300.384 424.008 299.568C425.304 298.752 426.804 298.344 428.508 298.344ZM428.472 300.936C426.96 300.936 425.76 301.428 424.872 302.412C424.008 303.372 423.492 304.716 423.324 306.444H433.152C433.128 304.812 432.744 303.492 432 302.484C431.256 301.452 430.08 300.936 428.472 300.936ZM449.116 318.36C447.412 318.36 445.888 318.012 444.544 317.316C443.224 316.62 442.18 315.54 441.412 314.076C440.668 312.612 440.296 310.74 440.296 308.46C440.296 306.084 440.692 304.152 441.484 302.664C442.276 301.176 443.344 300.084 444.688 299.388C446.056 298.692 447.604 298.344 449.332 298.344C450.316 298.344 451.264 298.452 452.176 298.668C453.088 298.86 453.832 299.1 454.408 299.388L453.436 302.016C452.86 301.8 452.188 301.596 451.42 301.404C450.652 301.212 449.932 301.116 449.26 301.116C445.468 301.116 443.572 303.552 443.572 308.424C443.572 310.752 444.028 312.54 444.94 313.788C445.876 315.012 447.256 315.624 449.08 315.624C450.136 315.624 451.06 315.516 451.852 315.3C452.668 315.084 453.412 314.82 454.084 314.508V317.316C453.436 317.652 452.716 317.904 451.924 318.072C451.156 318.264 450.22 318.36 449.116 318.36ZM465.117 315.768C465.597 315.768 466.089 315.732 466.593 315.66C467.097 315.564 467.505 315.468 467.817 315.372V317.784C467.481 317.952 467.001 318.084 466.377 318.18C465.753 318.3 465.153 318.36 464.577 318.36C463.569 318.36 462.633 318.192 461.769 317.856C460.929 317.496 460.245 316.884 459.717 316.02C459.189 315.156 458.925 313.944 458.925 312.384V301.152H456.189V299.64L458.961 298.38L460.221 294.276H462.093V298.704H467.673V301.152H462.093V312.312C462.093 313.488 462.369 314.364 462.921 314.94C463.497 315.492 464.229 315.768 465.117 315.768ZM487.477 315.768C487.957 315.768 488.449 315.732 488.953 315.66C489.457 315.564 489.865 315.468 490.177 315.372V317.784C489.841 317.952 489.361 318.084 488.737 318.18C488.113 318.3 487.513 318.36 486.937 318.36C485.929 318.36 484.993 318.192 484.129 317.856C483.289 317.496 482.605 316.884 482.077 316.02C481.549 315.156 481.285 313.944 481.285 312.384V301.152H478.549V299.64L481.321 298.38L482.581 294.276H484.453V298.704H490.033V301.152H484.453V312.312C484.453 313.488 484.729 314.364 485.281 314.94C485.857 315.492 486.589 315.768 487.477 315.768ZM495.66 291.468C496.14 291.468 496.56 291.636 496.92 291.972C497.304 292.284 497.496 292.788 497.496 293.484C497.496 294.156 497.304 294.66 496.92 294.996C496.56 295.332 496.14 295.5 495.66 295.5C495.132 295.5 494.688 295.332 494.328 294.996C493.968 294.66 493.788 294.156 493.788 293.484C493.788 292.788 493.968 292.284 494.328 291.972C494.688 291.636 495.132 291.468 495.66 291.468ZM497.208 298.704V318H494.04V298.704H497.208ZM509.766 315.768C510.246 315.768 510.738 315.732 511.242 315.66C511.746 315.564 512.154 315.468 512.466 315.372V317.784C512.13 317.952 511.65 318.084 511.026 318.18C510.402 318.3 509.802 318.36 509.226 318.36C508.218 318.36 507.282 318.192 506.418 317.856C505.578 317.496 504.894 316.884 504.366 316.02C503.838 315.156 503.574 313.944 503.574 312.384V301.152H500.838V299.64L503.61 298.38L504.87 294.276H506.742V298.704H512.322V301.152H506.742V312.312C506.742 313.488 507.018 314.364 507.57 314.94C508.146 315.492 508.878 315.768 509.766 315.768ZM523.782 298.344C525.438 298.344 526.854 298.704 528.03 299.424C529.23 300.144 530.142 301.164 530.766 302.484C531.414 303.78 531.738 305.304 531.738 307.056V308.964H518.526C518.574 311.148 519.126 312.816 520.182 313.968C521.262 315.096 522.762 315.66 524.682 315.66C525.906 315.66 526.986 315.552 527.922 315.336C528.882 315.096 529.866 314.76 530.874 314.328V317.1C529.89 317.532 528.918 317.844 527.958 318.036C526.998 318.252 525.858 318.36 524.538 318.36C522.714 318.36 521.094 317.988 519.678 317.244C518.286 316.5 517.194 315.396 516.402 313.932C515.634 312.444 515.25 310.632 515.25 308.496C515.25 306.384 515.598 304.572 516.294 303.06C517.014 301.548 518.01 300.384 519.282 299.568C520.578 298.752 522.078 298.344 523.782 298.344ZM523.746 300.936C522.234 300.936 521.034 301.428 520.146 302.412C519.282 303.372 518.766 304.716 518.598 306.444H528.426C528.402 304.812 528.018 303.492 527.274 302.484C526.53 301.452 525.354 300.936 523.746 300.936ZM539.818 318H536.65V290.64H539.818V318Z" fill="black"/>
<rect x="296.5" y="30.5" width="847" height="166" fill="white" stroke="black"/>
<path d="M348.456 82.456C357.416 82.456 363.944 84.216 368.04 87.736C372.136 91.256 374.184 96.216 374.184 102.616C374.184 106.392 373.32 109.944 371.592 113.272C369.928 116.536 367.08 119.192 363.048 121.24C359.08 123.288 353.672 124.312 346.824 124.312H338.952V151H330.312V82.456H348.456ZM347.688 89.848H338.952V116.92H345.864C352.392 116.92 357.256 115.864 360.456 113.752C363.656 111.64 365.256 108.056 365.256 103C365.256 98.584 363.848 95.288 361.032 93.112C358.216 90.936 353.768 89.848 347.688 89.848ZM432.021 125.176C432.021 133.688 429.845 140.28 425.493 144.952C421.205 149.624 415.381 151.96 408.021 151.96C403.477 151.96 399.413 150.936 395.829 148.888C392.309 146.776 389.525 143.736 387.477 139.768C385.429 135.736 384.405 130.872 384.405 125.176C384.405 116.664 386.549 110.104 390.837 105.496C395.125 100.888 400.949 98.584 408.309 98.584C412.981 98.584 417.077 99.64 420.597 101.752C424.181 103.8 426.965 106.808 428.949 110.776C430.997 114.68 432.021 119.48 432.021 125.176ZM393.141 125.176C393.141 131.256 394.325 136.088 396.693 139.672C399.125 143.192 402.965 144.952 408.213 144.952C413.397 144.952 417.205 143.192 419.637 139.672C422.069 136.088 423.285 131.256 423.285 125.176C423.285 119.096 422.069 114.328 419.637 110.872C417.205 107.416 413.365 105.688 408.117 105.688C402.869 105.688 399.061 107.416 396.693 110.872C394.325 114.328 393.141 119.096 393.141 125.176ZM469.41 98.584C470.37 98.584 471.394 98.648 472.482 98.776C473.634 98.84 474.626 98.968 475.458 99.16L474.402 106.936C473.57 106.744 472.642 106.584 471.618 106.456C470.658 106.328 469.73 106.264 468.834 106.264C466.21 106.264 463.746 107 461.442 108.472C459.138 109.88 457.282 111.896 455.874 114.52C454.53 117.08 453.858 120.088 453.858 123.544V151H445.41V99.544H452.322L453.282 108.952H453.666C455.33 106.136 457.474 103.704 460.098 101.656C462.722 99.608 465.826 98.584 469.41 98.584ZM502.25 145.048C503.53 145.048 504.842 144.952 506.186 144.76C507.53 144.504 508.618 144.248 509.45 143.992V150.424C508.554 150.872 507.274 151.224 505.61 151.48C503.946 151.8 502.346 151.96 500.81 151.96C498.122 151.96 495.626 151.512 493.322 150.616C491.082 149.656 489.258 148.024 487.85 145.72C486.442 143.416 485.738 140.184 485.738 136.024V106.072H478.442V102.04L485.834 98.68L489.194 87.736H494.186V99.544H509.066V106.072H494.186V135.832C494.186 138.968 494.922 141.304 496.394 142.84C497.93 144.312 499.882 145.048 502.25 145.048ZM543.466 106.072H530.506V151H522.058V106.072H513.034V102.136L522.058 99.256V96.28C522.058 89.624 523.53 84.856 526.474 81.976C529.418 79.032 533.514 77.56 538.762 77.56C540.81 77.56 542.666 77.752 544.33 78.136C546.058 78.456 547.53 78.84 548.746 79.288L546.538 85.912C545.514 85.592 544.33 85.272 542.986 84.952C541.642 84.632 540.266 84.472 538.858 84.472C536.042 84.472 533.93 85.432 532.522 87.352C531.178 89.208 530.506 92.152 530.506 96.184V99.544H543.466V106.072ZM597.49 125.176C597.49 133.688 595.314 140.28 590.962 144.952C586.674 149.624 580.85 151.96 573.49 151.96C568.946 151.96 564.882 150.936 561.298 148.888C557.778 146.776 554.994 143.736 552.946 139.768C550.898 135.736 549.874 130.872 549.874 125.176C549.874 116.664 552.018 110.104 556.306 105.496C560.594 100.888 566.418 98.584 573.778 98.584C578.45 98.584 582.546 99.64 586.066 101.752C589.65 103.8 592.434 106.808 594.418 110.776C596.466 114.68 597.49 119.48 597.49 125.176ZM558.61 125.176C558.61 131.256 559.794 136.088 562.162 139.672C564.594 143.192 568.434 144.952 573.682 144.952C578.866 144.952 582.674 143.192 585.106 139.672C587.538 136.088 588.754 131.256 588.754 125.176C588.754 119.096 587.538 114.328 585.106 110.872C582.674 107.416 578.834 105.688 573.586 105.688C568.338 105.688 564.53 107.416 562.162 110.872C559.794 114.328 558.61 119.096 558.61 125.176ZM619.327 151H610.879V78.04H619.327V151ZM639.949 80.248C641.229 80.248 642.349 80.696 643.309 81.592C644.333 82.424 644.845 83.768 644.845 85.624C644.845 87.416 644.333 88.76 643.309 89.656C642.349 90.552 641.229 91 639.949 91C638.541 91 637.357 90.552 636.397 89.656C635.437 88.76 634.957 87.416 634.957 85.624C634.957 83.768 635.437 82.424 636.397 81.592C637.357 80.696 638.541 80.248 639.949 80.248ZM644.077 99.544V151H635.629V99.544H644.077ZM705.115 125.176C705.115 133.688 702.939 140.28 698.587 144.952C694.299 149.624 688.475 151.96 681.115 151.96C676.571 151.96 672.507 150.936 668.923 148.888C665.403 146.776 662.619 143.736 660.571 139.768C658.523 135.736 657.499 130.872 657.499 125.176C657.499 116.664 659.643 110.104 663.931 105.496C668.219 100.888 674.043 98.584 681.403 98.584C686.075 98.584 690.171 99.64 693.691 101.752C697.275 103.8 700.059 106.808 702.043 110.776C704.091 114.68 705.115 119.48 705.115 125.176ZM666.235 125.176C666.235 131.256 667.419 136.088 669.787 139.672C672.219 143.192 676.059 144.952 681.307 144.952C686.491 144.952 690.299 143.192 692.731 139.672C695.163 136.088 696.379 131.256 696.379 125.176C696.379 119.096 695.163 114.328 692.731 110.872C690.299 107.416 686.459 105.688 681.211 105.688C675.963 105.688 672.155 107.416 669.787 110.872C667.419 114.328 666.235 119.096 666.235 125.176ZM752.008 136.792C752.008 141.784 750.152 145.56 746.44 148.12C742.728 150.68 737.736 151.96 731.464 151.96C727.88 151.96 724.776 151.672 722.152 151.096C719.592 150.52 717.32 149.72 715.336 148.696V141.016C717.384 142.04 719.848 143 722.728 143.896C725.672 144.728 728.648 145.144 731.656 145.144C735.944 145.144 739.048 144.472 740.968 143.128C742.888 141.72 743.848 139.864 743.848 137.56C743.848 136.28 743.496 135.128 742.792 134.104C742.088 133.08 740.808 132.056 738.952 131.032C737.16 130.008 734.568 128.856 731.176 127.576C727.848 126.296 725 125.016 722.632 123.736C720.264 122.456 718.44 120.92 717.16 119.128C715.88 117.336 715.24 115.032 715.24 112.216C715.24 107.864 717 104.504 720.52 102.136C724.104 99.768 728.776 98.584 734.536 98.584C737.672 98.584 740.584 98.904 743.272 99.544C746.024 100.12 748.584 100.952 750.952 102.04L748.072 108.76C745.896 107.864 743.624 107.096 741.256 106.456C738.888 105.816 736.456 105.496 733.96 105.496C730.504 105.496 727.848 106.072 725.992 107.224C724.2 108.312 723.304 109.816 723.304 111.736C723.304 113.144 723.72 114.36 724.552 115.384C725.384 116.344 726.76 117.304 728.68 118.264C730.664 119.16 733.288 120.248 736.552 121.528C739.816 122.744 742.6 123.992 744.904 125.272C747.208 126.552 748.968 128.12 750.184 129.976C751.4 131.768 752.008 134.04 752.008 136.792ZM768.761 80.248C770.041 80.248 771.161 80.696 772.121 81.592C773.145 82.424 773.657 83.768 773.657 85.624C773.657 87.416 773.145 88.76 772.121 89.656C771.161 90.552 770.041 91 768.761 91C767.353 91 766.169 90.552 765.209 89.656C764.249 88.76 763.769 87.416 763.769 85.624C763.769 83.768 764.249 82.424 765.209 81.592C766.169 80.696 767.353 80.248 768.761 80.248ZM772.889 99.544V151H764.441V99.544H772.889ZM806.375 145.048C807.655 145.048 808.967 144.952 810.311 144.76C811.655 144.504 812.743 144.248 813.575 143.992V150.424C812.679 150.872 811.399 151.224 809.735 151.48C808.071 151.8 806.471 151.96 804.935 151.96C802.247 151.96 799.751 151.512 797.447 150.616C795.207 149.656 793.383 148.024 791.975 145.72C790.567 143.416 789.863 140.184 789.863 136.024V106.072H782.567V102.04L789.959 98.68L793.319 87.736H798.311V99.544H813.191V106.072H798.311V135.832C798.311 138.968 799.047 141.304 800.519 142.84C802.055 144.312 804.007 145.048 806.375 145.048ZM843.751 98.584C848.167 98.584 851.943 99.544 855.079 101.464C858.279 103.384 860.711 106.104 862.375 109.624C864.103 113.08 864.967 117.144 864.967 121.816V126.904H829.735C829.863 132.728 831.335 137.176 834.151 140.248C837.031 143.256 841.031 144.76 846.151 144.76C849.415 144.76 852.295 144.472 854.791 143.896C857.351 143.256 859.975 142.36 862.663 141.208V148.6C860.039 149.752 857.447 150.584 854.887 151.096C852.327 151.672 849.287 151.96 845.767 151.96C840.903 151.96 836.583 150.968 832.807 148.984C829.095 147 826.183 144.056 824.071 140.152C822.023 136.184 820.999 131.352 820.999 125.656C820.999 120.024 821.927 115.192 823.783 111.16C825.703 107.128 828.359 104.024 831.751 101.848C835.207 99.672 839.207 98.584 843.751 98.584ZM843.655 105.496C839.623 105.496 836.423 106.808 834.055 109.432C831.751 111.992 830.375 115.576 829.927 120.184H856.135C856.071 115.832 855.047 112.312 853.063 109.624C851.079 106.872 847.943 105.496 843.655 105.496Z" fill="black"/>
</svg>

