<svg width="1440" height="900" viewBox="0 0 1440 900" fill="none" xmlns="http://www.w3.org/2000/svg">
<rect width="1440" height="900" fill="white"/>
<rect x="35.5" y="20.5" width="124" height="124" fill="white" stroke="black"/>
<rect x="51.5" y="73.5" width="92" height="49" fill="white" stroke="black"/>
<rect x="296.5" y="220.5" width="847" height="679" fill="white" stroke="black"/>
<rect x="321.5" y="588.5" width="749" height="154" fill="white" stroke="black"/>
<path d="M358.28 617.408C358.28 619.184 357.976 620.736 357.368 622.064C356.776 623.376 355.896 624.4 354.728 625.136C353.56 625.872 352.112 626.24 350.384 626.24C348.608 626.24 347.128 625.872 345.944 625.136C344.776 624.4 343.904 623.368 343.328 622.04C342.752 620.712 342.464 619.16 342.464 617.384C342.464 615.624 342.752 614.088 343.328 612.776C343.904 611.464 344.776 610.44 345.944 609.704C347.128 608.968 348.616 608.6 350.408 608.6C352.12 608.6 353.56 608.968 354.728 609.704C355.896 610.424 356.776 611.448 357.368 612.776C357.976 614.088 358.28 615.632 358.28 617.408ZM344.744 617.408C344.744 619.568 345.2 621.272 346.112 622.52C347.024 623.752 348.448 624.368 350.384 624.368C352.336 624.368 353.76 623.752 354.656 622.52C355.552 621.272 356 619.568 356 617.408C356 615.248 355.552 613.56 354.656 612.344C353.76 611.112 352.344 610.496 350.408 610.496C348.472 610.496 347.04 611.112 346.112 612.344C345.2 613.56 344.744 615.248 344.744 617.408ZM364.622 626L359.75 613.136H362.006L364.742 620.72C364.87 621.072 365.006 621.464 365.15 621.896C365.294 622.328 365.422 622.744 365.534 623.144C365.646 623.528 365.726 623.856 365.774 624.128H365.87C365.934 623.856 366.022 623.52 366.134 623.12C366.262 622.72 366.398 622.304 366.542 621.872C366.702 621.44 366.838 621.056 366.95 620.72L369.686 613.136H371.942L367.046 626H364.622ZM378.946 612.896C380.05 612.896 380.994 613.136 381.778 613.616C382.578 614.096 383.186 614.776 383.602 615.656C384.034 616.52 384.25 617.536 384.25 618.704V619.976H375.442C375.474 621.432 375.842 622.544 376.546 623.312C377.266 624.064 378.266 624.44 379.546 624.44C380.362 624.44 381.082 624.368 381.706 624.224C382.346 624.064 383.002 623.84 383.674 623.552V625.4C383.018 625.688 382.37 625.896 381.73 626.024C381.09 626.168 380.33 626.24 379.45 626.24C378.234 626.24 377.154 625.992 376.21 625.496C375.282 625 374.554 624.264 374.026 623.288C373.514 622.296 373.258 621.088 373.258 619.664C373.258 618.256 373.49 617.048 373.954 616.04C374.434 615.032 375.098 614.256 375.946 613.712C376.81 613.168 377.81 612.896 378.946 612.896ZM378.922 614.624C377.914 614.624 377.114 614.952 376.522 615.608C375.946 616.248 375.602 617.144 375.49 618.296H382.042C382.026 617.208 381.77 616.328 381.274 615.656C380.778 614.968 379.994 614.624 378.922 614.624ZM393.524 612.896C393.764 612.896 394.02 612.912 394.292 612.944C394.58 612.96 394.828 612.992 395.036 613.04L394.772 614.984C394.564 614.936 394.332 614.896 394.076 614.864C393.836 614.832 393.604 614.816 393.38 614.816C392.724 614.816 392.108 615 391.532 615.368C390.956 615.72 390.492 616.224 390.14 616.88C389.804 617.52 389.636 618.272 389.636 619.136V626H387.524V613.136H389.252L389.492 615.488H389.588C390.004 614.784 390.54 614.176 391.196 613.664C391.852 613.152 392.628 612.896 393.524 612.896ZM412.049 622.448C412.049 623.696 411.585 624.64 410.657 625.28C409.729 625.92 408.481 626.24 406.913 626.24C406.017 626.24 405.241 626.168 404.585 626.024C403.945 625.88 403.377 625.68 402.881 625.424V623.504C403.393 623.76 404.009 624 404.729 624.224C405.465 624.432 406.209 624.536 406.961 624.536C408.033 624.536 408.809 624.368 409.289 624.032C409.769 623.68 410.009 623.216 410.009 622.64C410.009 622.32 409.921 622.032 409.745 621.776C409.569 621.52 409.249 621.264 408.785 621.008C408.337 620.752 407.689 620.464 406.841 620.144C406.009 619.824 405.297 619.504 404.705 619.184C404.113 618.864 403.657 618.48 403.337 618.032C403.017 617.584 402.857 617.008 402.857 616.304C402.857 615.216 403.297 614.376 404.177 613.784C405.073 613.192 406.241 612.896 407.681 612.896C408.465 612.896 409.193 612.976 409.865 613.136C410.553 613.28 411.193 613.488 411.785 613.76L411.065 615.44C410.521 615.216 409.953 615.024 409.361 614.864C408.769 614.704 408.161 614.624 407.537 614.624C406.673 614.624 406.009 614.768 405.545 615.056C405.097 615.328 404.873 615.704 404.873 616.184C404.873 616.536 404.977 616.84 405.185 617.096C405.393 617.336 405.737 617.576 406.217 617.816C406.713 618.04 407.369 618.312 408.185 618.632C409.001 618.936 409.697 619.248 410.273 619.568C410.849 619.888 411.289 620.28 411.593 620.744C411.897 621.192 412.049 621.76 412.049 622.448ZM419.453 624.512C419.773 624.512 420.101 624.488 420.437 624.44C420.773 624.376 421.045 624.312 421.253 624.248V625.856C421.029 625.968 420.709 626.056 420.293 626.12C419.877 626.2 419.477 626.24 419.093 626.24C418.421 626.24 417.797 626.128 417.221 625.904C416.661 625.664 416.205 625.256 415.853 624.68C415.501 624.104 415.325 623.296 415.325 622.256V614.768H413.501V613.76L415.349 612.92L416.189 610.184H417.437V613.136H421.157V614.768H417.437V622.208C417.437 622.992 417.621 623.576 417.989 623.96C418.373 624.328 418.861 624.512 419.453 624.512ZM434.581 613.136V626H432.853L432.541 624.296H432.445C432.029 624.968 431.453 625.464 430.717 625.784C429.981 626.088 429.197 626.24 428.365 626.24C426.813 626.24 425.645 625.872 424.861 625.136C424.077 624.384 423.685 623.192 423.685 621.56V613.136H425.821V621.416C425.821 623.464 426.773 624.488 428.677 624.488C430.101 624.488 431.085 624.088 431.629 623.288C432.189 622.488 432.469 621.336 432.469 619.832V613.136H434.581ZM443.225 626.24C441.625 626.24 440.345 625.688 439.385 624.584C438.425 623.464 437.945 621.8 437.945 619.592C437.945 617.384 438.425 615.72 439.385 614.6C440.361 613.464 441.649 612.896 443.249 612.896C444.241 612.896 445.049 613.08 445.673 613.448C446.313 613.816 446.833 614.264 447.233 614.792H447.377C447.361 614.584 447.329 614.28 447.281 613.88C447.249 613.464 447.233 613.136 447.233 612.896V607.76H449.345V626H447.641L447.329 624.272H447.233C446.849 624.816 446.337 625.28 445.697 625.664C445.057 626.048 444.233 626.24 443.225 626.24ZM443.561 624.488C444.921 624.488 445.873 624.12 446.417 623.384C446.977 622.632 447.257 621.504 447.257 620V619.616C447.257 618.016 446.993 616.792 446.465 615.944C445.937 615.08 444.961 614.648 443.537 614.648C442.401 614.648 441.545 615.104 440.969 616.016C440.409 616.912 440.129 618.12 440.129 619.64C440.129 621.176 440.409 622.368 440.969 623.216C441.545 624.064 442.409 624.488 443.561 624.488ZM458.399 612.896C459.503 612.896 460.447 613.136 461.231 613.616C462.031 614.096 462.639 614.776 463.055 615.656C463.487 616.52 463.703 617.536 463.703 618.704V619.976H454.895C454.927 621.432 455.295 622.544 455.999 623.312C456.719 624.064 457.719 624.44 458.999 624.44C459.815 624.44 460.535 624.368 461.159 624.224C461.799 624.064 462.455 623.84 463.127 623.552V625.4C462.471 625.688 461.823 625.896 461.183 626.024C460.543 626.168 459.783 626.24 458.903 626.24C457.687 626.24 456.607 625.992 455.663 625.496C454.735 625 454.007 624.264 453.479 623.288C452.967 622.296 452.711 621.088 452.711 619.664C452.711 618.256 452.943 617.048 453.407 616.04C453.887 615.032 454.551 614.256 455.399 613.712C456.263 613.168 457.263 612.896 458.399 612.896ZM458.375 614.624C457.367 614.624 456.567 614.952 455.975 615.608C455.399 616.248 455.055 617.144 454.943 618.296H461.495C461.479 617.208 461.223 616.328 460.727 615.656C460.231 614.968 459.447 614.624 458.375 614.624ZM473.17 612.896C474.706 612.896 475.866 613.272 476.65 614.024C477.434 614.76 477.826 615.96 477.826 617.624V626H475.738V617.768C475.738 615.704 474.778 614.672 472.858 614.672C471.434 614.672 470.45 615.072 469.906 615.872C469.362 616.672 469.09 617.824 469.09 619.328V626H466.978V613.136H468.682L468.994 614.888H469.114C469.53 614.216 470.106 613.72 470.842 613.4C471.578 613.064 472.354 612.896 473.17 612.896ZM486.109 624.512C486.429 624.512 486.757 624.488 487.093 624.44C487.429 624.376 487.701 624.312 487.909 624.248V625.856C487.685 625.968 487.365 626.056 486.949 626.12C486.533 626.2 486.133 626.24 485.749 626.24C485.077 626.24 484.453 626.128 483.877 625.904C483.317 625.664 482.861 625.256 482.509 624.68C482.157 624.104 481.981 623.296 481.981 622.256V614.768H480.157V613.76L482.005 612.92L482.845 610.184H484.093V613.136H487.813V614.768H484.093V622.208C484.093 622.992 484.277 623.576 484.645 623.96C485.029 624.328 485.517 624.512 486.109 624.512Z" fill="black"/>
<path d="M322.8 273.016L336.372 267.364L322.8 260.92V258.112L339.756 266.572V268.372L322.8 275.824V273.016ZM370.573 280L367.477 272.044H357.289L354.229 280H350.953L360.997 254.188H363.913L373.921 280H370.573ZM363.625 261.388C363.553 261.196 363.433 260.848 363.265 260.344C363.097 259.84 362.929 259.324 362.761 258.796C362.617 258.244 362.497 257.824 362.401 257.536C362.233 258.28 362.041 259.012 361.825 259.732C361.609 260.428 361.429 260.98 361.285 261.388L358.369 269.164H366.505L363.625 261.388ZM384.745 280.36C383.041 280.36 381.517 280.012 380.173 279.316C378.853 278.62 377.809 277.54 377.041 276.076C376.297 274.612 375.925 272.74 375.925 270.46C375.925 268.084 376.321 266.152 377.113 264.664C377.905 263.176 378.973 262.084 380.317 261.388C381.685 260.692 383.233 260.344 384.961 260.344C385.945 260.344 386.893 260.452 387.805 260.668C388.717 260.86 389.461 261.1 390.037 261.388L389.065 264.016C388.489 263.8 387.817 263.596 387.049 263.404C386.281 263.212 385.561 263.116 384.889 263.116C381.097 263.116 379.201 265.552 379.201 270.424C379.201 272.752 379.657 274.54 380.569 275.788C381.505 277.012 382.885 277.624 384.709 277.624C385.765 277.624 386.689 277.516 387.481 277.3C388.297 277.084 389.041 276.82 389.713 276.508V279.316C389.065 279.652 388.345 279.904 387.553 280.072C386.785 280.264 385.849 280.36 384.745 280.36ZM402.042 280.36C400.338 280.36 398.814 280.012 397.47 279.316C396.15 278.62 395.106 277.54 394.338 276.076C393.594 274.612 393.222 272.74 393.222 270.46C393.222 268.084 393.618 266.152 394.41 264.664C395.202 263.176 396.27 262.084 397.614 261.388C398.982 260.692 400.53 260.344 402.258 260.344C403.242 260.344 404.19 260.452 405.102 260.668C406.014 260.86 406.758 261.1 407.334 261.388L406.362 264.016C405.786 263.8 405.114 263.596 404.346 263.404C403.578 263.212 402.858 263.116 402.186 263.116C398.394 263.116 396.498 265.552 396.498 270.424C396.498 272.752 396.954 274.54 397.866 275.788C398.802 277.012 400.182 277.624 402.006 277.624C403.062 277.624 403.986 277.516 404.778 277.3C405.594 277.084 406.338 276.82 407.01 276.508V279.316C406.362 279.652 405.642 279.904 404.85 280.072C404.082 280.264 403.146 280.36 402.042 280.36ZM428.375 270.316C428.375 273.508 427.559 275.98 425.927 277.732C424.319 279.484 422.135 280.36 419.375 280.36C417.671 280.36 416.147 279.976 414.803 279.208C413.483 278.416 412.439 277.276 411.671 275.788C410.903 274.276 410.519 272.452 410.519 270.316C410.519 267.124 411.323 264.664 412.931 262.936C414.539 261.208 416.723 260.344 419.483 260.344C421.235 260.344 422.771 260.74 424.091 261.532C425.435 262.3 426.479 263.428 427.223 264.916C427.991 266.38 428.375 268.18 428.375 270.316ZM413.795 270.316C413.795 272.596 414.239 274.408 415.127 275.752C416.039 277.072 417.479 277.732 419.447 277.732C421.391 277.732 422.819 277.072 423.731 275.752C424.643 274.408 425.099 272.596 425.099 270.316C425.099 268.036 424.643 266.248 423.731 264.952C422.819 263.656 421.379 263.008 419.411 263.008C417.443 263.008 416.015 263.656 415.127 264.952C414.239 266.248 413.795 268.036 413.795 270.316ZM449.524 260.704V280H446.932L446.464 277.444H446.32C445.696 278.452 444.832 279.196 443.728 279.676C442.624 280.132 441.448 280.36 440.2 280.36C437.872 280.36 436.12 279.808 434.944 278.704C433.768 277.576 433.18 275.788 433.18 273.34V260.704H436.384V273.124C436.384 276.196 437.812 277.732 440.668 277.732C442.804 277.732 444.28 277.132 445.096 275.932C445.936 274.732 446.356 273.004 446.356 270.748V260.704H449.524ZM464.938 260.344C467.242 260.344 468.982 260.908 470.158 262.036C471.334 263.14 471.922 264.94 471.922 267.436V280H468.79V267.652C468.79 264.556 467.35 263.008 464.47 263.008C462.334 263.008 460.858 263.608 460.042 264.808C459.226 266.008 458.818 267.736 458.818 269.992V280H455.65V260.704H458.206L458.674 263.332H458.854C459.478 262.324 460.342 261.58 461.446 261.1C462.55 260.596 463.714 260.344 464.938 260.344ZM484.348 277.768C484.828 277.768 485.32 277.732 485.824 277.66C486.328 277.564 486.736 277.468 487.048 277.372V279.784C486.712 279.952 486.232 280.084 485.608 280.18C484.984 280.3 484.384 280.36 483.808 280.36C482.8 280.36 481.864 280.192 481 279.856C480.16 279.496 479.476 278.884 478.948 278.02C478.42 277.156 478.156 275.944 478.156 274.384V263.152H475.42V261.64L478.192 260.38L479.452 256.276H481.324V260.704H486.904V263.152H481.324V274.312C481.324 275.488 481.6 276.364 482.152 276.94C482.728 277.492 483.46 277.768 484.348 277.768ZM521.431 260.344C523.615 260.344 525.247 260.908 526.327 262.036C527.407 263.14 527.947 264.94 527.947 267.436V280H524.815V267.58C524.815 264.532 523.507 263.008 520.891 263.008C519.019 263.008 517.675 263.548 516.859 264.628C516.067 265.708 515.671 267.28 515.671 269.344V280H512.539V267.58C512.539 264.532 511.219 263.008 508.579 263.008C506.635 263.008 505.291 263.608 504.547 264.808C503.803 266.008 503.431 267.736 503.431 269.992V280H500.263V260.704H502.819L503.287 263.332H503.467C504.067 262.324 504.871 261.58 505.879 261.1C506.911 260.596 508.003 260.344 509.155 260.344C512.179 260.344 514.147 261.424 515.059 263.584H515.239C515.887 262.48 516.763 261.664 517.867 261.136C518.995 260.608 520.183 260.344 521.431 260.344ZM541.216 260.38C543.568 260.38 545.308 260.896 546.436 261.928C547.564 262.96 548.128 264.604 548.128 266.86V280H545.824L545.212 277.264H545.068C544.228 278.32 543.34 279.1 542.404 279.604C541.492 280.108 540.22 280.36 538.588 280.36C536.836 280.36 535.384 279.904 534.232 278.992C533.08 278.056 532.504 276.604 532.504 274.636C532.504 272.716 533.26 271.24 534.772 270.208C536.284 269.152 538.612 268.576 541.756 268.48L545.032 268.372V267.22C545.032 265.612 544.684 264.496 543.988 263.872C543.292 263.248 542.308 262.936 541.036 262.936C540.028 262.936 539.068 263.092 538.156 263.404C537.244 263.692 536.392 264.028 535.6 264.412L534.628 262.036C535.468 261.58 536.464 261.196 537.616 260.884C538.768 260.548 539.968 260.38 541.216 260.38ZM542.152 270.676C539.752 270.772 538.084 271.156 537.148 271.828C536.236 272.5 535.78 273.448 535.78 274.672C535.78 275.752 536.104 276.544 536.752 277.048C537.424 277.552 538.276 277.804 539.308 277.804C540.94 277.804 542.296 277.36 543.376 276.472C544.456 275.56 544.996 274.168 544.996 272.296V270.568L542.152 270.676ZM557.219 266.932C557.219 267.316 557.195 267.82 557.147 268.444C557.123 269.068 557.099 269.608 557.075 270.064H557.219C557.363 269.872 557.579 269.596 557.867 269.236C558.155 268.876 558.443 268.516 558.731 268.156C559.043 267.772 559.307 267.46 559.523 267.22L565.679 260.704H569.387L561.575 268.948L569.927 280H566.111L559.415 271L557.219 272.908V280H554.087V252.64H557.219V266.932ZM580.77 260.344C582.426 260.344 583.842 260.704 585.018 261.424C586.218 262.144 587.13 263.164 587.754 264.484C588.402 265.78 588.726 267.304 588.726 269.056V270.964H575.514C575.562 273.148 576.114 274.816 577.17 275.968C578.25 277.096 579.75 277.66 581.67 277.66C582.894 277.66 583.974 277.552 584.91 277.336C585.87 277.096 586.854 276.76 587.862 276.328V279.1C586.878 279.532 585.906 279.844 584.946 280.036C583.986 280.252 582.846 280.36 581.526 280.36C579.702 280.36 578.082 279.988 576.666 279.244C575.274 278.5 574.182 277.396 573.39 275.932C572.622 274.444 572.238 272.632 572.238 270.496C572.238 268.384 572.586 266.572 573.282 265.06C574.002 263.548 574.998 262.384 576.27 261.568C577.566 260.752 579.066 260.344 580.77 260.344ZM580.734 262.936C579.222 262.936 578.022 263.428 577.134 264.412C576.27 265.372 575.754 266.716 575.586 268.444H585.414C585.39 266.812 585.006 265.492 584.262 264.484C583.518 263.452 582.342 262.936 580.734 262.936ZM602.926 260.344C605.23 260.344 606.97 260.908 608.146 262.036C609.322 263.14 609.91 264.94 609.91 267.436V280H606.778V267.652C606.778 264.556 605.338 263.008 602.458 263.008C600.322 263.008 598.846 263.608 598.03 264.808C597.214 266.008 596.806 267.736 596.806 269.992V280H593.638V260.704H596.194L596.662 263.332H596.842C597.466 262.324 598.33 261.58 599.434 261.1C600.538 260.596 601.702 260.344 602.926 260.344Z" fill="black"/>
<rect x="296.5" y="30.5" width="847" height="166" fill="white" stroke="black"/>
<path d="M348.456 82.456C357.416 82.456 363.944 84.216 368.04 87.736C372.136 91.256 374.184 96.216 374.184 102.616C374.184 106.392 373.32 109.944 371.592 113.272C369.928 116.536 367.08 119.192 363.048 121.24C359.08 123.288 353.672 124.312 346.824 124.312H338.952V151H330.312V82.456H348.456ZM347.688 89.848H338.952V116.92H345.864C352.392 116.92 357.256 115.864 360.456 113.752C363.656 111.64 365.256 108.056 365.256 103C365.256 98.584 363.848 95.288 361.032 93.112C358.216 90.936 353.768 89.848 347.688 89.848ZM432.021 125.176C432.021 133.688 429.845 140.28 425.493 144.952C421.205 149.624 415.381 151.96 408.021 151.96C403.477 151.96 399.413 150.936 395.829 148.888C392.309 146.776 389.525 143.736 387.477 139.768C385.429 135.736 384.405 130.872 384.405 125.176C384.405 116.664 386.549 110.104 390.837 105.496C395.125 100.888 400.949 98.584 408.309 98.584C412.981 98.584 417.077 99.64 420.597 101.752C424.181 103.8 426.965 106.808 428.949 110.776C430.997 114.68 432.021 119.48 432.021 125.176ZM393.141 125.176C393.141 131.256 394.325 136.088 396.693 139.672C399.125 143.192 402.965 144.952 408.213 144.952C413.397 144.952 417.205 143.192 419.637 139.672C422.069 136.088 423.285 131.256 423.285 125.176C423.285 119.096 422.069 114.328 419.637 110.872C417.205 107.416 413.365 105.688 408.117 105.688C402.869 105.688 399.061 107.416 396.693 110.872C394.325 114.328 393.141 119.096 393.141 125.176ZM469.41 98.584C470.37 98.584 471.394 98.648 472.482 98.776C473.634 98.84 474.626 98.968 475.458 99.16L474.402 106.936C473.57 106.744 472.642 106.584 471.618 106.456C470.658 106.328 469.73 106.264 468.834 106.264C466.21 106.264 463.746 107 461.442 108.472C459.138 109.88 457.282 111.896 455.874 114.52C454.53 117.08 453.858 120.088 453.858 123.544V151H445.41V99.544H452.322L453.282 108.952H453.666C455.33 106.136 457.474 103.704 460.098 101.656C462.722 99.608 465.826 98.584 469.41 98.584ZM502.25 145.048C503.53 145.048 504.842 144.952 506.186 144.76C507.53 144.504 508.618 144.248 509.45 143.992V150.424C508.554 150.872 507.274 151.224 505.61 151.48C503.946 151.8 502.346 151.96 500.81 151.96C498.122 151.96 495.626 151.512 493.322 150.616C491.082 149.656 489.258 148.024 487.85 145.72C486.442 143.416 485.738 140.184 485.738 136.024V106.072H478.442V102.04L485.834 98.68L489.194 87.736H494.186V99.544H509.066V106.072H494.186V135.832C494.186 138.968 494.922 141.304 496.394 142.84C497.93 144.312 499.882 145.048 502.25 145.048ZM543.466 106.072H530.506V151H522.058V106.072H513.034V102.136L522.058 99.256V96.28C522.058 89.624 523.53 84.856 526.474 81.976C529.418 79.032 533.514 77.56 538.762 77.56C540.81 77.56 542.666 77.752 544.33 78.136C546.058 78.456 547.53 78.84 548.746 79.288L546.538 85.912C545.514 85.592 544.33 85.272 542.986 84.952C541.642 84.632 540.266 84.472 538.858 84.472C536.042 84.472 533.93 85.432 532.522 87.352C531.178 89.208 530.506 92.152 530.506 96.184V99.544H543.466V106.072ZM597.49 125.176C597.49 133.688 595.314 140.28 590.962 144.952C586.674 149.624 580.85 151.96 573.49 151.96C568.946 151.96 564.882 150.936 561.298 148.888C557.778 146.776 554.994 143.736 552.946 139.768C550.898 135.736 549.874 130.872 549.874 125.176C549.874 116.664 552.018 110.104 556.306 105.496C560.594 100.888 566.418 98.584 573.778 98.584C578.45 98.584 582.546 99.64 586.066 101.752C589.65 103.8 592.434 106.808 594.418 110.776C596.466 114.68 597.49 119.48 597.49 125.176ZM558.61 125.176C558.61 131.256 559.794 136.088 562.162 139.672C564.594 143.192 568.434 144.952 573.682 144.952C578.866 144.952 582.674 143.192 585.106 139.672C587.538 136.088 588.754 131.256 588.754 125.176C588.754 119.096 587.538 114.328 585.106 110.872C582.674 107.416 578.834 105.688 573.586 105.688C568.338 105.688 564.53 107.416 562.162 110.872C559.794 114.328 558.61 119.096 558.61 125.176ZM619.327 151H610.879V78.04H619.327V151ZM639.949 80.248C641.229 80.248 642.349 80.696 643.309 81.592C644.333 82.424 644.845 83.768 644.845 85.624C644.845 87.416 644.333 88.76 643.309 89.656C642.349 90.552 641.229 91 639.949 91C638.541 91 637.357 90.552 636.397 89.656C635.437 88.76 634.957 87.416 634.957 85.624C634.957 83.768 635.437 82.424 636.397 81.592C637.357 80.696 638.541 80.248 639.949 80.248ZM644.077 99.544V151H635.629V99.544H644.077ZM705.115 125.176C705.115 133.688 702.939 140.28 698.587 144.952C694.299 149.624 688.475 151.96 681.115 151.96C676.571 151.96 672.507 150.936 668.923 148.888C665.403 146.776 662.619 143.736 660.571 139.768C658.523 135.736 657.499 130.872 657.499 125.176C657.499 116.664 659.643 110.104 663.931 105.496C668.219 100.888 674.043 98.584 681.403 98.584C686.075 98.584 690.171 99.64 693.691 101.752C697.275 103.8 700.059 106.808 702.043 110.776C704.091 114.68 705.115 119.48 705.115 125.176ZM666.235 125.176C666.235 131.256 667.419 136.088 669.787 139.672C672.219 143.192 676.059 144.952 681.307 144.952C686.491 144.952 690.299 143.192 692.731 139.672C695.163 136.088 696.379 131.256 696.379 125.176C696.379 119.096 695.163 114.328 692.731 110.872C690.299 107.416 686.459 105.688 681.211 105.688C675.963 105.688 672.155 107.416 669.787 110.872C667.419 114.328 666.235 119.096 666.235 125.176ZM752.008 136.792C752.008 141.784 750.152 145.56 746.44 148.12C742.728 150.68 737.736 151.96 731.464 151.96C727.88 151.96 724.776 151.672 722.152 151.096C719.592 150.52 717.32 149.72 715.336 148.696V141.016C717.384 142.04 719.848 143 722.728 143.896C725.672 144.728 728.648 145.144 731.656 145.144C735.944 145.144 739.048 144.472 740.968 143.128C742.888 141.72 743.848 139.864 743.848 137.56C743.848 136.28 743.496 135.128 742.792 134.104C742.088 133.08 740.808 132.056 738.952 131.032C737.16 130.008 734.568 128.856 731.176 127.576C727.848 126.296 725 125.016 722.632 123.736C720.264 122.456 718.44 120.92 717.16 119.128C715.88 117.336 715.24 115.032 715.24 112.216C715.24 107.864 717 104.504 720.52 102.136C724.104 99.768 728.776 98.584 734.536 98.584C737.672 98.584 740.584 98.904 743.272 99.544C746.024 100.12 748.584 100.952 750.952 102.04L748.072 108.76C745.896 107.864 743.624 107.096 741.256 106.456C738.888 105.816 736.456 105.496 733.96 105.496C730.504 105.496 727.848 106.072 725.992 107.224C724.2 108.312 723.304 109.816 723.304 111.736C723.304 113.144 723.72 114.36 724.552 115.384C725.384 116.344 726.76 117.304 728.68 118.264C730.664 119.16 733.288 120.248 736.552 121.528C739.816 122.744 742.6 123.992 744.904 125.272C747.208 126.552 748.968 128.12 750.184 129.976C751.4 131.768 752.008 134.04 752.008 136.792ZM768.761 80.248C770.041 80.248 771.161 80.696 772.121 81.592C773.145 82.424 773.657 83.768 773.657 85.624C773.657 87.416 773.145 88.76 772.121 89.656C771.161 90.552 770.041 91 768.761 91C767.353 91 766.169 90.552 765.209 89.656C764.249 88.76 763.769 87.416 763.769 85.624C763.769 83.768 764.249 82.424 765.209 81.592C766.169 80.696 767.353 80.248 768.761 80.248ZM772.889 99.544V151H764.441V99.544H772.889ZM806.375 145.048C807.655 145.048 808.967 144.952 810.311 144.76C811.655 144.504 812.743 144.248 813.575 143.992V150.424C812.679 150.872 811.399 151.224 809.735 151.48C808.071 151.8 806.471 151.96 804.935 151.96C802.247 151.96 799.751 151.512 797.447 150.616C795.207 149.656 793.383 148.024 791.975 145.72C790.567 143.416 789.863 140.184 789.863 136.024V106.072H782.567V102.04L789.959 98.68L793.319 87.736H798.311V99.544H813.191V106.072H798.311V135.832C798.311 138.968 799.047 141.304 800.519 142.84C802.055 144.312 804.007 145.048 806.375 145.048ZM843.751 98.584C848.167 98.584 851.943 99.544 855.079 101.464C858.279 103.384 860.711 106.104 862.375 109.624C864.103 113.08 864.967 117.144 864.967 121.816V126.904H829.735C829.863 132.728 831.335 137.176 834.151 140.248C837.031 143.256 841.031 144.76 846.151 144.76C849.415 144.76 852.295 144.472 854.791 143.896C857.351 143.256 859.975 142.36 862.663 141.208V148.6C860.039 149.752 857.447 150.584 854.887 151.096C852.327 151.672 849.287 151.96 845.767 151.96C840.903 151.96 836.583 150.968 832.807 148.984C829.095 147 826.183 144.056 824.071 140.152C822.023 136.184 820.999 131.352 820.999 125.656C820.999 120.024 821.927 115.192 823.783 111.16C825.703 107.128 828.359 104.024 831.751 101.848C835.207 99.672 839.207 98.584 843.751 98.584ZM843.655 105.496C839.623 105.496 836.423 106.808 834.055 109.432C831.751 111.992 830.375 115.576 829.927 120.184H856.135C856.071 115.832 855.047 112.312 853.063 109.624C851.079 106.872 847.943 105.496 843.655 105.496Z" fill="black"/>
<rect x="321.5" y="332.5" width="299" height="49" fill="white"/>
<rect x="321.5" y="332.5" width="299" height="49" stroke="black"/>
<rect x="321.5" y="332.5" width="299" height="49" stroke="black"/>
<rect x="321.5" y="332.5" width="299" height="49" stroke="black"/>
<rect x="321.5" y="332.5" width="299" height="49" stroke="black"/>
<rect x="620.5" y="792.5" width="199" height="49" fill="white"/>
<rect x="620.5" y="792.5" width="199" height="49" stroke="black"/>
<rect x="620.5" y="792.5" width="199" height="49" stroke="black"/>
<rect x="620.5" y="792.5" width="199" height="49" stroke="black"/>
<rect x="620.5" y="792.5" width="199" height="49" stroke="black"/>
<rect x="321.5" y="431.5" width="299" height="49" fill="white"/>
<rect x="321.5" y="431.5" width="299" height="49" stroke="black"/>
<rect x="321.5" y="431.5" width="299" height="49" stroke="black"/>
<rect x="321.5" y="431.5" width="299" height="49" stroke="black"/>
<rect x="321.5" y="431.5" width="299" height="49" stroke="black"/>
<path d="M322.2 312.344L331.248 308.576L322.2 304.28V302.408L333.504 308.048V309.248L322.2 314.216V312.344ZM355.369 299.864L349.249 317H347.089L340.969 299.864H343.225L347.089 310.856C347.345 311.56 347.561 312.224 347.737 312.848C347.913 313.456 348.057 314.04 348.169 314.6C348.281 314.04 348.425 313.448 348.601 312.824C348.777 312.2 348.993 311.528 349.249 310.808L353.089 299.864H355.369ZM368.115 310.544C368.115 312.672 367.571 314.32 366.483 315.488C365.411 316.656 363.955 317.24 362.115 317.24C360.979 317.24 359.963 316.984 359.067 316.472C358.187 315.944 357.491 315.184 356.979 314.192C356.467 313.184 356.211 311.968 356.211 310.544C356.211 308.416 356.747 306.776 357.819 305.624C358.891 304.472 360.347 303.896 362.187 303.896C363.355 303.896 364.379 304.16 365.259 304.688C366.155 305.2 366.851 305.952 367.347 306.944C367.859 307.92 368.115 309.12 368.115 310.544ZM358.395 310.544C358.395 312.064 358.691 313.272 359.283 314.168C359.891 315.048 360.851 315.488 362.163 315.488C363.459 315.488 364.411 315.048 365.019 314.168C365.627 313.272 365.931 312.064 365.931 310.544C365.931 309.024 365.627 307.832 365.019 306.968C364.411 306.104 363.451 305.672 362.139 305.672C360.827 305.672 359.875 306.104 359.283 306.968C358.691 307.832 358.395 309.024 358.395 310.544ZM382.646 310.544C382.646 312.672 382.102 314.32 381.014 315.488C379.942 316.656 378.486 317.24 376.646 317.24C375.51 317.24 374.494 316.984 373.598 316.472C372.718 315.944 372.022 315.184 371.51 314.192C370.998 313.184 370.742 311.968 370.742 310.544C370.742 308.416 371.278 306.776 372.35 305.624C373.422 304.472 374.878 303.896 376.718 303.896C377.886 303.896 378.91 304.16 379.79 304.688C380.686 305.2 381.382 305.952 381.878 306.944C382.39 307.92 382.646 309.12 382.646 310.544ZM372.926 310.544C372.926 312.064 373.222 313.272 373.814 314.168C374.422 315.048 375.382 315.488 376.694 315.488C377.99 315.488 378.942 315.048 379.55 314.168C380.158 313.272 380.462 312.064 380.462 310.544C380.462 309.024 380.158 307.832 379.55 306.968C378.942 306.104 377.982 305.672 376.67 305.672C375.358 305.672 374.406 306.104 373.814 306.968C373.222 307.832 372.926 309.024 372.926 310.544ZM391.993 303.896C392.233 303.896 392.489 303.912 392.761 303.944C393.049 303.96 393.297 303.992 393.505 304.04L393.241 305.984C393.033 305.936 392.801 305.896 392.545 305.864C392.305 305.832 392.073 305.816 391.849 305.816C391.193 305.816 390.577 306 390.001 306.368C389.425 306.72 388.961 307.224 388.609 307.88C388.273 308.52 388.105 309.272 388.105 310.136V317H385.993V304.136H387.721L387.961 306.488H388.057C388.473 305.784 389.009 305.176 389.665 304.664C390.321 304.152 391.097 303.896 391.993 303.896ZM402.099 303.896C403.635 303.896 404.795 304.272 405.579 305.024C406.363 305.76 406.755 306.96 406.755 308.624V317H404.667V308.768C404.667 306.704 403.707 305.672 401.787 305.672C400.363 305.672 399.379 306.072 398.835 306.872C398.291 307.672 398.019 308.824 398.019 310.328V317H395.907V304.136H397.611L397.923 305.888H398.043C398.459 305.216 399.035 304.72 399.771 304.4C400.507 304.064 401.283 303.896 402.099 303.896ZM415.615 303.92C417.183 303.92 418.343 304.264 419.095 304.952C419.847 305.64 420.223 306.736 420.223 308.24V317H418.687L418.279 315.176H418.183C417.623 315.88 417.031 316.4 416.407 316.736C415.799 317.072 414.951 317.24 413.863 317.24C412.695 317.24 411.727 316.936 410.959 316.328C410.191 315.704 409.807 314.736 409.807 313.424C409.807 312.144 410.311 311.16 411.319 310.472C412.327 309.768 413.879 309.384 415.975 309.32L418.159 309.248V308.48C418.159 307.408 417.927 306.664 417.463 306.248C416.999 305.832 416.343 305.624 415.495 305.624C414.823 305.624 414.183 305.728 413.575 305.936C412.967 306.128 412.399 306.352 411.871 306.608L411.223 305.024C411.783 304.72 412.447 304.464 413.215 304.256C413.983 304.032 414.783 303.92 415.615 303.92ZM416.239 310.784C414.639 310.848 413.527 311.104 412.903 311.552C412.295 312 411.991 312.632 411.991 313.448C411.991 314.168 412.207 314.696 412.639 315.032C413.087 315.368 413.655 315.536 414.343 315.536C415.431 315.536 416.335 315.24 417.055 314.648C417.775 314.04 418.135 313.112 418.135 311.864V310.712L416.239 310.784ZM429.068 303.92C430.636 303.92 431.796 304.264 432.548 304.952C433.3 305.64 433.676 306.736 433.676 308.24V317H432.14L431.732 315.176H431.636C431.076 315.88 430.484 316.4 429.86 316.736C429.252 317.072 428.404 317.24 427.316 317.24C426.148 317.24 425.18 316.936 424.412 316.328C423.644 315.704 423.26 314.736 423.26 313.424C423.26 312.144 423.764 311.16 424.772 310.472C425.78 309.768 427.332 309.384 429.428 309.32L431.612 309.248V308.48C431.612 307.408 431.38 306.664 430.916 306.248C430.452 305.832 429.796 305.624 428.948 305.624C428.276 305.624 427.636 305.728 427.028 305.936C426.42 306.128 425.852 306.352 425.324 306.608L424.676 305.024C425.236 304.72 425.9 304.464 426.668 304.256C427.436 304.032 428.236 303.92 429.068 303.92ZM429.692 310.784C428.092 310.848 426.98 311.104 426.356 311.552C425.748 312 425.444 312.632 425.444 313.448C425.444 314.168 425.66 314.696 426.092 315.032C426.54 315.368 427.108 315.536 427.796 315.536C428.884 315.536 429.788 315.24 430.508 314.648C431.228 314.04 431.588 313.112 431.588 311.864V310.712L429.692 310.784ZM451.761 303.896C453.217 303.896 454.305 304.272 455.025 305.024C455.745 305.76 456.105 306.96 456.105 308.624V317H454.017V308.72C454.017 306.688 453.145 305.672 451.401 305.672C450.153 305.672 449.257 306.032 448.713 306.752C448.185 307.472 447.921 308.52 447.921 309.896V317H445.833V308.72C445.833 306.688 444.953 305.672 443.193 305.672C441.897 305.672 441.001 306.072 440.505 306.872C440.009 307.672 439.761 308.824 439.761 310.328V317H437.649V304.136H439.353L439.665 305.888H439.785C440.185 305.216 440.721 304.72 441.393 304.4C442.081 304.064 442.809 303.896 443.577 303.896C445.593 303.896 446.905 304.616 447.513 306.056H447.633C448.065 305.32 448.649 304.776 449.385 304.424C450.137 304.072 450.929 303.896 451.761 303.896Z" fill="black"/>
<path d="M322.2 411.344L331.248 407.576L322.2 403.28V401.408L333.504 407.048V408.248L322.2 413.216V411.344ZM352.873 416H343.297V398.864H352.873V400.76H345.457V406.112H352.441V407.984H345.457V414.104H352.873V416ZM355.265 410.504V408.632H361.073V410.504H355.265ZM378.191 402.896C379.647 402.896 380.735 403.272 381.455 404.024C382.175 404.76 382.535 405.96 382.535 407.624V416H380.447V407.72C380.447 405.688 379.575 404.672 377.831 404.672C376.583 404.672 375.687 405.032 375.143 405.752C374.615 406.472 374.351 407.52 374.351 408.896V416H372.263V407.72C372.263 405.688 371.383 404.672 369.623 404.672C368.327 404.672 367.431 405.072 366.935 405.872C366.439 406.672 366.191 407.824 366.191 409.328V416H364.079V403.136H365.783L366.095 404.888H366.215C366.615 404.216 367.151 403.72 367.823 403.4C368.511 403.064 369.239 402.896 370.007 402.896C372.023 402.896 373.335 403.616 373.943 405.056H374.063C374.495 404.32 375.079 403.776 375.815 403.424C376.567 403.072 377.359 402.896 378.191 402.896ZM391.381 402.92C392.949 402.92 394.109 403.264 394.861 403.952C395.613 404.64 395.989 405.736 395.989 407.24V416H394.453L394.045 414.176H393.949C393.389 414.88 392.797 415.4 392.173 415.736C391.565 416.072 390.717 416.24 389.629 416.24C388.461 416.24 387.493 415.936 386.725 415.328C385.957 414.704 385.573 413.736 385.573 412.424C385.573 411.144 386.077 410.16 387.085 409.472C388.093 408.768 389.645 408.384 391.741 408.32L393.925 408.248V407.48C393.925 406.408 393.693 405.664 393.229 405.248C392.765 404.832 392.109 404.624 391.261 404.624C390.589 404.624 389.949 404.728 389.341 404.936C388.733 405.128 388.165 405.352 387.637 405.608L386.989 404.024C387.549 403.72 388.213 403.464 388.981 403.256C389.749 403.032 390.549 402.92 391.381 402.92ZM392.005 409.784C390.405 409.848 389.293 410.104 388.669 410.552C388.061 411 387.757 411.632 387.757 412.448C387.757 413.168 387.973 413.696 388.405 414.032C388.853 414.368 389.421 414.536 390.109 414.536C391.197 414.536 392.101 414.24 392.821 413.648C393.541 413.04 393.901 412.112 393.901 410.864V409.712L392.005 409.784ZM401.042 398.312C401.362 398.312 401.642 398.424 401.882 398.648C402.138 398.856 402.266 399.192 402.266 399.656C402.266 400.104 402.138 400.44 401.882 400.664C401.642 400.888 401.362 401 401.042 401C400.69 401 400.394 400.888 400.154 400.664C399.914 400.44 399.794 400.104 399.794 399.656C399.794 399.192 399.914 398.856 400.154 398.648C400.394 398.424 400.69 398.312 401.042 398.312ZM402.074 403.136V416H399.962V403.136H402.074ZM408.261 416H406.149V397.76H408.261V416Z" fill="black"/>
<rect x="648.5" y="332.5" width="299" height="49" fill="white"/>
<rect x="648.5" y="332.5" width="299" height="49" stroke="black"/>
<rect x="648.5" y="332.5" width="299" height="49" stroke="black"/>
<rect x="648.5" y="332.5" width="299" height="49" stroke="black"/>
<rect x="648.5" y="332.5" width="299" height="49" stroke="black"/>
<rect x="648.5" y="431.5" width="299" height="49" fill="white"/>
<rect x="648.5" y="431.5" width="299" height="49" stroke="black"/>
<rect x="648.5" y="431.5" width="299" height="49" stroke="black"/>
<rect x="648.5" y="431.5" width="299" height="49" stroke="black"/>
<rect x="648.5" y="431.5" width="299" height="49" stroke="black"/>
<path d="M649.2 312.344L658.248 308.576L649.2 304.28V302.408L660.504 308.048V309.248L649.2 314.216V312.344ZM681.049 317L678.985 311.696H672.193L670.153 317H667.969L674.665 299.792H676.609L683.281 317H681.049ZM676.417 304.592C676.369 304.464 676.289 304.232 676.177 303.896C676.065 303.56 675.953 303.216 675.841 302.864C675.745 302.496 675.665 302.216 675.601 302.024C675.489 302.52 675.361 303.008 675.217 303.488C675.073 303.952 674.953 304.32 674.857 304.592L672.913 309.776H678.337L676.417 304.592ZM690.497 317.24C689.361 317.24 688.345 317.008 687.449 316.544C686.569 316.08 685.873 315.36 685.361 314.384C684.865 313.408 684.617 312.16 684.617 310.64C684.617 309.056 684.881 307.768 685.409 306.776C685.937 305.784 686.649 305.056 687.545 304.592C688.457 304.128 689.489 303.896 690.641 303.896C691.297 303.896 691.929 303.968 692.537 304.112C693.145 304.24 693.641 304.4 694.025 304.592L693.377 306.344C692.993 306.2 692.545 306.064 692.033 305.936C691.521 305.808 691.041 305.744 690.593 305.744C688.065 305.744 686.801 307.368 686.801 310.616C686.801 312.168 687.105 313.36 687.713 314.192C688.337 315.008 689.257 315.416 690.473 315.416C691.177 315.416 691.793 315.344 692.321 315.2C692.865 315.056 693.361 314.88 693.809 314.672V316.544C693.377 316.768 692.897 316.936 692.369 317.048C691.857 317.176 691.233 317.24 690.497 317.24ZM698.98 304.112C698.98 304.752 698.94 305.352 698.86 305.912H699.004C699.42 305.256 699.98 304.76 700.684 304.424C701.404 304.088 702.18 303.92 703.012 303.92C704.58 303.92 705.756 304.296 706.54 305.048C707.324 305.784 707.716 306.976 707.716 308.624V317H705.628V308.768C705.628 306.704 704.668 305.672 702.748 305.672C701.308 305.672 700.316 306.08 699.772 306.896C699.244 307.696 698.98 308.848 698.98 310.352V317H696.868V298.76H698.98V304.112ZM716 315.512C716.32 315.512 716.648 315.488 716.984 315.44C717.32 315.376 717.592 315.312 717.8 315.248V316.856C717.576 316.968 717.256 317.056 716.84 317.12C716.424 317.2 716.024 317.24 715.64 317.24C714.968 317.24 714.344 317.128 713.768 316.904C713.208 316.664 712.752 316.256 712.4 315.68C712.048 315.104 711.872 314.296 711.872 313.256V305.768H710.048V304.76L711.896 303.92L712.736 301.184H713.984V304.136H717.704V305.768H713.984V313.208C713.984 313.992 714.168 314.576 714.536 314.96C714.92 315.328 715.408 315.512 716 315.512ZM725.344 303.896C726.448 303.896 727.392 304.136 728.176 304.616C728.976 305.096 729.584 305.776 730 306.656C730.432 307.52 730.648 308.536 730.648 309.704V310.976H721.84C721.872 312.432 722.24 313.544 722.944 314.312C723.664 315.064 724.664 315.44 725.944 315.44C726.76 315.44 727.48 315.368 728.104 315.224C728.744 315.064 729.4 314.84 730.072 314.552V316.4C729.416 316.688 728.768 316.896 728.128 317.024C727.488 317.168 726.728 317.24 725.848 317.24C724.632 317.24 723.552 316.992 722.608 316.496C721.68 316 720.952 315.264 720.424 314.288C719.912 313.296 719.656 312.088 719.656 310.664C719.656 309.256 719.888 308.048 720.352 307.04C720.832 306.032 721.496 305.256 722.344 304.712C723.208 304.168 724.208 303.896 725.344 303.896ZM725.32 305.624C724.312 305.624 723.512 305.952 722.92 306.608C722.344 307.248 722 308.144 721.888 309.296H728.44C728.424 308.208 728.168 307.328 727.672 306.656C727.176 305.968 726.392 305.624 725.32 305.624ZM739.923 303.896C740.163 303.896 740.419 303.912 740.691 303.944C740.979 303.96 741.227 303.992 741.435 304.04L741.171 305.984C740.963 305.936 740.731 305.896 740.475 305.864C740.235 305.832 740.003 305.816 739.779 305.816C739.123 305.816 738.507 306 737.931 306.368C737.355 306.72 736.891 307.224 736.539 307.88C736.203 308.52 736.035 309.272 736.035 310.136V317H733.923V304.136H735.651L735.891 306.488H735.987C736.403 305.784 736.939 305.176 737.595 304.664C738.251 304.152 739.027 303.896 739.923 303.896ZM750.029 303.896C751.565 303.896 752.725 304.272 753.509 305.024C754.293 305.76 754.685 306.96 754.685 308.624V317H752.597V308.768C752.597 306.704 751.637 305.672 749.717 305.672C748.293 305.672 747.309 306.072 746.765 306.872C746.221 307.672 745.949 308.824 745.949 310.328V317H743.837V304.136H745.541L745.853 305.888H745.973C746.389 305.216 746.965 304.72 747.701 304.4C748.437 304.064 749.213 303.896 750.029 303.896ZM763.545 303.92C765.113 303.92 766.273 304.264 767.025 304.952C767.777 305.64 768.153 306.736 768.153 308.24V317H766.617L766.209 315.176H766.113C765.553 315.88 764.961 316.4 764.337 316.736C763.729 317.072 762.881 317.24 761.793 317.24C760.625 317.24 759.657 316.936 758.889 316.328C758.121 315.704 757.737 314.736 757.737 313.424C757.737 312.144 758.241 311.16 759.249 310.472C760.257 309.768 761.809 309.384 763.905 309.32L766.089 309.248V308.48C766.089 307.408 765.857 306.664 765.393 306.248C764.929 305.832 764.273 305.624 763.425 305.624C762.753 305.624 762.113 305.728 761.505 305.936C760.897 306.128 760.329 306.352 759.801 306.608L759.153 305.024C759.713 304.72 760.377 304.464 761.145 304.256C761.913 304.032 762.713 303.92 763.545 303.92ZM764.169 310.784C762.569 310.848 761.457 311.104 760.833 311.552C760.225 312 759.921 312.632 759.921 313.448C759.921 314.168 760.137 314.696 760.569 315.032C761.017 315.368 761.585 315.536 762.273 315.536C763.361 315.536 764.265 315.24 764.985 314.648C765.705 314.04 766.065 313.112 766.065 311.864V310.712L764.169 310.784ZM776.998 303.92C778.566 303.92 779.726 304.264 780.478 304.952C781.23 305.64 781.606 306.736 781.606 308.24V317H780.07L779.662 315.176H779.566C779.006 315.88 778.414 316.4 777.79 316.736C777.182 317.072 776.334 317.24 775.246 317.24C774.078 317.24 773.11 316.936 772.342 316.328C771.574 315.704 771.19 314.736 771.19 313.424C771.19 312.144 771.694 311.16 772.702 310.472C773.71 309.768 775.262 309.384 777.358 309.32L779.542 309.248V308.48C779.542 307.408 779.31 306.664 778.846 306.248C778.382 305.832 777.726 305.624 776.878 305.624C776.206 305.624 775.566 305.728 774.958 305.936C774.35 306.128 773.782 306.352 773.254 306.608L772.606 305.024C773.166 304.72 773.83 304.464 774.598 304.256C775.366 304.032 776.166 303.92 776.998 303.92ZM777.622 310.784C776.022 310.848 774.91 311.104 774.286 311.552C773.678 312 773.374 312.632 773.374 313.448C773.374 314.168 773.59 314.696 774.022 315.032C774.47 315.368 775.038 315.536 775.726 315.536C776.814 315.536 777.718 315.24 778.438 314.648C779.158 314.04 779.518 313.112 779.518 311.864V310.712L777.622 310.784ZM799.691 303.896C801.147 303.896 802.235 304.272 802.955 305.024C803.675 305.76 804.035 306.96 804.035 308.624V317H801.947V308.72C801.947 306.688 801.075 305.672 799.331 305.672C798.083 305.672 797.187 306.032 796.643 306.752C796.115 307.472 795.851 308.52 795.851 309.896V317H793.763V308.72C793.763 306.688 792.883 305.672 791.123 305.672C789.827 305.672 788.931 306.072 788.435 306.872C787.939 307.672 787.691 308.824 787.691 310.328V317H785.579V304.136H787.283L787.595 305.888H787.715C788.115 305.216 788.651 304.72 789.323 304.4C790.011 304.064 790.739 303.896 791.507 303.896C793.523 303.896 794.835 304.616 795.443 306.056H795.563C795.995 305.32 796.579 304.776 797.315 304.424C798.067 304.072 798.859 303.896 799.691 303.896Z" fill="black"/>
<path d="M649.2 411.344L658.248 407.576L649.2 403.28V401.408L660.504 407.048V408.248L649.2 413.216V411.344ZM677.737 406.952H683.665V415.352C682.737 415.656 681.801 415.88 680.857 416.024C679.913 416.168 678.841 416.24 677.641 416.24C675.865 416.24 674.369 415.888 673.153 415.184C671.937 414.464 671.009 413.448 670.369 412.136C669.745 410.808 669.433 409.24 669.433 407.432C669.433 405.64 669.785 404.088 670.489 402.776C671.193 401.464 672.201 400.448 673.513 399.728C674.841 398.992 676.441 398.624 678.313 398.624C679.273 398.624 680.177 398.712 681.025 398.888C681.889 399.064 682.689 399.312 683.425 399.632L682.609 401.504C682.001 401.232 681.313 401 680.545 400.808C679.793 400.616 679.009 400.52 678.193 400.52C676.145 400.52 674.545 401.136 673.393 402.368C672.257 403.6 671.689 405.288 671.689 407.432C671.689 408.792 671.905 410 672.337 411.056C672.785 412.096 673.481 412.912 674.425 413.504C675.369 414.08 676.609 414.368 678.145 414.368C678.897 414.368 679.537 414.328 680.065 414.248C680.593 414.168 681.073 414.072 681.505 413.96V408.872H677.737V406.952ZM692.438 402.896C693.542 402.896 694.486 403.136 695.27 403.616C696.07 404.096 696.678 404.776 697.094 405.656C697.526 406.52 697.742 407.536 697.742 408.704V409.976H688.934C688.966 411.432 689.334 412.544 690.038 413.312C690.758 414.064 691.758 414.44 693.038 414.44C693.854 414.44 694.574 414.368 695.198 414.224C695.838 414.064 696.494 413.84 697.166 413.552V415.4C696.51 415.688 695.862 415.896 695.222 416.024C694.582 416.168 693.822 416.24 692.942 416.24C691.726 416.24 690.646 415.992 689.702 415.496C688.774 415 688.046 414.264 687.518 413.288C687.006 412.296 686.75 411.088 686.75 409.664C686.75 408.256 686.982 407.048 687.446 406.04C687.926 405.032 688.59 404.256 689.438 403.712C690.302 403.168 691.302 402.896 692.438 402.896ZM692.414 404.624C691.406 404.624 690.606 404.952 690.014 405.608C689.438 406.248 689.094 407.144 688.982 408.296H695.534C695.518 407.208 695.262 406.328 694.766 405.656C694.27 404.968 693.486 404.624 692.414 404.624ZM703.129 402.2C703.129 402.744 703.113 403.256 703.081 403.736C703.065 404.2 703.041 404.568 703.009 404.84H703.129C703.497 404.296 704.001 403.84 704.641 403.472C705.281 403.104 706.105 402.92 707.113 402.92C708.713 402.92 709.993 403.48 710.953 404.6C711.929 405.704 712.417 407.36 712.417 409.568C712.417 411.776 711.929 413.44 710.953 414.56C709.977 415.68 708.697 416.24 707.113 416.24C706.105 416.24 705.281 416.056 704.641 415.688C704.001 415.32 703.497 414.88 703.129 414.368H702.961L702.529 416H701.017V397.76H703.129V402.2ZM706.753 404.672C705.393 404.672 704.449 405.064 703.921 405.848C703.393 406.632 703.129 407.848 703.129 409.496V409.592C703.129 411.176 703.385 412.392 703.897 413.24C704.425 414.072 705.393 414.488 706.801 414.488C707.953 414.488 708.809 414.064 709.369 413.216C709.945 412.368 710.233 411.144 710.233 409.544C710.233 406.296 709.073 404.672 706.753 404.672ZM721.782 402.896C722.022 402.896 722.278 402.912 722.55 402.944C722.838 402.96 723.086 402.992 723.294 403.04L723.03 404.984C722.822 404.936 722.59 404.896 722.334 404.864C722.094 404.832 721.862 404.816 721.638 404.816C720.982 404.816 720.366 405 719.79 405.368C719.214 405.72 718.75 406.224 718.398 406.88C718.062 407.52 717.894 408.272 717.894 409.136V416H715.782V403.136H717.51L717.75 405.488H717.846C718.262 404.784 718.798 404.176 719.454 403.664C720.11 403.152 720.886 402.896 721.782 402.896ZM736.448 403.136V416H734.72L734.408 414.296H734.312C733.896 414.968 733.32 415.464 732.584 415.784C731.848 416.088 731.064 416.24 730.232 416.24C728.68 416.24 727.512 415.872 726.728 415.136C725.944 414.384 725.552 413.192 725.552 411.56V403.136H727.688V411.416C727.688 413.464 728.64 414.488 730.544 414.488C731.968 414.488 732.952 414.088 733.496 413.288C734.056 412.488 734.336 411.336 734.336 409.832V403.136H736.448ZM741.612 398.312C741.932 398.312 742.212 398.424 742.452 398.648C742.708 398.856 742.836 399.192 742.836 399.656C742.836 400.104 742.708 400.44 742.452 400.664C742.212 400.888 741.932 401 741.612 401C741.26 401 740.964 400.888 740.724 400.664C740.484 400.44 740.364 400.104 740.364 399.656C740.364 399.192 740.484 398.856 740.724 398.648C740.964 398.424 741.26 398.312 741.612 398.312ZM742.644 403.136V416H740.532V403.136H742.644ZM748.808 407.288C748.808 407.544 748.792 407.88 748.76 408.296C748.744 408.712 748.728 409.072 748.712 409.376H748.808C748.904 409.248 749.048 409.064 749.24 408.824C749.432 408.584 749.624 408.344 749.816 408.104C750.024 407.848 750.2 407.64 750.344 407.48L754.448 403.136H756.92L751.712 408.632L757.28 416H754.736L750.272 410L748.808 411.272V416H746.72V397.76H748.808V407.288ZM764.508 402.896C765.612 402.896 766.556 403.136 767.34 403.616C768.14 404.096 768.748 404.776 769.164 405.656C769.596 406.52 769.812 407.536 769.812 408.704V409.976H761.004C761.036 411.432 761.404 412.544 762.108 413.312C762.828 414.064 763.828 414.44 765.108 414.44C765.924 414.44 766.644 414.368 767.268 414.224C767.908 414.064 768.564 413.84 769.236 413.552V415.4C768.58 415.688 767.932 415.896 767.292 416.024C766.652 416.168 765.892 416.24 765.012 416.24C763.796 416.24 762.716 415.992 761.772 415.496C760.844 415 760.116 414.264 759.588 413.288C759.076 412.296 758.82 411.088 758.82 409.664C758.82 408.256 759.052 407.048 759.516 406.04C759.996 405.032 760.66 404.256 761.508 403.712C762.372 403.168 763.372 402.896 764.508 402.896ZM764.484 404.624C763.476 404.624 762.676 404.952 762.084 405.608C761.508 406.248 761.164 407.144 761.052 408.296H767.604C767.588 407.208 767.332 406.328 766.836 405.656C766.34 404.968 765.556 404.624 764.484 404.624ZM779.087 402.896C779.327 402.896 779.583 402.912 779.855 402.944C780.143 402.96 780.391 402.992 780.599 403.04L780.335 404.984C780.127 404.936 779.895 404.896 779.639 404.864C779.399 404.832 779.167 404.816 778.943 404.816C778.287 404.816 777.671 405 777.095 405.368C776.519 405.72 776.055 406.224 775.703 406.88C775.367 407.52 775.199 408.272 775.199 409.136V416H773.087V403.136H774.815L775.055 405.488H775.151C775.567 404.784 776.103 404.176 776.759 403.664C777.415 403.152 778.191 402.896 779.087 402.896ZM791.377 412.448C791.377 413.696 790.913 414.64 789.985 415.28C789.057 415.92 787.809 416.24 786.241 416.24C785.345 416.24 784.569 416.168 783.913 416.024C783.273 415.88 782.705 415.68 782.209 415.424V413.504C782.721 413.76 783.337 414 784.057 414.224C784.793 414.432 785.537 414.536 786.289 414.536C787.361 414.536 788.137 414.368 788.617 414.032C789.097 413.68 789.337 413.216 789.337 412.64C789.337 412.32 789.249 412.032 789.073 411.776C788.897 411.52 788.577 411.264 788.113 411.008C787.665 410.752 787.017 410.464 786.169 410.144C785.337 409.824 784.625 409.504 784.033 409.184C783.441 408.864 782.985 408.48 782.665 408.032C782.345 407.584 782.185 407.008 782.185 406.304C782.185 405.216 782.625 404.376 783.505 403.784C784.401 403.192 785.569 402.896 787.009 402.896C787.793 402.896 788.521 402.976 789.193 403.136C789.881 403.28 790.521 403.488 791.113 403.76L790.393 405.44C789.849 405.216 789.281 405.024 788.689 404.864C788.097 404.704 787.489 404.624 786.865 404.624C786.001 404.624 785.337 404.768 784.873 405.056C784.425 405.328 784.201 405.704 784.201 406.184C784.201 406.536 784.305 406.84 784.513 407.096C784.721 407.336 785.065 407.576 785.545 407.816C786.041 408.04 786.697 408.312 787.513 408.632C788.329 408.936 789.025 409.248 789.601 409.568C790.177 409.888 790.617 410.28 790.921 410.744C791.225 411.192 791.377 411.76 791.377 412.448ZM800.677 402.896C802.213 402.896 803.373 403.272 804.157 404.024C804.941 404.76 805.333 405.96 805.333 407.624V416H803.245V407.768C803.245 405.704 802.285 404.672 800.365 404.672C798.941 404.672 797.957 405.072 797.413 405.872C796.869 406.672 796.597 407.824 796.597 409.328V416H794.485V403.136H796.189L796.501 404.888H796.621C797.037 404.216 797.613 403.72 798.349 403.4C799.085 403.064 799.861 402.896 800.677 402.896ZM814.193 402.92C815.761 402.92 816.921 403.264 817.673 403.952C818.425 404.64 818.801 405.736 818.801 407.24V416H817.265L816.857 414.176H816.761C816.201 414.88 815.609 415.4 814.985 415.736C814.377 416.072 813.529 416.24 812.441 416.24C811.273 416.24 810.305 415.936 809.537 415.328C808.769 414.704 808.385 413.736 808.385 412.424C808.385 411.144 808.889 410.16 809.897 409.472C810.905 408.768 812.457 408.384 814.553 408.32L816.737 408.248V407.48C816.737 406.408 816.505 405.664 816.041 405.248C815.577 404.832 814.921 404.624 814.073 404.624C813.401 404.624 812.761 404.728 812.153 404.936C811.545 405.128 810.977 405.352 810.449 405.608L809.801 404.024C810.361 403.72 811.025 403.464 811.793 403.256C812.561 403.032 813.361 402.92 814.193 402.92ZM814.817 409.784C813.217 409.848 812.105 410.104 811.481 410.552C810.873 411 810.569 411.632 810.569 412.448C810.569 413.168 810.785 413.696 811.217 414.032C811.665 414.368 812.233 414.536 812.921 414.536C814.009 414.536 814.913 414.24 815.633 413.648C816.353 413.04 816.713 412.112 816.713 410.864V409.712L814.817 409.784ZM827.646 402.92C829.214 402.92 830.374 403.264 831.126 403.952C831.878 404.64 832.254 405.736 832.254 407.24V416H830.718L830.31 414.176H830.214C829.654 414.88 829.062 415.4 828.438 415.736C827.83 416.072 826.982 416.24 825.894 416.24C824.726 416.24 823.758 415.936 822.99 415.328C822.222 414.704 821.838 413.736 821.838 412.424C821.838 411.144 822.342 410.16 823.35 409.472C824.358 408.768 825.91 408.384 828.006 408.32L830.19 408.248V407.48C830.19 406.408 829.958 405.664 829.494 405.248C829.03 404.832 828.374 404.624 827.526 404.624C826.854 404.624 826.214 404.728 825.606 404.936C824.998 405.128 824.43 405.352 823.902 405.608L823.254 404.024C823.814 403.72 824.478 403.464 825.246 403.256C826.014 403.032 826.814 402.92 827.646 402.92ZM828.27 409.784C826.67 409.848 825.558 410.104 824.934 410.552C824.326 411 824.022 411.632 824.022 412.448C824.022 413.168 824.238 413.696 824.67 414.032C825.118 414.368 825.686 414.536 826.374 414.536C827.462 414.536 828.366 414.24 829.086 413.648C829.806 413.04 830.166 412.112 830.166 410.864V409.712L828.27 409.784ZM850.34 402.896C851.796 402.896 852.884 403.272 853.604 404.024C854.324 404.76 854.684 405.96 854.684 407.624V416H852.596V407.72C852.596 405.688 851.724 404.672 849.98 404.672C848.732 404.672 847.836 405.032 847.292 405.752C846.764 406.472 846.5 407.52 846.5 408.896V416H844.412V407.72C844.412 405.688 843.532 404.672 841.772 404.672C840.476 404.672 839.58 405.072 839.084 405.872C838.588 406.672 838.34 407.824 838.34 409.328V416H836.228V403.136H837.932L838.244 404.888H838.364C838.764 404.216 839.3 403.72 839.972 403.4C840.66 403.064 841.388 402.896 842.156 402.896C844.172 402.896 845.484 403.616 846.092 405.056H846.212C846.644 404.32 847.227 403.776 847.964 403.424C848.716 403.072 849.508 402.896 850.34 402.896Z" fill="black"/>
<rect x="321.5" y="530.5" width="299" height="49" fill="white"/>
<rect x="321.5" y="530.5" width="299" height="49" stroke="black"/>
<rect x="321.5" y="530.5" width="299" height="49" stroke="black"/>
<rect x="321.5" y="530.5" width="299" height="49" stroke="black"/>
<rect x="321.5" y="530.5" width="299" height="49" stroke="black"/>
<rect x="648.5" y="530.5" width="299" height="49" fill="white"/>
<rect x="648.5" y="530.5" width="299" height="49" stroke="black"/>
<rect x="648.5" y="530.5" width="299" height="49" stroke="black"/>
<rect x="648.5" y="530.5" width="299" height="49" stroke="black"/>
<rect x="648.5" y="530.5" width="299" height="49" stroke="black"/>
<path d="M322.2 510.344L331.248 506.576L322.2 502.28V500.408L333.504 506.048V507.248L322.2 512.216V510.344ZM362.977 497.864L358.417 515H356.233L352.897 503.768C352.769 503.304 352.641 502.84 352.513 502.376C352.385 501.912 352.281 501.504 352.201 501.152C352.121 500.784 352.065 500.528 352.033 500.384C352.017 500.592 351.929 501.04 351.769 501.728C351.625 502.4 351.441 503.104 351.217 503.84L347.977 515H345.793L341.257 497.864H343.513L346.177 508.328C346.369 509.064 346.529 509.776 346.657 510.464C346.801 511.152 346.913 511.8 346.993 512.408C347.073 511.784 347.193 511.104 347.353 510.368C347.513 509.632 347.697 508.912 347.905 508.208L350.929 497.864H353.161L356.305 508.28C356.529 509.016 356.721 509.752 356.881 510.488C357.041 511.208 357.161 511.848 357.241 512.408C357.321 511.816 357.433 511.176 357.577 510.488C357.721 509.784 357.889 509.056 358.081 508.304L360.721 497.864H362.977ZM369.725 501.92C371.293 501.92 372.453 502.264 373.205 502.952C373.957 503.64 374.333 504.736 374.333 506.24V515H372.797L372.389 513.176H372.293C371.733 513.88 371.141 514.4 370.517 514.736C369.909 515.072 369.061 515.24 367.973 515.24C366.805 515.24 365.837 514.936 365.069 514.328C364.301 513.704 363.917 512.736 363.917 511.424C363.917 510.144 364.421 509.16 365.429 508.472C366.437 507.768 367.989 507.384 370.085 507.32L372.269 507.248V506.48C372.269 505.408 372.037 504.664 371.573 504.248C371.109 503.832 370.453 503.624 369.605 503.624C368.933 503.624 368.293 503.728 367.685 503.936C367.077 504.128 366.509 504.352 365.98 504.608L365.333 503.024C365.893 502.72 366.557 502.464 367.325 502.256C368.093 502.032 368.893 501.92 369.725 501.92ZM370.349 508.784C368.749 508.848 367.637 509.104 367.013 509.552C366.405 510 366.101 510.632 366.101 511.448C366.101 512.168 366.317 512.696 366.749 513.032C367.197 513.368 367.765 513.536 368.453 513.536C369.541 513.536 370.445 513.24 371.165 512.648C371.885 512.04 372.245 511.112 372.245 509.864V508.712L370.349 508.784ZM383.466 515.24C382.33 515.24 381.314 515.008 380.418 514.544C379.538 514.08 378.842 513.36 378.33 512.384C377.834 511.408 377.586 510.16 377.586 508.64C377.586 507.056 377.85 505.768 378.378 504.776C378.906 503.784 379.618 503.056 380.514 502.592C381.426 502.128 382.458 501.896 383.61 501.896C384.266 501.896 384.898 501.968 385.506 502.112C386.114 502.24 386.61 502.4 386.994 502.592L386.346 504.344C385.962 504.2 385.514 504.064 385.002 503.936C384.49 503.808 384.01 503.744 383.562 503.744C381.034 503.744 379.77 505.368 379.77 508.616C379.77 510.168 380.074 511.36 380.682 512.192C381.306 513.008 382.226 513.416 383.442 513.416C384.146 513.416 384.762 513.344 385.29 513.2C385.834 513.056 386.33 512.88 386.778 512.672V514.544C386.346 514.768 385.866 514.936 385.338 515.048C384.826 515.176 384.202 515.24 383.466 515.24ZM391.949 502.112C391.949 502.752 391.909 503.352 391.829 503.912H391.973C392.389 503.256 392.949 502.76 393.653 502.424C394.373 502.088 395.149 501.92 395.981 501.92C397.549 501.92 398.725 502.296 399.509 503.048C400.293 503.784 400.685 504.976 400.685 506.624V515H398.597V506.768C398.597 504.704 397.637 503.672 395.717 503.672C394.277 503.672 393.285 504.08 392.741 504.896C392.213 505.696 391.949 506.848 391.949 508.352V515H389.837V496.76H391.949V502.112ZM408.969 513.512C409.289 513.512 409.617 513.488 409.953 513.44C410.289 513.376 410.561 513.312 410.769 513.248V514.856C410.545 514.968 410.225 515.056 409.809 515.12C409.393 515.2 408.993 515.24 408.609 515.24C407.937 515.24 407.313 515.128 406.737 514.904C406.177 514.664 405.721 514.256 405.369 513.68C405.017 513.104 404.841 512.296 404.841 511.256V503.768H403.017V502.76L404.865 501.92L405.705 499.184H406.953V502.136H410.673V503.768H406.953V511.208C406.953 511.992 407.137 512.576 407.505 512.96C407.889 513.328 408.377 513.512 408.969 513.512ZM421.649 507.728C421.441 507.072 421.257 506.432 421.097 505.808C420.953 505.168 420.841 504.672 420.761 504.32H420.665C420.601 504.672 420.497 505.168 420.353 505.808C420.209 506.432 420.025 507.08 419.801 507.752L417.497 514.976H415.097L411.569 502.112H413.753L415.529 508.976C415.705 509.664 415.873 510.36 416.033 511.064C416.193 511.768 416.305 512.352 416.369 512.816H416.465C416.529 512.544 416.601 512.208 416.681 511.808C416.777 511.408 416.881 510.992 416.993 510.56C417.105 510.112 417.217 509.712 417.329 509.36L419.609 502.112H421.913L424.121 509.36C424.297 509.904 424.465 510.496 424.625 511.136C424.801 511.776 424.921 512.328 424.985 512.792H425.081C425.129 512.392 425.233 511.84 425.393 511.136C425.569 510.432 425.753 509.712 425.945 508.976L427.745 502.112H429.905L426.329 514.976H423.857L421.649 507.728ZM443.396 508.544C443.396 510.672 442.852 512.32 441.764 513.488C440.692 514.656 439.236 515.24 437.396 515.24C436.26 515.24 435.244 514.984 434.348 514.472C433.468 513.944 432.772 513.184 432.26 512.192C431.748 511.184 431.492 509.968 431.492 508.544C431.492 506.416 432.028 504.776 433.1 503.624C434.172 502.472 435.628 501.896 437.468 501.896C438.636 501.896 439.66 502.16 440.54 502.688C441.436 503.2 442.132 503.952 442.628 504.944C443.14 505.92 443.396 507.12 443.396 508.544ZM433.676 508.544C433.676 510.064 433.972 511.272 434.564 512.168C435.172 513.048 436.132 513.488 437.444 513.488C438.74 513.488 439.692 513.048 440.3 512.168C440.908 511.272 441.212 510.064 441.212 508.544C441.212 507.024 440.908 505.832 440.3 504.968C439.692 504.104 438.732 503.672 437.42 503.672C436.108 503.672 435.156 504.104 434.564 504.968C433.972 505.832 433.676 507.024 433.676 508.544ZM457.927 508.544C457.927 510.672 457.383 512.32 456.295 513.488C455.223 514.656 453.767 515.24 451.927 515.24C450.791 515.24 449.775 514.984 448.879 514.472C447.999 513.944 447.303 513.184 446.791 512.192C446.279 511.184 446.023 509.968 446.023 508.544C446.023 506.416 446.559 504.776 447.631 503.624C448.703 502.472 450.159 501.896 451.999 501.896C453.167 501.896 454.191 502.16 455.071 502.688C455.967 503.2 456.663 503.952 457.159 504.944C457.671 505.92 457.927 507.12 457.927 508.544ZM448.207 508.544C448.207 510.064 448.503 511.272 449.095 512.168C449.703 513.048 450.663 513.488 451.975 513.488C453.271 513.488 454.223 513.048 454.831 512.168C455.439 511.272 455.743 510.064 455.743 508.544C455.743 507.024 455.439 505.832 454.831 504.968C454.223 504.104 453.263 503.672 451.951 503.672C450.639 503.672 449.687 504.104 449.095 504.968C448.503 505.832 448.207 507.024 448.207 508.544ZM467.274 501.896C467.514 501.896 467.77 501.912 468.042 501.944C468.33 501.96 468.578 501.992 468.786 502.04L468.522 503.984C468.314 503.936 468.082 503.896 467.826 503.864C467.586 503.832 467.354 503.816 467.13 503.816C466.474 503.816 465.858 504 465.282 504.368C464.706 504.72 464.242 505.224 463.89 505.88C463.554 506.52 463.386 507.272 463.386 508.136V515H461.274V502.136H463.002L463.242 504.488H463.338C463.754 503.784 464.29 503.176 464.946 502.664C465.602 502.152 466.378 501.896 467.274 501.896ZM475.28 515.24C473.68 515.24 472.4 514.688 471.44 513.584C470.48 512.464 470 510.8 470 508.592C470 506.384 470.48 504.72 471.44 503.6C472.416 502.464 473.704 501.896 475.304 501.896C476.296 501.896 477.104 502.08 477.728 502.448C478.368 502.816 478.888 503.264 479.288 503.792H479.432C479.416 503.584 479.384 503.28 479.336 502.88C479.304 502.464 479.288 502.136 479.288 501.896V496.76H481.4V515H479.696L479.384 513.272H479.288C478.904 513.816 478.392 514.28 477.752 514.664C477.112 515.048 476.288 515.24 475.28 515.24ZM475.616 513.488C476.976 513.488 477.928 513.12 478.472 512.384C479.032 511.632 479.312 510.504 479.312 509V508.616C479.312 507.016 479.048 505.792 478.52 504.944C477.992 504.08 477.016 503.648 475.592 503.648C474.456 503.648 473.6 504.104 473.024 505.016C472.464 505.912 472.184 507.12 472.184 508.64C472.184 510.176 472.464 511.368 473.024 512.216C473.6 513.064 474.464 513.488 475.616 513.488Z" fill="black"/>
<path d="M649.2 510.344L658.248 506.576L649.2 502.28V500.408L660.504 506.048V507.248L649.2 512.216V510.344ZM685.249 506.408C685.249 508.184 684.945 509.736 684.337 511.064C683.745 512.376 682.865 513.4 681.697 514.136C680.529 514.872 679.081 515.24 677.353 515.24C675.577 515.24 674.097 514.872 672.913 514.136C671.745 513.4 670.873 512.368 670.297 511.04C669.721 509.712 669.433 508.16 669.433 506.384C669.433 504.624 669.721 503.088 670.297 501.776C670.873 500.464 671.745 499.44 672.913 498.704C674.097 497.968 675.585 497.6 677.377 497.6C679.089 497.6 680.529 497.968 681.697 498.704C682.865 499.424 683.745 500.448 684.337 501.776C684.945 503.088 685.249 504.632 685.249 506.408ZM671.713 506.408C671.713 508.568 672.169 510.272 673.081 511.52C673.993 512.752 675.417 513.368 677.353 513.368C679.305 513.368 680.729 512.752 681.625 511.52C682.521 510.272 682.969 508.568 682.969 506.408C682.969 504.248 682.521 502.56 681.625 501.344C680.729 500.112 679.313 499.496 677.377 499.496C675.441 499.496 674.009 500.112 673.081 501.344C672.169 502.56 671.713 504.248 671.713 506.408ZM694.879 501.896C696.463 501.896 697.735 502.448 698.695 503.552C699.671 504.656 700.159 506.32 700.159 508.544C700.159 510.736 699.671 512.4 698.695 513.536C697.735 514.672 696.455 515.24 694.855 515.24C693.863 515.24 693.039 515.056 692.383 514.688C691.743 514.304 691.239 513.864 690.871 513.368H690.727C690.759 513.64 690.791 513.984 690.823 514.4C690.855 514.816 690.871 515.176 690.871 515.48V520.76H688.759V502.136H690.487L690.775 503.888H690.871C691.255 503.328 691.759 502.856 692.383 502.472C693.007 502.088 693.839 501.896 694.879 501.896ZM694.495 503.672C693.183 503.672 692.255 504.04 691.711 504.776C691.183 505.512 690.903 506.632 690.871 508.136V508.544C690.871 510.128 691.127 511.352 691.639 512.216C692.167 513.064 693.135 513.488 694.543 513.488C695.327 513.488 695.967 513.272 696.463 512.84C696.975 512.408 697.351 511.824 697.591 511.088C697.847 510.336 697.975 509.48 697.975 508.52C697.975 507.048 697.687 505.872 697.111 504.992C696.551 504.112 695.679 503.672 694.495 503.672ZM705.636 515H703.524V496.76H705.636V515ZM714.68 501.896C715.784 501.896 716.728 502.136 717.512 502.616C718.312 503.096 718.92 503.776 719.336 504.656C719.768 505.52 719.984 506.536 719.984 507.704V508.976H711.176C711.208 510.432 711.576 511.544 712.28 512.312C713 513.064 714 513.44 715.28 513.44C716.096 513.44 716.816 513.368 717.44 513.224C718.08 513.064 718.736 512.84 719.408 512.552V514.4C718.752 514.688 718.104 514.896 717.464 515.024C716.824 515.168 716.064 515.24 715.184 515.24C713.968 515.24 712.888 514.992 711.944 514.496C711.016 514 710.288 513.264 709.76 512.288C709.248 511.296 708.992 510.088 708.992 508.664C708.992 507.256 709.224 506.048 709.688 505.04C710.168 504.032 710.832 503.256 711.68 502.712C712.544 502.168 713.544 501.896 714.68 501.896ZM714.656 503.624C713.648 503.624 712.848 503.952 712.256 504.608C711.68 505.248 711.336 506.144 711.224 507.296H717.776C717.76 506.208 717.504 505.328 717.008 504.656C716.512 503.968 715.728 503.624 714.656 503.624ZM724.339 497.312C724.659 497.312 724.939 497.424 725.179 497.648C725.435 497.856 725.563 498.192 725.563 498.656C725.563 499.104 725.435 499.44 725.179 499.664C724.939 499.888 724.659 500 724.339 500C723.987 500 723.691 499.888 723.451 499.664C723.211 499.44 723.091 499.104 723.091 498.656C723.091 498.192 723.211 497.856 723.451 497.648C723.691 497.424 723.987 497.312 724.339 497.312ZM725.371 502.136V515H723.259V502.136H725.371ZM734.006 515.24C732.406 515.24 731.126 514.688 730.166 513.584C729.206 512.464 728.726 510.8 728.726 508.592C728.726 506.384 729.206 504.72 730.166 503.6C731.142 502.464 732.43 501.896 734.03 501.896C735.022 501.896 735.83 502.08 736.454 502.448C737.094 502.816 737.614 503.264 738.014 503.792H738.158C738.142 503.584 738.11 503.28 738.062 502.88C738.03 502.464 738.014 502.136 738.014 501.896V496.76H740.126V515H738.422L738.11 513.272H738.014C737.63 513.816 737.118 514.28 736.478 514.664C735.838 515.048 735.014 515.24 734.006 515.24ZM734.342 513.488C735.702 513.488 736.654 513.12 737.198 512.384C737.758 511.632 738.038 510.504 738.038 509V508.616C738.038 507.016 737.774 505.792 737.246 504.944C736.718 504.08 735.742 503.648 734.318 503.648C733.182 503.648 732.326 504.104 731.75 505.016C731.19 505.912 730.91 507.12 730.91 508.64C730.91 510.176 731.19 511.368 731.75 512.216C732.326 513.064 733.19 513.488 734.342 513.488ZM745.292 497.312C745.612 497.312 745.892 497.424 746.132 497.648C746.388 497.856 746.516 498.192 746.516 498.656C746.516 499.104 746.388 499.44 746.132 499.664C745.892 499.888 745.612 500 745.292 500C744.94 500 744.644 499.888 744.404 499.664C744.164 499.44 744.044 499.104 744.044 498.656C744.044 498.192 744.164 497.856 744.404 497.648C744.644 497.424 744.94 497.312 745.292 497.312ZM746.324 502.136V515H744.212V502.136H746.324ZM756.591 501.896C758.127 501.896 759.287 502.272 760.071 503.024C760.855 503.76 761.247 504.96 761.247 506.624V515H759.159V506.768C759.159 504.704 758.199 503.672 756.279 503.672C754.855 503.672 753.871 504.072 753.327 504.872C752.783 505.672 752.511 506.824 752.511 508.328V515H750.399V502.136H752.103L752.415 503.888H752.535C752.951 503.216 753.527 502.72 754.263 502.4C754.999 502.064 755.775 501.896 756.591 501.896ZM769.795 501.896C770.643 501.896 771.403 502.056 772.075 502.376C772.763 502.696 773.347 503.184 773.827 503.84H773.947L774.235 502.136H775.915V515.216C775.915 517.056 775.443 518.44 774.499 519.368C773.571 520.296 772.123 520.76 770.155 520.76C768.267 520.76 766.723 520.488 765.523 519.944V518C766.787 518.672 768.371 519.008 770.275 519.008C771.379 519.008 772.243 518.68 772.867 518.024C773.507 517.384 773.827 516.504 773.827 515.384V514.88C773.827 514.688 773.835 514.416 773.851 514.064C773.867 513.696 773.883 513.44 773.899 513.296H773.803C772.939 514.592 771.611 515.24 769.819 515.24C768.155 515.24 766.851 514.656 765.907 513.488C764.979 512.32 764.515 510.688 764.515 508.592C764.515 506.544 764.979 504.92 765.907 503.72C766.851 502.504 768.147 501.896 769.795 501.896ZM770.083 503.672C769.011 503.672 768.179 504.104 767.587 504.968C766.995 505.816 766.699 507.032 766.699 508.616C766.699 510.2 766.987 511.416 767.563 512.264C768.155 513.096 769.011 513.512 770.131 513.512C771.427 513.512 772.371 513.168 772.963 512.48C773.555 511.776 773.851 510.648 773.851 509.096V508.592C773.851 506.832 773.547 505.576 772.939 504.824C772.331 504.056 771.379 503.672 770.083 503.672Z" fill="black"/>
<path d="M644.08 826L642.016 820.696H635.224L633.184 826H631L637.696 808.792H639.64L646.312 826H644.08ZM639.448 813.592C639.4 813.464 639.32 813.232 639.208 812.896C639.096 812.56 638.984 812.216 638.872 811.864C638.776 811.496 638.696 811.216 638.632 811.024C638.52 811.52 638.392 812.008 638.248 812.488C638.104 812.952 637.984 813.32 637.888 813.592L635.944 818.776H641.368L639.448 813.592ZM653.528 826.24C652.392 826.24 651.376 826.008 650.48 825.544C649.6 825.08 648.904 824.36 648.392 823.384C647.896 822.408 647.648 821.16 647.648 819.64C647.648 818.056 647.912 816.768 648.44 815.776C648.968 814.784 649.68 814.056 650.576 813.592C651.488 813.128 652.52 812.896 653.672 812.896C654.328 812.896 654.96 812.968 655.568 813.112C656.176 813.24 656.672 813.4 657.056 813.592L656.408 815.344C656.024 815.2 655.576 815.064 655.064 814.936C654.552 814.808 654.072 814.744 653.624 814.744C651.096 814.744 649.832 816.368 649.832 819.616C649.832 821.168 650.136 822.36 650.744 823.192C651.368 824.008 652.288 824.416 653.504 824.416C654.208 824.416 654.824 824.344 655.352 824.2C655.896 824.056 656.392 823.88 656.84 823.672V825.544C656.408 825.768 655.928 825.936 655.4 826.048C654.888 826.176 654.264 826.24 653.528 826.24ZM665.059 826.24C663.923 826.24 662.907 826.008 662.011 825.544C661.131 825.08 660.435 824.36 659.923 823.384C659.427 822.408 659.179 821.16 659.179 819.64C659.179 818.056 659.443 816.768 659.971 815.776C660.499 814.784 661.211 814.056 662.107 813.592C663.019 813.128 664.051 812.896 665.203 812.896C665.859 812.896 666.491 812.968 667.099 813.112C667.707 813.24 668.203 813.4 668.587 813.592L667.939 815.344C667.555 815.2 667.107 815.064 666.595 814.936C666.083 814.808 665.603 814.744 665.155 814.744C662.627 814.744 661.363 816.368 661.363 819.616C661.363 821.168 661.667 822.36 662.275 823.192C662.899 824.008 663.819 824.416 665.035 824.416C665.739 824.416 666.355 824.344 666.883 824.2C667.427 824.056 667.923 823.88 668.371 823.672V825.544C667.939 825.768 667.459 825.936 666.931 826.048C666.419 826.176 665.795 826.24 665.059 826.24ZM682.615 819.544C682.615 821.672 682.071 823.32 680.983 824.488C679.911 825.656 678.455 826.24 676.615 826.24C675.479 826.24 674.463 825.984 673.567 825.472C672.687 824.944 671.991 824.184 671.479 823.192C670.967 822.184 670.711 820.968 670.711 819.544C670.711 817.416 671.247 815.776 672.319 814.624C673.391 813.472 674.847 812.896 676.687 812.896C677.855 812.896 678.879 813.16 679.759 813.688C680.655 814.2 681.351 814.952 681.847 815.944C682.359 816.92 682.615 818.12 682.615 819.544ZM672.895 819.544C672.895 821.064 673.191 822.272 673.783 823.168C674.391 824.048 675.351 824.488 676.663 824.488C677.959 824.488 678.911 824.048 679.519 823.168C680.127 822.272 680.431 821.064 680.431 819.544C680.431 818.024 680.127 816.832 679.519 815.968C678.911 815.104 677.951 814.672 676.639 814.672C675.327 814.672 674.375 815.104 673.783 815.968C673.191 816.832 672.895 818.024 672.895 819.544ZM696.714 813.136V826H694.986L694.674 824.296H694.578C694.162 824.968 693.586 825.464 692.85 825.784C692.114 826.088 691.33 826.24 690.498 826.24C688.946 826.24 687.778 825.872 686.994 825.136C686.21 824.384 685.818 823.192 685.818 821.56V813.136H687.954V821.416C687.954 823.464 688.906 824.488 690.81 824.488C692.234 824.488 693.218 824.088 693.762 823.288C694.322 822.488 694.602 821.336 694.602 819.832V813.136H696.714ZM706.99 812.896C708.526 812.896 709.686 813.272 710.47 814.024C711.254 814.76 711.646 815.96 711.646 817.624V826H709.558V817.768C709.558 815.704 708.598 814.672 706.678 814.672C705.254 814.672 704.27 815.072 703.726 815.872C703.182 816.672 702.91 817.824 702.91 819.328V826H700.798V813.136H702.502L702.814 814.888H702.934C703.35 814.216 703.926 813.72 704.662 813.4C705.398 813.064 706.174 812.896 706.99 812.896ZM719.93 824.512C720.25 824.512 720.578 824.488 720.914 824.44C721.25 824.376 721.522 824.312 721.73 824.248V825.856C721.506 825.968 721.186 826.056 720.77 826.12C720.354 826.2 719.954 826.24 719.57 826.24C718.898 826.24 718.274 826.128 717.698 825.904C717.138 825.664 716.682 825.256 716.33 824.68C715.978 824.104 715.802 823.296 715.802 822.256V814.768H713.978V813.76L715.826 812.92L716.666 810.184H717.914V813.136H721.634V814.768H717.914V822.208C717.914 822.992 718.098 823.576 718.466 823.96C718.85 824.328 719.338 824.512 719.93 824.512ZM744.652 812.896C746.108 812.896 747.196 813.272 747.916 814.024C748.636 814.76 748.996 815.96 748.996 817.624V826H746.908V817.72C746.908 815.688 746.036 814.672 744.292 814.672C743.044 814.672 742.148 815.032 741.604 815.752C741.076 816.472 740.812 817.52 740.812 818.896V826H738.724V817.72C738.724 815.688 737.844 814.672 736.084 814.672C734.788 814.672 733.892 815.072 733.396 815.872C732.9 816.672 732.652 817.824 732.652 819.328V826H730.54V813.136H732.244L732.556 814.888H732.676C733.076 814.216 733.612 813.72 734.284 813.4C734.972 813.064 735.7 812.896 736.468 812.896C738.484 812.896 739.796 813.616 740.404 815.056H740.524C740.956 814.32 741.54 813.776 742.276 813.424C743.028 813.072 743.82 812.896 744.652 812.896ZM757.842 812.92C759.41 812.92 760.57 813.264 761.322 813.952C762.074 814.64 762.45 815.736 762.45 817.24V826H760.914L760.506 824.176H760.41C759.85 824.88 759.258 825.4 758.634 825.736C758.026 826.072 757.178 826.24 756.09 826.24C754.922 826.24 753.954 825.936 753.186 825.328C752.418 824.704 752.034 823.736 752.034 822.424C752.034 821.144 752.538 820.16 753.546 819.472C754.554 818.768 756.106 818.384 758.202 818.32L760.386 818.248V817.48C760.386 816.408 760.154 815.664 759.69 815.248C759.226 814.832 758.57 814.624 757.722 814.624C757.05 814.624 756.41 814.728 755.802 814.936C755.194 815.128 754.626 815.352 754.098 815.608L753.45 814.024C754.01 813.72 754.674 813.464 755.442 813.256C756.21 813.032 757.01 812.92 757.842 812.92ZM758.466 819.784C756.866 819.848 755.754 820.104 755.13 820.552C754.522 821 754.218 821.632 754.218 822.448C754.218 823.168 754.434 823.696 754.866 824.032C755.314 824.368 755.882 824.536 756.57 824.536C757.658 824.536 758.562 824.24 759.282 823.648C760.002 823.04 760.362 822.112 760.362 820.864V819.712L758.466 819.784ZM768.511 817.288C768.511 817.544 768.495 817.88 768.463 818.296C768.447 818.712 768.431 819.072 768.415 819.376H768.511C768.607 819.248 768.751 819.064 768.943 818.824C769.135 818.584 769.327 818.344 769.519 818.104C769.727 817.848 769.903 817.64 770.047 817.48L774.151 813.136H776.623L771.415 818.632L776.983 826H774.439L769.975 820L768.511 821.272V826H766.423V807.76H768.511V817.288ZM784.211 812.896C785.315 812.896 786.259 813.136 787.043 813.616C787.843 814.096 788.451 814.776 788.867 815.656C789.299 816.52 789.515 817.536 789.515 818.704V819.976H780.707C780.739 821.432 781.107 822.544 781.811 823.312C782.531 824.064 783.531 824.44 784.811 824.44C785.627 824.44 786.347 824.368 786.971 824.224C787.611 824.064 788.267 823.84 788.939 823.552V825.4C788.283 825.688 787.635 825.896 786.995 826.024C786.355 826.168 785.595 826.24 784.715 826.24C783.499 826.24 782.419 825.992 781.475 825.496C780.547 825 779.819 824.264 779.291 823.288C778.779 822.296 778.523 821.088 778.523 819.664C778.523 818.256 778.755 817.048 779.219 816.04C779.699 815.032 780.363 814.256 781.211 813.712C782.075 813.168 783.075 812.896 784.211 812.896ZM784.187 814.624C783.179 814.624 782.379 814.952 781.787 815.608C781.211 816.248 780.867 817.144 780.755 818.296H787.307C787.291 817.208 787.035 816.328 786.539 815.656C786.043 814.968 785.259 814.624 784.187 814.624ZM798.982 812.896C800.518 812.896 801.678 813.272 802.462 814.024C803.246 814.76 803.638 815.96 803.638 817.624V826H801.55V817.768C801.55 815.704 800.59 814.672 798.67 814.672C797.246 814.672 796.262 815.072 795.718 815.872C795.174 816.672 794.902 817.824 794.902 819.328V826H792.79V813.136H794.494L794.806 814.888H794.926C795.342 814.216 795.918 813.72 796.654 813.4C797.39 813.064 798.166 812.896 798.982 812.896Z" fill="black"/>
</svg>

