<svg width="1440" height="900" viewBox="0 0 1440 900" fill="none" xmlns="http://www.w3.org/2000/svg">
<g clip-path="url(#clip0)">
<rect width="1440" height="900" fill="white"/>
<rect x="35.5" y="20.5" width="124" height="124" fill="white" stroke="black"/>
<rect x="51.5" y="73.5" width="92" height="49" fill="white" stroke="black"/>
<rect x="296.5" y="220.5" width="847" height="710" fill="white" stroke="black"/>
<rect x="321.5" y="342.5" width="749" height="154" fill="white" stroke="black"/>
<rect x="321.5" y="613.5" width="749" height="154" fill="white" stroke="black"/>
<rect x="296.5" y="30.5" width="847" height="166" fill="white" stroke="black"/>
<path d="M348.456 82.456C357.416 82.456 363.944 84.216 368.04 87.736C372.136 91.256 374.184 96.216 374.184 102.616C374.184 106.392 373.32 109.944 371.592 113.272C369.928 116.536 367.08 119.192 363.048 121.24C359.08 123.288 353.672 124.312 346.824 124.312H338.952V151H330.312V82.456H348.456ZM347.688 89.848H338.952V116.92H345.864C352.392 116.92 357.256 115.864 360.456 113.752C363.656 111.64 365.256 108.056 365.256 103C365.256 98.584 363.848 95.288 361.032 93.112C358.216 90.936 353.768 89.848 347.688 89.848ZM432.021 125.176C432.021 133.688 429.845 140.28 425.493 144.952C421.205 149.624 415.381 151.96 408.021 151.96C403.477 151.96 399.413 150.936 395.829 148.888C392.309 146.776 389.525 143.736 387.477 139.768C385.429 135.736 384.405 130.872 384.405 125.176C384.405 116.664 386.549 110.104 390.837 105.496C395.125 100.888 400.949 98.584 408.309 98.584C412.981 98.584 417.077 99.64 420.597 101.752C424.181 103.8 426.965 106.808 428.949 110.776C430.997 114.68 432.021 119.48 432.021 125.176ZM393.141 125.176C393.141 131.256 394.325 136.088 396.693 139.672C399.125 143.192 402.965 144.952 408.213 144.952C413.397 144.952 417.205 143.192 419.637 139.672C422.069 136.088 423.285 131.256 423.285 125.176C423.285 119.096 422.069 114.328 419.637 110.872C417.205 107.416 413.365 105.688 408.117 105.688C402.869 105.688 399.061 107.416 396.693 110.872C394.325 114.328 393.141 119.096 393.141 125.176ZM469.41 98.584C470.37 98.584 471.394 98.648 472.482 98.776C473.634 98.84 474.626 98.968 475.458 99.16L474.402 106.936C473.57 106.744 472.642 106.584 471.618 106.456C470.658 106.328 469.73 106.264 468.834 106.264C466.21 106.264 463.746 107 461.442 108.472C459.138 109.88 457.282 111.896 455.874 114.52C454.53 117.08 453.858 120.088 453.858 123.544V151H445.41V99.544H452.322L453.282 108.952H453.666C455.33 106.136 457.474 103.704 460.098 101.656C462.722 99.608 465.826 98.584 469.41 98.584ZM502.25 145.048C503.53 145.048 504.842 144.952 506.186 144.76C507.53 144.504 508.618 144.248 509.45 143.992V150.424C508.554 150.872 507.274 151.224 505.61 151.48C503.946 151.8 502.346 151.96 500.81 151.96C498.122 151.96 495.626 151.512 493.322 150.616C491.082 149.656 489.258 148.024 487.85 145.72C486.442 143.416 485.738 140.184 485.738 136.024V106.072H478.442V102.04L485.834 98.68L489.194 87.736H494.186V99.544H509.066V106.072H494.186V135.832C494.186 138.968 494.922 141.304 496.394 142.84C497.93 144.312 499.882 145.048 502.25 145.048ZM543.466 106.072H530.506V151H522.058V106.072H513.034V102.136L522.058 99.256V96.28C522.058 89.624 523.53 84.856 526.474 81.976C529.418 79.032 533.514 77.56 538.762 77.56C540.81 77.56 542.666 77.752 544.33 78.136C546.058 78.456 547.53 78.84 548.746 79.288L546.538 85.912C545.514 85.592 544.33 85.272 542.986 84.952C541.642 84.632 540.266 84.472 538.858 84.472C536.042 84.472 533.93 85.432 532.522 87.352C531.178 89.208 530.506 92.152 530.506 96.184V99.544H543.466V106.072ZM597.49 125.176C597.49 133.688 595.314 140.28 590.962 144.952C586.674 149.624 580.85 151.96 573.49 151.96C568.946 151.96 564.882 150.936 561.298 148.888C557.778 146.776 554.994 143.736 552.946 139.768C550.898 135.736 549.874 130.872 549.874 125.176C549.874 116.664 552.018 110.104 556.306 105.496C560.594 100.888 566.418 98.584 573.778 98.584C578.45 98.584 582.546 99.64 586.066 101.752C589.65 103.8 592.434 106.808 594.418 110.776C596.466 114.68 597.49 119.48 597.49 125.176ZM558.61 125.176C558.61 131.256 559.794 136.088 562.162 139.672C564.594 143.192 568.434 144.952 573.682 144.952C578.866 144.952 582.674 143.192 585.106 139.672C587.538 136.088 588.754 131.256 588.754 125.176C588.754 119.096 587.538 114.328 585.106 110.872C582.674 107.416 578.834 105.688 573.586 105.688C568.338 105.688 564.53 107.416 562.162 110.872C559.794 114.328 558.61 119.096 558.61 125.176ZM619.327 151H610.879V78.04H619.327V151ZM639.949 80.248C641.229 80.248 642.349 80.696 643.309 81.592C644.333 82.424 644.845 83.768 644.845 85.624C644.845 87.416 644.333 88.76 643.309 89.656C642.349 90.552 641.229 91 639.949 91C638.541 91 637.357 90.552 636.397 89.656C635.437 88.76 634.957 87.416 634.957 85.624C634.957 83.768 635.437 82.424 636.397 81.592C637.357 80.696 638.541 80.248 639.949 80.248ZM644.077 99.544V151H635.629V99.544H644.077ZM705.115 125.176C705.115 133.688 702.939 140.28 698.587 144.952C694.299 149.624 688.475 151.96 681.115 151.96C676.571 151.96 672.507 150.936 668.923 148.888C665.403 146.776 662.619 143.736 660.571 139.768C658.523 135.736 657.499 130.872 657.499 125.176C657.499 116.664 659.643 110.104 663.931 105.496C668.219 100.888 674.043 98.584 681.403 98.584C686.075 98.584 690.171 99.64 693.691 101.752C697.275 103.8 700.059 106.808 702.043 110.776C704.091 114.68 705.115 119.48 705.115 125.176ZM666.235 125.176C666.235 131.256 667.419 136.088 669.787 139.672C672.219 143.192 676.059 144.952 681.307 144.952C686.491 144.952 690.299 143.192 692.731 139.672C695.163 136.088 696.379 131.256 696.379 125.176C696.379 119.096 695.163 114.328 692.731 110.872C690.299 107.416 686.459 105.688 681.211 105.688C675.963 105.688 672.155 107.416 669.787 110.872C667.419 114.328 666.235 119.096 666.235 125.176ZM752.008 136.792C752.008 141.784 750.152 145.56 746.44 148.12C742.728 150.68 737.736 151.96 731.464 151.96C727.88 151.96 724.776 151.672 722.152 151.096C719.592 150.52 717.32 149.72 715.336 148.696V141.016C717.384 142.04 719.848 143 722.728 143.896C725.672 144.728 728.648 145.144 731.656 145.144C735.944 145.144 739.048 144.472 740.968 143.128C742.888 141.72 743.848 139.864 743.848 137.56C743.848 136.28 743.496 135.128 742.792 134.104C742.088 133.08 740.808 132.056 738.952 131.032C737.16 130.008 734.568 128.856 731.176 127.576C727.848 126.296 725 125.016 722.632 123.736C720.264 122.456 718.44 120.92 717.16 119.128C715.88 117.336 715.24 115.032 715.24 112.216C715.24 107.864 717 104.504 720.52 102.136C724.104 99.768 728.776 98.584 734.536 98.584C737.672 98.584 740.584 98.904 743.272 99.544C746.024 100.12 748.584 100.952 750.952 102.04L748.072 108.76C745.896 107.864 743.624 107.096 741.256 106.456C738.888 105.816 736.456 105.496 733.96 105.496C730.504 105.496 727.848 106.072 725.992 107.224C724.2 108.312 723.304 109.816 723.304 111.736C723.304 113.144 723.72 114.36 724.552 115.384C725.384 116.344 726.76 117.304 728.68 118.264C730.664 119.16 733.288 120.248 736.552 121.528C739.816 122.744 742.6 123.992 744.904 125.272C747.208 126.552 748.968 128.12 750.184 129.976C751.4 131.768 752.008 134.04 752.008 136.792ZM768.761 80.248C770.041 80.248 771.161 80.696 772.121 81.592C773.145 82.424 773.657 83.768 773.657 85.624C773.657 87.416 773.145 88.76 772.121 89.656C771.161 90.552 770.041 91 768.761 91C767.353 91 766.169 90.552 765.209 89.656C764.249 88.76 763.769 87.416 763.769 85.624C763.769 83.768 764.249 82.424 765.209 81.592C766.169 80.696 767.353 80.248 768.761 80.248ZM772.889 99.544V151H764.441V99.544H772.889ZM806.375 145.048C807.655 145.048 808.967 144.952 810.311 144.76C811.655 144.504 812.743 144.248 813.575 143.992V150.424C812.679 150.872 811.399 151.224 809.735 151.48C808.071 151.8 806.471 151.96 804.935 151.96C802.247 151.96 799.751 151.512 797.447 150.616C795.207 149.656 793.383 148.024 791.975 145.72C790.567 143.416 789.863 140.184 789.863 136.024V106.072H782.567V102.04L789.959 98.68L793.319 87.736H798.311V99.544H813.191V106.072H798.311V135.832C798.311 138.968 799.047 141.304 800.519 142.84C802.055 144.312 804.007 145.048 806.375 145.048ZM843.751 98.584C848.167 98.584 851.943 99.544 855.079 101.464C858.279 103.384 860.711 106.104 862.375 109.624C864.103 113.08 864.967 117.144 864.967 121.816V126.904H829.735C829.863 132.728 831.335 137.176 834.151 140.248C837.031 143.256 841.031 144.76 846.151 144.76C849.415 144.76 852.295 144.472 854.791 143.896C857.351 143.256 859.975 142.36 862.663 141.208V148.6C860.039 149.752 857.447 150.584 854.887 151.096C852.327 151.672 849.287 151.96 845.767 151.96C840.903 151.96 836.583 150.968 832.807 148.984C829.095 147 826.183 144.056 824.071 140.152C822.023 136.184 820.999 131.352 820.999 125.656C820.999 120.024 821.927 115.192 823.783 111.16C825.703 107.128 828.359 104.024 831.751 101.848C835.207 99.672 839.207 98.584 843.751 98.584ZM843.655 105.496C839.623 105.496 836.423 106.808 834.055 109.432C831.751 111.992 830.375 115.576 829.927 120.184H856.135C856.071 115.832 855.047 112.312 853.063 109.624C851.079 106.872 847.943 105.496 843.655 105.496Z" fill="black"/>
<path d="M344.868 287H341.088L327.336 265.652H327.192C327.24 266.492 327.3 267.536 327.372 268.784C327.444 270.032 327.48 271.316 327.48 272.636V287H324.492V261.296H328.236L341.952 282.572H342.096C342.072 282.188 342.036 281.612 341.988 280.844C341.964 280.076 341.928 279.236 341.88 278.324C341.856 277.412 341.844 276.572 341.844 275.804V261.296H344.868V287ZM358.72 267.38C361.072 267.38 362.812 267.896 363.94 268.928C365.068 269.96 365.632 271.604 365.632 273.86V287H363.328L362.716 284.264H362.572C361.732 285.32 360.844 286.1 359.908 286.604C358.996 287.108 357.724 287.36 356.092 287.36C354.34 287.36 352.888 286.904 351.736 285.992C350.584 285.056 350.008 283.604 350.008 281.636C350.008 279.716 350.764 278.24 352.276 277.208C353.788 276.152 356.116 275.576 359.26 275.48L362.536 275.372V274.22C362.536 272.612 362.188 271.496 361.492 270.872C360.796 270.248 359.812 269.936 358.54 269.936C357.532 269.936 356.572 270.092 355.66 270.404C354.748 270.692 353.896 271.028 353.104 271.412L352.132 269.036C352.972 268.58 353.968 268.196 355.12 267.884C356.272 267.548 357.472 267.38 358.72 267.38ZM359.656 277.676C357.256 277.772 355.588 278.156 354.652 278.828C353.74 279.5 353.284 280.448 353.284 281.672C353.284 282.752 353.608 283.544 354.256 284.048C354.928 284.552 355.78 284.804 356.812 284.804C358.444 284.804 359.8 284.36 360.88 283.472C361.96 282.56 362.5 281.168 362.5 279.296V277.568L359.656 277.676ZM378.899 267.38C381.251 267.38 382.991 267.896 384.119 268.928C385.247 269.96 385.811 271.604 385.811 273.86V287H383.507L382.895 284.264H382.751C381.911 285.32 381.023 286.1 380.087 286.604C379.175 287.108 377.903 287.36 376.271 287.36C374.519 287.36 373.067 286.904 371.915 285.992C370.763 285.056 370.187 283.604 370.187 281.636C370.187 279.716 370.943 278.24 372.455 277.208C373.967 276.152 376.295 275.576 379.439 275.48L382.715 275.372V274.22C382.715 272.612 382.367 271.496 381.671 270.872C380.975 270.248 379.991 269.936 378.719 269.936C377.711 269.936 376.751 270.092 375.839 270.404C374.927 270.692 374.075 271.028 373.283 271.412L372.311 269.036C373.151 268.58 374.147 268.196 375.299 267.884C376.451 267.548 377.651 267.38 378.899 267.38ZM379.835 277.676C377.435 277.772 375.767 278.156 374.831 278.828C373.919 279.5 373.463 280.448 373.463 281.672C373.463 282.752 373.787 283.544 374.435 284.048C375.107 284.552 375.959 284.804 376.991 284.804C378.623 284.804 379.979 284.36 381.059 283.472C382.139 282.56 382.679 281.168 382.679 279.296V277.568L379.835 277.676ZM412.939 267.344C415.123 267.344 416.755 267.908 417.835 269.036C418.915 270.14 419.455 271.94 419.455 274.436V287H416.323V274.58C416.323 271.532 415.015 270.008 412.399 270.008C410.527 270.008 409.183 270.548 408.367 271.628C407.575 272.708 407.179 274.28 407.179 276.344V287H404.047V274.58C404.047 271.532 402.727 270.008 400.087 270.008C398.143 270.008 396.799 270.608 396.055 271.808C395.311 273.008 394.939 274.736 394.939 276.992V287H391.771V267.704H394.327L394.795 270.332H394.975C395.575 269.324 396.379 268.58 397.387 268.1C398.419 267.596 399.511 267.344 400.663 267.344C403.687 267.344 405.655 268.424 406.567 270.584H406.747C407.395 269.48 408.271 268.664 409.375 268.136C410.503 267.608 411.691 267.344 412.939 267.344ZM447.331 281.672C447.331 283.544 446.635 284.96 445.243 285.92C443.851 286.88 441.979 287.36 439.627 287.36C438.283 287.36 437.119 287.252 436.135 287.036C435.175 286.82 434.323 286.52 433.579 286.136V283.256C434.347 283.64 435.271 284 436.351 284.336C437.455 284.648 438.571 284.804 439.699 284.804C441.307 284.804 442.471 284.552 443.191 284.048C443.911 283.52 444.271 282.824 444.271 281.96C444.271 281.48 444.139 281.048 443.875 280.664C443.611 280.28 443.131 279.896 442.435 279.512C441.763 279.128 440.791 278.696 439.519 278.216C438.271 277.736 437.203 277.256 436.315 276.776C435.427 276.296 434.743 275.72 434.263 275.048C433.783 274.376 433.543 273.512 433.543 272.456C433.543 270.824 434.203 269.564 435.523 268.676C436.867 267.788 438.619 267.344 440.779 267.344C441.955 267.344 443.047 267.464 444.055 267.704C445.087 267.92 446.047 268.232 446.935 268.64L445.855 271.16C445.039 270.824 444.187 270.536 443.299 270.296C442.411 270.056 441.499 269.936 440.563 269.936C439.267 269.936 438.271 270.152 437.575 270.584C436.903 270.992 436.567 271.556 436.567 272.276C436.567 272.804 436.723 273.26 437.035 273.644C437.347 274.004 437.863 274.364 438.583 274.724C439.327 275.06 440.311 275.468 441.535 275.948C442.759 276.404 443.803 276.872 444.667 277.352C445.531 277.832 446.191 278.42 446.647 279.116C447.103 279.788 447.331 280.64 447.331 281.672ZM458.438 284.768C458.918 284.768 459.41 284.732 459.914 284.66C460.418 284.564 460.826 284.468 461.138 284.372V286.784C460.802 286.952 460.322 287.084 459.698 287.18C459.074 287.3 458.474 287.36 457.898 287.36C456.89 287.36 455.954 287.192 455.09 286.856C454.25 286.496 453.566 285.884 453.038 285.02C452.51 284.156 452.246 282.944 452.246 281.384V270.152H449.51V268.64L452.282 267.38L453.542 263.276H455.414V267.704H460.994V270.152H455.414V281.312C455.414 282.488 455.69 283.364 456.242 283.94C456.818 284.492 457.55 284.768 458.438 284.768ZM481.129 267.704V287H478.537L478.069 284.444H477.925C477.301 285.452 476.437 286.196 475.333 286.676C474.229 287.132 473.053 287.36 471.805 287.36C469.477 287.36 467.725 286.808 466.549 285.704C465.373 284.576 464.785 282.788 464.785 280.34V267.704H467.989V280.124C467.989 283.196 469.417 284.732 472.273 284.732C474.409 284.732 475.885 284.132 476.701 282.932C477.541 281.732 477.961 280.004 477.961 277.748V267.704H481.129ZM494.095 287.36C491.695 287.36 489.775 286.532 488.335 284.876C486.895 283.196 486.175 280.7 486.175 277.388C486.175 274.076 486.895 271.58 488.335 269.9C489.799 268.196 491.731 267.344 494.131 267.344C495.619 267.344 496.831 267.62 497.767 268.172C498.727 268.724 499.507 269.396 500.107 270.188H500.323C500.299 269.876 500.251 269.42 500.179 268.82C500.131 268.196 500.107 267.704 500.107 267.344V259.64H503.275V287H500.719L500.251 284.408H500.107C499.531 285.224 498.763 285.92 497.803 286.496C496.843 287.072 495.607 287.36 494.095 287.36ZM494.599 284.732C496.639 284.732 498.067 284.18 498.883 283.076C499.723 281.948 500.143 280.256 500.143 278V277.424C500.143 275.024 499.747 273.188 498.955 271.916C498.163 270.62 496.699 269.972 494.563 269.972C492.859 269.972 491.575 270.656 490.711 272.024C489.871 273.368 489.451 275.18 489.451 277.46C489.451 279.764 489.871 281.552 490.711 282.824C491.575 284.096 492.871 284.732 494.599 284.732ZM516.856 267.344C518.512 267.344 519.928 267.704 521.104 268.424C522.304 269.144 523.216 270.164 523.84 271.484C524.488 272.78 524.812 274.304 524.812 276.056V277.964H511.6C511.648 280.148 512.2 281.816 513.256 282.968C514.336 284.096 515.836 284.66 517.756 284.66C518.98 284.66 520.06 284.552 520.996 284.336C521.956 284.096 522.94 283.76 523.948 283.328V286.1C522.964 286.532 521.992 286.844 521.032 287.036C520.072 287.252 518.932 287.36 517.612 287.36C515.788 287.36 514.168 286.988 512.752 286.244C511.36 285.5 510.268 284.396 509.476 282.932C508.708 281.444 508.324 279.632 508.324 277.496C508.324 275.384 508.672 273.572 509.368 272.06C510.088 270.548 511.084 269.384 512.356 268.568C513.652 267.752 515.152 267.344 516.856 267.344ZM516.82 269.936C515.308 269.936 514.108 270.428 513.22 271.412C512.356 272.372 511.84 273.716 511.672 275.444H521.5C521.476 273.812 521.092 272.492 520.348 271.484C519.604 270.452 518.428 269.936 516.82 269.936ZM539.012 267.344C541.316 267.344 543.056 267.908 544.232 269.036C545.408 270.14 545.996 271.94 545.996 274.436V287H542.864V274.652C542.864 271.556 541.424 270.008 538.544 270.008C536.408 270.008 534.932 270.608 534.116 271.808C533.3 273.008 532.892 274.736 532.892 276.992V287H529.724V267.704H532.28L532.748 270.332H532.928C533.552 269.324 534.416 268.58 535.52 268.1C536.624 267.596 537.788 267.344 539.012 267.344ZM558.422 284.768C558.902 284.768 559.394 284.732 559.898 284.66C560.402 284.564 560.81 284.468 561.122 284.372V286.784C560.786 286.952 560.306 287.084 559.682 287.18C559.058 287.3 558.458 287.36 557.882 287.36C556.874 287.36 555.938 287.192 555.074 286.856C554.234 286.496 553.55 285.884 553.022 285.02C552.494 284.156 552.23 282.944 552.23 281.384V270.152H549.494V268.64L552.266 267.38L553.526 263.276H555.398V267.704H560.978V270.152H555.398V281.312C555.398 282.488 555.674 283.364 556.226 283.94C556.802 284.492 557.534 284.768 558.422 284.768Z" fill="black"/>
<path d="M331.296 553.296C334.656 553.296 337.104 553.956 338.64 555.276C340.176 556.596 340.944 558.456 340.944 560.856C340.944 562.272 340.62 563.604 339.972 564.852C339.348 566.076 338.28 567.072 336.768 567.84C335.28 568.608 333.252 568.992 330.684 568.992H327.732V579H324.492V553.296H331.296ZM331.008 556.068H327.732V566.22H330.324C332.772 566.22 334.596 565.824 335.796 565.032C336.996 564.24 337.596 562.896 337.596 561C337.596 559.344 337.068 558.108 336.012 557.292C334.956 556.476 333.288 556.068 331.008 556.068ZM354.857 559.344C355.217 559.344 355.601 559.368 356.009 559.416C356.441 559.44 356.813 559.488 357.125 559.56L356.729 562.476C356.417 562.404 356.069 562.344 355.685 562.296C355.325 562.248 354.977 562.224 354.641 562.224C353.657 562.224 352.733 562.5 351.869 563.052C351.005 563.58 350.309 564.336 349.781 565.32C349.277 566.28 349.025 567.408 349.025 568.704V579H345.857V559.704H348.449L348.809 563.232H348.953C349.577 562.176 350.381 561.264 351.365 560.496C352.349 559.728 353.513 559.344 354.857 559.344ZM376.801 569.316C376.801 572.508 375.985 574.98 374.353 576.732C372.745 578.484 370.561 579.36 367.801 579.36C366.097 579.36 364.573 578.976 363.229 578.208C361.909 577.416 360.865 576.276 360.097 574.788C359.329 573.276 358.945 571.452 358.945 569.316C358.945 566.124 359.749 563.664 361.357 561.936C362.965 560.208 365.149 559.344 367.909 559.344C369.661 559.344 371.197 559.74 372.517 560.532C373.861 561.3 374.905 562.428 375.649 563.916C376.417 565.38 376.801 567.18 376.801 569.316ZM362.221 569.316C362.221 571.596 362.665 573.408 363.553 574.752C364.465 576.072 365.905 576.732 367.873 576.732C369.817 576.732 371.245 576.072 372.157 574.752C373.069 573.408 373.525 571.596 373.525 569.316C373.525 567.036 373.069 565.248 372.157 563.952C371.245 562.656 369.805 562.008 367.837 562.008C365.869 562.008 364.441 562.656 363.553 563.952C362.665 565.248 362.221 567.036 362.221 569.316ZM381.57 554.484C381.57 553.788 381.75 553.284 382.11 552.972C382.47 552.636 382.914 552.468 383.442 552.468C383.922 552.468 384.342 552.636 384.702 552.972C385.086 553.284 385.278 553.788 385.278 554.484C385.278 555.156 385.086 555.66 384.702 555.996C384.342 556.332 383.922 556.5 383.442 556.5C382.914 556.5 382.47 556.332 382.11 555.996C381.75 555.66 381.57 555.156 381.57 554.484ZM379.554 587.64C378.954 587.64 378.426 587.592 377.97 587.496C377.514 587.424 377.118 587.328 376.782 587.208V584.652C377.142 584.748 377.514 584.832 377.898 584.904C378.282 584.976 378.702 585.012 379.158 585.012C379.926 585.012 380.562 584.796 381.066 584.364C381.57 583.956 381.822 583.164 381.822 581.988V559.704H384.99V581.88C384.99 583.68 384.558 585.084 383.694 586.092C382.83 587.124 381.45 587.64 379.554 587.64ZM398.555 559.344C400.211 559.344 401.627 559.704 402.803 560.424C404.003 561.144 404.915 562.164 405.539 563.484C406.187 564.78 406.511 566.304 406.511 568.056V569.964H393.299C393.347 572.148 393.899 573.816 394.955 574.968C396.035 576.096 397.535 576.66 399.455 576.66C400.679 576.66 401.759 576.552 402.695 576.336C403.655 576.096 404.639 575.76 405.647 575.328V578.1C404.663 578.532 403.691 578.844 402.731 579.036C401.771 579.252 400.631 579.36 399.311 579.36C397.487 579.36 395.867 578.988 394.451 578.244C393.059 577.5 391.967 576.396 391.175 574.932C390.407 573.444 390.023 571.632 390.023 569.496C390.023 567.384 390.371 565.572 391.067 564.06C391.787 562.548 392.783 561.384 394.055 560.568C395.351 559.752 396.851 559.344 398.555 559.344ZM398.519 561.936C397.007 561.936 395.807 562.428 394.919 563.412C394.055 564.372 393.539 565.716 393.371 567.444H403.199C403.175 565.812 402.791 564.492 402.047 563.484C401.303 562.452 400.127 561.936 398.519 561.936ZM419.163 579.36C417.459 579.36 415.935 579.012 414.591 578.316C413.271 577.62 412.227 576.54 411.459 575.076C410.715 573.612 410.343 571.74 410.343 569.46C410.343 567.084 410.739 565.152 411.531 563.664C412.323 562.176 413.391 561.084 414.735 560.388C416.103 559.692 417.651 559.344 419.379 559.344C420.363 559.344 421.311 559.452 422.223 559.668C423.135 559.86 423.879 560.1 424.455 560.388L423.483 563.016C422.907 562.8 422.235 562.596 421.467 562.404C420.699 562.212 419.979 562.116 419.307 562.116C415.515 562.116 413.619 564.552 413.619 569.424C413.619 571.752 414.075 573.54 414.987 574.788C415.923 576.012 417.303 576.624 419.127 576.624C420.183 576.624 421.107 576.516 421.899 576.3C422.715 576.084 423.459 575.82 424.131 575.508V578.316C423.483 578.652 422.763 578.904 421.971 579.072C421.203 579.264 420.267 579.36 419.163 579.36ZM435.164 576.768C435.644 576.768 436.136 576.732 436.64 576.66C437.144 576.564 437.552 576.468 437.864 576.372V578.784C437.528 578.952 437.048 579.084 436.424 579.18C435.8 579.3 435.2 579.36 434.624 579.36C433.616 579.36 432.68 579.192 431.816 578.856C430.976 578.496 430.292 577.884 429.764 577.02C429.236 576.156 428.972 574.944 428.972 573.384V562.152H426.236V560.64L429.008 559.38L430.268 555.276H432.14V559.704H437.72V562.152H432.14V573.312C432.14 574.488 432.416 575.364 432.968 575.94C433.544 576.492 434.276 576.768 435.164 576.768ZM449.18 559.344C450.836 559.344 452.252 559.704 453.428 560.424C454.628 561.144 455.54 562.164 456.164 563.484C456.812 564.78 457.136 566.304 457.136 568.056V569.964H443.924C443.972 572.148 444.524 573.816 445.58 574.968C446.66 576.096 448.16 576.66 450.08 576.66C451.304 576.66 452.384 576.552 453.32 576.336C454.28 576.096 455.264 575.76 456.272 575.328V578.1C455.288 578.532 454.316 578.844 453.356 579.036C452.396 579.252 451.256 579.36 449.936 579.36C448.112 579.36 446.492 578.988 445.076 578.244C443.684 577.5 442.592 576.396 441.8 574.932C441.032 573.444 440.648 571.632 440.648 569.496C440.648 567.384 440.996 565.572 441.692 564.06C442.412 562.548 443.408 561.384 444.68 560.568C445.976 559.752 447.476 559.344 449.18 559.344ZM449.144 561.936C447.632 561.936 446.432 562.428 445.544 563.412C444.68 564.372 444.164 565.716 443.996 567.444H453.824C453.8 565.812 453.416 564.492 452.672 563.484C451.928 562.452 450.752 561.936 449.144 561.936ZM471.336 559.344C473.64 559.344 475.38 559.908 476.556 561.036C477.732 562.14 478.32 563.94 478.32 566.436V579H475.188V566.652C475.188 563.556 473.748 562.008 470.868 562.008C468.732 562.008 467.256 562.608 466.44 563.808C465.624 565.008 465.216 566.736 465.216 568.992V579H462.048V559.704H464.604L465.072 562.332H465.252C465.876 561.324 466.74 560.58 467.844 560.1C468.948 559.596 470.112 559.344 471.336 559.344Z" fill="black"/>
<path d="M338.28 315.408C338.28 317.184 337.976 318.736 337.368 320.064C336.776 321.376 335.896 322.4 334.728 323.136C333.56 323.872 332.112 324.24 330.384 324.24C328.608 324.24 327.128 323.872 325.944 323.136C324.776 322.4 323.904 321.368 323.328 320.04C322.752 318.712 322.464 317.16 322.464 315.384C322.464 313.624 322.752 312.088 323.328 310.776C323.904 309.464 324.776 308.44 325.944 307.704C327.128 306.968 328.616 306.6 330.408 306.6C332.12 306.6 333.56 306.968 334.728 307.704C335.896 308.424 336.776 309.448 337.368 310.776C337.976 312.088 338.28 313.632 338.28 315.408ZM324.744 315.408C324.744 317.568 325.2 319.272 326.112 320.52C327.024 321.752 328.448 322.368 330.384 322.368C332.336 322.368 333.76 321.752 334.656 320.52C335.552 319.272 336 317.568 336 315.408C336 313.248 335.552 311.56 334.656 310.344C333.76 309.112 332.344 308.496 330.408 308.496C328.472 308.496 327.04 309.112 326.112 310.344C325.2 311.56 324.744 313.248 324.744 315.408ZM347.91 310.896C349.494 310.896 350.766 311.448 351.726 312.552C352.702 313.656 353.19 315.32 353.19 317.544C353.19 319.736 352.702 321.4 351.726 322.536C350.766 323.672 349.486 324.24 347.886 324.24C346.894 324.24 346.07 324.056 345.414 323.688C344.774 323.304 344.27 322.864 343.902 322.368H343.758C343.79 322.64 343.822 322.984 343.854 323.4C343.886 323.816 343.902 324.176 343.902 324.48V329.76H341.79V311.136H343.518L343.806 312.888H343.902C344.286 312.328 344.79 311.856 345.414 311.472C346.038 311.088 346.87 310.896 347.91 310.896ZM347.526 312.672C346.214 312.672 345.286 313.04 344.742 313.776C344.214 314.512 343.934 315.632 343.902 317.136V317.544C343.902 319.128 344.158 320.352 344.67 321.216C345.198 322.064 346.166 322.488 347.574 322.488C348.358 322.488 348.998 322.272 349.494 321.84C350.006 321.408 350.382 320.824 350.622 320.088C350.878 319.336 351.006 318.48 351.006 317.52C351.006 316.048 350.718 314.872 350.142 313.992C349.582 313.112 348.71 312.672 347.526 312.672ZM358.668 324H356.556V305.76H358.668V324ZM367.711 310.896C368.815 310.896 369.759 311.136 370.543 311.616C371.343 312.096 371.951 312.776 372.367 313.656C372.799 314.52 373.015 315.536 373.015 316.704V317.976H364.207C364.239 319.432 364.607 320.544 365.311 321.312C366.031 322.064 367.031 322.44 368.311 322.44C369.127 322.44 369.847 322.368 370.471 322.224C371.111 322.064 371.767 321.84 372.439 321.552V323.4C371.783 323.688 371.135 323.896 370.495 324.024C369.855 324.168 369.095 324.24 368.215 324.24C366.999 324.24 365.919 323.992 364.975 323.496C364.047 323 363.319 322.264 362.791 321.288C362.279 320.296 362.023 319.088 362.023 317.664C362.023 316.256 362.255 315.048 362.719 314.04C363.199 313.032 363.863 312.256 364.711 311.712C365.575 311.168 366.575 310.896 367.711 310.896ZM367.687 312.624C366.679 312.624 365.879 312.952 365.287 313.608C364.711 314.248 364.367 315.144 364.255 316.296H370.807C370.791 315.208 370.535 314.328 370.039 313.656C369.543 312.968 368.759 312.624 367.687 312.624ZM377.37 306.312C377.69 306.312 377.97 306.424 378.21 306.648C378.466 306.856 378.594 307.192 378.594 307.656C378.594 308.104 378.466 308.44 378.21 308.664C377.97 308.888 377.69 309 377.37 309C377.018 309 376.722 308.888 376.482 308.664C376.242 308.44 376.122 308.104 376.122 307.656C376.122 307.192 376.242 306.856 376.482 306.648C376.722 306.424 377.018 306.312 377.37 306.312ZM378.402 311.136V324H376.29V311.136H378.402ZM387.038 324.24C385.438 324.24 384.158 323.688 383.198 322.584C382.238 321.464 381.758 319.8 381.758 317.592C381.758 315.384 382.238 313.72 383.198 312.6C384.174 311.464 385.462 310.896 387.062 310.896C388.054 310.896 388.862 311.08 389.486 311.448C390.126 311.816 390.646 312.264 391.046 312.792H391.19C391.174 312.584 391.142 312.28 391.094 311.88C391.062 311.464 391.046 311.136 391.046 310.896V305.76H393.158V324H391.454L391.142 322.272H391.046C390.662 322.816 390.15 323.28 389.51 323.664C388.87 324.048 388.046 324.24 387.038 324.24ZM387.374 322.488C388.734 322.488 389.686 322.12 390.23 321.384C390.79 320.632 391.07 319.504 391.07 318V317.616C391.07 316.016 390.806 314.792 390.278 313.944C389.75 313.08 388.774 312.648 387.35 312.648C386.214 312.648 385.358 313.104 384.782 314.016C384.222 314.912 383.942 316.12 383.942 317.64C383.942 319.176 384.222 320.368 384.782 321.216C385.358 322.064 386.222 322.488 387.374 322.488ZM398.323 306.312C398.643 306.312 398.923 306.424 399.163 306.648C399.419 306.856 399.547 307.192 399.547 307.656C399.547 308.104 399.419 308.44 399.163 308.664C398.923 308.888 398.643 309 398.323 309C397.971 309 397.675 308.888 397.435 308.664C397.195 308.44 397.075 308.104 397.075 307.656C397.075 307.192 397.195 306.856 397.435 306.648C397.675 306.424 397.971 306.312 398.323 306.312ZM399.355 311.136V324H397.243V311.136H399.355ZM409.623 310.896C411.159 310.896 412.319 311.272 413.103 312.024C413.887 312.76 414.279 313.96 414.279 315.624V324H412.191V315.768C412.191 313.704 411.231 312.672 409.311 312.672C407.887 312.672 406.903 313.072 406.359 313.872C405.815 314.672 405.543 315.824 405.543 317.328V324H403.431V311.136H405.135L405.447 312.888H405.567C405.983 312.216 406.559 311.72 407.295 311.4C408.031 311.064 408.807 310.896 409.623 310.896ZM422.827 310.896C423.675 310.896 424.435 311.056 425.107 311.376C425.795 311.696 426.379 312.184 426.859 312.84H426.979L427.267 311.136H428.947V324.216C428.947 326.056 428.475 327.44 427.531 328.368C426.603 329.296 425.155 329.76 423.187 329.76C421.299 329.76 419.755 329.488 418.555 328.944V327C419.819 327.672 421.403 328.008 423.307 328.008C424.411 328.008 425.275 327.68 425.899 327.024C426.539 326.384 426.859 325.504 426.859 324.384V323.88C426.859 323.688 426.867 323.416 426.883 323.064C426.899 322.696 426.915 322.44 426.931 322.296H426.835C425.971 323.592 424.643 324.24 422.851 324.24C421.187 324.24 419.883 323.656 418.939 322.488C418.011 321.32 417.547 319.688 417.547 317.592C417.547 315.544 418.011 313.92 418.939 312.72C419.883 311.504 421.179 310.896 422.827 310.896ZM423.115 312.672C422.043 312.672 421.211 313.104 420.619 313.968C420.027 314.816 419.731 316.032 419.731 317.616C419.731 319.2 420.019 320.416 420.595 321.264C421.187 322.096 422.043 322.512 423.163 322.512C424.459 322.512 425.403 322.168 425.995 321.48C426.587 320.776 426.883 319.648 426.883 318.096V317.592C426.883 315.832 426.579 314.576 425.971 313.824C425.363 313.056 424.411 312.672 423.115 312.672Z" fill="black"/>
<path d="M358.28 371.408C358.28 373.184 357.976 374.736 357.368 376.064C356.776 377.376 355.896 378.4 354.728 379.136C353.56 379.872 352.112 380.24 350.384 380.24C348.608 380.24 347.128 379.872 345.944 379.136C344.776 378.4 343.904 377.368 343.328 376.04C342.752 374.712 342.464 373.16 342.464 371.384C342.464 369.624 342.752 368.088 343.328 366.776C343.904 365.464 344.776 364.44 345.944 363.704C347.128 362.968 348.616 362.6 350.408 362.6C352.12 362.6 353.56 362.968 354.728 363.704C355.896 364.424 356.776 365.448 357.368 366.776C357.976 368.088 358.28 369.632 358.28 371.408ZM344.744 371.408C344.744 373.568 345.2 375.272 346.112 376.52C347.024 377.752 348.448 378.368 350.384 378.368C352.336 378.368 353.76 377.752 354.656 376.52C355.552 375.272 356 373.568 356 371.408C356 369.248 355.552 367.56 354.656 366.344C353.76 365.112 352.344 364.496 350.408 364.496C348.472 364.496 347.04 365.112 346.112 366.344C345.2 367.56 344.744 369.248 344.744 371.408ZM364.622 380L359.75 367.136H362.006L364.742 374.72C364.87 375.072 365.006 375.464 365.15 375.896C365.294 376.328 365.422 376.744 365.534 377.144C365.646 377.528 365.726 377.856 365.774 378.128H365.87C365.934 377.856 366.022 377.52 366.134 377.12C366.262 376.72 366.398 376.304 366.542 375.872C366.702 375.44 366.838 375.056 366.95 374.72L369.686 367.136H371.942L367.046 380H364.622ZM378.946 366.896C380.05 366.896 380.994 367.136 381.778 367.616C382.578 368.096 383.186 368.776 383.602 369.656C384.034 370.52 384.25 371.536 384.25 372.704V373.976H375.442C375.474 375.432 375.842 376.544 376.546 377.312C377.266 378.064 378.266 378.44 379.546 378.44C380.362 378.44 381.082 378.368 381.706 378.224C382.346 378.064 383.002 377.84 383.674 377.552V379.4C383.018 379.688 382.37 379.896 381.73 380.024C381.09 380.168 380.33 380.24 379.45 380.24C378.234 380.24 377.154 379.992 376.21 379.496C375.282 379 374.554 378.264 374.026 377.288C373.514 376.296 373.258 375.088 373.258 373.664C373.258 372.256 373.49 371.048 373.954 370.04C374.434 369.032 375.098 368.256 375.946 367.712C376.81 367.168 377.81 366.896 378.946 366.896ZM378.922 368.624C377.914 368.624 377.114 368.952 376.522 369.608C375.946 370.248 375.602 371.144 375.49 372.296H382.042C382.026 371.208 381.77 370.328 381.274 369.656C380.778 368.968 379.994 368.624 378.922 368.624ZM393.524 366.896C393.764 366.896 394.02 366.912 394.292 366.944C394.58 366.96 394.828 366.992 395.036 367.04L394.772 368.984C394.564 368.936 394.332 368.896 394.076 368.864C393.836 368.832 393.604 368.816 393.38 368.816C392.724 368.816 392.108 369 391.532 369.368C390.956 369.72 390.492 370.224 390.14 370.88C389.804 371.52 389.636 372.272 389.636 373.136V380H387.524V367.136H389.252L389.492 369.488H389.588C390.004 368.784 390.54 368.176 391.196 367.664C391.852 367.152 392.628 366.896 393.524 366.896ZM412.049 376.448C412.049 377.696 411.585 378.64 410.657 379.28C409.729 379.92 408.481 380.24 406.913 380.24C406.017 380.24 405.241 380.168 404.585 380.024C403.945 379.88 403.377 379.68 402.881 379.424V377.504C403.393 377.76 404.009 378 404.729 378.224C405.465 378.432 406.209 378.536 406.961 378.536C408.033 378.536 408.809 378.368 409.289 378.032C409.769 377.68 410.009 377.216 410.009 376.64C410.009 376.32 409.921 376.032 409.745 375.776C409.569 375.52 409.249 375.264 408.785 375.008C408.337 374.752 407.689 374.464 406.841 374.144C406.009 373.824 405.297 373.504 404.705 373.184C404.113 372.864 403.657 372.48 403.337 372.032C403.017 371.584 402.857 371.008 402.857 370.304C402.857 369.216 403.297 368.376 404.177 367.784C405.073 367.192 406.241 366.896 407.681 366.896C408.465 366.896 409.193 366.976 409.865 367.136C410.553 367.28 411.193 367.488 411.785 367.76L411.065 369.44C410.521 369.216 409.953 369.024 409.361 368.864C408.769 368.704 408.161 368.624 407.537 368.624C406.673 368.624 406.009 368.768 405.545 369.056C405.097 369.328 404.873 369.704 404.873 370.184C404.873 370.536 404.977 370.84 405.185 371.096C405.393 371.336 405.737 371.576 406.217 371.816C406.713 372.04 407.369 372.312 408.185 372.632C409.001 372.936 409.697 373.248 410.273 373.568C410.849 373.888 411.289 374.28 411.593 374.744C411.897 375.192 412.049 375.76 412.049 376.448ZM419.453 378.512C419.773 378.512 420.101 378.488 420.437 378.44C420.773 378.376 421.045 378.312 421.253 378.248V379.856C421.029 379.968 420.709 380.056 420.293 380.12C419.877 380.2 419.477 380.24 419.093 380.24C418.421 380.24 417.797 380.128 417.221 379.904C416.661 379.664 416.205 379.256 415.853 378.68C415.501 378.104 415.325 377.296 415.325 376.256V368.768H413.501V367.76L415.349 366.92L416.189 364.184H417.437V367.136H421.157V368.768H417.437V376.208C417.437 376.992 417.621 377.576 417.989 377.96C418.373 378.328 418.861 378.512 419.453 378.512ZM434.581 367.136V380H432.853L432.541 378.296H432.445C432.029 378.968 431.453 379.464 430.717 379.784C429.981 380.088 429.197 380.24 428.365 380.24C426.813 380.24 425.645 379.872 424.861 379.136C424.077 378.384 423.685 377.192 423.685 375.56V367.136H425.821V375.416C425.821 377.464 426.773 378.488 428.677 378.488C430.101 378.488 431.085 378.088 431.629 377.288C432.189 376.488 432.469 375.336 432.469 373.832V367.136H434.581ZM443.225 380.24C441.625 380.24 440.345 379.688 439.385 378.584C438.425 377.464 437.945 375.8 437.945 373.592C437.945 371.384 438.425 369.72 439.385 368.6C440.361 367.464 441.649 366.896 443.249 366.896C444.241 366.896 445.049 367.08 445.673 367.448C446.313 367.816 446.833 368.264 447.233 368.792H447.377C447.361 368.584 447.329 368.28 447.281 367.88C447.249 367.464 447.233 367.136 447.233 366.896V361.76H449.345V380H447.641L447.329 378.272H447.233C446.849 378.816 446.337 379.28 445.697 379.664C445.057 380.048 444.233 380.24 443.225 380.24ZM443.561 378.488C444.921 378.488 445.873 378.12 446.417 377.384C446.977 376.632 447.257 375.504 447.257 374V373.616C447.257 372.016 446.993 370.792 446.465 369.944C445.937 369.08 444.961 368.648 443.537 368.648C442.401 368.648 441.545 369.104 440.969 370.016C440.409 370.912 440.129 372.12 440.129 373.64C440.129 375.176 440.409 376.368 440.969 377.216C441.545 378.064 442.409 378.488 443.561 378.488ZM458.399 366.896C459.503 366.896 460.447 367.136 461.231 367.616C462.031 368.096 462.639 368.776 463.055 369.656C463.487 370.52 463.703 371.536 463.703 372.704V373.976H454.895C454.927 375.432 455.295 376.544 455.999 377.312C456.719 378.064 457.719 378.44 458.999 378.44C459.815 378.44 460.535 378.368 461.159 378.224C461.799 378.064 462.455 377.84 463.127 377.552V379.4C462.471 379.688 461.823 379.896 461.183 380.024C460.543 380.168 459.783 380.24 458.903 380.24C457.687 380.24 456.607 379.992 455.663 379.496C454.735 379 454.007 378.264 453.479 377.288C452.967 376.296 452.711 375.088 452.711 373.664C452.711 372.256 452.943 371.048 453.407 370.04C453.887 369.032 454.551 368.256 455.399 367.712C456.263 367.168 457.263 366.896 458.399 366.896ZM458.375 368.624C457.367 368.624 456.567 368.952 455.975 369.608C455.399 370.248 455.055 371.144 454.943 372.296H461.495C461.479 371.208 461.223 370.328 460.727 369.656C460.231 368.968 459.447 368.624 458.375 368.624ZM473.17 366.896C474.706 366.896 475.866 367.272 476.65 368.024C477.434 368.76 477.826 369.96 477.826 371.624V380H475.738V371.768C475.738 369.704 474.778 368.672 472.858 368.672C471.434 368.672 470.45 369.072 469.906 369.872C469.362 370.672 469.09 371.824 469.09 373.328V380H466.978V367.136H468.682L468.994 368.888H469.114C469.53 368.216 470.106 367.72 470.842 367.4C471.578 367.064 472.354 366.896 473.17 366.896ZM486.109 378.512C486.429 378.512 486.757 378.488 487.093 378.44C487.429 378.376 487.701 378.312 487.909 378.248V379.856C487.685 379.968 487.365 380.056 486.949 380.12C486.533 380.2 486.133 380.24 485.749 380.24C485.077 380.24 484.453 380.128 483.877 379.904C483.317 379.664 482.861 379.256 482.509 378.68C482.157 378.104 481.981 377.296 481.981 376.256V368.768H480.157V367.76L482.005 366.92L482.845 364.184H484.093V367.136H487.813V368.768H484.093V376.208C484.093 376.992 484.277 377.576 484.645 377.96C485.029 378.328 485.517 378.512 486.109 378.512Z" fill="black"/>
<path d="M348.752 652H346.592V636.76H341.24V634.864H354.08V636.76H348.752V652ZM357.456 634.312C357.776 634.312 358.056 634.424 358.296 634.648C358.552 634.856 358.68 635.192 358.68 635.656C358.68 636.104 358.552 636.44 358.296 636.664C358.056 636.888 357.776 637 357.456 637C357.104 637 356.808 636.888 356.568 636.664C356.328 636.44 356.208 636.104 356.208 635.656C356.208 635.192 356.328 634.856 356.568 634.648C356.808 634.424 357.104 634.312 357.456 634.312ZM358.488 639.136V652H356.376V639.136H358.488ZM366.859 650.512C367.179 650.512 367.507 650.488 367.843 650.44C368.179 650.376 368.451 650.312 368.659 650.248V651.856C368.435 651.968 368.115 652.056 367.699 652.12C367.283 652.2 366.883 652.24 366.499 652.24C365.827 652.24 365.203 652.128 364.627 651.904C364.067 651.664 363.611 651.256 363.259 650.68C362.907 650.104 362.731 649.296 362.731 648.256V640.768H360.907V639.76L362.755 638.92L363.595 636.184H364.843V639.136H368.563V640.768H364.843V648.208C364.843 648.992 365.027 649.576 365.395 649.96C365.779 650.328 366.267 650.512 366.859 650.512ZM376.203 638.896C377.307 638.896 378.251 639.136 379.035 639.616C379.835 640.096 380.443 640.776 380.859 641.656C381.291 642.52 381.507 643.536 381.507 644.704V645.976H372.699C372.731 647.432 373.099 648.544 373.803 649.312C374.523 650.064 375.523 650.44 376.803 650.44C377.619 650.44 378.339 650.368 378.963 650.224C379.603 650.064 380.259 649.84 380.931 649.552V651.4C380.275 651.688 379.627 651.896 378.987 652.024C378.347 652.168 377.587 652.24 376.707 652.24C375.491 652.24 374.411 651.992 373.467 651.496C372.539 651 371.811 650.264 371.283 649.288C370.771 648.296 370.515 647.088 370.515 645.664C370.515 644.256 370.747 643.048 371.211 642.04C371.691 641.032 372.355 640.256 373.203 639.712C374.067 639.168 375.067 638.896 376.203 638.896ZM376.179 640.624C375.171 640.624 374.371 640.952 373.779 641.608C373.203 642.248 372.859 643.144 372.747 644.296H379.299C379.283 643.208 379.027 642.328 378.531 641.656C378.035 640.968 377.251 640.624 376.179 640.624ZM386.894 652H384.782V633.76H386.894V652ZM358.28 676.408C358.28 678.184 357.976 679.736 357.368 681.064C356.776 682.376 355.896 683.4 354.728 684.136C353.56 684.872 352.112 685.24 350.384 685.24C348.608 685.24 347.128 684.872 345.944 684.136C344.776 683.4 343.904 682.368 343.328 681.04C342.752 679.712 342.464 678.16 342.464 676.384C342.464 674.624 342.752 673.088 343.328 671.776C343.904 670.464 344.776 669.44 345.944 668.704C347.128 667.968 348.616 667.6 350.408 667.6C352.12 667.6 353.56 667.968 354.728 668.704C355.896 669.424 356.776 670.448 357.368 671.776C357.976 673.088 358.28 674.632 358.28 676.408ZM344.744 676.408C344.744 678.568 345.2 680.272 346.112 681.52C347.024 682.752 348.448 683.368 350.384 683.368C352.336 683.368 353.76 682.752 354.656 681.52C355.552 680.272 356 678.568 356 676.408C356 674.248 355.552 672.56 354.656 671.344C353.76 670.112 352.344 669.496 350.408 669.496C348.472 669.496 347.04 670.112 346.112 671.344C345.2 672.56 344.744 674.248 344.744 676.408ZM375.902 671.896C377.358 671.896 378.446 672.272 379.166 673.024C379.886 673.76 380.246 674.96 380.246 676.624V685H378.158V676.72C378.158 674.688 377.286 673.672 375.542 673.672C374.294 673.672 373.398 674.032 372.854 674.752C372.326 675.472 372.062 676.52 372.062 677.896V685H369.974V676.72C369.974 674.688 369.094 673.672 367.334 673.672C366.038 673.672 365.142 674.072 364.646 674.872C364.15 675.672 363.902 676.824 363.902 678.328V685H361.79V672.136H363.494L363.806 673.888H363.926C364.326 673.216 364.862 672.72 365.534 672.4C366.222 672.064 366.95 671.896 367.718 671.896C369.734 671.896 371.046 672.616 371.654 674.056H371.774C372.206 673.32 372.79 672.776 373.526 672.424C374.278 672.072 375.07 671.896 375.902 671.896ZM392.596 681.448C392.596 682.696 392.132 683.64 391.204 684.28C390.276 684.92 389.028 685.24 387.46 685.24C386.564 685.24 385.788 685.168 385.132 685.024C384.492 684.88 383.924 684.68 383.428 684.424V682.504C383.94 682.76 384.556 683 385.276 683.224C386.012 683.432 386.756 683.536 387.508 683.536C388.58 683.536 389.356 683.368 389.836 683.032C390.316 682.68 390.556 682.216 390.556 681.64C390.556 681.32 390.468 681.032 390.292 680.776C390.116 680.52 389.796 680.264 389.332 680.008C388.884 679.752 388.236 679.464 387.388 679.144C386.556 678.824 385.844 678.504 385.252 678.184C384.66 677.864 384.204 677.48 383.884 677.032C383.564 676.584 383.404 676.008 383.404 675.304C383.404 674.216 383.844 673.376 384.724 672.784C385.62 672.192 386.788 671.896 388.228 671.896C389.012 671.896 389.74 671.976 390.412 672.136C391.1 672.28 391.74 672.488 392.332 672.76L391.612 674.44C391.068 674.216 390.5 674.024 389.908 673.864C389.316 673.704 388.708 673.624 388.084 673.624C387.22 673.624 386.556 673.768 386.092 674.056C385.644 674.328 385.42 674.704 385.42 675.184C385.42 675.536 385.524 675.84 385.732 676.096C385.94 676.336 386.284 676.576 386.764 676.816C387.26 677.04 387.916 677.312 388.732 677.632C389.548 677.936 390.244 678.248 390.82 678.568C391.396 678.888 391.836 679.28 392.14 679.744C392.444 680.192 392.596 680.76 392.596 681.448ZM400.864 685.24C399.728 685.24 398.712 685.008 397.816 684.544C396.936 684.08 396.24 683.36 395.728 682.384C395.232 681.408 394.984 680.16 394.984 678.64C394.984 677.056 395.248 675.768 395.776 674.776C396.304 673.784 397.016 673.056 397.912 672.592C398.824 672.128 399.856 671.896 401.008 671.896C401.664 671.896 402.296 671.968 402.904 672.112C403.512 672.24 404.008 672.4 404.392 672.592L403.744 674.344C403.36 674.2 402.912 674.064 402.4 673.936C401.888 673.808 401.408 673.744 400.96 673.744C398.432 673.744 397.168 675.368 397.168 678.616C397.168 680.168 397.472 681.36 398.08 682.192C398.704 683.008 399.624 683.416 400.84 683.416C401.544 683.416 402.16 683.344 402.688 683.2C403.232 683.056 403.728 682.88 404.176 682.672V684.544C403.744 684.768 403.264 684.936 402.736 685.048C402.224 685.176 401.6 685.24 400.864 685.24ZM409.347 672.112C409.347 672.752 409.307 673.352 409.227 673.912H409.371C409.787 673.256 410.347 672.76 411.051 672.424C411.771 672.088 412.547 671.92 413.379 671.92C414.947 671.92 416.123 672.296 416.907 673.048C417.691 673.784 418.083 674.976 418.083 676.624V685H415.995V676.768C415.995 674.704 415.035 673.672 413.115 673.672C411.675 673.672 410.683 674.08 410.139 674.896C409.611 675.696 409.347 676.848 409.347 678.352V685H407.235V666.76H409.347V672.112ZM428.071 671.896C428.311 671.896 428.567 671.912 428.839 671.944C429.127 671.96 429.375 671.992 429.583 672.04L429.319 673.984C429.111 673.936 428.879 673.896 428.623 673.864C428.383 673.832 428.151 673.816 427.927 673.816C427.271 673.816 426.655 674 426.079 674.368C425.503 674.72 425.039 675.224 424.687 675.88C424.351 676.52 424.183 677.272 424.183 678.136V685H422.071V672.136H423.799L424.039 674.488H424.135C424.551 673.784 425.087 673.176 425.743 672.664C426.399 672.152 427.175 671.896 428.071 671.896ZM433.065 667.312C433.385 667.312 433.665 667.424 433.905 667.648C434.161 667.856 434.289 668.192 434.289 668.656C434.289 669.104 434.161 669.44 433.905 669.664C433.665 669.888 433.385 670 433.065 670C432.713 670 432.417 669.888 432.177 669.664C431.937 669.44 431.817 669.104 431.817 668.656C431.817 668.192 431.937 667.856 432.177 667.648C432.417 667.424 432.713 667.312 433.065 667.312ZM434.097 672.136V685H431.985V672.136H434.097ZM438.005 668.656C438.005 668.192 438.125 667.856 438.365 667.648C438.605 667.424 438.901 667.312 439.253 667.312C439.573 667.312 439.853 667.424 440.093 667.648C440.349 667.856 440.477 668.192 440.477 668.656C440.477 669.104 440.349 669.44 440.093 669.664C439.853 669.888 439.573 670 439.253 670C438.901 670 438.605 669.888 438.365 669.664C438.125 669.44 438.005 669.104 438.005 668.656ZM436.661 690.76C436.261 690.76 435.909 690.728 435.605 690.664C435.301 690.616 435.037 690.552 434.813 690.472V688.768C435.053 688.832 435.301 688.888 435.557 688.936C435.813 688.984 436.093 689.008 436.397 689.008C436.909 689.008 437.333 688.864 437.669 688.576C438.005 688.304 438.173 687.776 438.173 686.992V672.136H440.285V686.92C440.285 688.12 439.997 689.056 439.421 689.728C438.845 690.416 437.925 690.76 436.661 690.76ZM447.192 685L442.32 672.136H444.576L447.312 679.72C447.44 680.072 447.576 680.464 447.72 680.896C447.864 681.328 447.992 681.744 448.104 682.144C448.216 682.528 448.296 682.856 448.344 683.128H448.44C448.504 682.856 448.592 682.52 448.704 682.12C448.832 681.72 448.968 681.304 449.112 680.872C449.272 680.44 449.408 680.056 449.52 679.72L452.256 672.136H454.512L449.616 685H447.192ZM457.628 667.312C457.948 667.312 458.228 667.424 458.468 667.648C458.724 667.856 458.852 668.192 458.852 668.656C458.852 669.104 458.724 669.44 458.468 669.664C458.228 669.888 457.948 670 457.628 670C457.276 670 456.98 669.888 456.74 669.664C456.5 669.44 456.38 669.104 456.38 668.656C456.38 668.192 456.5 667.856 456.74 667.648C456.98 667.424 457.276 667.312 457.628 667.312ZM458.66 672.136V685H456.548V672.136H458.66ZM468.927 671.896C470.463 671.896 471.623 672.272 472.407 673.024C473.191 673.76 473.583 674.96 473.583 676.624V685H471.495V676.768C471.495 674.704 470.535 673.672 468.615 673.672C467.191 673.672 466.207 674.072 465.663 674.872C465.119 675.672 464.847 676.824 464.847 678.328V685H462.735V672.136H464.439L464.751 673.888H464.871C465.287 673.216 465.863 672.72 466.599 672.4C467.335 672.064 468.111 671.896 468.927 671.896ZM482.131 671.896C482.979 671.896 483.739 672.056 484.411 672.376C485.099 672.696 485.683 673.184 486.163 673.84H486.283L486.571 672.136H488.251V685.216C488.251 687.056 487.779 688.44 486.835 689.368C485.907 690.296 484.459 690.76 482.491 690.76C480.603 690.76 479.059 690.488 477.859 689.944V688C479.123 688.672 480.707 689.008 482.611 689.008C483.715 689.008 484.579 688.68 485.203 688.024C485.843 687.384 486.163 686.504 486.163 685.384V684.88C486.163 684.688 486.171 684.416 486.187 684.064C486.203 683.696 486.219 683.44 486.235 683.296H486.139C485.275 684.592 483.947 685.24 482.155 685.24C480.491 685.24 479.187 684.656 478.243 683.488C477.315 682.32 476.851 680.688 476.851 678.592C476.851 676.544 477.315 674.92 478.243 673.72C479.187 672.504 480.483 671.896 482.131 671.896ZM482.419 673.672C481.347 673.672 480.515 674.104 479.923 674.968C479.331 675.816 479.035 677.032 479.035 678.616C479.035 680.2 479.323 681.416 479.899 682.264C480.491 683.096 481.347 683.512 482.467 683.512C483.763 683.512 484.707 683.168 485.299 682.48C485.891 681.776 486.187 680.648 486.187 679.096V678.592C486.187 676.832 485.883 675.576 485.275 674.824C484.667 674.056 483.715 673.672 482.419 673.672Z" fill="black"/>
<rect x="321.5" y="791.5" width="749" height="154" fill="white" stroke="black"/>
<path d="M348.752 830H346.592V814.76H341.24V812.864H354.08V814.76H348.752V830ZM357.456 812.312C357.776 812.312 358.056 812.424 358.296 812.648C358.552 812.856 358.68 813.192 358.68 813.656C358.68 814.104 358.552 814.44 358.296 814.664C358.056 814.888 357.776 815 357.456 815C357.104 815 356.808 814.888 356.568 814.664C356.328 814.44 356.208 814.104 356.208 813.656C356.208 813.192 356.328 812.856 356.568 812.648C356.808 812.424 357.104 812.312 357.456 812.312ZM358.488 817.136V830H356.376V817.136H358.488ZM366.859 828.512C367.179 828.512 367.507 828.488 367.843 828.44C368.179 828.376 368.451 828.312 368.659 828.248V829.856C368.435 829.968 368.115 830.056 367.699 830.12C367.283 830.2 366.883 830.24 366.499 830.24C365.827 830.24 365.203 830.128 364.627 829.904C364.067 829.664 363.611 829.256 363.259 828.68C362.907 828.104 362.731 827.296 362.731 826.256V818.768H360.907V817.76L362.755 816.92L363.595 814.184H364.843V817.136H368.563V818.768H364.843V826.208C364.843 826.992 365.027 827.576 365.395 827.96C365.779 828.328 366.267 828.512 366.859 828.512ZM376.203 816.896C377.307 816.896 378.251 817.136 379.035 817.616C379.835 818.096 380.443 818.776 380.859 819.656C381.291 820.52 381.507 821.536 381.507 822.704V823.976H372.699C372.731 825.432 373.099 826.544 373.803 827.312C374.523 828.064 375.523 828.44 376.803 828.44C377.619 828.44 378.339 828.368 378.963 828.224C379.603 828.064 380.259 827.84 380.931 827.552V829.4C380.275 829.688 379.627 829.896 378.987 830.024C378.347 830.168 377.587 830.24 376.707 830.24C375.491 830.24 374.411 829.992 373.467 829.496C372.539 829 371.811 828.264 371.283 827.288C370.771 826.296 370.515 825.088 370.515 823.664C370.515 822.256 370.747 821.048 371.211 820.04C371.691 819.032 372.355 818.256 373.203 817.712C374.067 817.168 375.067 816.896 376.203 816.896ZM376.179 818.624C375.171 818.624 374.371 818.952 373.779 819.608C373.203 820.248 372.859 821.144 372.747 822.296H379.299C379.283 821.208 379.027 820.328 378.531 819.656C378.035 818.968 377.251 818.624 376.179 818.624ZM386.894 830H384.782V811.76H386.894V830ZM358.28 854.408C358.28 856.184 357.976 857.736 357.368 859.064C356.776 860.376 355.896 861.4 354.728 862.136C353.56 862.872 352.112 863.24 350.384 863.24C348.608 863.24 347.128 862.872 345.944 862.136C344.776 861.4 343.904 860.368 343.328 859.04C342.752 857.712 342.464 856.16 342.464 854.384C342.464 852.624 342.752 851.088 343.328 849.776C343.904 848.464 344.776 847.44 345.944 846.704C347.128 845.968 348.616 845.6 350.408 845.6C352.12 845.6 353.56 845.968 354.728 846.704C355.896 847.424 356.776 848.448 357.368 849.776C357.976 851.088 358.28 852.632 358.28 854.408ZM344.744 854.408C344.744 856.568 345.2 858.272 346.112 859.52C347.024 860.752 348.448 861.368 350.384 861.368C352.336 861.368 353.76 860.752 354.656 859.52C355.552 858.272 356 856.568 356 854.408C356 852.248 355.552 850.56 354.656 849.344C353.76 848.112 352.344 847.496 350.408 847.496C348.472 847.496 347.04 848.112 346.112 849.344C345.2 850.56 344.744 852.248 344.744 854.408ZM375.902 849.896C377.358 849.896 378.446 850.272 379.166 851.024C379.886 851.76 380.246 852.96 380.246 854.624V863H378.158V854.72C378.158 852.688 377.286 851.672 375.542 851.672C374.294 851.672 373.398 852.032 372.854 852.752C372.326 853.472 372.062 854.52 372.062 855.896V863H369.974V854.72C369.974 852.688 369.094 851.672 367.334 851.672C366.038 851.672 365.142 852.072 364.646 852.872C364.15 853.672 363.902 854.824 363.902 856.328V863H361.79V850.136H363.494L363.806 851.888H363.926C364.326 851.216 364.862 850.72 365.534 850.4C366.222 850.064 366.95 849.896 367.718 849.896C369.734 849.896 371.046 850.616 371.654 852.056H371.774C372.206 851.32 372.79 850.776 373.526 850.424C374.278 850.072 375.07 849.896 375.902 849.896ZM392.596 859.448C392.596 860.696 392.132 861.64 391.204 862.28C390.276 862.92 389.028 863.24 387.46 863.24C386.564 863.24 385.788 863.168 385.132 863.024C384.492 862.88 383.924 862.68 383.428 862.424V860.504C383.94 860.76 384.556 861 385.276 861.224C386.012 861.432 386.756 861.536 387.508 861.536C388.58 861.536 389.356 861.368 389.836 861.032C390.316 860.68 390.556 860.216 390.556 859.64C390.556 859.32 390.468 859.032 390.292 858.776C390.116 858.52 389.796 858.264 389.332 858.008C388.884 857.752 388.236 857.464 387.388 857.144C386.556 856.824 385.844 856.504 385.252 856.184C384.66 855.864 384.204 855.48 383.884 855.032C383.564 854.584 383.404 854.008 383.404 853.304C383.404 852.216 383.844 851.376 384.724 850.784C385.62 850.192 386.788 849.896 388.228 849.896C389.012 849.896 389.74 849.976 390.412 850.136C391.1 850.28 391.74 850.488 392.332 850.76L391.612 852.44C391.068 852.216 390.5 852.024 389.908 851.864C389.316 851.704 388.708 851.624 388.084 851.624C387.22 851.624 386.556 851.768 386.092 852.056C385.644 852.328 385.42 852.704 385.42 853.184C385.42 853.536 385.524 853.84 385.732 854.096C385.94 854.336 386.284 854.576 386.764 854.816C387.26 855.04 387.916 855.312 388.732 855.632C389.548 855.936 390.244 856.248 390.82 856.568C391.396 856.888 391.836 857.28 392.14 857.744C392.444 858.192 392.596 858.76 392.596 859.448ZM400.864 863.24C399.728 863.24 398.712 863.008 397.816 862.544C396.936 862.08 396.24 861.36 395.728 860.384C395.232 859.408 394.984 858.16 394.984 856.64C394.984 855.056 395.248 853.768 395.776 852.776C396.304 851.784 397.016 851.056 397.912 850.592C398.824 850.128 399.856 849.896 401.008 849.896C401.664 849.896 402.296 849.968 402.904 850.112C403.512 850.24 404.008 850.4 404.392 850.592L403.744 852.344C403.36 852.2 402.912 852.064 402.4 851.936C401.888 851.808 401.408 851.744 400.96 851.744C398.432 851.744 397.168 853.368 397.168 856.616C397.168 858.168 397.472 859.36 398.08 860.192C398.704 861.008 399.624 861.416 400.84 861.416C401.544 861.416 402.16 861.344 402.688 861.2C403.232 861.056 403.728 860.88 404.176 860.672V862.544C403.744 862.768 403.264 862.936 402.736 863.048C402.224 863.176 401.6 863.24 400.864 863.24ZM409.347 850.112C409.347 850.752 409.307 851.352 409.227 851.912H409.371C409.787 851.256 410.347 850.76 411.051 850.424C411.771 850.088 412.547 849.92 413.379 849.92C414.947 849.92 416.123 850.296 416.907 851.048C417.691 851.784 418.083 852.976 418.083 854.624V863H415.995V854.768C415.995 852.704 415.035 851.672 413.115 851.672C411.675 851.672 410.683 852.08 410.139 852.896C409.611 853.696 409.347 854.848 409.347 856.352V863H407.235V844.76H409.347V850.112ZM428.071 849.896C428.311 849.896 428.567 849.912 428.839 849.944C429.127 849.96 429.375 849.992 429.583 850.04L429.319 851.984C429.111 851.936 428.879 851.896 428.623 851.864C428.383 851.832 428.151 851.816 427.927 851.816C427.271 851.816 426.655 852 426.079 852.368C425.503 852.72 425.039 853.224 424.687 853.88C424.351 854.52 424.183 855.272 424.183 856.136V863H422.071V850.136H423.799L424.039 852.488H424.135C424.551 851.784 425.087 851.176 425.743 850.664C426.399 850.152 427.175 849.896 428.071 849.896ZM433.065 845.312C433.385 845.312 433.665 845.424 433.905 845.648C434.161 845.856 434.289 846.192 434.289 846.656C434.289 847.104 434.161 847.44 433.905 847.664C433.665 847.888 433.385 848 433.065 848C432.713 848 432.417 847.888 432.177 847.664C431.937 847.44 431.817 847.104 431.817 846.656C431.817 846.192 431.937 845.856 432.177 845.648C432.417 845.424 432.713 845.312 433.065 845.312ZM434.097 850.136V863H431.985V850.136H434.097ZM438.005 846.656C438.005 846.192 438.125 845.856 438.365 845.648C438.605 845.424 438.901 845.312 439.253 845.312C439.573 845.312 439.853 845.424 440.093 845.648C440.349 845.856 440.477 846.192 440.477 846.656C440.477 847.104 440.349 847.44 440.093 847.664C439.853 847.888 439.573 848 439.253 848C438.901 848 438.605 847.888 438.365 847.664C438.125 847.44 438.005 847.104 438.005 846.656ZM436.661 868.76C436.261 868.76 435.909 868.728 435.605 868.664C435.301 868.616 435.037 868.552 434.813 868.472V866.768C435.053 866.832 435.301 866.888 435.557 866.936C435.813 866.984 436.093 867.008 436.397 867.008C436.909 867.008 437.333 866.864 437.669 866.576C438.005 866.304 438.173 865.776 438.173 864.992V850.136H440.285V864.92C440.285 866.12 439.997 867.056 439.421 867.728C438.845 868.416 437.925 868.76 436.661 868.76ZM447.192 863L442.32 850.136H444.576L447.312 857.72C447.44 858.072 447.576 858.464 447.72 858.896C447.864 859.328 447.992 859.744 448.104 860.144C448.216 860.528 448.296 860.856 448.344 861.128H448.44C448.504 860.856 448.592 860.52 448.704 860.12C448.832 859.72 448.968 859.304 449.112 858.872C449.272 858.44 449.408 858.056 449.52 857.72L452.256 850.136H454.512L449.616 863H447.192ZM457.628 845.312C457.948 845.312 458.228 845.424 458.468 845.648C458.724 845.856 458.852 846.192 458.852 846.656C458.852 847.104 458.724 847.44 458.468 847.664C458.228 847.888 457.948 848 457.628 848C457.276 848 456.98 847.888 456.74 847.664C456.5 847.44 456.38 847.104 456.38 846.656C456.38 846.192 456.5 845.856 456.74 845.648C456.98 845.424 457.276 845.312 457.628 845.312ZM458.66 850.136V863H456.548V850.136H458.66ZM468.927 849.896C470.463 849.896 471.623 850.272 472.407 851.024C473.191 851.76 473.583 852.96 473.583 854.624V863H471.495V854.768C471.495 852.704 470.535 851.672 468.615 851.672C467.191 851.672 466.207 852.072 465.663 852.872C465.119 853.672 464.847 854.824 464.847 856.328V863H462.735V850.136H464.439L464.751 851.888H464.871C465.287 851.216 465.863 850.72 466.599 850.4C467.335 850.064 468.111 849.896 468.927 849.896ZM482.131 849.896C482.979 849.896 483.739 850.056 484.411 850.376C485.099 850.696 485.683 851.184 486.163 851.84H486.283L486.571 850.136H488.251V863.216C488.251 865.056 487.779 866.44 486.835 867.368C485.907 868.296 484.459 868.76 482.491 868.76C480.603 868.76 479.059 868.488 477.859 867.944V866C479.123 866.672 480.707 867.008 482.611 867.008C483.715 867.008 484.579 866.68 485.203 866.024C485.843 865.384 486.163 864.504 486.163 863.384V862.88C486.163 862.688 486.171 862.416 486.187 862.064C486.203 861.696 486.219 861.44 486.235 861.296H486.139C485.275 862.592 483.947 863.24 482.155 863.24C480.491 863.24 479.187 862.656 478.243 861.488C477.315 860.32 476.851 858.688 476.851 856.592C476.851 854.544 477.315 852.92 478.243 851.72C479.187 850.504 480.483 849.896 482.131 849.896ZM482.419 851.672C481.347 851.672 480.515 852.104 479.923 852.968C479.331 853.816 479.035 855.032 479.035 856.616C479.035 858.2 479.323 859.416 479.899 860.264C480.491 861.096 481.347 861.512 482.467 861.512C483.763 861.512 484.707 861.168 485.299 860.48C485.891 859.776 486.187 858.648 486.187 857.096V856.592C486.187 854.832 485.883 853.576 485.275 852.824C484.667 852.056 483.715 851.672 482.419 851.672Z" fill="black"/>
</g>
<defs>
<clipPath id="clip0">
<rect width="1440" height="900" fill="white"/>
</clipPath>
</defs>
</svg>

